<svg xmlns="http://www.w3.org/2000/svg" width="197.608" height="146.598" viewBox="0 0 197.608 146.598">
  <g id="Grupo_2979" data-name="Grupo 2979" transform="translate(-888.28 -2238.1)">
    <path id="Trazado_13739" data-name="Trazado 13739" d="M888.353,2290.324l98.767,57.024,98.768-57.024c-25.277-14.593-60.2-23.62-98.768-23.62S913.63,2275.731,888.353,2290.324Z" fill="#83746c" fill-rule="evenodd"/>
    <path id="Trazado_13740" data-name="Trazado 13740" d="M897.193,2295.428l.005,0,2.754,1.59,46.492-26.842q-5.781,1.014-11.341,2.3L896.277,2294.9l.916.528Zm7.925,4.576-.916-.529,53.695-31q4.425-.545,8.951-.925L907.876,2301.6l-2.754-1.59,0,0Zm7.008,4.046,64.279-37.112q3.832-.167,7.72-.214L915.8,2306.171l-1.713-.988-.027-.016-.32-.185-.079-.045-.263-.152-.136-.079-.184-.106-.215-.124-.132-.077-.267-.153-.137-.079-.143-.083-.041-.024-.018-.01Zm7.925,4.575,72.5-41.861q3.48.078,6.914.252l-75.744,43.731-1.712-.989-.028-.016-.32-.185-.079-.045-.262-.152-.137-.079-.183-.106-.216-.124-.132-.076-.267-.154-.136-.079-.144-.083-.034-.02-.024-.014Zm7.924,4.575,79.114-45.676q3.174.263,6.3.6l-81.74,47.192-1.713-.988-.028-.016-.319-.184-.079-.046-.262-.151-.137-.08-.184-.106-.215-.124-.132-.076-.267-.154-.137-.079-.143-.083-.029-.016-.03-.018Zm7.925,4.575L1020.374,2269q2.923.413,5.8.9l-86.6,50-1.713-.989-.027-.016-.32-.184-.079-.046-.262-.151-.137-.079-.183-.106-.216-.125-.131-.076-.268-.154-.136-.079-.144-.083-.022-.012-.036-.022Zm7.924,4.576,88.8-51.269q2.712.538,5.374,1.14l-90.5,52.25-1.713-.988-.028-.017-.319-.184-.08-.046-.261-.151-.138-.079-.183-.106-.216-.125-.131-.075-.268-.155-.135-.078-.145-.084-.016-.009-.042-.024Zm7.924,4.575.049.028.009,0,.145.084.135.078.269.155.13.076.217.124.182.106.139.08.261.15.08.046.318.184.029.017,1.712.988,93.565-54.02q-2.472-.707-5-1.357l-92.241,53.256Zm7.925,4.575,1.647.951.049.028.3.173.1.058.158.091.241.139.106.061.234.135.057.033.784.452,95.877-55.355q-2.3-.8-4.658-1.554L959.673,2331.5Zm7.924,4.575,1.648.952.048.028.3.172.1.058.159.091.241.139.106.062.233.135.058.032.783.453,97.493-56.288q-2.139-.892-4.34-1.738l-96.828,55.9Zm7.924,4.576,1.649.951.048.027.3.173.1.058.158.091.241.139.106.062.233.134.058.033.783.453,98.45-56.84q-1.987-.978-4.037-1.913l-98.088,56.632Zm7.925,4.574,3.674,2.122,98.768-57.024q-.589-.341-1.187-.677l0,0-.022-.013q-.582-.327-1.168-.651l-.016-.008-.007,0q-.6-.331-1.213-.66l-.006,0-.12-.063-98.7,56.983ZM918.778,2277l-26.751,15.445-3.674-2.122A159.358,159.358,0,0,1,918.778,2277Z" fill="#6f625b" fill-rule="evenodd"/>
    <path id="Trazado_13741" data-name="Trazado 13741" d="M963.706,2267.846l-57.143,32.992v-15.686l57.143-32.991Z" fill="#d6b36a" fill-rule="evenodd"/>
    <g id="Grupo_2976" data-name="Grupo 2976">
      <path id="Trazado_13742" data-name="Trazado 13742" d="M1035.475,2253.764l.006,3.377,2.822-1.629v-3.366Z" fill="#c40e10" fill-rule="evenodd"/>
      <path id="Trazado_13743" data-name="Trazado 13743" d="M934.912,2279.764l7.294-4.211-1.444,8.93,4.528-10.71,1.509-3.57-11.853,6.844Z" fill="#d24c2f" fill-rule="evenodd"/>
      <path id="Trazado_13744" data-name="Trazado 13744" d="M940.761,2284.483l52.518,30.321,4.529-10.71-52.519-30.321Z" fill="#eb6e53" fill-rule="evenodd"/>
      <path id="Trazado_13745" data-name="Trazado 13745" d="M938.938,2284.076a.245.245,0,1,1,.244-.426l52.519,30.322a.246.246,0,1,1-.245.426Z" fill="#e53131" fill-rule="evenodd"/>
      <g id="Grupo_2974" data-name="Grupo 2974">
        <path id="Trazado_13746" data-name="Trazado 13746" d="M971.737,2265.514c.076.039.15.082.222.128a2.427,2.427,0,0,1,.218.126c.075.039.148.081.22.127s.148.081.219.126.147.08.218.127a2.476,2.476,0,0,1,.221.127c.074.038.147.08.218.126a2.176,2.176,0,0,1,.219.127,2.043,2.043,0,0,1,.22.127,2.434,2.434,0,0,1,.219.126,2.243,2.243,0,0,1,.22.127,2.425,2.425,0,0,1,.219.126c.074.038.147.081.218.126a2.4,2.4,0,0,1,.22.128,2.468,2.468,0,0,1,.22.126,2.434,2.434,0,0,1,.218.126c.075.039.149.081.22.127a2.425,2.425,0,0,1,.219.126,2.47,2.47,0,0,1,.22.128,2.362,2.362,0,0,1,.218.126,2.543,2.543,0,0,1,.419.269,4.916,4.916,0,0,1,1.46,3.964,12.721,12.721,0,0,1-1.46,5.648,9.8,9.8,0,0,1-3.517,4.02,3.087,3.087,0,0,1-3.323.184,2.315,2.315,0,0,1-.218-.126,552.861,552.861,0,0,1-.439-.253,2.451,2.451,0,0,1-.219-.126c-.075-.039-.148-.081-.219-.127a2.425,2.425,0,0,1-.219-.126c-.074-.039-.147-.081-.219-.127a2.46,2.46,0,0,1-.22-.127,2.386,2.386,0,0,1-.219-.126c-.075-.039-.149-.081-.221-.127s-.147-.081-.217-.126-.149-.081-.221-.127-.147-.081-.218-.126-.148-.081-.219-.127-.148-.081-.22-.127a2.306,2.306,0,0,1-.218-.126c-.075-.039-.149-.081-.221-.127a2.5,2.5,0,0,1-.218-.126c-.075-.039-.148-.081-.22-.127s-.146-.08-.217-.125a2.53,2.53,0,0,1-.419-.27,4.917,4.917,0,0,1-1.456-3.965,12.715,12.715,0,0,1,1.456-5.647,9.824,9.824,0,0,1,3.52-4.025A3.087,3.087,0,0,1,971.737,2265.514Z" fill="#575756" fill-rule="evenodd"/>
        <path id="Trazado_13747" data-name="Trazado 13747" d="M973.025,2268.354a3.011,3.011,0,0,1,3.517-.038,4.916,4.916,0,0,1,1.46,3.964,12.721,12.721,0,0,1-1.46,5.648,9.8,9.8,0,0,1-3.517,4.02,3.014,3.014,0,0,1-3.52.043,4.917,4.917,0,0,1-1.456-3.965,12.715,12.715,0,0,1,1.456-5.647A9.832,9.832,0,0,1,973.025,2268.354Z" fill="#3c3c3b" fill-rule="evenodd"/>
        <path id="Trazado_13748" data-name="Trazado 13748" d="M973.025,2271.626a1.563,1.563,0,0,1,1.825-.019,2.552,2.552,0,0,1,.756,2.056,6.6,6.6,0,0,1-.756,2.929,5.1,5.1,0,0,1-1.825,2.086,1.565,1.565,0,0,1-1.826.022,2.554,2.554,0,0,1-.755-2.057,6.606,6.606,0,0,1,.755-2.929A5.1,5.1,0,0,1,973.025,2271.626Z" fill="#ececec" fill-rule="evenodd"/>
        <path id="Trazado_13749" data-name="Trazado 13749" d="M973.025,2271.788a1.49,1.49,0,0,1,1.741-.019,2.435,2.435,0,0,1,.722,1.962,6.3,6.3,0,0,1-.722,2.795,4.863,4.863,0,0,1-1.741,1.99,1.492,1.492,0,0,1-1.742.022,2.439,2.439,0,0,1-.721-1.963,6.3,6.3,0,0,1,.721-2.795A4.849,4.849,0,0,1,973.025,2271.788Z" fill="#c6c6c5" fill-rule="evenodd"/>
        <path id="Trazado_13750" data-name="Trazado 13750" d="M972.812,2271.761a1.026,1.026,0,0,1,.81.2,1.957,1.957,0,0,1,.581,1.578,5.08,5.08,0,0,1-.581,2.251,3.914,3.914,0,0,1-1.4,1.6,1.2,1.2,0,0,1-1.4.017,1.312,1.312,0,0,1-.365-.475q-.009-.142-.009-.294a6.606,6.606,0,0,1,.755-2.929A5.355,5.355,0,0,1,972.812,2271.761Z" fill="#9c9b9b" fill-rule="evenodd"/>
        <path id="Trazado_13751" data-name="Trazado 13751" d="M972.22,2272.778a.845.845,0,0,1,.989-.01,1.382,1.382,0,0,1,.409,1.113,3.585,3.585,0,0,1-.409,1.587,2.757,2.757,0,0,1-.989,1.129.845.845,0,0,1-.988.012,1.38,1.38,0,0,1-.409-1.114,3.568,3.568,0,0,1,.409-1.586A2.762,2.762,0,0,1,972.22,2272.778Z" fill="#6f6f6e" fill-rule="evenodd"/>
      </g>
      <g id="Grupo_2975" data-name="Grupo 2975">
        <path id="Trazado_13752" data-name="Trazado 13752" d="M1005.163,2261.265l-38.65,22.314v-25.831l15.972-9.221,3.152,1.033,19.526-11.273Z" fill="#c6c6c5" stroke="#1d1d1b" stroke-miterlimit="22.926" stroke-width="0.216" fill-rule="evenodd"/>
        <path id="Trazado_13753" data-name="Trazado 13753" d="M1018.02,2268.688,979.37,2291v-25.831l15.971-9.222,3.152,1.033,19.526-11.273Z" fill="#c6c6c5" fill-rule="evenodd"/>
        <path id="Trazado_13754" data-name="Trazado 13754" d="M966.513,2257.749l12.857,7.423,15.971-9.222-12.857-7.422Z" fill="#d9d9d9" fill-rule="evenodd"/>
        <path id="Trazado_13755" data-name="Trazado 13755" d="M985.061,2290.588l34.365-19.841V2258.23L991.414,2274.4a6.673,6.673,0,0,0-3.23,4.237Z" fill="#e53131" fill-rule="evenodd"/>
        <path id="Trazado_13756" data-name="Trazado 13756" d="M993.328,2285.815c1.386-3.467,2.066-9.119,6.118-11.458l19.98-11.535v-1l-20.849,12.037a6.674,6.674,0,0,0-3.23,4.237Z" fill="#c40e10" fill-rule="evenodd"/>
        <path id="Trazado_13757" data-name="Trazado 13757" d="M988.184,2278.64a6.673,6.673,0,0,1,3.23-4.237l28.012-16.173-1.276-.736-28.013,16.173a6.676,6.676,0,0,0-3.23,4.236l-3.122,11.948,1.276.737Z" fill="#ed7373" fill-rule="evenodd"/>
        <path id="Trazado_13758" data-name="Trazado 13758" d="M966.513,2283.579,979.37,2291v-25.831l-12.857-7.423Z" fill="#b1b1b1" fill-rule="evenodd"/>
        <path id="Trazado_13759" data-name="Trazado 13759" d="M966.513,2257.749l12.857,7.423v17.765l-12.857-7.423Z" fill="#6f6f6e" fill-rule="evenodd"/>
        <path id="Trazado_13760" data-name="Trazado 13760" d="M990.822,2260l-11.452,6.612v16.327l11.452-12.444Z" fill="#575756" fill-rule="evenodd"/>
        <path id="Trazado_13761" data-name="Trazado 13761" d="M966.513,2257.749l12.857,7.423v1.438l-12.857-7.423Z" fill="#c6c6c5" fill-rule="evenodd"/>
        <path id="Trazado_13762" data-name="Trazado 13762" d="M989.191,2247.508l12.856,7.423,15.972-9.221-12.857-7.423Z" fill="#6f6f6e" fill-rule="evenodd"/>
        <path id="Trazado_13763" data-name="Trazado 13763" d="M989.191,2247.508l12.856,7.423-3.554,2.052-12.857-7.423Z" fill="#b1b1b1" fill-rule="evenodd"/>
        <path id="Trazado_13764" data-name="Trazado 13764" d="M982.485,2248.527l12.857,7.422,3.152,1.033-12.857-7.423Z" fill="#6f6f6e" fill-rule="evenodd"/>
        <path id="Trazado_13765" data-name="Trazado 13765" d="M996.263,2279.674a2.505,2.505,0,0,1,.221.128c.074.038.147.08.218.126a2.459,2.459,0,0,1,.22.127,2.425,2.425,0,0,1,.219.126,2.242,2.242,0,0,1,.218.127,2.163,2.163,0,0,1,.221.127q.111.057.219.126t.219.126c.075.039.148.081.22.128a2.425,2.425,0,0,1,.219.126,2.389,2.389,0,0,1,.219.127,2.329,2.329,0,0,1,.219.126,2.46,2.46,0,0,1,.219.126c.075.039.148.081.22.127a2.221,2.221,0,0,1,.219.127c.074.038.148.08.219.126a78.467,78.467,0,0,0,.438.253,52.418,52.418,0,0,0,.439.253,2.6,2.6,0,0,1,.419.27,4.914,4.914,0,0,1,1.459,3.963,12.719,12.719,0,0,1-1.459,5.649,9.811,9.811,0,0,1-3.517,4.02,3.091,3.091,0,0,1-3.323.184,2.434,2.434,0,0,1-.219-.126,2.289,2.289,0,0,1-.218-.126c-.076-.039-.149-.081-.221-.127a2.5,2.5,0,0,1-.218-.127,2.458,2.458,0,0,1-.22-.126c-.074-.039-.147-.081-.218-.127a2.368,2.368,0,0,1-.219-.126,2.476,2.476,0,0,1-.221-.127q-.111-.059-.219-.126c-.075-.039-.149-.082-.22-.128a2.3,2.3,0,0,1-.218-.126,2.347,2.347,0,0,1-.22-.127,2.3,2.3,0,0,1-.218-.126,2.363,2.363,0,0,1-.22-.127,2.425,2.425,0,0,1-.219-.126c-.075-.038-.148-.081-.219-.126s-.148-.081-.22-.128-.147-.08-.218-.125a2.489,2.489,0,0,1-.22-.128,2.159,2.159,0,0,1-.217-.125,2.594,2.594,0,0,1-.42-.269,4.922,4.922,0,0,1-1.456-3.966,12.731,12.731,0,0,1,1.456-5.647,9.832,9.832,0,0,1,3.52-4.025A3.088,3.088,0,0,1,996.263,2279.674Z" fill="#575756" fill-rule="evenodd"/>
        <path id="Trazado_13766" data-name="Trazado 13766" d="M997.551,2282.514a3.01,3.01,0,0,1,3.517-.038,4.914,4.914,0,0,1,1.459,3.963,12.719,12.719,0,0,1-1.459,5.649,9.811,9.811,0,0,1-3.517,4.02,3.013,3.013,0,0,1-3.52.043,4.918,4.918,0,0,1-1.456-3.966,12.711,12.711,0,0,1,1.456-5.646A9.812,9.812,0,0,1,997.551,2282.514Z" fill="#3c3c3b" fill-rule="evenodd"/>
        <path id="Trazado_13767" data-name="Trazado 13767" d="M997.551,2285.786a1.561,1.561,0,0,1,1.824-.02,2.553,2.553,0,0,1,.757,2.056,6.61,6.61,0,0,1-.757,2.93,5.092,5.092,0,0,1-1.824,2.085,1.564,1.564,0,0,1-1.826.023,2.555,2.555,0,0,1-.755-2.058,6.594,6.594,0,0,1,.755-2.929A5.1,5.1,0,0,1,997.551,2285.786Z" fill="#ececec" fill-rule="evenodd"/>
        <path id="Trazado_13768" data-name="Trazado 13768" d="M997.551,2285.948a1.49,1.49,0,0,1,1.741-.019,2.433,2.433,0,0,1,.721,1.961,6.3,6.3,0,0,1-.721,2.8,4.87,4.87,0,0,1-1.741,1.99,1.5,1.5,0,0,1-1.743.021,2.437,2.437,0,0,1-.72-1.963,6.3,6.3,0,0,1,.72-2.795A4.857,4.857,0,0,1,997.551,2285.948Z" fill="#c6c6c5" fill-rule="evenodd"/>
        <path id="Trazado_13769" data-name="Trazado 13769" d="M997.338,2285.921a1.025,1.025,0,0,1,.809.2,1.961,1.961,0,0,1,.581,1.579,5.071,5.071,0,0,1-.581,2.25,3.9,3.9,0,0,1-1.4,1.6,1.2,1.2,0,0,1-1.4.017,1.3,1.3,0,0,1-.364-.475c-.006-.095-.009-.194-.009-.295a6.594,6.594,0,0,1,.755-2.929A5.343,5.343,0,0,1,997.338,2285.921Z" fill="#9c9b9b" fill-rule="evenodd"/>
        <path id="Trazado_13770" data-name="Trazado 13770" d="M996.746,2286.938a.846.846,0,0,1,.988-.011,1.381,1.381,0,0,1,.41,1.113,3.577,3.577,0,0,1-.41,1.588,2.764,2.764,0,0,1-.988,1.129.848.848,0,0,1-.989.012,1.386,1.386,0,0,1-.409-1.114,3.58,3.58,0,0,1,.409-1.586A2.756,2.756,0,0,1,996.746,2286.938Z" fill="#6f6f6e" fill-rule="evenodd"/>
        <path id="Trazado_13771" data-name="Trazado 13771" d="M1020.594,2267.671a1.491,1.491,0,0,1,.139.08c.046.024.092.051.137.079s.093.051.138.08.092.051.137.079.092.051.137.079.094.051.139.08.092.051.136.08a1.358,1.358,0,0,1,.138.079,1.4,1.4,0,0,1,.138.08,1.549,1.549,0,0,1,.138.079c.047.024.092.051.137.079s.093.051.138.08.092.05.137.079.093.051.138.079.093.051.137.08a1.456,1.456,0,0,1,.137.079c.047.024.093.051.138.08a1.407,1.407,0,0,1,.137.079c.047.024.094.051.139.08a5.322,5.322,0,0,1,.4.248,3.082,3.082,0,0,1,.916,2.486,7.97,7.97,0,0,1-.916,3.543,6.147,6.147,0,0,1-2.206,2.522,1.938,1.938,0,0,1-2.084.115,1.385,1.385,0,0,1-.138-.079c-.046-.024-.092-.05-.137-.079a1.408,1.408,0,0,1-.137-.08,1.385,1.385,0,0,1-.138-.079c-.046-.024-.093-.051-.138-.079a1.552,1.552,0,0,1-.137-.08,1.529,1.529,0,0,1-.137-.079,1.431,1.431,0,0,1-.138-.08,1.457,1.457,0,0,1-.137-.079,38.628,38.628,0,0,1-.275-.159c-.048-.024-.094-.051-.139-.079s-.092-.051-.137-.079a1.535,1.535,0,0,1-.137-.08c-.047-.024-.093-.051-.138-.079a1.416,1.416,0,0,1-.137-.08c-.047-.024-.093-.05-.138-.079s-.092-.051-.137-.079a1.559,1.559,0,0,1-.138-.08c-.046-.024-.092-.05-.136-.078a1.642,1.642,0,0,1-.263-.169,3.085,3.085,0,0,1-.913-2.488,7.969,7.969,0,0,1,.913-3.542,6.159,6.159,0,0,1,2.208-2.525A1.937,1.937,0,0,1,1020.594,2267.671Z" fill="#575756" fill-rule="evenodd"/>
        <path id="Trazado_13772" data-name="Trazado 13772" d="M1021.4,2269.453a1.887,1.887,0,0,1,2.206-.024,3.082,3.082,0,0,1,.916,2.486,7.97,7.97,0,0,1-.916,3.543,6.147,6.147,0,0,1-2.206,2.522,1.891,1.891,0,0,1-2.208.027,3.084,3.084,0,0,1-.913-2.487,7.974,7.974,0,0,1,.913-3.543A6.165,6.165,0,0,1,1021.4,2269.453Z" fill="#3c3c3b" fill-rule="evenodd"/>
        <path id="Trazado_13773" data-name="Trazado 13773" d="M1021.4,2271.5a.979.979,0,0,1,1.144-.012,1.6,1.6,0,0,1,.475,1.29,4.135,4.135,0,0,1-.475,1.837,3.19,3.19,0,0,1-1.144,1.308.98.98,0,0,1-1.145.014,1.6,1.6,0,0,1-.474-1.29,4.136,4.136,0,0,1,.474-1.837A3.2,3.2,0,0,1,1021.4,2271.5Z" fill="#ececec" fill-rule="evenodd"/>
        <path id="Trazado_13774" data-name="Trazado 13774" d="M1021.4,2271.606a.934.934,0,0,1,1.092-.011,1.527,1.527,0,0,1,.453,1.23,3.958,3.958,0,0,1-.453,1.754,3.04,3.04,0,0,1-1.092,1.248.934.934,0,0,1-1.092.013,1.525,1.525,0,0,1-.453-1.231,3.944,3.944,0,0,1,.453-1.753A3.048,3.048,0,0,1,1021.4,2271.606Z" fill="#c6c6c5" fill-rule="evenodd"/>
        <path id="Trazado_13775" data-name="Trazado 13775" d="M1021.268,2271.59a.643.643,0,0,1,.508.127,1.23,1.23,0,0,1,.365.991,3.173,3.173,0,0,1-.365,1.411,2.452,2.452,0,0,1-.879,1.005.755.755,0,0,1-.88.011.833.833,0,0,1-.228-.3c0-.06-.006-.122-.006-.185a4.136,4.136,0,0,1,.474-1.837A3.355,3.355,0,0,1,1021.268,2271.59Z" fill="#9c9b9b" fill-rule="evenodd"/>
        <path id="Trazado_13776" data-name="Trazado 13776" d="M1020.9,2272.228a.53.53,0,0,1,.62-.007.866.866,0,0,1,.257.7,2.238,2.238,0,0,1-.257,1,1.721,1.721,0,0,1-.62.708.531.531,0,0,1-.62.008.87.87,0,0,1-.257-.7,2.251,2.251,0,0,1,.257-.995A1.735,1.735,0,0,1,1020.9,2272.228Z" fill="#6f6f6e" fill-rule="evenodd"/>
        <path id="Trazado_13777" data-name="Trazado 13777" d="M994.806,2269.684l23.214-13.4v-8.455L999.1,2258.751a4.514,4.514,0,0,0-2.183,2.862Z" fill="#9c9b9b" fill-rule="evenodd"/>
      </g>
      <path id="Trazado_13778" data-name="Trazado 13778" d="M945.289,2273.773l52.519,30.321,1.509-3.57L946.8,2270.2Z" fill="#eb6e53" fill-rule="evenodd"/>
      <path id="Trazado_13779" data-name="Trazado 13779" d="M935.087,2268.6q1.608.753,3.215,1.5t3.215,1.5q-.311,1.534-.616,3.068t-.613,3.067q-.309,1.534-.615,3.068t-.613,3.065l-1.986,1.147-1.987,1.147L933.1,2287.3l-1.986,1.146q-.309-1.176-.615-2.356t-.613-2.36q-.307-1.179-.614-2.358t-.612-2.36q1.605-2.6,3.213-5.209t3.214-5.212Zm-5.235,9.975,2.512-.277,2.514-.28v-7.588l-2.514,4.075q-1.256,2.032-2.512,4.07Zm5.444-8.386v7.587l2.512-2.621,2.514-2.624q-1.259-.584-2.514-1.169l-2.512-1.173Zm5.155,2.837-2.514,2.625q-1.257,1.31-2.513,2.622.775,1.089,1.552,2.176t1.554,2.17q.481-2.4.961-4.795l.96-4.8Zm-2.259,10.141q-.777-1.085-1.554-2.17t-1.552-2.176q-.777,1.984-1.553,3.968l-1.552,3.964,3.1-1.792,3.106-1.794Zm-6.549,3.428,1.552-3.964q.775-1.98,1.553-3.967l-2.513.279q-1.257.141-2.512.278.478,1.845.96,3.688Z" fill="#e53131" fill-rule="evenodd"/>
      <path id="Trazado_13780" data-name="Trazado 13780" d="M935.087,2276.576c.666-.384,1.205.078,1.205,1.034a3.027,3.027,0,0,1-1.205,2.427c-.665.384-1.2-.079-1.2-1.035A3.028,3.028,0,0,1,935.087,2276.576Z" fill="#e53131" fill-rule="evenodd"/>
      <path id="Trazado_13781" data-name="Trazado 13781" d="M928.538,2279.23a.245.245,0,0,1-.091-.335.248.248,0,0,1,.336-.091l52.518,30.322a.246.246,0,1,1-.245.426Z" fill="#e20613" fill-rule="evenodd"/>
      <path id="Trazado_13782" data-name="Trazado 13782" d="M934.965,2268.809a.246.246,0,0,1,.245-.426l52.518,30.321a.246.246,0,0,1-.245.427Z" fill="#e53131" fill-rule="evenodd"/>
      <path id="Trazado_13783" data-name="Trazado 13783" d="M930.991,2288.665a.246.246,0,0,1,.245-.427l52.518,30.322a.246.246,0,1,1-.245.426Z" fill="#e53131" fill-rule="evenodd"/>
      <path id="Trazado_13784" data-name="Trazado 13784" d="M934.339,2280.095l52.518,30.321,1.51-3.57-52.518-30.322Z" fill="#e53131" fill-rule="evenodd"/>
      <path id="Trazado_13785" data-name="Trazado 13785" d="M973.515,2290.782q1.606.754,3.214,1.5t3.215,1.5q-.31,1.534-.616,3.068t-.613,3.067q-.309,1.534-.614,3.068t-.613,3.065L975.5,2307.2l-1.986,1.147-1.988,1.148-1.986,1.146c-.206-.783-.41-1.57-.615-2.356s-.408-1.573-.613-2.359-.409-1.573-.613-2.359-.409-1.573-.612-2.36l3.213-5.209q1.6-2.6,3.214-5.212Zm-5.235,9.975,2.512-.277,2.513-.28v-7.588l-2.513,4.075q-1.255,2.032-2.512,4.07Zm5.443-8.386v7.588l2.512-2.622,2.514-2.624q-1.259-.583-2.514-1.169c-.837-.389-1.675-.782-2.512-1.173Zm5.156,2.838-2.515,2.625-2.512,2.621,1.551,2.176q.775,1.084,1.555,2.17l.96-4.795q.48-2.4.961-4.8Zm-2.259,10.14q-.777-1.085-1.555-2.17T973.514,2301q-.778,1.983-1.553,3.968t-1.552,3.964l3.1-1.793,3.106-1.794Zm-6.549,3.429q.774-1.982,1.552-3.964t1.552-3.968l-2.513.279q-1.255.141-2.512.278.48,1.846.96,3.688T970.071,2308.778Z" fill="#e53131" fill-rule="evenodd"/>
      <path id="Trazado_13786" data-name="Trazado 13786" d="M949.178,2276.732q1.607.751,3.214,1.5t3.216,1.5q-.31,1.534-.616,3.068t-.613,3.067q-.309,1.534-.615,3.068t-.613,3.065l-1.986,1.147-1.987,1.147-1.987,1.148-1.986,1.147q-.309-1.176-.615-2.357t-.613-2.359q-.308-1.179-.613-2.359t-.613-2.359q1.605-2.6,3.213-5.21t3.214-5.211Zm-5.235,9.974q1.256-.137,2.512-.277l2.514-.28v-7.588l-2.514,4.075-2.512,4.07Zm5.444-8.386v7.588l2.512-2.622q1.256-1.309,2.513-2.624l-2.513-1.169c-.837-.389-1.675-.782-2.512-1.173Zm5.155,2.838-2.514,2.625q-1.257,1.31-2.513,2.621.775,1.089,1.552,2.176t1.554,2.17q.482-2.4.961-4.795t.96-4.8Zm-2.259,10.14q-.777-1.083-1.554-2.17t-1.552-2.176l-1.553,3.969-1.552,3.963,3.1-1.792,3.106-1.794Zm-6.549,3.429,1.552-3.964q.775-1.98,1.553-3.968l-2.513.279q-1.255.141-2.513.278.48,1.846.961,3.688Z" fill="#e53131" fill-rule="evenodd"/>
      <path id="Trazado_13787" data-name="Trazado 13787" d="M941.4,2271.808a.246.246,0,0,1,.244-.427l52.518,30.322a.245.245,0,1,1-.244.426Z" fill="#e53131" fill-rule="evenodd"/>
      <path id="Trazado_13788" data-name="Trazado 13788" d="M945.664,2273.647l.277.161,1.146-2.711,51.522,29.746.333-.193-52-30.023Z" fill="#f39e8d" fill-rule="evenodd"/>
      <path id="Trazado_13789" data-name="Trazado 13789" d="M987.606,2298.918q1.606.753,3.214,1.5t3.215,1.5q-.309,1.534-.616,3.068t-.613,3.067q-.308,1.536-.614,3.068t-.613,3.065l-1.987,1.147-1.986,1.147-1.988,1.148-1.986,1.147q-.309-1.176-.615-2.357t-.613-2.359l-.613-2.359q-.308-1.179-.613-2.359,1.605-2.6,3.214-5.21t3.214-5.211Zm-5.236,9.974q1.255-.137,2.513-.277l2.513-.28v-7.588q-1.257,2.038-2.513,4.075l-2.513,4.07Zm5.444-8.386v7.588l2.512-2.622q1.256-1.309,2.513-2.624l-2.513-1.169c-.837-.389-1.675-.782-2.512-1.173Zm5.156,2.838-2.515,2.625q-1.256,1.31-2.512,2.621.774,1.089,1.551,2.176t1.555,2.17l.96-4.795q.48-2.4.961-4.8Zm-2.259,10.14q-.777-1.083-1.555-2.17t-1.551-2.175q-.778,1.984-1.554,3.968t-1.551,3.964l3.1-1.793,3.106-1.794Zm-6.55,3.429q.775-1.982,1.552-3.964t1.554-3.968l-2.514.28q-1.255.14-2.513.277l.961,3.688Q983.681,2315.07,984.161,2316.913Z" fill="#e20613" fill-rule="evenodd"/>
      <path id="Trazado_13790" data-name="Trazado 13790" d="M987.43,2310.086l7.293-4.211-1.445,8.929,4.529-10.71,1.509-3.57-11.854,6.843Z" fill="#d24c2f" fill-rule="evenodd"/>
      <path id="Trazado_13791" data-name="Trazado 13791" d="M1010.279,2263.511l5.318-3.071V2256l-2.822,1.629Z" fill="#e53131" fill-rule="evenodd"/>
      <path id="Trazado_13792" data-name="Trazado 13792" d="M1009,2262.775l1.277.737,2.5-5.88-1.275-.737Z" fill="#ed7373" fill-rule="evenodd"/>
      <path id="Trazado_13793" data-name="Trazado 13793" d="M1014.322,2255.266l1.276.737-2.822,1.629-1.275-.737Z" fill="#ed7373" fill-rule="evenodd"/>
      <path id="Trazado_13794" data-name="Trazado 13794" d="M1015.6,2256.943l1.461.844,19.181-9.245,2.063,3.6-2.822,1.629-2.062-3.6-19.182,9.245-1.461-.843Z" fill="#e53131" fill-rule="evenodd"/>
      <path id="Trazado_13795" data-name="Trazado 13795" d="M1012.776,2261.939l1.461.843,19.182-9.245,2.062,3.6v-3.366l-2.062-3.6-19.182,9.245-1.461-.843Z" fill="#e53131" fill-rule="evenodd"/>
      <path id="Trazado_13796" data-name="Trazado 13796" d="M1015.6,2256.943l1.453.839-2.814,1.633-1.461-.843Z" fill="#ed7373" fill-rule="evenodd"/>
      <path id="Trazado_13797" data-name="Trazado 13797" d="M1012.885,2261.876l.02.011v-3.038l1.347.778,19.142-9.226,1.979,3.457v-.054l-2-3.491-19.142,9.226-1.347-.778Z" fill="#fff" fill-rule="evenodd"/>
      <path id="Trazado_13798" data-name="Trazado 13798" d="M1012.875,2261.882l1.366.789,19.218-9.262,1.924,3.362V2253.8l-.1-.172v2.963l-1.924-3.362-19.218,9.262-1.268-.732Z" fill="#c40e10" fill-rule="evenodd"/>
      <path id="Trazado_13799" data-name="Trazado 13799" d="M987.723,2309.586h0l.024-1.908,10.893-6.289.08-.189-10.973,6.335-.025,2.052Zm7.354-4.1.025-.014-1.123,6.945-.038.089Z" fill="#f39e8d" fill-rule="evenodd"/>
      <path id="Trazado_13800" data-name="Trazado 13800" d="M987.606,2306.9c.665-.384,1.2.078,1.2,1.034a3.029,3.029,0,0,1-1.2,2.427c-.666.384-1.206-.079-1.206-1.035A3.025,3.025,0,0,1,987.606,2306.9Z" fill="#e20613" fill-rule="evenodd"/>
      <path id="Trazado_13801" data-name="Trazado 13801" d="M987.606,2307.68c.364-.21.659.043.659.566a1.661,1.661,0,0,1-.659,1.33c-.365.21-.661-.044-.661-.567A1.658,1.658,0,0,1,987.606,2307.68Z" fill="#9c9b9b" fill-rule="evenodd"/>
    </g>
    <path id="Trazado_13802" data-name="Trazado 13802" d="M888.353,2290.324l72.144,41.652V2316.29l-72.144-41.652Z" fill="#f2cd65" fill-rule="evenodd"/>
    <path id="Trazado_13803" data-name="Trazado 13803" d="M960.5,2331.977l20.567-11.875v-15.686L960.5,2316.29Z" fill="#d6b36a" fill-rule="evenodd"/>
    <path id="Trazado_13804" data-name="Trazado 13804" d="M911.08,2264.011a153.367,153.367,0,0,0-22.658,10.587l-.069.041L960.5,2316.29l20.567-11.874c-18.443-10.648-35.491-20.492-53.934-31.139l7.874-4.546.083-.135.083.039,28.536-16.475A207.907,207.907,0,0,0,911.08,2264.011Z" fill="#f9d474" fill-rule="evenodd"/>
    <g id="Grupo_2978" data-name="Grupo 2978">
      <path id="Trazado_13805" data-name="Trazado 13805" d="M1040.629,2296.151c0-1.232-.763-1.808-1.7-1.28l-1.431.811-.431.243c.229.181,3.411,3.582,3.558,3.9Z" fill="#6f6f6e" fill-rule="evenodd"/>
      <path id="Trazado_13806" data-name="Trazado 13806" d="M1051.521,2268.5l-25.281,14.6v-13.744l25.281-14.6Z" fill="#e53131" fill-rule="evenodd"/>
      <path id="Trazado_13807" data-name="Trazado 13807" d="M1051.521,2268.5l16.57,9.567v-13.744l-16.57-9.568Z" fill="#ed7373" fill-rule="evenodd"/>
      <path id="Trazado_13808" data-name="Trazado 13808" d="M1051.521,2268.5l16.57,9.567-25.281,14.6-16.571-9.567Z" fill="#c40e10" fill-rule="evenodd"/>
      <path id="Trazado_13809" data-name="Trazado 13809" d="M1042.81,2292.662l-16.571-9.567v-13.744l16.571,9.568Z" fill="#c40e10" fill-rule="evenodd"/>
      <path id="Trazado_13810" data-name="Trazado 13810" d="M1036.672,2295.7c.046.024.091.05.136.079s.091.05.134.078a1.373,1.373,0,0,1,.136.078,1.5,1.5,0,0,1,.135.078,1.294,1.294,0,0,1,.135.078,1.31,1.31,0,0,1,.136.078c.046.024.09.05.134.078s.091.049.135.078.092.05.136.078.092.05.135.078.091.05.135.078.092.05.135.078.091.05.135.078.091.05.135.078.092.05.136.078.091.05.134.078.092.05.136.078.091.05.135.078a1.505,1.505,0,0,1,.136.079,1.456,1.456,0,0,1,.134.077,1.556,1.556,0,0,1,.258.166,3.029,3.029,0,0,1,.9,2.443,7.842,7.842,0,0,1-.9,3.482,6.042,6.042,0,0,1-2.168,2.478,1.9,1.9,0,0,1-2.048.113,1.339,1.339,0,0,1-.135-.078c-.045-.023-.09-.049-.134-.077s-.091-.05-.136-.078-.091-.05-.134-.078-.092-.05-.136-.078-.091-.05-.135-.078-.091-.05-.135-.078-.091-.05-.136-.079a1.384,1.384,0,0,1-.134-.077c-.047-.024-.092-.051-.136-.079a115.008,115.008,0,0,1-.27-.156,1.528,1.528,0,0,1-.135-.077,1.552,1.552,0,0,1-.135-.079,1.417,1.417,0,0,1-.136-.078,1.271,1.271,0,0,1-.134-.078,1.2,1.2,0,0,1-.136-.078,1.351,1.351,0,0,1-.134-.077,1.4,1.4,0,0,1-.136-.079,1.472,1.472,0,0,1-.134-.077,1.533,1.533,0,0,1-.258-.166,3.03,3.03,0,0,1-.9-2.444,7.834,7.834,0,0,1,.9-3.481,6.047,6.047,0,0,1,2.169-2.481A1.9,1.9,0,0,1,1036.672,2295.7Z" fill="#575756" fill-rule="evenodd"/>
      <path id="Trazado_13811" data-name="Trazado 13811" d="M1037.465,2297.446a1.856,1.856,0,0,1,2.168-.024,3.029,3.029,0,0,1,.9,2.443,7.842,7.842,0,0,1-.9,3.482,6.042,6.042,0,0,1-2.168,2.478,1.86,1.86,0,0,1-2.17.027,3.037,3.037,0,0,1-.9-2.445,7.842,7.842,0,0,1,.9-3.48A6.063,6.063,0,0,1,1037.465,2297.446Z" fill="#3c3c3b" fill-rule="evenodd"/>
      <path id="Trazado_13812" data-name="Trazado 13812" d="M1037.465,2299.463a.964.964,0,0,1,1.125-.013,1.572,1.572,0,0,1,.466,1.267,4.056,4.056,0,0,1-.466,1.806,3.138,3.138,0,0,1-1.125,1.286.964.964,0,0,1-1.125.014,1.573,1.573,0,0,1-.465-1.268,4.064,4.064,0,0,1,.465-1.806A3.131,3.131,0,0,1,1037.465,2299.463Z" fill="#ececec" fill-rule="evenodd"/>
      <path id="Trazado_13813" data-name="Trazado 13813" d="M1037.465,2299.562a.919.919,0,0,1,1.073-.012,1.5,1.5,0,0,1,.446,1.21,3.876,3.876,0,0,1-.446,1.723,2.987,2.987,0,0,1-1.073,1.226.919.919,0,0,1-1.074.013,1.5,1.5,0,0,1-.443-1.209,3.882,3.882,0,0,1,.443-1.723A3,3,0,0,1,1037.465,2299.562Z" fill="#c6c6c5" fill-rule="evenodd"/>
      <path id="Trazado_13814" data-name="Trazado 13814" d="M1037.334,2299.546a.629.629,0,0,1,.5.125,1.208,1.208,0,0,1,.359.973,3.124,3.124,0,0,1-.359,1.387,2.4,2.4,0,0,1-.864.987.741.741,0,0,1-.864.011.824.824,0,0,1-.225-.292c0-.059-.005-.12-.005-.182a4.064,4.064,0,0,1,.465-1.806A3.3,3.3,0,0,1,1037.334,2299.546Z" fill="#9c9b9b" fill-rule="evenodd"/>
      <path id="Trazado_13815" data-name="Trazado 13815" d="M1036.969,2300.173a.521.521,0,0,1,.61-.007.853.853,0,0,1,.252.686,2.211,2.211,0,0,1-.252.978,1.7,1.7,0,0,1-.61.7.52.52,0,0,1-.609.008.852.852,0,0,1-.252-.687,2.2,2.2,0,0,1,.252-.978A1.707,1.707,0,0,1,1036.969,2300.173Z" fill="#6f6f6e" fill-rule="evenodd"/>
      <path id="Trazado_13816" data-name="Trazado 13816" d="M1016.791,2276.416l13.782,7.957,10.843-6.26-13.782-7.958Z" fill="#d9d9d9" fill-rule="evenodd"/>
      <path id="Trazado_13817" data-name="Trazado 13817" d="M1030.573,2305.627v-21.254l10.843-6.259v21.253l-.787.454v-3.67c0-1.232-.763-1.808-1.7-1.28l-2.055,1.164a8.169,8.169,0,0,0-3.463,6.533v1.418Z" fill="#c6c6c5" fill-rule="evenodd"/>
      <path id="Trazado_13818" data-name="Trazado 13818" d="M1016.791,2297.67l13.782,7.957v-21.254l-13.782-7.957Z" fill="#b1b1b1" fill-rule="evenodd"/>
      <path id="Trazado_13819" data-name="Trazado 13819" d="M1016.791,2295.65l13.782,7.958v-3.161l-13.782-7.958Z" fill="#868686" fill-rule="evenodd"/>
      <path id="Trazado_13820" data-name="Trazado 13820" d="M1016.791,2276.416l13.782,7.957v14.617l-13.782-7.957Z" fill="#6f6f6e" fill-rule="evenodd"/>
      <path id="Trazado_13821" data-name="Trazado 13821" d="M1040,2280.116l-9.423,5.44v13.434l9.423-10.239Z" fill="#575756" fill-rule="evenodd"/>
      <path id="Trazado_13822" data-name="Trazado 13822" d="M1016.791,2276.416l13.782,7.957v1.183l-13.782-7.957Z" fill="#c6c6c5" fill-rule="evenodd"/>
      <g id="Grupo_2977" data-name="Grupo 2977">
        <path id="Trazado_13823" data-name="Trazado 13823" d="M1058.987,2282.812c.046.023.092.05.136.078s.091.05.134.078.091.05.136.078a1.552,1.552,0,0,1,.135.079c.046.023.09.049.135.077a1.552,1.552,0,0,1,.135.079,1.4,1.4,0,0,1,.135.077c.046.024.091.05.135.078a1.565,1.565,0,0,1,.136.079,1.541,1.541,0,0,1,.135.078,1.326,1.326,0,0,1,.135.078,1.559,1.559,0,0,1,.135.078,88.683,88.683,0,0,0,.271.156c.046.024.091.05.134.078a1.426,1.426,0,0,1,.135.078,1.154,1.154,0,0,1,.135.078,1.255,1.255,0,0,1,.136.078c.046.023.091.05.136.078s.09.05.133.078a1.56,1.56,0,0,1,.26.166,3.032,3.032,0,0,1,.9,2.443,7.854,7.854,0,0,1-.9,3.482,6.058,6.058,0,0,1-2.169,2.478,1.9,1.9,0,0,1-2.048.113,1.282,1.282,0,0,1-.135-.078,1.337,1.337,0,0,1-.134-.077c-.047-.024-.092-.051-.136-.079a1.346,1.346,0,0,1-.134-.078,1.373,1.373,0,0,1-.136-.078,115.008,115.008,0,0,0-.27-.156,1.375,1.375,0,0,1-.136-.078,1.358,1.358,0,0,1-.134-.078c-.047-.024-.093-.05-.137-.078a1.48,1.48,0,0,1-.134-.078c-.046-.024-.092-.05-.136-.078s-.09-.05-.134-.078-.091-.05-.135-.078-.092-.05-.136-.078a1.481,1.481,0,0,1-.134-.078c-.047-.024-.092-.05-.136-.078s-.091-.05-.134-.078-.092-.05-.136-.078a1.512,1.512,0,0,1-.134-.077,1.646,1.646,0,0,1-.259-.167,3.034,3.034,0,0,1-.9-2.444,7.854,7.854,0,0,1,.9-3.481,6.058,6.058,0,0,1,2.17-2.48A1.9,1.9,0,0,1,1058.987,2282.812Z" fill="#575756" fill-rule="evenodd"/>
        <path id="Trazado_13824" data-name="Trazado 13824" d="M1059.78,2284.563a1.854,1.854,0,0,1,2.169-.024,3.032,3.032,0,0,1,.9,2.443,7.854,7.854,0,0,1-.9,3.482,6.058,6.058,0,0,1-2.169,2.478,1.858,1.858,0,0,1-2.169.026,3.031,3.031,0,0,1-.9-2.444,7.84,7.84,0,0,1,.9-3.481A6.039,6.039,0,0,1,1059.78,2284.563Z" fill="#3c3c3b" fill-rule="evenodd"/>
        <path id="Trazado_13825" data-name="Trazado 13825" d="M1059.78,2286.579a.964.964,0,0,1,1.125-.012,1.574,1.574,0,0,1,.466,1.267,4.077,4.077,0,0,1-.466,1.806,3.135,3.135,0,0,1-1.125,1.285.963.963,0,0,1-1.125.014,1.57,1.57,0,0,1-.465-1.267,4.063,4.063,0,0,1,.465-1.806A3.138,3.138,0,0,1,1059.78,2286.579Z" fill="#ececec" fill-rule="evenodd"/>
        <path id="Trazado_13826" data-name="Trazado 13826" d="M1059.78,2286.679a.919.919,0,0,1,1.073-.012,1.5,1.5,0,0,1,.446,1.209,3.882,3.882,0,0,1-.446,1.724,2.989,2.989,0,0,1-1.073,1.226.921.921,0,0,1-1.074.013,1.5,1.5,0,0,1-.444-1.21,3.882,3.882,0,0,1,.444-1.722A3,3,0,0,1,1059.78,2286.679Z" fill="#c6c6c5" fill-rule="evenodd"/>
        <path id="Trazado_13827" data-name="Trazado 13827" d="M1059.649,2286.662a.632.632,0,0,1,.5.126,1.208,1.208,0,0,1,.358.973,3.138,3.138,0,0,1-.358,1.387,2.415,2.415,0,0,1-.864.987.74.74,0,0,1-.864.011.8.8,0,0,1-.225-.293c0-.059-.005-.12-.005-.181a4.063,4.063,0,0,1,.465-1.806A3.3,3.3,0,0,1,1059.649,2286.662Z" fill="#9c9b9b" fill-rule="evenodd"/>
        <path id="Trazado_13828" data-name="Trazado 13828" d="M1059.284,2287.289a.525.525,0,0,1,.61-.007.856.856,0,0,1,.252.687,2.215,2.215,0,0,1-.252.978,1.7,1.7,0,0,1-.61.7.523.523,0,0,1-.609.008.853.853,0,0,1-.252-.687,2.2,2.2,0,0,1,.252-.978A1.7,1.7,0,0,1,1059.284,2287.289Z" fill="#6f6f6e" fill-rule="evenodd"/>
      </g>
      <path id="Trazado_13829" data-name="Trazado 13829" d="M1068.091,2278.066l-25.281,14.6v-13.744l25.281-14.6Z" fill="#e53131" fill-rule="evenodd"/>
      <path id="Trazado_13830" data-name="Trazado 13830" d="M1045.9,2287.485l19.1-11.028V2269.5l-15.57,8.989a3.71,3.71,0,0,0-1.8,2.355Z" fill="#9c9b9b" fill-rule="evenodd"/>
      <path id="Trazado_13831" data-name="Trazado 13831" d="M1051.521,2258.316l13.487,7.787-22.2,12.816-13.487-7.787Z" fill="#f9d474" fill-rule="evenodd"/>
      <path id="Trazado_13832" data-name="Trazado 13832" d="M1067.848,2265.222v-.478l-24.794,14.315v13.182l.325-.187v-12.7Z" fill="#ed7373" fill-rule="evenodd"/>
      <path id="Trazado_13833" data-name="Trazado 13833" d="M1063.513,2270.359v5.791l-12.749,7.361-4.506,2.6-.358,1.372,5.874-3.391,13.227-7.636V2269.5Z" fill="#b1b1b1" fill-rule="evenodd"/>
      <path id="Trazado_13834" data-name="Trazado 13834" d="M1051.224,2255.522v-.254l-24.689,14.254.266.1Z" fill="#ed7373" fill-rule="evenodd"/>
    </g>
    <path id="Trazado_13835" data-name="Trazado 13835" d="M1037.145,2252.808a9.27,9.27,0,0,0,1.158,1.745c.766.952,6.061,7.789,6.061,9.634,0,.809.574,1.044.313,2.481s-1.436,1.958-2.872,1.776c-.68-.087-4.287.521-4.5-1.922-.292-3.392-.389-6.377-1.826-9.381v-3.367Z" fill="#f9d474" fill-rule="evenodd"/>
    <path id="Trazado_13836" data-name="Trazado 13836" d="M987.145,2347.268v37.43l98.743-61.365v-33.009Z" fill="#594d48" fill-rule="evenodd"/>
    <path id="Trazado_13837" data-name="Trazado 13837" d="M888.353,2290.324l98.793,56.944v37.43l-98.865-61.365Z" fill="#423733" fill-rule="evenodd"/>
  </g>
</svg>
