<svg xmlns="http://www.w3.org/2000/svg" width="139.679" height="161.48" viewBox="0 0 139.679 161.48">
  <g id="Grupo_3007" data-name="Grupo 3007" transform="translate(-910.773 -1982.413)">
    <path id="Trazado_13838" data-name="Trazado 13838" d="M1050.452,2046.547c0-22.269-15.634-42.43-40.911-57.023l-98.768,57.023,98.768,57.024C1034.818,2088.977,1050.452,2068.817,1050.452,2046.547Z" fill="#619425" fill-rule="evenodd"/>
    <g id="Grupo_2992" data-name="Grupo 2992">
      <g id="Grupo_2980" data-name="Grupo 2980">
        <path id="Trazado_13839" data-name="Trazado 13839" d="M1015.027,2069.663c.667,0,.875.1.809.956s-.544,1.408-.86,1.39-.769-.511-.893-1.323S1014.36,2069.663,1015.027,2069.663Z" fill="#fff" fill-rule="evenodd"/>
        <path id="Trazado_13840" data-name="Trazado 13840" d="M1014.925,2074.354c-.667,0-.876-.1-.809-.956s.544-1.408.86-1.389.769.511.894,1.323S1015.592,2074.354,1014.925,2074.354Z" fill="#fff" fill-rule="evenodd"/>
        <path id="Trazado_13841" data-name="Trazado 13841" d="M1012.63,2071.957c0-.666.1-.875.956-.808s1.408.544,1.39.86-.511.769-1.323.893S1012.63,2072.624,1012.63,2071.957Z" fill="#fff" fill-rule="evenodd"/>
        <path id="Trazado_13842" data-name="Trazado 13842" d="M1017.322,2072.06c0,.667-.1.875-.957.809s-1.407-.544-1.389-.86.511-.769,1.323-.894S1017.322,2071.393,1017.322,2072.06Z" fill="#fff" fill-rule="evenodd"/>
        <path id="Trazado_13843" data-name="Trazado 13843" d="M1014.976,2072.957a.948.948,0,1,0-.948-.948A.95.95,0,0,0,1014.976,2072.957Z" fill="#f2cd65" fill-rule="evenodd"/>
      </g>
      <g id="Grupo_2981" data-name="Grupo 2981">
        <path id="Trazado_13844" data-name="Trazado 13844" d="M1032.506,2063.7c.667,0,.875.1.809.956s-.544,1.408-.86,1.389-.769-.51-.893-1.323S1031.839,2063.7,1032.506,2063.7Z" fill="#fff" fill-rule="evenodd"/>
        <path id="Trazado_13845" data-name="Trazado 13845" d="M1032.4,2068.387c-.667,0-.875-.1-.809-.956s.544-1.408.86-1.39.769.512.894,1.324S1033.071,2068.387,1032.4,2068.387Z" fill="#fff" fill-rule="evenodd"/>
        <path id="Trazado_13846" data-name="Trazado 13846" d="M1030.109,2065.99c0-.666.1-.875.957-.809s1.407.544,1.389.86-.51.77-1.323.894S1030.109,2066.657,1030.109,2065.99Z" fill="#fff" fill-rule="evenodd"/>
        <path id="Trazado_13847" data-name="Trazado 13847" d="M1034.8,2066.093c0,.667-.1.875-.956.809s-1.408-.544-1.39-.861.511-.769,1.323-.892S1034.8,2065.426,1034.8,2066.093Z" fill="#fff" fill-rule="evenodd"/>
        <path id="Trazado_13848" data-name="Trazado 13848" d="M1032.455,2066.99a.948.948,0,1,0-.948-.949A.951.951,0,0,0,1032.455,2066.99Z" fill="#f2cd65" fill-rule="evenodd"/>
      </g>
      <g id="Grupo_2982" data-name="Grupo 2982">
        <path id="Trazado_13849" data-name="Trazado 13849" d="M991.4,2068.953c.667,0,.875.1.809.957s-.544,1.408-.86,1.389-.769-.511-.893-1.323S990.728,2068.953,991.4,2068.953Z" fill="#fff" fill-rule="evenodd"/>
        <path id="Trazado_13850" data-name="Trazado 13850" d="M991.293,2073.645c-.667,0-.875-.1-.809-.956s.544-1.408.86-1.39.769.511.893,1.324S991.96,2073.645,991.293,2073.645Z" fill="#fff" fill-rule="evenodd"/>
        <path id="Trazado_13851" data-name="Trazado 13851" d="M989,2071.248c0-.667.1-.875.957-.809s1.407.544,1.389.86-.511.769-1.323.893S989,2071.915,989,2071.248Z" fill="#fff" fill-rule="evenodd"/>
        <path id="Trazado_13852" data-name="Trazado 13852" d="M993.69,2071.35c0,.667-.1.876-.957.809s-1.407-.544-1.389-.86.511-.769,1.324-.893S993.69,2070.684,993.69,2071.35Z" fill="#fff" fill-rule="evenodd"/>
        <path id="Trazado_13853" data-name="Trazado 13853" d="M991.344,2072.247a.948.948,0,1,0-.948-.948A.95.95,0,0,0,991.344,2072.247Z" fill="#f2cd65" fill-rule="evenodd"/>
      </g>
      <g id="Grupo_2983" data-name="Grupo 2983">
        <path id="Trazado_13854" data-name="Trazado 13854" d="M1006.849,2090.338c.667,0,.875.1.809.957s-.544,1.407-.86,1.389-.769-.511-.893-1.323S1006.182,2090.338,1006.849,2090.338Z" fill="#fff" fill-rule="evenodd"/>
        <path id="Trazado_13855" data-name="Trazado 13855" d="M1006.747,2095.03c-.667,0-.875-.1-.809-.957s.544-1.407.86-1.389.769.511.893,1.323S1007.413,2095.03,1006.747,2095.03Z" fill="#fff" fill-rule="evenodd"/>
        <path id="Trazado_13856" data-name="Trazado 13856" d="M1004.452,2092.633c0-.667.1-.876.956-.809s1.408.544,1.39.86-.511.769-1.324.893S1004.452,2093.3,1004.452,2092.633Z" fill="#fff" fill-rule="evenodd"/>
        <path id="Trazado_13857" data-name="Trazado 13857" d="M1009.144,2092.735c0,.667-.1.876-.957.809s-1.408-.544-1.389-.86.511-.769,1.323-.894S1009.144,2092.068,1009.144,2092.735Z" fill="#fff" fill-rule="evenodd"/>
        <path id="Trazado_13858" data-name="Trazado 13858" d="M1006.8,2093.632a.948.948,0,1,0-.948-.948A.95.95,0,0,0,1006.8,2093.632Z" fill="#f2cd65" fill-rule="evenodd"/>
      </g>
      <g id="Grupo_2984" data-name="Grupo 2984">
        <path id="Trazado_13859" data-name="Trazado 13859" d="M949.739,2051.79c.667,0,.875.1.809.957s-.544,1.408-.86,1.389-.769-.511-.893-1.323S949.072,2051.79,949.739,2051.79Z" fill="#fff" fill-rule="evenodd"/>
        <path id="Trazado_13860" data-name="Trazado 13860" d="M949.636,2056.482c-.666,0-.875-.1-.809-.956s.544-1.408.861-1.39.769.511.893,1.323S950.3,2056.482,949.636,2056.482Z" fill="#fff" fill-rule="evenodd"/>
        <path id="Trazado_13861" data-name="Trazado 13861" d="M947.342,2054.085c0-.667.1-.875.956-.809s1.407.544,1.39.86-.511.769-1.324.893S947.342,2054.752,947.342,2054.085Z" fill="#fff" fill-rule="evenodd"/>
        <path id="Trazado_13862" data-name="Trazado 13862" d="M952.033,2054.187c0,.667-.1.875-.956.809s-1.408-.544-1.389-.86.511-.769,1.323-.893S952.033,2053.52,952.033,2054.187Z" fill="#fff" fill-rule="evenodd"/>
        <path id="Trazado_13863" data-name="Trazado 13863" d="M949.688,2055.084a.948.948,0,1,0-.949-.948A.95.95,0,0,0,949.688,2055.084Z" fill="#f2cd65" fill-rule="evenodd"/>
      </g>
      <g id="Grupo_2985" data-name="Grupo 2985">
        <path id="Trazado_13864" data-name="Trazado 13864" d="M958.594,2029.884c.666,0,.875.1.809.957s-.544,1.408-.86,1.389-.77-.511-.894-1.323S957.927,2029.884,958.594,2029.884Z" fill="#fff" fill-rule="evenodd"/>
        <path id="Trazado_13865" data-name="Trazado 13865" d="M958.492,2034.576c-.667,0-.876-.1-.809-.957s.544-1.407.86-1.389.768.511.893,1.323S959.159,2034.576,958.492,2034.576Z" fill="#fff" fill-rule="evenodd"/>
        <path id="Trazado_13866" data-name="Trazado 13866" d="M956.2,2032.179c0-.667.1-.875.956-.809s1.408.544,1.39.86-.511.769-1.323.894S956.2,2032.846,956.2,2032.179Z" fill="#fff" fill-rule="evenodd"/>
        <path id="Trazado_13867" data-name="Trazado 13867" d="M960.889,2032.281c0,.667-.1.875-.957.809s-1.408-.544-1.389-.86.511-.769,1.323-.893S960.889,2031.614,960.889,2032.281Z" fill="#fff" fill-rule="evenodd"/>
        <path id="Trazado_13868" data-name="Trazado 13868" d="M958.543,2033.178a.948.948,0,1,0-.949-.948A.95.95,0,0,0,958.543,2033.178Z" fill="#f2cd65" fill-rule="evenodd"/>
      </g>
      <g id="Grupo_2986" data-name="Grupo 2986">
        <path id="Trazado_13869" data-name="Trazado 13869" d="M928.219,2042.388c.667,0,.876.1.809.957s-.544,1.408-.86,1.389-.769-.51-.893-1.323S927.552,2042.388,928.219,2042.388Z" fill="#fff" fill-rule="evenodd"/>
        <path id="Trazado_13870" data-name="Trazado 13870" d="M928.117,2047.08c-.667,0-.875-.1-.809-.956s.544-1.408.86-1.39.769.511.893,1.324S928.784,2047.08,928.117,2047.08Z" fill="#fff" fill-rule="evenodd"/>
        <path id="Trazado_13871" data-name="Trazado 13871" d="M925.822,2044.684c0-.667.1-.876.957-.81s1.408.545,1.389.86-.511.77-1.323.894S925.822,2045.35,925.822,2044.684Z" fill="#fff" fill-rule="evenodd"/>
        <path id="Trazado_13872" data-name="Trazado 13872" d="M930.514,2044.785c0,.667-.1.876-.956.809s-1.408-.543-1.39-.86.511-.769,1.323-.893S930.514,2044.118,930.514,2044.785Z" fill="#fff" fill-rule="evenodd"/>
        <path id="Trazado_13873" data-name="Trazado 13873" d="M928.168,2045.683a.948.948,0,1,0-.948-.949A.951.951,0,0,0,928.168,2045.683Z" fill="#f2cd65" fill-rule="evenodd"/>
      </g>
      <g id="Grupo_2987" data-name="Grupo 2987">
        <path id="Trazado_13874" data-name="Trazado 13874" d="M987.808,2009.614c.667,0,.875.1.809.957s-.544,1.407-.86,1.389-.769-.511-.893-1.323S987.141,2009.614,987.808,2009.614Z" fill="#fff" fill-rule="evenodd"/>
        <path id="Trazado_13875" data-name="Trazado 13875" d="M987.706,2014.306c-.667,0-.875-.1-.809-.956s.543-1.408.86-1.39.769.511.893,1.323S988.373,2014.306,987.706,2014.306Z" fill="#fff" fill-rule="evenodd"/>
        <path id="Trazado_13876" data-name="Trazado 13876" d="M985.411,2011.909c0-.667.1-.875.956-.809s1.408.544,1.39.86-.511.769-1.324.893S985.411,2012.576,985.411,2011.909Z" fill="#fff" fill-rule="evenodd"/>
        <path id="Trazado_13877" data-name="Trazado 13877" d="M990.1,2012.011c0,.667-.1.876-.957.809s-1.408-.544-1.389-.86.511-.769,1.323-.893S990.1,2011.344,990.1,2012.011Z" fill="#fff" fill-rule="evenodd"/>
        <path id="Trazado_13878" data-name="Trazado 13878" d="M987.757,2012.908a.948.948,0,1,0-.948-.948A.95.95,0,0,0,987.757,2012.908Z" fill="#f2cd65" fill-rule="evenodd"/>
      </g>
      <g id="Grupo_2988" data-name="Grupo 2988">
        <path id="Trazado_13879" data-name="Trazado 13879" d="M1018.339,2001.157c.666,0,.875.1.808.956s-.544,1.408-.86,1.389-.768-.51-.893-1.323S1017.672,2001.157,1018.339,2001.157Z" fill="#fff" fill-rule="evenodd"/>
        <path id="Trazado_13880" data-name="Trazado 13880" d="M1018.236,2005.848c-.666,0-.875-.1-.808-.956s.544-1.408.859-1.39.77.512.894,1.324S1018.9,2005.848,1018.236,2005.848Z" fill="#fff" fill-rule="evenodd"/>
        <path id="Trazado_13881" data-name="Trazado 13881" d="M1015.941,2003.452c0-.667.1-.876.957-.809s1.408.544,1.389.859-.51.77-1.323.894S1015.941,2004.118,1015.941,2003.452Z" fill="#fff" fill-rule="evenodd"/>
        <path id="Trazado_13882" data-name="Trazado 13882" d="M1020.633,2003.553c0,.667-.1.876-.956.809s-1.408-.543-1.39-.86.512-.769,1.324-.893S1020.633,2002.887,1020.633,2003.553Z" fill="#fff" fill-rule="evenodd"/>
        <path id="Trazado_13883" data-name="Trazado 13883" d="M1018.287,2004.451a.949.949,0,1,0-.948-.949A.951.951,0,0,0,1018.287,2004.451Z" fill="#f2cd65" fill-rule="evenodd"/>
      </g>
      <g id="Grupo_2989" data-name="Grupo 2989">
        <path id="Trazado_13884" data-name="Trazado 13884" d="M967.125,2067.12c.666,0,.875.1.809.957s-.544,1.408-.86,1.389-.77-.511-.894-1.323S966.458,2067.12,967.125,2067.12Z" fill="#fff" fill-rule="evenodd"/>
        <path id="Trazado_13885" data-name="Trazado 13885" d="M967.023,2071.812c-.667,0-.876-.1-.809-.957s.544-1.407.86-1.389.769.511.893,1.323S967.69,2071.812,967.023,2071.812Z" fill="#fff" fill-rule="evenodd"/>
        <path id="Trazado_13886" data-name="Trazado 13886" d="M964.728,2069.415c0-.667.1-.875.956-.809s1.408.544,1.39.86-.511.769-1.323.894S964.728,2070.082,964.728,2069.415Z" fill="#fff" fill-rule="evenodd"/>
        <path id="Trazado_13887" data-name="Trazado 13887" d="M969.42,2069.517c0,.667-.1.875-.957.809s-1.408-.544-1.389-.86.511-.769,1.323-.893S969.42,2068.85,969.42,2069.517Z" fill="#fff" fill-rule="evenodd"/>
        <path id="Trazado_13888" data-name="Trazado 13888" d="M967.074,2070.414a.948.948,0,1,0-.949-.948A.95.95,0,0,0,967.074,2070.414Z" fill="#f2cd65" fill-rule="evenodd"/>
      </g>
      <g id="Grupo_2990" data-name="Grupo 2990">
        <path id="Trazado_13889" data-name="Trazado 13889" d="M1024.092,2039.808c.667,0,.875.1.809.956s-.544,1.408-.86,1.39-.769-.511-.893-1.323S1023.425,2039.808,1024.092,2039.808Z" fill="#fff" fill-rule="evenodd"/>
        <path id="Trazado_13890" data-name="Trazado 13890" d="M1023.989,2044.5c-.666,0-.874-.1-.809-.957s.545-1.408.861-1.389.769.511.893,1.323S1024.657,2044.5,1023.989,2044.5Z" fill="#fff" fill-rule="evenodd"/>
        <path id="Trazado_13891" data-name="Trazado 13891" d="M1021.7,2042.1c0-.667.1-.875.957-.809s1.407.544,1.389.86-.511.769-1.324.893S1021.7,2042.77,1021.7,2042.1Z" fill="#fff" fill-rule="evenodd"/>
        <path id="Trazado_13892" data-name="Trazado 13892" d="M1026.386,2042.2c0,.667-.1.875-.956.809s-1.407-.544-1.389-.86.511-.769,1.323-.894S1026.386,2041.538,1026.386,2042.2Z" fill="#fff" fill-rule="evenodd"/>
        <path id="Trazado_13893" data-name="Trazado 13893" d="M1024.041,2043.1a.949.949,0,1,0-.948-.948A.949.949,0,0,0,1024.041,2043.1Z" fill="#f2cd65" fill-rule="evenodd"/>
      </g>
      <g id="Grupo_2991" data-name="Grupo 2991">
        <path id="Trazado_13894" data-name="Trazado 13894" d="M1042.477,2036.465c.667,0,.876.1.809.957s-.544,1.407-.86,1.389-.769-.511-.893-1.323S1041.811,2036.465,1042.477,2036.465Z" fill="#fff" fill-rule="evenodd"/>
        <path id="Trazado_13895" data-name="Trazado 13895" d="M1042.375,2041.157c-.666,0-.875-.1-.808-.956s.543-1.408.859-1.39.77.511.894,1.323S1043.042,2041.157,1042.375,2041.157Z" fill="#fff" fill-rule="evenodd"/>
        <path id="Trazado_13896" data-name="Trazado 13896" d="M1040.08,2038.76c0-.667.1-.875.957-.809s1.408.544,1.389.86-.511.769-1.323.893S1040.08,2039.427,1040.08,2038.76Z" fill="#fff" fill-rule="evenodd"/>
        <path id="Trazado_13897" data-name="Trazado 13897" d="M1044.772,2038.862c0,.667-.1.875-.956.809s-1.408-.544-1.39-.86.512-.769,1.323-.893S1044.772,2038.195,1044.772,2038.862Z" fill="#fff" fill-rule="evenodd"/>
        <path id="Trazado_13898" data-name="Trazado 13898" d="M1042.426,2039.759a.948.948,0,1,0-.948-.948A.951.951,0,0,0,1042.426,2039.759Z" fill="#f2cd65" fill-rule="evenodd"/>
      </g>
    </g>
    <path id="Trazado_13899" data-name="Trazado 13899" d="M1009.541,2103.571v40.322c25.274-14.593,40.909-34.751,40.911-57.019v-40.229C1050.407,2068.875,1034.781,2089,1009.541,2103.571Z" fill="#517c1f" fill-rule="evenodd"/>
    <path id="Trazado_13900" data-name="Trazado 13900" d="M1009.541,2103.572l-98.768-57.024,1.09,37.029,97.677,60.316Z" fill="#334f0c" fill-rule="evenodd"/>
    <g id="Grupo_2994" data-name="Grupo 2994">
      <path id="Trazado_13901" data-name="Trazado 13901" d="M956.71,2014.168l-.267,6.481.2,10.3-.247,10.761s-1.021.393-1.021.2-.161-10.893-.161-10.893l.409-10.7.888-6.434Z" fill="#005629"/>
      <g id="Grupo_2993" data-name="Grupo 2993">
        <path id="Trazado_13902" data-name="Trazado 13902" d="M958.183,2007.263l-.43,3.429-.966,3.383.68-3.452Z" fill="#f7a423"/>
        <path id="Trazado_13903" data-name="Trazado 13903" d="M957.216,2007.171v2.531l-.573,4.257.251-4.211Z" fill="#f7a423"/>
        <path id="Trazado_13904" data-name="Trazado 13904" d="M955.892,2007.355l.608,2.531a39.826,39.826,0,0,1,.143,4.073c-.143-.138-.429-4.142-.429-4.142Z" fill="#f7a423"/>
        <path id="Trazado_13905" data-name="Trazado 13905" d="M958.9,2009.564l-1.074,2-.859,2.485,1.145-2.462Z" fill="#f7a423"/>
        <path id="Trazado_13906" data-name="Trazado 13906" d="M954.935,2007.453l.442,2.1.972,2.468-.7-2.53Z" fill="#f7a423"/>
        <path id="Trazado_13907" data-name="Trazado 13907" d="M955.248,2010.07s1.252,3.935,1.216,3.867-.787-1.865-.787-1.865Z" fill="#f7a423"/>
        <path id="Trazado_13908" data-name="Trazado 13908" d="M956.572,2005.951l.215,2.693-.071,1.151-.251-1.1Z" fill="#f7a423"/>
      </g>
      <path id="Trazado_13909" data-name="Trazado 13909" d="M954.767,2024.732c0-.263,1.859-7.4,1.859-7.4l1.735-4.068,4.286,2.1-.408,9.251-2.96-7.479Z" fill="#005629"/>
      <path id="Trazado_13910" data-name="Trazado 13910" d="M955.729,2026.029c-.2-.328.11-7.4.11-7.4l-1.539-5.723-4.8-1.8,3.041,3.276,1.38,4.64Z" fill="#005629"/>
      <path id="Trazado_13911" data-name="Trazado 13911" d="M956.221,2022.616l-.229-1.723,4.41.707-1.735,9.514-.612-7.545Z" fill="#005629"/>
      <path id="Trazado_13912" data-name="Trazado 13912" d="M944.227,2020.735l6.777-2.15,4.307,4.848-1.389-5.643-1.608-1.559Z" fill="#005629"/>
      <path id="Trazado_13913" data-name="Trazado 13913" d="M956.055,2033.738l-3.444-8.809-3.368,1.28.618,7.727,2.52-6.5Z" fill="#005629"/>
      <path id="Trazado_13914" data-name="Trazado 13914" d="M956.622,2032.524l-3.265-10.629,3.98-.787Z" fill="#005629"/>
      <path id="Trazado_13915" data-name="Trazado 13915" d="M956.631,2037.277l-.17,1.376-1.1.024-.18-1.468Z" fill="#005629"/>
      <path id="Trazado_13916" data-name="Trazado 13916" d="M956.907,2031.638l-.228,1.838-1.467.032-.24-1.96Z" fill="#005629"/>
      <path id="Trazado_13917" data-name="Trazado 13917" d="M957.111,2028.095l-.228,1.838-1.467.032-.241-1.96Z" fill="#005629"/>
    </g>
    <g id="Grupo_2996" data-name="Grupo 2996">
      <path id="Trazado_13918" data-name="Trazado 13918" d="M976.007,2002.543l-.266,6.48.2,10.3-.247,10.761s-1.021.394-1.021.2-.161-10.892-.161-10.892l.408-10.7.888-6.434Z" fill="#005629"/>
      <g id="Grupo_2995" data-name="Grupo 2995">
        <path id="Trazado_13919" data-name="Trazado 13919" d="M977.48,1995.637l-.43,3.429-.966,3.383.68-3.452Z" fill="#f7a423"/>
        <path id="Trazado_13920" data-name="Trazado 13920" d="M976.514,1995.545v2.531l-.573,4.257.251-4.211Z" fill="#f7a423"/>
        <path id="Trazado_13921" data-name="Trazado 13921" d="M975.19,1995.729l.608,2.532a40.1,40.1,0,0,1,.143,4.073c-.143-.138-.429-4.142-.429-4.142Z" fill="#f7a423"/>
        <path id="Trazado_13922" data-name="Trazado 13922" d="M978.2,1997.939l-1.074,2-.859,2.485,1.145-2.462Z" fill="#f7a423"/>
        <path id="Trazado_13923" data-name="Trazado 13923" d="M974.232,1995.828l.442,2.1.972,2.468-.7-2.53Z" fill="#f7a423"/>
        <path id="Trazado_13924" data-name="Trazado 13924" d="M974.545,1998.445s1.253,3.935,1.217,3.866-.787-1.864-.787-1.864Z" fill="#f7a423"/>
        <path id="Trazado_13925" data-name="Trazado 13925" d="M975.87,1994.326l.215,2.692-.071,1.151-.251-1.1Z" fill="#f7a423"/>
      </g>
      <path id="Trazado_13926" data-name="Trazado 13926" d="M974.065,2013.106c0-.262,1.859-7.4,1.859-7.4l1.735-4.068,4.285,2.1-.408,9.251-2.959-7.48Z" fill="#005629"/>
      <path id="Trazado_13927" data-name="Trazado 13927" d="M975.026,2014.4c-.2-.328.11-7.4.11-7.4l-1.538-5.723-4.8-1.8,3.04,3.276,1.381,4.64Z" fill="#005629"/>
      <path id="Trazado_13928" data-name="Trazado 13928" d="M975.519,2010.99l-.229-1.723,4.41.707-1.735,9.514-.612-7.546Z" fill="#005629"/>
      <path id="Trazado_13929" data-name="Trazado 13929" d="M963.525,2009.109l6.777-2.15,4.307,4.848-1.389-5.643-1.608-1.559Z" fill="#005629"/>
      <path id="Trazado_13930" data-name="Trazado 13930" d="M975.353,2022.113l-3.444-8.81-3.368,1.28.618,7.727,2.52-6.5Z" fill="#005629"/>
      <path id="Trazado_13931" data-name="Trazado 13931" d="M975.919,2020.9l-3.265-10.629,3.98-.787Z" fill="#005629"/>
      <path id="Trazado_13932" data-name="Trazado 13932" d="M975.929,2025.652l-.171,1.376-1.1.024-.18-1.468Z" fill="#005629"/>
      <path id="Trazado_13933" data-name="Trazado 13933" d="M976.2,2020.012l-.228,1.838-1.467.032-.24-1.96Z" fill="#005629"/>
      <path id="Trazado_13934" data-name="Trazado 13934" d="M976.409,2016.469l-.228,1.838-1.467.033-.241-1.96Z" fill="#005629"/>
    </g>
    <g id="Grupo_2998" data-name="Grupo 2998">
      <path id="Trazado_13935" data-name="Trazado 13935" d="M994.025,1990.63l-.267,6.48.2,10.3-.247,10.761s-1.021.394-1.021.2-.161-10.892-.161-10.892l.409-10.7.887-6.434Z" fill="#005629"/>
      <g id="Grupo_2997" data-name="Grupo 2997">
        <path id="Trazado_13936" data-name="Trazado 13936" d="M995.5,1983.724l-.43,3.429-.966,3.383.68-3.452Z" fill="#f7a423"/>
        <path id="Trazado_13937" data-name="Trazado 13937" d="M994.531,1983.632v2.531l-.573,4.257.251-4.211Z" fill="#f7a423"/>
        <path id="Trazado_13938" data-name="Trazado 13938" d="M993.207,1983.816l.608,2.532a39.815,39.815,0,0,1,.143,4.073c-.143-.138-.429-4.142-.429-4.142Z" fill="#f7a423"/>
        <path id="Trazado_13939" data-name="Trazado 13939" d="M996.213,1986.026l-1.074,2-.859,2.485,1.145-2.462Z" fill="#f7a423"/>
        <path id="Trazado_13940" data-name="Trazado 13940" d="M992.25,1983.915l.442,2.1.972,2.468-.7-2.53Z" fill="#f7a423"/>
        <path id="Trazado_13941" data-name="Trazado 13941" d="M992.563,1986.532s1.252,3.935,1.216,3.866-.787-1.864-.787-1.864Z" fill="#f7a423"/>
        <path id="Trazado_13942" data-name="Trazado 13942" d="M993.887,1982.413l.215,2.692-.071,1.151-.251-1.1Z" fill="#f7a423"/>
      </g>
      <path id="Trazado_13943" data-name="Trazado 13943" d="M992.082,2001.193c0-.262,1.859-7.4,1.859-7.4l1.735-4.068,4.285,2.1-.408,9.251-2.959-7.48Z" fill="#005629"/>
      <path id="Trazado_13944" data-name="Trazado 13944" d="M993.044,2002.49c-.2-.328.11-7.4.11-7.4l-1.539-5.723-4.8-1.8,3.041,3.276,1.38,4.64Z" fill="#005629"/>
      <path id="Trazado_13945" data-name="Trazado 13945" d="M993.536,1999.077l-.229-1.723,4.41.707-1.735,9.514-.612-7.546Z" fill="#005629"/>
      <path id="Trazado_13946" data-name="Trazado 13946" d="M981.542,1997.2l6.777-2.15,4.307,4.848-1.389-5.643-1.608-1.559Z" fill="#005629"/>
      <path id="Trazado_13947" data-name="Trazado 13947" d="M993.37,2010.2l-3.444-8.81-3.368,1.28.618,7.727,2.52-6.5Z" fill="#005629"/>
      <path id="Trazado_13948" data-name="Trazado 13948" d="M993.937,2008.986l-3.265-10.629,3.98-.787Z" fill="#005629"/>
      <path id="Trazado_13949" data-name="Trazado 13949" d="M993.946,2013.739l-.171,1.376-1.1.024-.18-1.468Z" fill="#005629"/>
      <path id="Trazado_13950" data-name="Trazado 13950" d="M994.222,2008.1l-.228,1.838-1.467.032-.24-1.96Z" fill="#005629"/>
      <path id="Trazado_13951" data-name="Trazado 13951" d="M994.426,2004.556l-.228,1.838-1.467.033-.241-1.96Z" fill="#005629"/>
    </g>
    <g id="Grupo_3000" data-name="Grupo 3000">
      <path id="Trazado_13952" data-name="Trazado 13952" d="M980.5,2037.165l-.266,6.48.2,10.3-.247,10.761s-1.021.394-1.021.2-.161-10.892-.161-10.892l.408-10.695.888-6.434Z" fill="#005629"/>
      <g id="Grupo_2999" data-name="Grupo 2999">
        <path id="Trazado_13953" data-name="Trazado 13953" d="M981.975,2030.259l-.43,3.429-.966,3.383.68-3.452Z" fill="#f7a423"/>
        <path id="Trazado_13954" data-name="Trazado 13954" d="M981.009,2030.167v2.531l-.573,4.257.251-4.211Z" fill="#f7a423"/>
        <path id="Trazado_13955" data-name="Trazado 13955" d="M979.685,2030.351l.608,2.532a40.1,40.1,0,0,1,.143,4.073c-.143-.138-.429-4.142-.429-4.142Z" fill="#f7a423"/>
        <path id="Trazado_13956" data-name="Trazado 13956" d="M982.691,2032.561l-1.074,2-.859,2.485,1.145-2.462Z" fill="#f7a423"/>
        <path id="Trazado_13957" data-name="Trazado 13957" d="M978.727,2030.45l.442,2.1.972,2.468-.7-2.53Z" fill="#f7a423"/>
        <path id="Trazado_13958" data-name="Trazado 13958" d="M979.04,2033.067s1.253,3.935,1.217,3.866-.787-1.864-.787-1.864Z" fill="#f7a423"/>
        <path id="Trazado_13959" data-name="Trazado 13959" d="M980.365,2028.948l.215,2.692-.071,1.151-.251-1.1Z" fill="#f7a423"/>
      </g>
      <path id="Trazado_13960" data-name="Trazado 13960" d="M978.56,2047.728c0-.262,1.859-7.4,1.859-7.4l1.735-4.068,4.285,2.1-.408,9.251-2.959-7.48Z" fill="#005629"/>
      <path id="Trazado_13961" data-name="Trazado 13961" d="M979.521,2049.025c-.2-.328.11-7.4.11-7.4l-1.538-5.723-4.8-1.8,3.04,3.276,1.381,4.64Z" fill="#005629"/>
      <path id="Trazado_13962" data-name="Trazado 13962" d="M980.014,2045.612l-.229-1.723,4.41.707-1.735,9.514-.612-7.546Z" fill="#005629"/>
      <path id="Trazado_13963" data-name="Trazado 13963" d="M968.02,2043.732l6.777-2.15,4.307,4.848-1.389-5.643-1.608-1.559Z" fill="#005629"/>
      <path id="Trazado_13964" data-name="Trazado 13964" d="M979.848,2056.735l-3.444-8.809-3.368,1.28.618,7.727,2.52-6.5Z" fill="#005629"/>
      <path id="Trazado_13965" data-name="Trazado 13965" d="M980.414,2055.521l-3.265-10.629,3.98-.787Z" fill="#005629"/>
      <path id="Trazado_13966" data-name="Trazado 13966" d="M980.424,2060.274l-.171,1.376-1.1.024-.18-1.468Z" fill="#005629"/>
      <path id="Trazado_13967" data-name="Trazado 13967" d="M980.7,2054.635l-.228,1.838-1.467.032-.24-1.96Z" fill="#005629"/>
      <path id="Trazado_13968" data-name="Trazado 13968" d="M980.9,2051.092l-.228,1.838-1.467.032-.241-1.96Z" fill="#005629"/>
    </g>
    <g id="Grupo_3002" data-name="Grupo 3002">
      <path id="Trazado_13969" data-name="Trazado 13969" d="M1002.043,2018.136l-.267,6.48.2,10.3-.247,10.761s-1.02.394-1.02.2-.161-10.892-.161-10.892l.408-10.7.888-6.434Z" fill="#005629"/>
      <g id="Grupo_3001" data-name="Grupo 3001">
        <path id="Trazado_13970" data-name="Trazado 13970" d="M1003.516,2011.23l-.43,3.429-.966,3.383.68-3.452Z" fill="#f7a423"/>
        <path id="Trazado_13971" data-name="Trazado 13971" d="M1002.55,2011.138v2.531l-.573,4.257.251-4.211Z" fill="#f7a423"/>
        <path id="Trazado_13972" data-name="Trazado 13972" d="M1001.225,2011.322l.609,2.532a40.1,40.1,0,0,1,.143,4.073c-.143-.138-.429-4.142-.429-4.142Z" fill="#f7a423"/>
        <path id="Trazado_13973" data-name="Trazado 13973" d="M1004.232,2013.532l-1.074,2-.859,2.485,1.145-2.462Z" fill="#f7a423"/>
        <path id="Trazado_13974" data-name="Trazado 13974" d="M1000.268,2011.421l.442,2.1.972,2.468-.7-2.53Z" fill="#f7a423"/>
        <path id="Trazado_13975" data-name="Trazado 13975" d="M1000.581,2014.038s1.253,3.935,1.217,3.866-.787-1.864-.787-1.864Z" fill="#f7a423"/>
        <path id="Trazado_13976" data-name="Trazado 13976" d="M1001.905,2009.919l.215,2.692-.071,1.151-.251-1.1Z" fill="#f7a423"/>
      </g>
      <path id="Trazado_13977" data-name="Trazado 13977" d="M1000.1,2028.7c0-.262,1.859-7.4,1.859-7.4l1.734-4.068,4.286,2.1-.408,9.251-2.959-7.48Z" fill="#005629"/>
      <path id="Trazado_13978" data-name="Trazado 13978" d="M1001.062,2030c-.2-.328.11-7.4.11-7.4l-1.539-5.723-4.795-1.8,3.04,3.276,1.381,4.64Z" fill="#005629"/>
      <path id="Trazado_13979" data-name="Trazado 13979" d="M1001.555,2026.583l-.229-1.723,4.41.707-1.735,9.514-.612-7.545Z" fill="#005629"/>
      <path id="Trazado_13980" data-name="Trazado 13980" d="M989.561,2024.7l6.777-2.15,4.307,4.848-1.389-5.643-1.608-1.559Z" fill="#005629"/>
      <path id="Trazado_13981" data-name="Trazado 13981" d="M1001.389,2037.706l-3.444-8.809-3.368,1.28.618,7.727,2.52-6.5Z" fill="#005629"/>
      <path id="Trazado_13982" data-name="Trazado 13982" d="M1001.955,2036.492l-3.265-10.629,3.98-.787Z" fill="#005629"/>
      <path id="Trazado_13983" data-name="Trazado 13983" d="M1001.965,2041.245l-.171,1.376-1.1.024-.18-1.468Z" fill="#005629"/>
      <path id="Trazado_13984" data-name="Trazado 13984" d="M1002.24,2035.605l-.228,1.838-1.467.032-.24-1.96Z" fill="#005629"/>
      <path id="Trazado_13985" data-name="Trazado 13985" d="M1002.444,2032.063l-.228,1.838-1.467.032-.241-1.96Z" fill="#005629"/>
    </g>
    <g id="Grupo_3004" data-name="Grupo 3004">
      <path id="Trazado_13986" data-name="Trazado 13986" d="M1010.727,2049.743l-.266,6.481.2,10.3-.248,10.761s-1.02.394-1.02.2-.161-10.893-.161-10.893l.408-10.7.888-6.434Z" fill="#005629"/>
      <g id="Grupo_3003" data-name="Grupo 3003">
        <path id="Trazado_13987" data-name="Trazado 13987" d="M1012.2,2042.838l-.43,3.429-.966,3.383.68-3.452Z" fill="#f7a423"/>
        <path id="Trazado_13988" data-name="Trazado 13988" d="M1011.234,2042.746v2.531l-.573,4.257.251-4.211Z" fill="#f7a423"/>
        <path id="Trazado_13989" data-name="Trazado 13989" d="M1009.91,2042.93l.608,2.531a40.106,40.106,0,0,1,.143,4.073c-.143-.138-.429-4.142-.429-4.142Z" fill="#f7a423"/>
        <path id="Trazado_13990" data-name="Trazado 13990" d="M1012.916,2045.139l-1.074,2-.859,2.485,1.145-2.462Z" fill="#f7a423"/>
        <path id="Trazado_13991" data-name="Trazado 13991" d="M1008.952,2043.028l.442,2.1.972,2.468-.7-2.53Z" fill="#f7a423"/>
        <path id="Trazado_13992" data-name="Trazado 13992" d="M1009.265,2045.645s1.253,3.935,1.217,3.867-.787-1.865-.787-1.865Z" fill="#f7a423"/>
        <path id="Trazado_13993" data-name="Trazado 13993" d="M1010.59,2041.526l.215,2.692-.071,1.151-.251-1.1Z" fill="#f7a423"/>
      </g>
      <path id="Trazado_13994" data-name="Trazado 13994" d="M1008.785,2060.307c0-.263,1.859-7.4,1.859-7.4l1.735-4.068,4.285,2.1-.408,9.251-2.959-7.479Z" fill="#005629"/>
      <path id="Trazado_13995" data-name="Trazado 13995" d="M1009.746,2061.6c-.2-.328.11-7.4.11-7.4l-1.538-5.723-4.8-1.8,3.04,3.276,1.381,4.64Z" fill="#005629"/>
      <path id="Trazado_13996" data-name="Trazado 13996" d="M1010.239,2058.191l-.229-1.722,4.41.707-1.735,9.514-.612-7.545Z" fill="#005629"/>
      <path id="Trazado_13997" data-name="Trazado 13997" d="M998.245,2056.31l6.777-2.15,4.307,4.848-1.389-5.643-1.608-1.559Z" fill="#005629"/>
      <path id="Trazado_13998" data-name="Trazado 13998" d="M1010.073,2069.313l-3.444-8.81-3.368,1.28.618,7.727,2.52-6.5Z" fill="#005629"/>
      <path id="Trazado_13999" data-name="Trazado 13999" d="M1010.639,2068.1l-3.265-10.629,3.98-.787Z" fill="#005629"/>
      <path id="Trazado_14000" data-name="Trazado 14000" d="M1010.649,2072.852l-.171,1.376-1.1.025-.18-1.468Z" fill="#005629"/>
      <path id="Trazado_14001" data-name="Trazado 14001" d="M1010.924,2067.213l-.228,1.838-1.467.032-.24-1.96Z" fill="#005629"/>
      <path id="Trazado_14002" data-name="Trazado 14002" d="M1011.128,2063.67l-.228,1.838-1.467.032-.241-1.96Z" fill="#005629"/>
    </g>
    <g id="Grupo_3006" data-name="Grupo 3006">
      <path id="Trazado_14003" data-name="Trazado 14003" d="M1024.428,2012.9l-.266,6.481.2,10.3-.247,10.761s-1.021.394-1.021.2-.161-10.893-.161-10.893l.408-10.694.888-6.435Z" fill="#005629"/>
      <g id="Grupo_3005" data-name="Grupo 3005">
        <path id="Trazado_14004" data-name="Trazado 14004" d="M1025.9,2006l-.43,3.429-.966,3.383.68-3.452Z" fill="#f7a423"/>
        <path id="Trazado_14005" data-name="Trazado 14005" d="M1024.935,2005.9v2.531l-.573,4.257.251-4.211Z" fill="#f7a423"/>
        <path id="Trazado_14006" data-name="Trazado 14006" d="M1023.611,2006.089l.608,2.531a40.134,40.134,0,0,1,.143,4.074c-.143-.138-.429-4.143-.429-4.143Z" fill="#f7a423"/>
        <path id="Trazado_14007" data-name="Trazado 14007" d="M1026.617,2008.3l-1.074,2-.859,2.485,1.145-2.462Z" fill="#f7a423"/>
        <path id="Trazado_14008" data-name="Trazado 14008" d="M1022.653,2006.188l.442,2.1.972,2.468-.7-2.53Z" fill="#f7a423"/>
        <path id="Trazado_14009" data-name="Trazado 14009" d="M1022.966,2008.8s1.253,3.935,1.217,3.867-.787-1.864-.787-1.864Z" fill="#f7a423"/>
        <path id="Trazado_14010" data-name="Trazado 14010" d="M1024.291,2004.685l.215,2.692-.072,1.151-.251-1.1Z" fill="#f7a423"/>
      </g>
      <path id="Trazado_14011" data-name="Trazado 14011" d="M1022.486,2023.466c0-.263,1.859-7.4,1.859-7.4l1.735-4.068,4.285,2.1-.408,9.251-2.959-7.479Z" fill="#005629"/>
      <path id="Trazado_14012" data-name="Trazado 14012" d="M1023.447,2024.763c-.2-.328.11-7.4.11-7.4l-1.538-5.723-4.8-1.8,3.041,3.276,1.38,4.64Z" fill="#005629"/>
      <path id="Trazado_14013" data-name="Trazado 14013" d="M1023.94,2021.35l-.229-1.723,4.41.707-1.735,9.514-.612-7.545Z" fill="#005629"/>
      <path id="Trazado_14014" data-name="Trazado 14014" d="M1011.946,2019.469l6.777-2.15,4.307,4.848-1.389-5.643-1.608-1.559Z" fill="#005629"/>
      <path id="Trazado_14015" data-name="Trazado 14015" d="M1023.774,2032.472l-3.444-8.81-3.368,1.28.618,7.726,2.52-6.5Z" fill="#005629"/>
      <path id="Trazado_14016" data-name="Trazado 14016" d="M1024.34,2031.258l-3.265-10.629,3.98-.787Z" fill="#005629"/>
      <path id="Trazado_14017" data-name="Trazado 14017" d="M1024.35,2036.011l-.171,1.376-1.1.024-.18-1.468Z" fill="#005629"/>
      <path id="Trazado_14018" data-name="Trazado 14018" d="M1024.626,2030.372l-.228,1.838-1.467.033-.24-1.96Z" fill="#005629"/>
      <path id="Trazado_14019" data-name="Trazado 14019" d="M1024.83,2026.829l-.228,1.838-1.467.033-.241-1.96Z" fill="#005629"/>
    </g>
  </g>
</svg>
