<svg xmlns="http://www.w3.org/2000/svg" width="806.316" height="265.859" viewBox="0 0 806.316 265.859">
  <g id="Grupo_3811" data-name="Grupo 3811" transform="translate(-312.02 -10202.099)">
    <g id="Grupo_3679" data-name="Grupo 3679">
      <g id="Grupo_3642" data-name="Grupo 3642">
        <path id="Trazado_16671" data-name="Trazado 16671" d="M440.406,10279.337l-1.137-3.541,60.039-57.13,10.918,10.306Z" fill="#78e7ea"/>
      </g>
      <g id="Grupo_3643" data-name="Grupo 3643">
        <path id="Trazado_16672" data-name="Trazado 16672" d="M410.944,10288.972l-.992,3.011-73.327-45.661c.482-4.125,4.18-16.008,5.066-19.87Z" fill="#78e7ea"/>
      </g>
      <g id="Grupo_3678" data-name="Grupo 3678">
        <g id="Grupo_3644" data-name="Grupo 3644">
          <rect id="Rectángulo_564" data-name="Rectángulo 564" width="5.822" height="4.423" transform="translate(417.761 10245.771)" fill="#343e40"/>
        </g>
        <g id="Grupo_3645" data-name="Grupo 3645">
          <rect id="Rectángulo_565" data-name="Rectángulo 565" width="14.381" height="1.019" transform="translate(413.615 10247.521)" fill="#232728"/>
        </g>
        <g id="Grupo_3647" data-name="Grupo 3647">
          <g id="Grupo_3646" data-name="Grupo 3646">
            <path id="Trazado_16673" data-name="Trazado 16673" d="M429.993,10283.1l2.814-1.443-4.372-33.742-2-.126Z" fill="#343e40"/>
          </g>
        </g>
        <g id="Grupo_3648" data-name="Grupo 3648">
          <rect id="Rectángulo_566" data-name="Rectángulo 566" width="5.822" height="10.949" transform="translate(417.761 10275.797)" fill="#343e40"/>
        </g>
        <g id="Grupo_3649" data-name="Grupo 3649">
          <path id="Trazado_16674" data-name="Trazado 16674" d="M409.938,10294.314l3.982,3.222,1.9-6.961-3.694-3.022Z" fill="#474f4f"/>
        </g>
        <g id="Grupo_3650" data-name="Grupo 3650">
          <path id="Trazado_16675" data-name="Trazado 16675" d="M425.615,10269.041v-18.078c0-.638-.328-1.154-.732-1.154h-8.517c-.4,0-.731.517-.731,1.154v18.078Z" fill="#57625e"/>
        </g>
        <g id="Grupo_3651" data-name="Grupo 3651">
          <path id="Trazado_16676" data-name="Trazado 16676" d="M407.986,10293.345l2.394,1.959c.359.294.8.073.987-.492l1.857-5.646a1.533,1.533,0,0,0-.312-1.556l-2.395-1.96c-.359-.293-.8-.072-.986.492l-1.858,5.646A1.531,1.531,0,0,0,407.986,10293.345Z" fill="#57625e"/>
        </g>
        <g id="Grupo_3652" data-name="Grupo 3652">
          <path id="Trazado_16677" data-name="Trazado 16677" d="M418.634,10291.145l-2.189-1.566c-.368-.264-.793,0-.95.586l-1.9,7.1a1.6,1.6,0,0,0,.373,1.57l3.167,2.445c.363.28.732,0,.824-.616l1.176-7.922A1.81,1.81,0,0,0,418.634,10291.145Z" fill="#57625e"/>
        </g>
        <g id="Grupo_3653" data-name="Grupo 3653">
          <path id="Trazado_16678" data-name="Trazado 16678" d="M402.527,10256.6s2.365,4.257,9.968,8.907a14.513,14.513,0,0,0,8.13,2.164,47.266,47.266,0,0,0,8.56-1.082l11.972-7.493a3.378,3.378,0,0,1,1.425-.346l9.9,2.675L446.54,10266l-4.691-.561a2.468,2.468,0,0,0-1.4.379l-12.95,9.961a2.853,2.853,0,0,1-1.4.474h-10.86a2.238,2.238,0,0,1-1.349-.618l-20.478-20.66s-3.09-2.8-3.147-3.916c-.08-1.562.694-7.62,1.365-8.029.632-.387,7.784,5.729,9.51,7.632a10.941,10.941,0,0,1,.77,2.981C402.169,10255.226,402.527,10256.6,402.527,10256.6Z" fill="#57625e"/>
        </g>
        <g id="Grupo_3654" data-name="Grupo 3654">
          <rect id="Rectángulo_567" data-name="Rectángulo 567" width="0.838" height="7.537" transform="translate(420.205 10267.274)" fill="#65726d"/>
        </g>
        <g id="Grupo_3655" data-name="Grupo 3655">
          <rect id="Rectángulo_568" data-name="Rectángulo 568" width="9.98" height="1.141" transform="translate(415.635 10251.059)" fill="#3e4441"/>
        </g>
        <g id="Grupo_3656" data-name="Grupo 3656">
          <rect id="Rectángulo_569" data-name="Rectángulo 569" width="9.98" height="1.141" transform="translate(415.635 10253.568)" fill="#3e4441"/>
        </g>
        <g id="Grupo_3657" data-name="Grupo 3657">
          <rect id="Rectángulo_570" data-name="Rectángulo 570" width="9.98" height="1.141" transform="translate(415.635 10255.979)" fill="#3e4441"/>
        </g>
        <g id="Grupo_3658" data-name="Grupo 3658">
          <rect id="Rectángulo_571" data-name="Rectángulo 571" width="9.98" height="1.141" transform="translate(415.635 10258.449)" fill="#3e4441"/>
        </g>
        <g id="Grupo_3659" data-name="Grupo 3659">
          <rect id="Rectángulo_572" data-name="Rectángulo 572" width="9.98" height="1.141" transform="translate(415.635 10260.998)" fill="#3e4441"/>
        </g>
        <g id="Grupo_3660" data-name="Grupo 3660">
          <rect id="Rectángulo_573" data-name="Rectángulo 573" width="9.98" height="1.141" transform="translate(415.635 10263.526)" fill="#3e4441"/>
        </g>
        <g id="Grupo_3661" data-name="Grupo 3661">
          <rect id="Rectángulo_574" data-name="Rectángulo 574" width="9.98" height="1.141" transform="translate(415.635 10266.133)" fill="#3e4441"/>
        </g>
        <g id="Grupo_3662" data-name="Grupo 3662">
          <path id="Trazado_16679" data-name="Trazado 16679" d="M417.479,10274.676l2.116-.087,7.441-.307,14.266-10.756,6.748,1.311-1.51,1.163-4.691-.561a2.468,2.468,0,0,0-1.4.379l-12.95,9.961a2.863,2.863,0,0,1-1.4.474h-9.351v-.772A.793.793,0,0,1,417.479,10274.676Z" fill="#65726d"/>
        </g>
        <g id="Grupo_3663" data-name="Grupo 3663">
          <path id="Trazado_16680" data-name="Trazado 16680" d="M457.33,10256.317l-14.3,11.664a2.993,2.993,0,0,0-.6,3.088l2.445,7.1c.385,1.12,1.279,1.552,2,.964l14.232-11.657a3.023,3.023,0,0,0,.61-3.1l-2.393-7.082C458.938,10256.169,458.048,10255.732,457.33,10256.317Zm-7.586,15.893-1.349-3.924a2.931,2.931,0,0,1,.612-3.062l3.006-2.36c.723-.57,1.608-.113,1.978,1.02l1.256,3.852a3.061,3.061,0,0,1-.63,3.109l-2.875,2.336C451.024,10273.765,450.129,10273.331,449.744,10272.21Z" fill="#3e4441"/>
        </g>
        <g id="Grupo_3664" data-name="Grupo 3664">
          <path id="Trazado_16681" data-name="Trazado 16681" d="M428.435,10247.915s-1.074-2.234-1.5-2.888a1.729,1.729,0,0,0-1.3-.7h-9.511a1.762,1.762,0,0,0-1.3.7c-.448.662-1.624,2.888-1.624,2.888l.307,1.115,1.424-1.115h11.719l1.026.906Z" fill="#343e40"/>
        </g>
        <g id="Grupo_3666" data-name="Grupo 3666">
          <g id="Grupo_3665" data-name="Grupo 3665">
            <path id="Trazado_16682" data-name="Trazado 16682" d="M420.11,10289.8l1.484-3.556c-.053-.043-4.877-4.077-7.119-6.236-2.6-2.5-2.778-3-2.742-3.573.1-1.612,3.322-28.544,3.322-28.544l-1.859.022-3.449,22.177c-.024.137-.757,4.393-.9,6.606-.161,2.606.578,3.621,3.559,6.494C414.72,10285.418,419.891,10289.624,420.11,10289.8Z" fill="#343e40"/>
          </g>
        </g>
        <g id="Grupo_3667" data-name="Grupo 3667">
          <path id="Trazado_16683" data-name="Trazado 16683" d="M437.283,10283.792l2.554-1.939-2.205-7.146-2.554,1.939Z" fill="#4c5652"/>
        </g>
        <g id="Grupo_3668" data-name="Grupo 3668">
          <path id="Trazado_16684" data-name="Trazado 16684" d="M430.444,10279.734l-7.617,5.942v11.347l10.887-8.7Z" fill="#57625e"/>
        </g>
        <g id="Grupo_3669" data-name="Grupo 3669">
          <path id="Trazado_16685" data-name="Trazado 16685" d="M433.6,10288.81l4.664-3.6a1.341,1.341,0,0,0,.377-1.421l-2.552-8.228c-.162-.528-.594-.755-.966-.5l-4.69,3.486a1.31,1.31,0,0,0-.381,1.407l2.587,8.367C432.8,10288.847,433.233,10289.067,433.6,10288.81Z" fill="#465051"/>
        </g>
        <g id="Grupo_3670" data-name="Grupo 3670">
          <path id="Trazado_16686" data-name="Trazado 16686" d="M440.185,10282.527l1.236-.938a1.509,1.509,0,0,0,.342-1.541l-1.984-6.5c-.175-.574-.612-.814-.976-.539l-1.236.939a1.506,1.506,0,0,0-.342,1.54l1.983,6.5C439.384,10282.562,439.821,10282.8,440.185,10282.527Z" fill="#69706d"/>
        </g>
        <g id="Grupo_3671" data-name="Grupo 3671">
          <path id="Trazado_16687" data-name="Trazado 16687" d="M418.082,10304.837h5.173a.779.779,0,0,0,.66-.858v-17.6a.778.778,0,0,0-.66-.856h-5.173a.778.778,0,0,0-.66.856v17.6A.778.778,0,0,0,418.082,10304.837Z" fill="#57625e"/>
        </g>
        <g id="Grupo_3672" data-name="Grupo 3672">
          <rect id="Rectángulo_575" data-name="Rectángulo 575" width="7.19" height="42.225" transform="translate(417.033 10307.974)" fill="#57625e"/>
        </g>
        <g id="Grupo_3673" data-name="Grupo 3673">
          <path id="Trazado_16688" data-name="Trazado 16688" d="M417.433,10333.228H423.8c.405,0,.732-.516.732-1.153v-8.366c0-.637-.327-1.154-.732-1.154h-6.371c-.4,0-.731.518-.731,1.154v8.366C416.7,10332.712,417.029,10333.228,417.433,10333.228Z" fill="#465051"/>
        </g>
        <g id="Grupo_3674" data-name="Grupo 3674">
          <rect id="Rectángulo_576" data-name="Rectángulo 576" width="7.19" height="3.414" transform="translate(417.033 10307.974)" fill="#343e40"/>
        </g>
        <g id="Grupo_3675" data-name="Grupo 3675">
          <path id="Trazado_16689" data-name="Trazado 16689" d="M417.4,10308.467h6.384c.362,0,.656-.517.656-1.153v-4.9c0-.638-.294-1.154-.656-1.154H417.4c-.363,0-.657.517-.657,1.154v4.9C416.747,10307.95,417.041,10308.467,417.4,10308.467Z" fill="#465051"/>
        </g>
        <g id="Grupo_3676" data-name="Grupo 3676">
          <path id="Trazado_16690" data-name="Trazado 16690" d="M417.02,10313.071h7.192c.372,0,.675-.57.675-1.273v-1.192c0-.7-.3-1.273-.675-1.273H417.02c-.373,0-.675.57-.675,1.273v1.192C416.345,10312.5,416.647,10313.071,417.02,10313.071Z" fill="#465051"/>
        </g>
        <g id="Grupo_3677" data-name="Grupo 3677">
          <path id="Trazado_16691" data-name="Trazado 16691" d="M417.28,10320.859h6.693a.807.807,0,0,0,.769-.843v-6.1a.807.807,0,0,0-.769-.841H417.28a.807.807,0,0,0-.769.841v6.1A.807.807,0,0,0,417.28,10320.859Z" fill="#343e40"/>
        </g>
      </g>
    </g>
    <g id="Grupo_3680" data-name="Grupo 3680">
      <rect id="Rectángulo_577" data-name="Rectángulo 577" width="798" height="129.314" transform="translate(315.991 10333.95)" fill="#70a83b"/>
    </g>
    <g id="Grupo_3683" data-name="Grupo 3683">
      <g id="Grupo_3682" data-name="Grupo 3682">
        <g id="Grupo_3681" data-name="Grupo 3681">
          <path id="Trazado_16692" data-name="Trazado 16692" d="M1115.164,10369.151l-.854-11.395-4.333,6.049c-.629.845-1.2,1.447-1.323,1.376.016-4.13.036-15.02-.505-14.5-.337.323-2.926,14.066-3.743,13.861-1.1-.276-5.306-13.372-9.423-15.971a61.744,61.744,0,0,1,2.438,16.664c0,.585-4.041-6.114-8.519-8.233a62.759,62.759,0,0,1,.055,7.506c-.271,1.235-1.637-4.586-1.908-5.821-.411-1.877-1.645-8.052-1.645-8.052-1.822.839-6.33,15.909-6.33,15.265,0-8.973-.246-17.328-.246-17.328-4.116,2.6-8.318,15.694-9.423,15.971-.816.205-3.406-13.538-3.742-13.861-.645-.617-.836,13.1-.713,14.854l-.042.023c-.28-.454-2.348-1.051-2.471-3.147-.148-2.5-.131-7.057-.91-7.625-.116-.084-6.471,12.117-6.471,11.759a54.779,54.779,0,0,1,2.162-14.781c-3.651,2.306-7.378,13.921-8.358,14.166-.724.182-3.021-12.008-3.319-12.295-.4-.383-.177,4.684-1.814,8.069-.371.767-.567,2.946-1.255,3.32a5.647,5.647,0,0,1-1.5-3.2c-.407-3.01.83-10.932.67-10.92-1.271.084-9.517,15.022-9.517,14.33a61.744,61.744,0,0,1,2.438-16.664c-4.117,2.6-8.319,15.694-9.424,15.971-.816.205-3.4-13.538-3.742-13.861-.541-.519-1.331,13.528-1.627,13.688-.714-.917-3.463-3.53-4.33-6.187-.957-2.936-.693-6.737-1.387-6.073-.9.856-4.947,13.563-4.947,13.128a61.767,61.767,0,0,1,2.437-16.664c-4.116,2.6-8.318,15.694-9.423,15.971-.816.205-3.406-13.538-3.742-13.861-.664-.636-.847,13.907-.7,14.974-.4-.82-7-8.958-6.342-6.168a4.867,4.867,0,0,1,.07,3.216,4.814,4.814,0,0,1-1.763,2.851c.115-.838-.612-9.807-1.135-9.307-.265.254-2.3,11.07-2.945,10.909-.869-.219-4.176-10.524-7.416-12.569a48.607,48.607,0,0,1,1.918,13.115c0,.334-6.072-11.471-7.46-11.471-.109,0-.23,11.51-2.072,10.711-3.538-1.536,0-13.59-1.151-13.59-.928,0-7.546,12.569-7.632,11.884-1.083-8.669-.091-12.676-.091-12.676-4.116,2.6-5.79,11.706-6.895,11.982-.816.205-3.405-13.538-3.742-13.861-.53-.508-.753,8.672-.748,12.931-.33.193-.673.39-1.017.58-.777-.987-2.3-2.566-2.434-4.284-.228-2.917.38-6.236.23-6.235-3.368.018-7.251,12.523-7.251,11.83a168.583,168.583,0,0,1,.906-16.931c-4.117,2.6-8.319,15.694-9.424,15.971-.816.205-3.4-13.538-3.742-13.861-.664-.636-.847,13.908-.7,14.974-.4-.82-6.463-10.777-5.8-7.985.1.428.594,7.337.868,8.971-4.321.781-2.94-10.89-2.94-10.89-3.457,1.752-6.132,12.4-6.132,11.951,0-7.062,2.909-17.066,2.909-17.066-3.24,2.045-7.538,16.3-8.407,16.521-.642.161-2.68-10.655-2.945-10.909-.523-.5-.667,10.946-.552,11.784a13.486,13.486,0,0,1-1.941-4.472c-.38-1.52-1.736-5.747-1.387-7.213.662-2.791-4.888,8.488-5.29,9.309.147-1.065-.037-15.609-.7-14.974-.337.323-2.926,14.066-3.743,13.861-1.1-.276-5.307-13.372-9.423-15.971a61.744,61.744,0,0,1,2.438,16.664c0,.435-4.041-2.812-5.366-6.179-.159-.4-2.257-5.955-2.708-6.6-.1-.146-.18.866-1.354,5.521a1.625,1.625,0,0,1-2.166,1.3c.016-4.131-1.2-9.9-1.746-9.384-.336.322-4.118,10.31-4.934,10.105-1.105-.277-3.067-8.825-7.184-11.424a61.744,61.744,0,0,1,2.438,16.664c0,.6-4.255-6.468-8.871-8.389,0,0,2.67,8.975,1.458,9.614a7.982,7.982,0,0,1-5.3-5.435c-.379-1.73.806-8.153.806-8.153-4.143,3.357-9.128,12.983-9.128,12.362a61.744,61.744,0,0,1,2.438-16.664c-4.117,2.6-8.319,15.694-9.424,15.971-.816.205-3.405-13.538-3.742-13.861-.645-.617-.836,13.1-.712,14.854-.015.009-5.055-9.364-4.772-8.176.18.76-1.189,4.276-1.387,5.062-.96,3.812-2.825,4.717-2.853,4.361a42.514,42.514,0,0,1,1.28-15.019c-3.652,2.306-7.379,13.921-8.359,14.166-.724.182-3.02-12.008-3.319-12.295-.589-.562-.751,12.336-.622,13.281-.356-.727-5.6-8.044-5.624-5.47a28.259,28.259,0,0,0,.525,4.974c-3.663-2.969-5.085-8.437-5.884-8.554-.9-.132-.282,11.44-1.264,10.8-1.174-.762-2.64-6.854-4.152-8.7-1.107-1.348-1.775,7.982-2.708,6.721-1.221-1.653-2.66-9.334-2.99-9.728,0,0-3.945,9.9-5.32,12.186h-.285c.115-2.213-.636-11.584-.636-11.584-4.144,3.356-7.239,11.313-7.239,10.692a74.049,74.049,0,0,1,1.724-15.969c-4.116,2.6-8.319,13.67-9.423,13.947-.816.2-3.406-12.527-3.743-12.85-.644-.617-.836,12.084-.712,13.842-.014.008-5.054-9.364-4.772-8.177.18.761-1.189,4.277-1.387,5.062-.96,3.812-2.825,4.718-2.853,4.361a42.534,42.534,0,0,1,1.28-15.018c-3.651,2.3-7.379,13.92-8.359,14.165-.723.182-2.573-13.315-3.266-13.568-.517-.188-.6,7.951-.58,14.581-.951-3.737-2.03-8.272-2.888-12.683,0,0-1.446,5.266-2.687,8.288-.939,2.285-1.378,3.315-3.422,4.4.366-.487,2.849-10.534,2.849-10.534-4.725,1.736-7.6,9.884-7.6,9.271,0-8.973,2.878-10.391,2.878-10.391-6.446-1.279-5.584,9.474-6.689,9.751-.816.205-3.406-13.539-3.742-13.861-.541-.519-.734,5.868-2,10.186a24.3,24.3,0,0,1-1.611,4c-.715-.916.157-14.389,0-14.389-1.854,0-8.681,15.2-8.681,14.761a88.55,88.55,0,0,1,1.051-14.639c-4.117,2.6-6.931,13.669-8.036,13.946-.817.205-3.406-13.539-3.743-13.861-.663-.636-.847,13.908-.7,14.974-.4-.82-5.713-14.5-5.815-14.327-.347.59.4,5.706-.462,10.038a11.439,11.439,0,0,1-2.081,4.893c.115-.839-1.1-13.154-1.618-12.654-.265.254-1.438,12.056-2.081,11.9-.869-.218-4.234-8.868-7.473-10.913a48.6,48.6,0,0,1,1.918,13.114c0,.388-2.608-9.567-5.425-11.734,0,0-1.754,7.741-1.908,8.352-.246.981-.667,3.718-1.387,4.05-.4-.752-.273-3.7-.52-4.683-.232-.926.463-8.9.463-8.9-2.774,3.29-6.363,13.354-6.363,12.915a48.6,48.6,0,0,1,1.918-13.114c-3.24,2.045-6.013,9.176-6.883,9.394-.642.161-2.74-10.038-3.005-10.292-.522-.5-1.386,11.647-1.271,12.486a23.15,23.15,0,0,1-1.965-4.809,38.114,38.114,0,0,1,.231-9.111c.663-2.791-6.236,12.58-6.638,13.4.147-1.065-.037-15.609-.7-14.974-.337.322-2.926,14.066-3.743,13.861-1.1-.277-5.307-13.372-9.423-15.971a61.755,61.755,0,0,1,2.437,16.663c0,.436-8.544-12.61-8.679-12.362-.345.64.353,4.182.116,7.193-.134,1.7-2.933,5.283-3.223,5.116.016-4.13.036-15.02-.505-14.5-.337.322-2.926,14.066-3.742,13.861-1.1-.277-5.307-13.372-9.424-15.971a61.732,61.732,0,0,1,2.438,16.663c0,.585-4.041-6.113-8.519-8.232a62.722,62.722,0,0,1,.055,7.5c-.271,1.235-1.637-4.585-1.907-5.82-.412-1.877-1.646-8.053-1.646-8.053-1.822.84-6.33,15.909-6.33,15.265,0-8.973-.245-17.327-.245-17.327-4.117,2.6-8.319,15.693-9.424,15.971-.816.205-3.4-13.539-3.742-13.861-.645-.618-.836,13.1-.712,14.854l-.043.023c-.28-.454-2.347-1.051-2.471-3.148-.148-2.5-.131-7.056-.91-7.624-.116-.084-6.471,12.116-6.471,11.758a54.753,54.753,0,0,1,2.163-14.78c-3.652,2.3-7.379,13.92-8.359,14.166-.724.181-3.02-12.009-3.319-12.295-.4-.383-.177,4.683-1.814,8.068-.371.768-.566,2.945-1.255,3.319a5.645,5.645,0,0,1-1.5-3.2c-.407-3.011.83-10.932.67-10.92-1.271.084-9.516,15.022-9.516,14.329a61.756,61.756,0,0,1,2.437-16.663c-4.116,2.6-8.318,15.693-9.423,15.971-.817.205-3.406-13.539-3.743-13.861-.541-.519-1.331,13.528-1.627,13.688-.714-.917-3.462-3.53-4.329-6.188-.958-2.935-.693-6.738-1.387-6.073-.9.857-4.948,13.563-4.948,13.128a61.732,61.732,0,0,1,2.438-16.663c-4.117,2.6-8.319,15.693-9.424,15.971-.816.205-3.4-13.539-3.742-13.861-.664-.636-.847,13.907-.7,14.974-.4-.82-7-8.958-6.342-6.168a11.9,11.9,0,0,1-.2,5.057,7.747,7.747,0,0,1-2.076,3.487c.115-.839-.029-12.284-.551-11.784-.265.254-2.3,11.069-2.945,10.909-.87-.219-4.177-10.524-7.417-12.569a48.581,48.581,0,0,1,1.919,13.114c0,.334-6.073-11.471-7.461-11.471-.109,0-.23,11.511-2.072,10.711-3.538-1.535,0-13.589-1.151-13.589-.928,0-7.632,12.576-7.632,11.883a61.732,61.732,0,0,1,2.438-16.663c-4.116,2.6-8.319,15.693-9.423,15.971-.816.205-3.406-13.539-3.743-13.861-.53-.508-.753,8.671-.747,12.931-.331.193-.673.39-1.018.579-.777-.986-2.3-2.565-2.434-4.283-.227-2.917.381-6.236.23-6.235-3.368.016-7.251,12.523-7.251,11.83a168.589,168.589,0,0,1,.906-16.931c-4.116,2.6-8.319,15.693-9.423,15.971-.817.205-3.406-13.539-3.743-13.861-.663-.636-.847,13.908-.7,14.974-.4-.82-6.463-10.777-5.8-7.986.1.429.6,7.337.868,8.972-4.321.78-2.94-10.89-2.94-10.89-3.457,1.752-6.132,12.4-6.132,11.95,0-7.062,2.909-17.066,2.909-17.066-3.239,2.045-7.537,16.3-8.407,16.521-.642.16-2.68-10.655-2.945-10.909-.522-.5-.667,10.945-.551,11.784a13.463,13.463,0,0,1-1.942-4.473c-.38-1.519-1.735-5.746-1.387-7.212.663-2.791-4.888,8.488-5.289,9.309.146-1.065-.038-15.609-.7-14.974-.337.322-2.926,14.066-3.742,13.861-1.1-.277-5.307-13.372-9.424-15.971a61.732,61.732,0,0,1,2.438,16.663c0,.436-2.521-1.641-3.845-5.009-.159-.4-2.81-7.55-4.664-7.55-.157,0,.776,5.472.539,8.484-.134,1.7-3.284,2.884-3.574,2.717.015-4.13-.206-13.715-.748-13.2-.336.322-2.926,14.066-3.742,13.861-1.105-.277-5.307-13.372-9.423-15.971a61.755,61.755,0,0,1,2.437,16.663c0,.6-4.255-6.467-8.871-8.388,0,0,2.671,8.974,1.458,9.614a7.977,7.977,0,0,1-5.294-5.436c-.379-1.729.8-8.153.8-8.153-4.143,3.357-9.128,12.982-9.128,12.362a61.732,61.732,0,0,1,2.438-16.663c-4.116,2.6-8.319,15.693-9.423,15.971-.817.205-3.406-13.539-3.743-13.861-.645-.618-.836,13.1-.712,14.854-.014.008-5.054-9.364-4.772-8.177.18.761-1.189,4.277-1.387,5.063-.96,3.811-2.825,4.717-2.853,4.361a42.538,42.538,0,0,1,1.28-15.019c-3.651,2.3-7.379,13.92-8.359,14.166-.723.181-3.02-12.009-3.319-12.295-.588-.563-.751,12.336-.621,13.281-.357-.728-5.876-8-5.625-5.471.5,5.073.157,50.037.157,50.037H554.974l70.954-.2,489.236-.175Z" fill="#517c24"/>
        </g>
      </g>
    </g>
    <g id="Grupo_3721" data-name="Grupo 3721">
      <g id="Grupo_3684" data-name="Grupo 3684" opacity="0.8">
        <path id="Trazado_16693" data-name="Trazado 16693" d="M633.77,10308.97l-1.5-4.658,65.181-64.036c1.766,0,4.781.525,8.948,4.1a14.057,14.057,0,0,1,4.679,8.914Z" fill="#009bdb"/>
      </g>
      <g id="Grupo_3685" data-name="Grupo 3685" opacity="0.8">
        <path id="Trazado_16694" data-name="Trazado 16694" d="M595.006,10321.647l-1.3,3.96-127-81.6s-1.138-7.681,1.874-13.171c2.7-4.926,6.242-7.633,10.1-9.971Z" fill="#009bdb"/>
      </g>
      <g id="Grupo_3720" data-name="Grupo 3720">
        <g id="Grupo_3686" data-name="Grupo 3686">
          <rect id="Rectángulo_578" data-name="Rectángulo 578" width="7.661" height="5.82" transform="translate(603.975 10264.807)" fill="#343e40"/>
        </g>
        <g id="Grupo_3687" data-name="Grupo 3687">
          <rect id="Rectángulo_579" data-name="Rectángulo 579" width="18.921" height="1.341" transform="translate(598.521 10267.108)" fill="#232728"/>
        </g>
        <g id="Grupo_3689" data-name="Grupo 3689">
          <g id="Grupo_3688" data-name="Grupo 3688">
            <path id="Trazado_16695" data-name="Trazado 16695" d="M620.068,10313.922l3.7-1.9-5.752-44.394-2.638-.167Z" fill="#343e40"/>
          </g>
        </g>
        <g id="Grupo_3690" data-name="Grupo 3690">
          <rect id="Rectángulo_580" data-name="Rectángulo 580" width="7.661" height="14.406" transform="translate(603.975 10304.312)" fill="#343e40"/>
        </g>
        <g id="Grupo_3691" data-name="Grupo 3691">
          <path id="Trazado_16696" data-name="Trazado 16696" d="M593.683,10328.677l5.239,4.238,2.5-9.159-4.86-3.977Z" fill="#474f4f"/>
        </g>
        <g id="Grupo_3692" data-name="Grupo 3692">
          <path id="Trazado_16697" data-name="Trazado 16697" d="M614.308,10295.424v-23.785c0-.839-.431-1.519-.962-1.519H602.14c-.531,0-.962.68-.962,1.519v23.785Z" fill="#57625e"/>
        </g>
        <g id="Grupo_3693" data-name="Grupo 3693">
          <path id="Trazado_16698" data-name="Trazado 16698" d="M591.114,10327.4l3.151,2.578c.472.387,1.053.1,1.3-.648l2.443-7.428a2.014,2.014,0,0,0-.411-2.047l-3.151-2.578c-.471-.387-1.053-.1-1.3.647l-2.444,7.428A2.016,2.016,0,0,0,591.114,10327.4Z" fill="#57625e"/>
        </g>
        <g id="Grupo_3694" data-name="Grupo 3694">
          <path id="Trazado_16699" data-name="Trazado 16699" d="M605.124,10324.506l-2.88-2.062c-.484-.348-1.044,0-1.251.771l-2.5,9.349a2.108,2.108,0,0,0,.491,2.065l4.167,3.217c.477.368.963,0,1.084-.811l1.546-10.423A2.38,2.38,0,0,0,605.124,10324.506Z" fill="#57625e"/>
        </g>
        <g id="Grupo_3695" data-name="Grupo 3695">
          <path id="Trazado_16700" data-name="Trazado 16700" d="M583.931,10279.055s3.113,5.6,13.116,11.72a19.086,19.086,0,0,0,10.7,2.847,62.129,62.129,0,0,0,11.263-1.423l15.752-9.859a4.455,4.455,0,0,1,1.875-.455l13.024,3.521-7.817,6.019-6.172-.739a3.257,3.257,0,0,0-1.845.5l-17.038,13.105a3.75,3.75,0,0,1-1.84.625H600.656a2.95,2.95,0,0,1-1.775-.813l-26.943-27.182s-4.065-3.687-4.141-5.153c-.1-2.056.913-10.026,1.8-10.564.832-.508,10.241,7.538,12.512,10.041a14.377,14.377,0,0,1,1.014,3.924C583.461,10277.247,583.931,10279.055,583.931,10279.055Z" fill="#57625e"/>
        </g>
        <g id="Grupo_3696" data-name="Grupo 3696">
          <rect id="Rectángulo_581" data-name="Rectángulo 581" width="1.103" height="9.916" transform="translate(607.191 10293.099)" fill="#65726d"/>
        </g>
        <g id="Grupo_3697" data-name="Grupo 3697">
          <rect id="Rectángulo_582" data-name="Rectángulo 582" width="13.13" height="1.502" transform="translate(601.178 10271.765)" fill="#3e4441"/>
        </g>
        <g id="Grupo_3698" data-name="Grupo 3698">
          <rect id="Rectángulo_583" data-name="Rectángulo 583" width="13.13" height="1.502" transform="translate(601.178 10275.066)" fill="#3e4441"/>
        </g>
        <g id="Grupo_3699" data-name="Grupo 3699">
          <rect id="Rectángulo_584" data-name="Rectángulo 584" width="13.13" height="1.502" transform="translate(601.178 10278.239)" fill="#3e4441"/>
        </g>
        <g id="Grupo_3700" data-name="Grupo 3700">
          <rect id="Rectángulo_585" data-name="Rectángulo 585" width="13.13" height="1.502" transform="translate(601.178 10281.489)" fill="#3e4441"/>
        </g>
        <g id="Grupo_3701" data-name="Grupo 3701">
          <rect id="Rectángulo_586" data-name="Rectángulo 586" width="13.13" height="1.502" transform="translate(601.178 10284.841)" fill="#3e4441"/>
        </g>
        <g id="Grupo_3702" data-name="Grupo 3702">
          <rect id="Rectángulo_587" data-name="Rectángulo 587" width="13.13" height="1.502" transform="translate(601.178 10288.168)" fill="#3e4441"/>
        </g>
        <g id="Grupo_3703" data-name="Grupo 3703">
          <rect id="Rectángulo_588" data-name="Rectángulo 588" width="13.13" height="1.502" transform="translate(601.178 10291.598)" fill="#3e4441"/>
        </g>
        <g id="Grupo_3704" data-name="Grupo 3704">
          <path id="Trazado_16701" data-name="Trazado 16701" d="M603.6,10302.838l2.785-.115,9.789-.4,18.77-14.151,8.879,1.725-1.987,1.53-6.172-.739a3.257,3.257,0,0,0-1.845.5l-17.038,13.105a3.75,3.75,0,0,1-1.84.625h-12.3v-1.019A1.041,1.041,0,0,1,603.6,10302.838Z" fill="#65726d"/>
        </g>
        <g id="Grupo_3705" data-name="Grupo 3705">
          <path id="Trazado_16702" data-name="Trazado 16702" d="M656.036,10278.683l-18.816,15.348a3.934,3.934,0,0,0-.791,4.062l3.216,9.34c.507,1.474,1.683,2.042,2.627,1.27L661,10293.364a3.984,3.984,0,0,0,.8-4.078l-3.149-9.317C658.152,10278.489,656.981,10277.913,656.036,10278.683Zm-9.981,20.91-1.774-5.162a3.854,3.854,0,0,1,.8-4.027l3.955-3.106c.951-.75,2.117-.148,2.6,1.342l1.653,5.066a4.027,4.027,0,0,1-.83,4.092l-3.782,3.074C647.739,10301.64,646.562,10301.068,646.055,10299.593Z" fill="#3e4441"/>
        </g>
        <g id="Grupo_3706" data-name="Grupo 3706">
          <path id="Trazado_16703" data-name="Trazado 16703" d="M618.02,10267.629s-1.414-2.939-1.973-3.8a2.271,2.271,0,0,0-1.714-.92H601.819a2.317,2.317,0,0,0-1.713.92c-.589.871-2.137,3.8-2.137,3.8l.4,1.466,1.873-1.466h15.419l1.351,1.191Z" fill="#343e40"/>
        </g>
        <g id="Grupo_3708" data-name="Grupo 3708">
          <g id="Grupo_3707" data-name="Grupo 3707">
            <path id="Trazado_16704" data-name="Trazado 16704" d="M607.065,10322.738l1.954-4.678c-.07-.058-6.418-5.364-9.367-8.205-3.414-3.295-3.655-3.945-3.608-4.7.132-2.121,4.372-37.556,4.372-37.556l-2.447.03-4.538,29.178c-.032.18-1,5.778-1.177,8.691-.212,3.43.76,4.764,4.682,8.545C599.975,10316.972,606.778,10322.5,607.065,10322.738Z" fill="#343e40"/>
          </g>
        </g>
        <g id="Grupo_3709" data-name="Grupo 3709">
          <path id="Trazado_16705" data-name="Trazado 16705" d="M629.661,10314.832l3.361-2.552-2.9-9.4-3.361,2.552Z" fill="#4c5652"/>
        </g>
        <g id="Grupo_3710" data-name="Grupo 3710">
          <path id="Trazado_16706" data-name="Trazado 16706" d="M620.663,10309.493l-10.022,7.818v14.929l14.325-11.446Z" fill="#57625e"/>
        </g>
        <g id="Grupo_3711" data-name="Grupo 3711">
          <path id="Trazado_16707" data-name="Trazado 16707" d="M624.818,10321.434l6.136-4.732a1.765,1.765,0,0,0,.5-1.869l-3.358-10.826c-.213-.694-.782-.991-1.271-.664l-6.171,4.588a1.723,1.723,0,0,0-.5,1.851l3.4,11.009C623.765,10321.483,624.331,10321.772,624.818,10321.434Z" fill="#465051"/>
        </g>
        <g id="Grupo_3712" data-name="Grupo 3712">
          <path id="Trazado_16708" data-name="Trazado 16708" d="M633.478,10313.167l1.627-1.234a1.981,1.981,0,0,0,.449-2.026l-2.609-8.55c-.231-.756-.806-1.073-1.285-.709l-1.626,1.234a1.982,1.982,0,0,0-.45,2.026l2.61,8.55C632.424,10313.214,633,10313.531,633.478,10313.167Z" fill="#69706d"/>
        </g>
        <g id="Grupo_3713" data-name="Grupo 3713">
          <path id="Trazado_16709" data-name="Trazado 16709" d="M604.4,10342.52h6.8a1.024,1.024,0,0,0,.869-1.128v-23.157a1.024,1.024,0,0,0-.869-1.128h-6.8a1.024,1.024,0,0,0-.869,1.128v23.157A1.024,1.024,0,0,0,604.4,10342.52Z" fill="#57625e"/>
        </g>
        <g id="Grupo_3714" data-name="Grupo 3714">
          <rect id="Rectángulo_589" data-name="Rectángulo 589" width="9.46" height="64.24" transform="translate(603.018 10346.648)" fill="#57625e"/>
        </g>
        <g id="Grupo_3715" data-name="Grupo 3715">
          <path id="Trazado_16710" data-name="Trazado 16710" d="M603.544,10379.875h8.383c.531,0,.962-.68.962-1.518v-11.008c0-.839-.431-1.519-.962-1.519h-8.383c-.532,0-.962.68-.962,1.519v11.008C602.582,10379.2,603.012,10379.875,603.544,10379.875Z" fill="#465051"/>
        </g>
        <g id="Grupo_3716" data-name="Grupo 3716">
          <rect id="Rectángulo_590" data-name="Rectángulo 590" width="9.46" height="4.491" transform="translate(603.018 10346.648)" fill="#343e40"/>
        </g>
        <g id="Grupo_3717" data-name="Grupo 3717">
          <path id="Trazado_16711" data-name="Trazado 16711" d="M603.506,10347.3h8.4c.477,0,.864-.679.864-1.518v-6.452c0-.839-.387-1.52-.864-1.52h-8.4c-.477,0-.864.681-.864,1.52v6.452C602.642,10346.617,603.029,10347.3,603.506,10347.3Z" fill="#465051"/>
        </g>
        <g id="Grupo_3718" data-name="Grupo 3718">
          <path id="Trazado_16712" data-name="Trazado 16712" d="M603,10353.353h9.462c.491,0,.888-.749.888-1.674v-1.569c0-.925-.4-1.675-.888-1.675H603c-.49,0-.888.75-.888,1.675v1.569C602.112,10352.6,602.51,10353.353,603,10353.353Z" fill="#465051"/>
        </g>
        <g id="Grupo_3719" data-name="Grupo 3719">
          <path id="Trazado_16713" data-name="Trazado 16713" d="M603.342,10363.6h8.807a1.062,1.062,0,0,0,1.011-1.107v-8.032a1.063,1.063,0,0,0-1.011-1.108h-8.807a1.063,1.063,0,0,0-1.011,1.108v8.032A1.062,1.062,0,0,0,603.342,10363.6Z" fill="#343e40"/>
        </g>
      </g>
    </g>
    <g id="Grupo_3722" data-name="Grupo 3722">
      <path id="Trazado_16714" data-name="Trazado 16714" d="M316,10403.442c.761,2.146,1.477,3.835,1.87,3.766,1.413-.245,6.787-11.86,12.052-14.165a39.8,39.8,0,0,0-3.118,14.78c0,.357,9.164-11.843,9.331-11.758,1.123.567,1.1,5.124,1.311,7.624.179,2.1,3.16,2.693,3.564,3.148l.061-.023c-.179-1.758.1-15.472,1.027-14.854.485.323,4.219,14.066,5.4,13.862,1.593-.277,7.652-13.372,13.587-15.972,0,0,.355,8.355.355,17.328,0,.645,6.5-14.425,9.127-15.265,0,0,1.779,6.176,2.372,8.052.391,1.235,2.36,7.057,2.75,5.821.412-1.3-.079-7.506-.079-7.506,6.457,2.12,12.283,8.817,12.283,8.233a44.882,44.882,0,0,0-3.514-16.664c5.935,2.6,11.994,15.694,13.587,15.972,1.177.2,4.911-13.539,5.4-13.862.781-.518.751,10.371.728,14.5.419.167,4.454-3.417,4.647-5.116.342-3.013-.664-6.554-.166-7.193.194-.249,12.514,12.8,12.514,12.362a44.882,44.882,0,0,0-3.514-16.664c5.935,2.6,11.994,15.694,13.587,15.972,1.177.2,4.911-13.539,5.4-13.862.957-.635,1.222,13.908,1.011,14.974.579-.819,10.526-16.19,9.57-13.4-.5,1.466-.88,7.591-.333,9.11a20.14,20.14,0,0,0,2.833,4.809c-.166-.838,1.08-12.985,1.833-12.485.383.254,3.408,10.453,4.334,10.292,1.253-.218,5.253-7.349,9.924-9.395a35.322,35.322,0,0,0-2.766,13.115c0,.438,5.175-9.625,9.175-12.915,0,0-1,7.974-.667,8.9.356.982.168,3.93.75,4.683,1.038-.331,1.644-3.068,2-4.05.221-.609,2.75-8.351,2.75-8.351,4.063,2.167,7.823,12.121,7.823,11.734a35.322,35.322,0,0,0-2.766-13.115c4.671,2.046,9.522,10.694,10.776,10.913.926.161,2.617-11.641,3-11.895.753-.5,2.5,11.815,2.333,12.653a10.307,10.307,0,0,0,3-4.893c1.242-4.331.166-9.447.666-10.038.147-.174,7.806,13.508,8.386,14.327-.211-1.065.053-15.608,1.01-14.974.486.323,4.219,14.066,5.4,13.862,1.594-.277,5.653-11.349,11.588-13.947a62.269,62.269,0,0,0-1.515,14.64c0,.435,9.844-14.761,12.516-14.761.228,0-1.03,13.472,0,14.388.426-.158,2.153-3.592,2.324-4,1.825-4.315,2.1-10.7,2.883-10.185.486.323,4.219,14.066,5.4,13.862,1.593-.277.351-11.03,9.644-9.752,0,0-4.149,1.419-4.149,10.392,0,.611,4.141-7.535,10.954-9.271,0,0-3.581,10.046-4.108,10.533,2.948-1.088,3.581-2.118,4.934-4.4a75.3,75.3,0,0,0,3.875-8.288c1.237,4.41,2.793,8.944,4.164,12.682-.027-6.629.091-14.769.836-14.581,1,.254,3.666,13.751,4.71,13.569,1.413-.245,6.787-11.86,12.052-14.165a30.324,30.324,0,0,0-1.845,15.017c.04.356,2.729-.549,4.113-4.36.286-.785,2.26-4.3,2-5.062-.407-1.188,6.86,8.185,6.881,8.176-.178-1.757.1-14.459,1.027-13.842.486.323,4.219,13.054,5.4,12.851,1.593-.277,7.652-11.349,13.587-13.947a52.771,52.771,0,0,0-2.485,15.968c0,.62,4.463-7.335,10.437-10.692,0,0,1.084,9.371.917,11.584h.412c1.982-2.284,7.671-12.185,7.671-12.185.476.393,2.55,8.074,4.311,9.726,1.345,1.263,2.309-8.067,3.9-6.719,2.181,1.841,4.294,7.935,5.988,8.7,1.415.637.52-10.937,1.822-10.8,1.152.116,3.2,5.586,8.484,8.555a20,20,0,0,1-.757-4.975c.038-2.574,7.6,4.743,8.11,5.471-.187-.946.047-13.845.9-13.281.431.286,3.742,12.477,4.786,12.295,1.413-.246,6.787-11.86,12.052-14.166a30.333,30.333,0,0,0-1.845,15.019c.04.355,2.729-.551,4.113-4.362.285-.784,2.26-4.3,2-5.062-.407-1.187,6.86,8.185,6.881,8.177-.179-1.757.1-15.472,1.027-14.854.485.323,4.219,14.066,5.4,13.862,1.593-.277,7.652-13.372,13.587-15.971a44.875,44.875,0,0,0-3.514,16.664c0,.619,7.187-9.006,13.161-12.363,0,0-1.708,6.423-1.161,8.153.39,1.234,2.489,4.316,7.634,5.436,1.748-.641-2.1-9.614-2.1-9.614,6.656,1.921,12.792,8.988,12.792,8.389a44.866,44.866,0,0,0-3.515-16.664c5.935,2.6,8.764,11.146,10.357,11.423,1.177.205,6.63-9.782,7.116-10.105.78-.518,2.539,5.253,2.516,9.384.419.167,2.53.334,3.124-1.3,1.692-4.655,1.807-5.667,1.952-5.521.651.648,3.676,6.2,3.9,6.6,1.91,3.368,7.736,6.614,7.736,6.18a44.875,44.875,0,0,0-3.514-16.664c5.935,2.6,11.994,15.693,13.587,15.971,1.177.2,4.911-13.539,5.4-13.862.957-.635,1.222,13.909,1.01,14.975.58-.82,8.583-12.1,7.627-9.309-.5,1.466,1.453,5.693,2,7.212a11.953,11.953,0,0,0,2.8,4.473c-.166-.839.042-12.284.795-11.784.382.254,3.32,11.069,4.246,10.909,1.254-.219,7.451-14.477,12.123-16.521,0,0-4.2,10-4.2,17.066,0,.453,3.857-10.2,8.842-11.95,0,0-1.992,11.67,4.238,10.89-.394-1.635-1.1-8.543-1.251-8.972-.956-2.791,7.784,7.166,8.364,7.986-.211-1.065.053-15.609,1.01-14.975.486.323,4.22,14.066,5.4,13.862,1.593-.277,7.652-13.372,13.588-15.971a117.633,117.633,0,0,0-1.307,16.931c0,.693,5.6-11.814,10.456-11.83.217,0-.66,3.318-.332,6.234.193,1.719,2.389,3.3,3.51,4.284.5-.189.99-.386,1.467-.579-.009-4.26.314-13.438,1.078-12.932.485.323,4.219,14.066,5.4,13.862,1.593-.277,4.007-9.383,9.942-11.982,0,0-1.432,4.006.131,12.676.123.685,9.666-11.884,11-11.884,1.66,0-3.441,12.054,1.66,13.589,2.655.8,2.83-10.711,2.987-10.711,2,0,10.757,11.8,10.757,11.471a35.322,35.322,0,0,0-2.766-13.115c4.672,2.046,9.44,12.352,10.694,12.57.926.16,3.864-10.655,4.246-10.909.754-.5,1.8,8.468,1.637,9.307.253-.359,1.726-.586,2.542-2.851.547-1.521.4-1.75-.1-3.216-.956-2.791,8.564,5.348,9.144,6.168-.211-1.066.053-15.609,1.01-14.975.486.323,4.219,14.066,5.4,13.862,1.593-.277,7.652-13.372,13.588-15.971a44.865,44.865,0,0,0-3.515,16.664c0,.435,5.843-12.271,7.134-13.129,1-.663.619,3.139,2,6.073,1.25,2.658,5.213,5.271,6.243,6.188.426-.158,1.565-14.205,2.346-13.687.486.323,4.219,14.066,5.4,13.862,1.593-.277,7.652-13.372,13.588-15.971a44.865,44.865,0,0,0-3.515,16.664c0,.692,11.889-14.246,13.722-14.33.23-.012-1.553,7.909-.966,10.92a5.106,5.106,0,0,0,2.157,3.2c.992-.374,1.274-2.552,1.809-3.319,2.361-3.386,2.039-8.451,2.615-8.068.431.286,3.743,12.477,4.787,12.295,1.413-.246,6.787-11.86,12.052-14.166a39.8,39.8,0,0,0-3.118,14.78c0,.359,9.163-11.842,9.33-11.758,1.123.567,1.1,5.124,1.312,7.624.178,2.1,3.159,2.693,3.563,3.148l.061-.023c-.178-1.757.1-15.472,1.027-14.854.486.323,4.22,14.066,5.4,13.862,1.593-.277,7.652-13.372,13.587-15.971,0,0,.354,8.354.354,17.327,0,.645,6.5-14.425,9.127-15.265,0,0,1.78,6.176,2.373,8.053.39,1.235,2.36,7.056,2.75,5.82.412-1.3-.08-7.5-.08-7.5,6.458,2.119,12.284,8.817,12.284,8.233a44.865,44.865,0,0,0-3.515-16.664c5.936,2.6,12,15.693,13.588,15.971,1.177.2,4.91-13.539,5.4-13.862.78-.518.751,10.372.728,14.5.177.071,1-.532,1.908-1.376l6.247-6.049,1.232,11.394v44.161l-705.428.177-93.735.179Z" fill="#70a83b"/>
    </g>
    <g id="Grupo_3723" data-name="Grupo 3723">
      <path id="Trazado_16715" data-name="Trazado 16715" d="M312.02,10426.6c2.051,1.689,5.835,6.669,6.612,8.781,1.211,3.292,2.129,5.723,2.524,5.831.866.235,3.613-15.57,3.97-15.941.7-.73.9,16,.743,17.221a20.616,20.616,0,0,0,2.618-6.535c.511-2.22,2.339-8.4,1.869-10.539-.893-4.078,6.588,12.4,7.13,13.6-.2-1.557.05-22.808.945-21.88.454.473,3.944,20.555,5.044,20.255,1.49-.4,7.154-19.539,12.7-23.337a97.163,97.163,0,0,0-3.286,24.351c0,.634,5.447-4.108,7.232-9.029.214-.591,3.042-8.7,3.651-9.651.136-.212.243,1.267,1.825,8.069.555,2.387,2.529,2.142,2.92,1.9-.021-6.035,1.623-14.47,2.353-13.711.454.472,5.552,15.064,6.652,14.766,1.49-.4,4.134-12.895,9.683-16.692a97.162,97.162,0,0,0-3.286,24.351c0,.876,5.736-9.451,11.959-12.257,0,0-3.6,13.111-1.966,14.048a11.365,11.365,0,0,0,7.137-7.942c.511-2.529-1.086-11.914-1.086-11.914,5.585,4.905,12.3,18.971,12.3,18.065a97.162,97.162,0,0,0-3.286-24.351c5.549,3.8,11.213,22.933,12.7,23.337,1.1.3,4.591-19.782,5.045-20.255.869-.9,1.127,19.138.961,21.705.019.012,6.813-13.684,6.432-11.948-.243,1.111,1.6,6.249,1.87,7.4,1.294,5.57,3.808,6.893,3.845,6.373.931-13.081-1.724-21.944-1.724-21.944,4.921,3.368,9.946,20.34,11.267,20.7.975.265,4.071-17.547,4.474-17.965.794-.824,1.013,18.024.838,19.406.48-1.063,7.546-11.754,7.582-7.993a44.708,44.708,0,0,1-.708,7.268c4.938-4.338,6.854-12.329,7.931-12.5,1.217-.191.381,16.719,1.7,15.788,1.584-1.114,3.559-10.016,5.6-12.707,1.491-1.97,2.393,11.663,3.65,9.819,1.646-2.414,3.585-13.638,4.03-14.213,0,0,5.319,14.467,7.172,17.8h.384c-.155-3.234.858-16.926.858-16.926,5.586,4.905,9.758,16.528,9.758,15.623a116.808,116.808,0,0,0-2.324-23.332c5.549,3.8,11.213,19.974,12.7,20.378,1.1.3,4.591-18.3,5.045-18.775.869-.9,1.127,17.658.961,20.226.019.012,6.813-13.684,6.432-11.947-.243,1.11,1.6,6.249,1.87,7.4,1.294,5.569,3.808,6.894,3.845,6.373.931-13.082-1.724-21.944-1.724-21.944,4.922,3.369,9.946,20.341,11.267,20.7.976.267,3.469-19.456,4.4-19.825.7-.276.806,11.619.781,21.306,1.282-5.462,2.736-12.088,3.893-18.533,0,0,1.95,7.7,3.622,12.111,1.266,3.339,1.858,4.845,4.613,6.436-.493-.713-3.84-15.393-3.84-15.393,6.369,2.539,10.24,14.442,10.24,13.548,0-13.111-3.879-15.184-3.879-15.184,8.689-1.868,7.527,13.845,9.016,14.249,1.1.3,4.591-19.783,5.045-20.256.73-.757.989,8.576,2.7,14.884.16.591,1.774,5.607,2.172,5.84.963-1.339-.213-21.024,0-21.024,2.5,0,11.7,22.2,11.7,21.569a140.1,140.1,0,0,0-1.416-21.392c5.549,3.8,9.344,19.975,10.833,20.379,1.1.3,4.591-19.783,5.045-20.256.894-.928,1.141,20.323.944,21.881.542-1.2,7.7-21.189,7.84-20.937.467.863-.538,8.339.623,14.669a17.374,17.374,0,0,0,2.8,7.149c-.155-1.226,1.477-19.22,2.181-18.49.357.371,1.939,17.615,2.805,17.381,1.172-.318,5.707-12.958,10.074-15.946a76.479,76.479,0,0,0-2.586,19.163c0,.566,3.515-13.979,7.314-17.146,0,0,2.364,11.311,2.571,12.2.332,1.434.9,5.432,1.869,5.917.544-1.1.369-5.408.7-6.842.314-1.353-.623-13-.623-13,3.74,4.809,8.577,19.514,8.577,18.872a76.479,76.479,0,0,0-2.586-19.163c4.368,2.988,8.107,13.409,9.279,13.728.865.235,3.693-14.667,4.051-15.038.7-.731,1.869,17.018,1.714,18.243a35.416,35.416,0,0,0,2.648-7.026c.512-2.221.158-11.171-.311-13.312-.894-4.078,8.406,18.382,8.947,19.58-.2-1.558.05-22.809.945-21.881.454.473,3.944,20.555,5.044,20.256,1.49-.4,7.154-19.539,12.7-23.337a97.186,97.186,0,0,0-3.285,24.35c0,.634,11.518-18.428,11.7-18.065.465.936-.475,6.11-.155,10.513.18,2.482,3.952,7.719,4.344,7.475-.022-6.035-.049-21.947.681-21.19.454.473,3.944,20.555,5.044,20.256,1.49-.4,7.154-19.539,12.7-23.337a97.159,97.159,0,0,0-3.286,24.35c0,.854,5.447-8.934,11.484-12.031,0,0-.459,9.064-.074,10.967.365,1.806,2.206-6.7,2.571-8.5.554-2.742,2.218-11.766,2.218-11.766,2.456,1.227,8.532,23.246,8.532,22.3,0-13.11.332-25.319.332-25.319,5.549,3.8,11.213,22.933,12.7,23.337,1.1.3,4.591-19.783,5.045-20.256.869-.9,1.127,19.138.961,21.705l.057.035c.377-.665,3.164-1.536,3.331-4.6.2-3.654.177-10.311,1.226-11.142.156-.123,8.723,17.705,8.723,17.182a86.175,86.175,0,0,0-2.915-21.6c4.922,3.368,9.947,20.342,11.268,20.7.975.266,4.071-17.547,4.474-17.965.539-.56.239,6.843,2.445,11.79.5,1.121.764,4.3,1.691,4.851a8.566,8.566,0,0,0,2.017-4.672c.549-4.4-1.118-15.972-.9-15.957,1.714.123,12.829,21.952,12.829,20.94a97.159,97.159,0,0,0-3.286-24.35c5.549,3.8,11.213,22.933,12.7,23.337,1.1.3,4.59-19.783,5.044-20.256.73-.757,1.795,19.769,2.193,20,.963-1.339,4.668-5.157,5.837-9.04,1.291-4.289.934-9.846,1.87-8.875,1.206,1.252,6.669,19.817,6.669,19.184a97.159,97.159,0,0,0-3.286-24.35c5.55,3.8,11.214,22.933,12.7,23.337,1.1.3,4.591-19.783,5.045-20.256.9-.928,1.142,20.322.945,21.881.542-1.2,9.442-13.092,8.548-9.014a18.829,18.829,0,0,0,.271,7.39,11.47,11.47,0,0,0,2.8,5.1c-.154-1.225.04-17.95.744-17.219.357.37,3.1,16.175,3.97,15.939,1.172-.318,5.63-15.378,10-18.366a76.479,76.479,0,0,0-2.586,19.163c0,.488,8.187-16.761,10.057-16.761.148,0,.311,16.819,2.793,15.651,4.769-2.244,0-19.856,1.552-19.856,1.251,0,10.288,18.376,10.288,17.364a97.161,97.161,0,0,0-3.286-24.35c5.549,3.8,11.213,22.933,12.7,23.337,1.1.3,4.591-19.783,5.045-20.256.715-.741,1.016,12.673,1.008,18.9.446.283.907.569,1.372.847,1.047-1.441,3.1-3.749,3.281-6.26.306-4.262-.513-9.112-.31-9.111,4.54.025,9.774,18.3,9.774,17.287,0-13.111-1.221-24.739-1.221-24.739,5.549,3.8,11.214,22.933,12.7,23.337,1.1.3,4.591-19.783,5.045-20.256.894-.928,1.141,20.323.944,21.881.542-1.2,8.713-15.747,7.819-11.669-.137.627-.8,10.721-1.169,13.108,5.824,1.142,3.962-15.912,3.962-15.912,4.66,2.561,8.266,18.123,8.266,17.462,0-10.317-3.922-24.937-3.922-24.937,4.368,2.988,10.162,23.821,11.334,24.14.865.235,3.612-15.569,3.97-15.939.7-.731.9,15.994.743,17.219a20.6,20.6,0,0,0,2.618-6.534c.511-2.221,2.339-8.4,1.869-10.54-.893-4.078,6.588,12.4,7.13,13.6-.2-1.558.05-22.809.945-21.881.454.473,3.944,20.555,5.044,20.256,1.49-.4,7.154-19.539,12.7-23.337a97.159,97.159,0,0,0-3.286,24.35c0,.634,3.4-2.4,5.183-7.319.215-.591,3.789-11.033,6.287-11.033.212,0-1.046,8-.726,12.4.18,2.483,4.427,4.214,4.818,3.97-.021-6.036.278-20.041,1.007-19.284.454.473,3.945,20.555,5.045,20.256,1.49-.4,7.154-19.539,12.7-23.337a97.159,97.159,0,0,0-3.286,24.35c0,.876,5.736-9.45,11.959-12.257,0,0-3.6,13.111-1.966,14.048a11.362,11.362,0,0,0,7.137-7.942c.511-2.527-1.086-11.914-1.086-11.914,5.585,4.906,12.305,18.972,12.305,18.065a97.159,97.159,0,0,0-3.286-24.35c5.548,3.8,11.213,22.933,12.7,23.337,1.1.3,4.591-19.783,5.045-20.256.869-.9,1.127,19.138.961,21.705.019.013,6.813-13.684,6.432-11.946-.243,1.109,1.6,6.249,1.87,7.395,1.294,5.57,3.808,6.894,3.845,6.373.931-13.081-1.725-21.944-1.725-21.944,4.922,3.368,9.947,20.342,11.268,20.7.975.266,4.071-17.547,4.474-17.965.793-.824,1.012,18.025.838,19.407.48-1.064,8.374-11.612,7.582-7.994-1.906,8.7-3.132,31.875-3.132,31.875h-319l-95.646-.286-384.5-.148s-.84-19.236-1.448-25.487C314.166,10438.056,312.02,10426.6,312.02,10426.6Z" fill="#517c24"/>
    </g>
    <g id="Grupo_3726" data-name="Grupo 3726">
      <g id="Grupo_3725" data-name="Grupo 3725">
        <g id="Grupo_3724" data-name="Grupo 3724">
          <path id="Trazado_16716" data-name="Trazado 16716" d="M743.421,10235.9c-.194-8.972-2.729-15.4-7.535-19.1-6.514-5.019-14.714-3.12-15.059-3.036l.41,1.707c.076-.018,7.753-1.778,13.591,2.73,4.355,3.364,6.656,9.331,6.838,17.736Z" fill="#009bdb"/>
        </g>
      </g>
    </g>
    <g id="Grupo_3745" data-name="Grupo 3745">
      <g id="Grupo_3729" data-name="Grupo 3729">
        <g id="Grupo_3728" data-name="Grupo 3728">
          <g id="Grupo_3727" data-name="Grupo 3727">
            <path id="Trazado_16717" data-name="Trazado 16717" d="M723.889,10209.891a1.171,1.171,0,0,1,2.052,1.126A1.171,1.171,0,0,1,723.889,10209.891Z" fill="#009bdb"/>
          </g>
        </g>
      </g>
      <g id="Grupo_3732" data-name="Grupo 3732">
        <g id="Grupo_3731" data-name="Grupo 3731">
          <g id="Grupo_3730" data-name="Grupo 3730">
            <path id="Trazado_16718" data-name="Trazado 16718" d="M731.752,10209.754a1.171,1.171,0,0,1,2.052,1.126A1.171,1.171,0,0,1,731.752,10209.754Z" fill="#009bdb"/>
          </g>
        </g>
      </g>
      <g id="Grupo_3735" data-name="Grupo 3735">
        <g id="Grupo_3734" data-name="Grupo 3734">
          <g id="Grupo_3733" data-name="Grupo 3733">
            <path id="Trazado_16719" data-name="Trazado 16719" d="M737.907,10213.126a1.171,1.171,0,0,1,2.052,1.125A1.171,1.171,0,0,1,737.907,10213.126Z" fill="#009bdb"/>
          </g>
        </g>
      </g>
      <g id="Grupo_3738" data-name="Grupo 3738">
        <g id="Grupo_3737" data-name="Grupo 3737">
          <g id="Grupo_3736" data-name="Grupo 3736">
            <path id="Trazado_16720" data-name="Trazado 16720" d="M742.85,10218.953a1.171,1.171,0,0,1,2.053,1.125A1.171,1.171,0,0,1,742.85,10218.953Z" fill="#009bdb"/>
          </g>
        </g>
      </g>
      <g id="Grupo_3741" data-name="Grupo 3741">
        <g id="Grupo_3740" data-name="Grupo 3740">
          <g id="Grupo_3739" data-name="Grupo 3739">
            <path id="Trazado_16721" data-name="Trazado 16721" d="M745.215,10225.37a1.171,1.171,0,0,1,2.052,1.126A1.171,1.171,0,0,1,745.215,10225.37Z" fill="#009bdb"/>
          </g>
        </g>
      </g>
      <g id="Grupo_3744" data-name="Grupo 3744">
        <g id="Grupo_3743" data-name="Grupo 3743">
          <g id="Grupo_3742" data-name="Grupo 3742">
            <path id="Trazado_16722" data-name="Trazado 16722" d="M746.086,10232.3a1.171,1.171,0,0,1,2.053,1.126A1.171,1.171,0,0,1,746.086,10232.3Z" fill="#009bdb"/>
          </g>
        </g>
      </g>
    </g>
    <g id="Grupo_3759" data-name="Grupo 3759">
      <g id="Grupo_3748" data-name="Grupo 3748">
        <g id="Grupo_3747" data-name="Grupo 3747">
          <g id="Grupo_3746" data-name="Grupo 3746">
            <path id="Trazado_16723" data-name="Trazado 16723" d="M717.375,10219.184a1.171,1.171,0,0,1,1.71,1.6A1.171,1.171,0,0,1,717.375,10219.184Z" fill="#009bdb"/>
          </g>
        </g>
      </g>
      <g id="Grupo_3751" data-name="Grupo 3751">
        <g id="Grupo_3750" data-name="Grupo 3750">
          <g id="Grupo_3749" data-name="Grupo 3749">
            <path id="Trazado_16724" data-name="Trazado 16724" d="M725.382,10221.308a1.171,1.171,0,0,1,1.711,1.6A1.171,1.171,0,0,1,725.382,10221.308Z" fill="#009bdb"/>
          </g>
        </g>
      </g>
      <g id="Grupo_3754" data-name="Grupo 3754">
        <g id="Grupo_3753" data-name="Grupo 3753">
          <g id="Grupo_3752" data-name="Grupo 3752">
            <path id="Trazado_16725" data-name="Trazado 16725" d="M732.722,10226.954a1.171,1.171,0,0,1,1.71,1.6A1.171,1.171,0,0,1,732.722,10226.954Z" fill="#009bdb"/>
          </g>
        </g>
      </g>
      <g id="Grupo_3757" data-name="Grupo 3757">
        <g id="Grupo_3756" data-name="Grupo 3756">
          <g id="Grupo_3755" data-name="Grupo 3755">
            <path id="Trazado_16726" data-name="Trazado 16726" d="M735.537,10235.287a1.171,1.171,0,0,1,1.71,1.6A1.171,1.171,0,0,1,735.537,10235.287Z" fill="#009bdb"/>
          </g>
        </g>
      </g>
      <g id="Grupo_3758" data-name="Grupo 3758">
        <path id="Trazado_16727" data-name="Trazado 16727" d="M730.131,10229.45c2.019,2.828,2.411,6.854,2.48,10.926l-1.753.048c-.061-3.712-.421-7.781-2.224-10.312-2.286-3.211-5.411-4.435-8.485-5.443a19.252,19.252,0,0,0-5.887-.738l.1-1.692a34.275,34.275,0,0,1,6.136.926A16.9,16.9,0,0,1,730.131,10229.45Z" fill="#009bdb"/>
      </g>
    </g>
    <g id="Grupo_3762" data-name="Grupo 3762">
      <g id="Grupo_3761" data-name="Grupo 3761">
        <g id="Grupo_3760" data-name="Grupo 3760">
          <path id="Trazado_16728" data-name="Trazado 16728" d="M709.026,10227.11a1.171,1.171,0,0,1,1.761,1.542A1.171,1.171,0,0,1,709.026,10227.11Z" fill="#009bdb"/>
        </g>
      </g>
    </g>
    <g id="Grupo_3765" data-name="Grupo 3765">
      <g id="Grupo_3764" data-name="Grupo 3764">
        <g id="Grupo_3763" data-name="Grupo 3763">
          <path id="Trazado_16729" data-name="Trazado 16729" d="M716.07,10229.058a1.171,1.171,0,0,1,1.761,1.543A1.171,1.171,0,0,1,716.07,10229.058Z" fill="#009bdb"/>
        </g>
      </g>
    </g>
    <g id="Grupo_3768" data-name="Grupo 3768">
      <g id="Grupo_3767" data-name="Grupo 3767">
        <g id="Grupo_3766" data-name="Grupo 3766">
          <path id="Trazado_16730" data-name="Trazado 16730" d="M721.9,10234.09a1.171,1.171,0,0,1,1.761,1.542A1.171,1.171,0,0,1,721.9,10234.09Z" fill="#009bdb"/>
        </g>
      </g>
    </g>
    <g id="Grupo_3771" data-name="Grupo 3771">
      <g id="Grupo_3770" data-name="Grupo 3770">
        <g id="Grupo_3769" data-name="Grupo 3769">
          <path id="Trazado_16731" data-name="Trazado 16731" d="M724.487,10241.638a1.171,1.171,0,0,1,1.761,1.543A1.171,1.171,0,0,1,724.487,10241.638Z" fill="#009bdb"/>
        </g>
      </g>
    </g>
    <g id="Grupo_3772" data-name="Grupo 3772">
      <path id="Trazado_16732" data-name="Trazado 16732" d="M706.031,10230.041c2.953.276,9.128,1.82,12.662,6.044a18.618,18.618,0,0,1,3.9,10.307l-1.766.392a17.625,17.625,0,0,0-3.47-9.559c-3.022-3.622-8.9-5.109-11.635-5.562Z" fill="#009bdb"/>
    </g>
    <g id="Grupo_3773" data-name="Grupo 3773">
      <path id="Trazado_16733" data-name="Trazado 16733" d="M700.875,10235.567c3.433.721,7.8,2.107,10.629,4.884a14.447,14.447,0,0,1,4.681,9.405l-1.671.671a13.565,13.565,0,0,0-4.894-9.275,21.378,21.378,0,0,0-9.238-4.146Z" fill="#009bdb"/>
    </g>
    <g id="Grupo_3776" data-name="Grupo 3776">
      <g id="Grupo_3775" data-name="Grupo 3775">
        <g id="Grupo_3774" data-name="Grupo 3774">
          <path id="Trazado_16734" data-name="Trazado 16734" d="M455.8,10205.491c-8.19,3.665-13.126,8.5-14.669,14.365-2.093,7.951,2.844,14.77,3.055,15.056l1.413-1.041c-.046-.064-4.652-6.453-2.766-13.584,1.407-5.32,6.011-9.759,13.684-13.193Z" fill="#009bdb"/>
        </g>
      </g>
    </g>
    <g id="Grupo_3795" data-name="Grupo 3795">
      <g id="Grupo_3779" data-name="Grupo 3779">
        <g id="Grupo_3778" data-name="Grupo 3778">
          <g id="Grupo_3777" data-name="Grupo 3777">
            <path id="Trazado_16735" data-name="Trazado 16735" d="M439.426,10233.6a1.171,1.171,0,0,1,.24-2.328A1.171,1.171,0,0,1,439.426,10233.6Z" fill="#009bdb"/>
          </g>
        </g>
      </g>
      <g id="Grupo_3782" data-name="Grupo 3782">
        <g id="Grupo_3781" data-name="Grupo 3781">
          <g id="Grupo_3780" data-name="Grupo 3780">
            <path id="Trazado_16736" data-name="Trazado 16736" d="M436.243,10226.405a1.171,1.171,0,0,1,.24-2.329A1.171,1.171,0,0,1,436.243,10226.405Z" fill="#009bdb"/>
          </g>
        </g>
      </g>
      <g id="Grupo_3785" data-name="Grupo 3785">
        <g id="Grupo_3784" data-name="Grupo 3784">
          <g id="Grupo_3783" data-name="Grupo 3783">
            <path id="Trazado_16737" data-name="Trazado 16737" d="M436.958,10219.424a1.171,1.171,0,0,1,.24-2.329A1.171,1.171,0,0,1,436.958,10219.424Z" fill="#009bdb"/>
          </g>
        </g>
      </g>
      <g id="Grupo_3788" data-name="Grupo 3788">
        <g id="Grupo_3787" data-name="Grupo 3787">
          <g id="Grupo_3786" data-name="Grupo 3786">
            <path id="Trazado_16738" data-name="Trazado 16738" d="M440.406,10212.6a1.171,1.171,0,0,1,.24-2.328A1.171,1.171,0,0,1,440.406,10212.6Z" fill="#009bdb"/>
          </g>
        </g>
      </g>
      <g id="Grupo_3791" data-name="Grupo 3791">
        <g id="Grupo_3790" data-name="Grupo 3790">
          <g id="Grupo_3789" data-name="Grupo 3789">
            <path id="Trazado_16739" data-name="Trazado 16739" d="M445.4,10207.931a1.171,1.171,0,0,1,.239-2.328A1.171,1.171,0,0,1,445.4,10207.931Z" fill="#009bdb"/>
          </g>
        </g>
      </g>
      <g id="Grupo_3794" data-name="Grupo 3794">
        <g id="Grupo_3793" data-name="Grupo 3793">
          <g id="Grupo_3792" data-name="Grupo 3792">
            <path id="Trazado_16740" data-name="Trazado 16740" d="M451.447,10204.435a1.171,1.171,0,0,1,.239-2.328A1.171,1.171,0,0,1,451.447,10204.435Z" fill="#009bdb"/>
          </g>
        </g>
      </g>
    </g>
    <g id="Grupo_3809" data-name="Grupo 3809">
      <g id="Grupo_3798" data-name="Grupo 3798">
        <g id="Grupo_3797" data-name="Grupo 3797">
          <g id="Grupo_3796" data-name="Grupo 3796">
            <path id="Trazado_16741" data-name="Trazado 16741" d="M450.52,10235.987a1.171,1.171,0,0,1,.808-2.2A1.171,1.171,0,0,1,450.52,10235.987Z" fill="#009bdb"/>
          </g>
        </g>
      </g>
      <g id="Grupo_3801" data-name="Grupo 3801">
        <g id="Grupo_3800" data-name="Grupo 3800">
          <g id="Grupo_3799" data-name="Grupo 3799">
            <path id="Trazado_16742" data-name="Trazado 16742" d="M449.365,10227.783a1.171,1.171,0,0,1,.808-2.2A1.171,1.171,0,0,1,449.365,10227.783Z" fill="#009bdb"/>
          </g>
        </g>
      </g>
      <g id="Grupo_3804" data-name="Grupo 3804">
        <g id="Grupo_3803" data-name="Grupo 3803">
          <g id="Grupo_3802" data-name="Grupo 3802">
            <path id="Trazado_16743" data-name="Trazado 16743" d="M451.715,10218.826a1.171,1.171,0,0,1,.808-2.2A1.171,1.171,0,0,1,451.715,10218.826Z" fill="#009bdb"/>
          </g>
        </g>
      </g>
      <g id="Grupo_3807" data-name="Grupo 3807">
        <g id="Grupo_3806" data-name="Grupo 3806">
          <g id="Grupo_3805" data-name="Grupo 3805">
            <path id="Trazado_16744" data-name="Trazado 16744" d="M458.3,10213a1.172,1.172,0,0,1,.809-2.2A1.172,1.172,0,0,1,458.3,10213Z" fill="#009bdb"/>
          </g>
        </g>
      </g>
      <g id="Grupo_3808" data-name="Grupo 3808">
        <path id="Trazado_16745" data-name="Trazado 16745" d="M455.021,10220.243c1.822-2.959,5.379-4.885,9.1-6.531l.725,1.6c-3.4,1.5-7.006,3.412-8.638,6.058-2.071,3.354-1.983,6.709-1.717,9.933a19.219,19.219,0,0,0,1.608,5.711l-1.6.567a34.421,34.421,0,0,1-1.532-6.013A16.915,16.915,0,0,1,455.021,10220.243Z" fill="#009bdb"/>
      </g>
    </g>
    <g id="Grupo_3810" data-name="Grupo 3810">
      <path id="Trazado_16746" data-name="Trazado 16746" d="M462.872,10225.134c1.822-2.96,6.432-6.4,10.157-8.047l.725,1.6c-3.4,1.5-8.059,4.927-9.691,7.571-2.071,3.355-2.165,7.148-1.9,10.373.231,2.81.728,5.427.74,5.462l-1.6.567a45.938,45.938,0,0,1-.724-6.127C460.282,10231.7,460.519,10228.957,462.872,10225.134Z" fill="#009bdb"/>
    </g>
  </g>
</svg>
