<svg xmlns="http://www.w3.org/2000/svg" xmlns:xlink="http://www.w3.org/1999/xlink" width="152.443" height="152.443" viewBox="0 0 152.443 152.443">
  <defs>
    <radialGradient id="radial-gradient" cx="0.5" cy="0.5" r="0.5" gradientUnits="objectBoundingBox">
      <stop offset="0" stop-color="#d0e3b2"/>
      <stop offset="0.445" stop-color="#cee1b0"/>
      <stop offset="0.605" stop-color="#c7dca9"/>
      <stop offset="0.719" stop-color="#bdd39d"/>
      <stop offset="0.811" stop-color="#adc68c"/>
      <stop offset="0.89" stop-color="#99b576"/>
      <stop offset="0.959" stop-color="#80a15c"/>
      <stop offset="1" stop-color="#6e9248"/>
    </radialGradient>
    <clipPath id="clip-path">
      <circle id="Elipse_148" data-name="Elipse 148" cx="65.13" cy="65.13" r="65.13" transform="translate(444.551 6849.539)" fill="none"/>
    </clipPath>
  </defs>
  <g id="Grupo_3825" data-name="Grupo 3825" transform="translate(-433.459 -6838.448)">
    <path id="Trazado_15163" data-name="Trazado 15163" d="M509.681,6838.448q3.744,0,7.471.367t7.4,1.1q3.672.73,7.256,1.818t7.043,2.52q3.459,1.433,6.761,3.2t6.416,3.845q3.114,2.081,6.008,4.456t5.543,5.023q2.648,2.649,5.023,5.543t4.456,6.008q2.079,3.112,3.845,6.416t3.2,6.762q1.434,3.459,2.52,7.042t1.818,7.256q.73,3.672,1.1,7.4t.367,7.471q0,3.746-.367,7.471t-1.1,7.4q-.73,3.673-1.818,7.256t-2.52,7.043q-1.432,3.459-3.2,6.762t-3.845,6.415q-2.081,3.114-4.456,6.009t-5.023,5.542q-2.649,2.648-5.543,5.023t-6.008,4.456q-3.112,2.081-6.416,3.846t-6.761,3.2q-3.46,1.433-7.043,2.52t-7.256,1.817q-3.674.731-7.4,1.1t-7.471.367q-3.746,0-7.471-.367t-7.4-1.1q-3.674-.73-7.256-1.817t-7.043-2.52q-3.459-1.434-6.762-3.2t-6.416-3.846q-3.113-2.08-6.008-4.456t-5.542-5.023q-2.647-2.648-5.023-5.542t-4.456-6.009q-2.08-3.113-3.846-6.415t-3.2-6.762q-1.432-3.458-2.52-7.043t-1.817-7.256q-.73-3.672-1.1-7.4t-.367-7.471q0-3.744.367-7.471t1.1-7.4q.73-3.672,1.817-7.256t2.52-7.042q1.433-3.461,3.2-6.762t3.846-6.416q2.08-3.114,4.456-6.008t5.023-5.543q2.648-2.648,5.542-5.023t6.008-4.456q3.114-2.081,6.416-3.845t6.762-3.2q3.459-1.434,7.043-2.52t7.256-1.818q3.672-.731,7.4-1.1T509.681,6838.448Z" fill="#004222"/>
    <circle id="Elipse_143" data-name="Elipse 143" cx="71.597" cy="71.597" r="71.597" transform="translate(438.084 6843.073)" fill="#fff"/>
    <circle id="Elipse_144" data-name="Elipse 144" cx="65.13" cy="65.13" r="65.13" transform="translate(444.551 6849.539)" fill="url(#radial-gradient)"/>
    <g id="Grupo_3193" data-name="Grupo 3193">
      <g id="Grupo_3192" data-name="Grupo 3192" clip-path="url(#clip-path)">
        <g id="Grupo_3191" data-name="Grupo 3191">
          <g id="Grupo_3160" data-name="Grupo 3160">
            <g id="Grupo_3155" data-name="Grupo 3155">
              <g id="Grupo_3154" data-name="Grupo 3154">
                <path id="Trazado_15223" data-name="Trazado 15223" d="M598.54,6974.536h51.079c.2-2.684,0-9.975-7.844-10.687,0,0-.938-4.271-5.755-2.492,0,0-1.767-4.96-6.585-3.12a8.592,8.592,0,0,0-7.667-2.923,8.8,8.8,0,0,0-6.864,4.61s-2.611-1.888-6.5.2a6.95,6.95,0,0,0-3.6,4.445,2.871,2.871,0,0,0-2.152,1.336,3.464,3.464,0,0,0-.493,2.248C600.58,6968.962,598.8,6970.722,598.54,6974.536Z" fill="#6b4632"/>
                <path id="Trazado_15224" data-name="Trazado 15224" d="M647.364,6974.536a4.225,4.225,0,0,0-4.429-4.055s.162-3.522-2.821-4.858a6.08,6.08,0,0,0-5.5.08,5.237,5.237,0,0,0-4.7-2.689,6.807,6.807,0,0,0-5.381,2.449c-5.138-1.807-6.3,2.874-6.3,2.874-4.617-.739-7.358,1.644-8.537,3.854a8.563,8.563,0,0,0-.814,2.345Z" fill="#522d1a"/>
              </g>
            </g>
            <g id="Grupo_3159" data-name="Grupo 3159">
              <path id="Trazado_15225" data-name="Trazado 15225" d="M647.717,6989.459l-.539,2.751-5.617,28.691h-34.5l-5.622-28.691-.539-2.751Z" fill="#bd3100"/>
              <g id="Grupo_3156" data-name="Grupo 3156">
                <path id="Trazado_15226" data-name="Trazado 15226" d="M608.747,6989.46l4.675,31.441h8.542l2.749-31.441Z" fill="#d64d1d"/>
              </g>
              <path id="Trazado_15227" data-name="Trazado 15227" d="M647.717,6989.459l-.539,2.751H601.437l-.539-2.751Z" fill="#932300"/>
              <g id="Grupo_3157" data-name="Grupo 3157">
                <path id="Trazado_15228" data-name="Trazado 15228" d="M654.322,6971.735l-.92,4.7-2.553,13.027H597.766l-2.553-13.027-.92-4.7Z" fill="#db4815"/>
              </g>
              <g id="Grupo_3158" data-name="Grupo 3158">
                <path id="Trazado_15229" data-name="Trazado 15229" d="M628.527,6971.735H604.285l2.574,17.725h20.058Z" fill="#f36332"/>
              </g>
              <path id="Trazado_15230" data-name="Trazado 15230" d="M654.322,6971.735l-.92,4.7H595.213l-.92-4.7Z" fill="#932300"/>
              <path id="Trazado_15231" data-name="Trazado 15231" d="M656.783,6971.735a2.1,2.1,0,0,1-2.105,2.1H593.939a2.1,2.1,0,0,1-2.105-2.1h0a2.1,2.1,0,0,1,2.105-2.1h60.739a2.1,2.1,0,0,1,2.105,2.1Z" fill="#bd3100"/>
              <path id="Trazado_15232" data-name="Trazado 15232" d="M629.639,6971.735a.881.881,0,0,1-.881.882H603.285a.882.882,0,0,1-.882-.882h0a.883.883,0,0,1,.882-.883h25.473a.883.883,0,0,1,.881.883Z" fill="#d64d1d"/>
            </g>
          </g>
          <g id="Grupo_3178" data-name="Grupo 3178">
            <g id="Grupo_3170" data-name="Grupo 3170">
              <path id="Trazado_15233" data-name="Trazado 15233" d="M533.893,6861.529l-8.922-1.993-.05-.012-12.724-2.842s-5.16,1.192-10.525,2.481c-2.873.7-5.806,1.418-8.038,2-7,1.822-16.226,4.114-19.185,11.521l-38.172-.137v29.233l38.8-.247s3.661,7.211,15.219,8.4c1.637.172,3.385.342,5.146.52h.024c7.646.764,15.463,1.491,15.463,1.491l19.039-2.9,1.142-.178h.012v0l-6.369-8.283,1.67-29.977a11.468,11.468,0,0,0,1.8.091,3.269,3.269,0,0,0,.331-.018c.153-.006.3-.018.446-.037a8.3,8.3,0,0,0,.837-.135,6.978,6.978,0,0,0,1.474-.476.044.044,0,0,1,.03-.012c.208-.1.414-.209.6-.318.1-.061.2-.123.3-.183q.285-.194.55-.4t.514-.459c.1-.1.2-.207.3-.317s.183-.2.269-.306l.005,0a9.006,9.006,0,0,0,1.34-2.323,12.147,12.147,0,0,0,.837-3.686Z" fill="#ffb27d"/>
              <path id="Trazado_15234" data-name="Trazado 15234" d="M529.964,6909.042l1.142-.178a.023.023,0,0,1,.012,0c2.238-.1,3.245-1.632,3.619-4.028.385-2.481-.832-4.113-2.164-4.241-.08-.007-.178-.019-.275-.032s-.2-.018-.306-.03l-3.1-.3c-.153-.012-.293-.031-.416-.043l-.5-.049c.189-.006.977-.037,2.053-.08,2.2-.079,5.593-.2,7.524-.25h.013c3.006-.086,4-2.494,4.15-5.054s-1.406-4.707-3.008-4.884l-.036-.006-3.337-.165s4.015-.563,6.381-.966c2.292-.391,3.288-2.456,3.288-4.993,0-3.936-2.432-4.957-3.686-4.993h-4.834s2.695-.74,4.407-1.205h.005c2.188-.592,3-2.689,2.617-5.408-.312-2.219-1.376-3.9-2.982-4.359a3.133,3.133,0,0,0-1.181-.127l-.171,0-2.1.147-3.209.227-.005,0c-.086.1-.184.2-.269.306s-.195.213-.3.317a5.893,5.893,0,0,1-.514.459q-.266.21-.55.4c-.1.06-.2.122-.3.183-.19.109-.4.214-.6.318a.044.044,0,0,0-.03.012,7.827,7.827,0,0,1-1.474.476,8.3,8.3,0,0,1-.837.135c-.147.019-.293.031-.446.037a3.269,3.269,0,0,1-.331.018,11.468,11.468,0,0,1-1.8-.091c-.452-.062-.892-.116-1.314-.177a10.743,10.743,0,0,0-.654,2.818,8.137,8.137,0,0,0,.543,4.051,7.888,7.888,0,0,0-2.939,5.152,9.037,9.037,0,0,0,.9,5.728,7.615,7.615,0,0,0-3.392,5.622,9.231,9.231,0,0,0,1.009,5.4,6.767,6.767,0,0,0-1.76,4.449,5.949,5.949,0,0,0,2.768,5.232l-10.653,3.068Z" fill="#f4824a"/>
              <path id="Trazado_15235" data-name="Trazado 15235" d="M532.414,6868.213l-3.587-.849c-4.382-.971-4.761-3.484-4.144-6.393.042-.189.165-.831.288-1.436l8.922,1.993Z" fill="#f4824a"/>
              <path id="Trazado_15236" data-name="Trazado 15236" d="M532.713,6866.857l-3.63-.819c-4.108-.905-4.993-2.726-4.376-5.635.031-.159.116-.507.214-.88l8.972,2Z" fill="#ffd1b1"/>
              <g id="Grupo_3161" data-name="Grupo 3161">
                <path id="Trazado_15237" data-name="Trazado 15237" d="M514.721,6897.6s-3.293-6.4,1.6-10.038c0,0-3.406-5.669.767-9.855,0,0-2.291-3.439-1.487-6.924,0,0,6.11.455,10.223.621v-.888c-5.12-.674-8.349-1.314-10.449-1.6l-14.712,6.1a31.07,31.07,0,0,1-9.828,16.3,29.122,29.122,0,0,1,10.507,10.047l10.366,1.426A8.75,8.75,0,0,1,514.721,6897.6Z" fill="#f4824a"/>
              </g>
              <path id="Trazado_15238" data-name="Trazado 15238" d="M493.634,6861.16c-7,1.822-16.226,4.113-19.185,11.521l-38.172-.136v3.209l40.754.787c1.63-11.623,15.981-15.271,24.219-17.233C501.421,6859.266,495.866,6860.58,493.634,6861.16Z" fill="#f4824a"/>
              <path id="Trazado_15239" data-name="Trazado 15239" d="M477.414,6892.841l-41.137,1.656v7.28l38.8-.247s3.661,7.211,15.219,8.4c1.637.171,3.385.342,5.146.519C485.359,6908.882,478.391,6901.83,477.414,6892.841Z" fill="#f4824a"/>
              <g id="Grupo_3163" data-name="Grupo 3163">
                <g id="Grupo_3162" data-name="Grupo 3162">
                  <path id="Trazado_15240" data-name="Trazado 15240" d="M526.706,6870.629a10.411,10.411,0,0,0,1.9.043,7.778,7.778,0,0,0,3.006-.789,6.992,6.992,0,0,0,2.267-1.863l5.312-.374.171,0a3.133,3.133,0,0,1,1.181.127c1.606.458,2.67,2.14,2.982,4.359.385,2.719-.429,4.816-2.617,5.408H540.9l-9.285.654C526.56,6878.55,524.731,6873.7,526.706,6870.629Z" fill="#ffb27d"/>
                  <path id="Trazado_15241" data-name="Trazado 15241" d="M529.029,6876.8l3.636-.255a2.882,2.882,0,1,0-.4-5.75l-3.637.256Z" fill="#f4824a"/>
                  <path id="Trazado_15242" data-name="Trazado 15242" d="M528.96,6875.848l-.335-4.8-.024-.379a7.778,7.778,0,0,0,3.006-.789l.587-.042a2.88,2.88,0,0,1,3.074,2.677,3.006,3.006,0,0,1-.006.476,2.883,2.883,0,0,1-2.665,2.6Z" fill="#ffd1b1"/>
                </g>
              </g>
              <g id="Grupo_3165" data-name="Grupo 3165">
                <g id="Grupo_3164" data-name="Grupo 3164">
                  <path id="Trazado_15243" data-name="Trazado 15243" d="M541.723,6888.726H528.778a5.007,5.007,0,1,1,0-9.986h12.547c1.254.036,3.686,1.057,3.686,4.993C545.011,6886.27,544.015,6888.335,541.723,6888.726Z" fill="#ffb27d"/>
                  <path id="Trazado_15244" data-name="Trazado 15244" d="M526.3,6887.155h3.646a2.882,2.882,0,0,0,0-5.764H526.3Z" fill="#f4824a"/>
                  <path id="Trazado_15245" data-name="Trazado 15245" d="M526.3,6886.2h3.646a2.882,2.882,0,0,0,0-5.764H526.3Z" fill="#ffd1b1"/>
                </g>
              </g>
              <g id="Grupo_3167" data-name="Grupo 3167">
                <g id="Grupo_3166" data-name="Grupo 3166">
                  <path id="Trazado_15246" data-name="Trazado 15246" d="M537.573,6899.8h-.013l-11.515-.574a5.007,5.007,0,1,1,.495-9.975l8.8.44,3.337.165.036.006c1.6.177,3.154,2.329,3.008,4.884S540.579,6899.715,537.573,6899.8Z" fill="#ffb27d"/>
                  <path id="Trazado_15247" data-name="Trazado 15247" d="M523.647,6897.533l3.641.182a2.882,2.882,0,0,0,.287-5.757l-3.641-.18Z" fill="#f4824a"/>
                  <path id="Trazado_15248" data-name="Trazado 15248" d="M523.694,6896.58l3.641.183a2.882,2.882,0,0,0,.288-5.757l-3.641-.182Z" fill="#ffd1b1"/>
                </g>
              </g>
              <g id="Grupo_3169" data-name="Grupo 3169">
                <g id="Grupo_3168" data-name="Grupo 3168">
                  <path id="Trazado_15249" data-name="Trazado 15249" d="M530.874,6908.871l-6.631-.655a4.219,4.219,0,1,1,.83-8.373l2.91.288.5.049.416.043,1.626.159,1.472.146.306.03c.1.013.2.025.275.032,1.332.128,2.549,1.76,2.164,4.241S533.282,6908.864,530.874,6908.871Z" fill="#ffb27d"/>
                  <path id="Trazado_15250" data-name="Trazado 15250" d="M522.3,6906.7l3.056.3a2.428,2.428,0,1,0,.476-4.833l-3.055-.3Z" fill="#f4824a"/>
                  <path id="Trazado_15251" data-name="Trazado 15251" d="M522.374,6905.9l3.057.3a2.428,2.428,0,0,0,.477-4.833l-3.057-.3Z" fill="#ffd1b1"/>
                </g>
              </g>
            </g>
            <g id="Grupo_3177" data-name="Grupo 3177">
              <g id="Grupo_3171" data-name="Grupo 3171">
                <path id="Trazado_15252" data-name="Trazado 15252" d="M512.544,6932.224a3.375,3.375,0,0,1-1.824-1.258c-1.555-2.124-.75-6.056.779-8.195,1.719-2.408,4.318-4.149,4.746-3.963.357.154.617.571.848,1.244l0,.006a38.346,38.346,0,0,1,.906,3.869C518.641,6926.986,516.307,6933.33,512.544,6932.224Z" fill="#dcd3b2"/>
                <path id="Trazado_15253" data-name="Trazado 15253" d="M512.544,6932.224a3.375,3.375,0,0,1-1.824-1.258c5.682.288,6.875-8.937,6.376-10.908a38.346,38.346,0,0,1,.906,3.869C518.641,6926.986,516.307,6933.33,512.544,6932.224Z" fill="#c4b794"/>
                <path id="Trazado_15254" data-name="Trazado 15254" d="M515.7,6919.974c-.527-.34-3.287,2.115-4.336,4.21s-.512,3.269.506,3.584c1.514.469,2.593-.644,3.273-2.392C515.916,6923.393,516.111,6920.241,515.7,6919.974Z" fill="#f1ede0"/>
              </g>
              <g id="Grupo_3172" data-name="Grupo 3172">
                <path id="Trazado_15255" data-name="Trazado 15255" d="M505.138,6911.578a3.385,3.385,0,0,1-1.158-1.888c-.563-2.572,1.764-5.842,4.027-7.18,2.546-1.506,5.627-2.048,5.943-1.7a1.924,1.924,0,0,1,.272,1.481v.006a38.084,38.084,0,0,1-.735,3.906C512.834,6909.254,508.134,6914.111,505.138,6911.578Z" fill="#dcd3b2"/>
                <path id="Trazado_15256" data-name="Trazado 15256" d="M505.138,6911.578a3.385,3.385,0,0,1-1.158-1.888c5.08,2.562,9.9-5.392,10.242-7.4a38.084,38.084,0,0,1-.735,3.906C512.834,6909.254,508.134,6914.111,505.138,6911.578Z" fill="#c4b794"/>
                <path id="Trazado_15257" data-name="Trazado 15257" d="M512.978,6901.651c-.344-.524-3.862.6-5.669,2.1s-1.79,2.783-.986,3.483c1.2,1.04,2.632.46,3.961-.864C511.794,6904.866,513.247,6902.062,512.978,6901.651Z" fill="#f1ede0"/>
              </g>
              <g id="Grupo_3173" data-name="Grupo 3173">
                <path id="Trazado_15258" data-name="Trazado 15258" d="M513.535,6888.773a3.374,3.374,0,0,1-2.1-.707c-2.079-1.611-2.391-5.613-1.511-8.091.99-2.788,3.007-5.179,3.47-5.118.385.049.75.379,1.159.962l0,.005a38.012,38.012,0,0,1,1.939,3.47C517.952,6882.056,517.459,6888.8,513.535,6888.773Z" fill="#dcd3b2"/>
                <path id="Trazado_15259" data-name="Trazado 15259" d="M513.535,6888.773a3.374,3.374,0,0,1-2.1-.707c5.542-1.289,4.145-10.485,3.12-12.242a38.012,38.012,0,0,1,1.939,3.47C517.952,6882.056,517.459,6888.8,513.535,6888.773Z" fill="#c4b794"/>
                <path id="Trazado_15260" data-name="Trazado 15260" d="M513.19,6876.128c-.6-.181-2.576,2.94-3.007,5.244s.41,3.283,1.475,3.3c1.584.032,2.314-1.335,2.487-3.2C514.342,6879.355,513.661,6876.271,513.19,6876.128Z" fill="#f1ede0"/>
              </g>
              <g id="Grupo_3174" data-name="Grupo 3174">
                <path id="Trazado_15261" data-name="Trazado 15261" d="M517.723,6888.483a3.381,3.381,0,0,0-2.024-.9c-2.622-.221-5.56,2.514-6.589,4.934-1.16,2.722-1.292,5.847-.91,6.115a1.923,1.923,0,0,0,1.5.075l.007,0a37.918,37.918,0,0,0,3.775-1.24C516.427,6896.416,520.628,6891.12,517.723,6888.483Z" fill="#dcd3b2"/>
                <path id="Trazado_15262" data-name="Trazado 15262" d="M517.723,6888.483a3.381,3.381,0,0,0-2.024-.9c3.207,4.7-4.046,10.524-5.989,11.122a37.918,37.918,0,0,0,3.775-1.24C516.427,6896.416,520.628,6891.12,517.723,6888.483Z" fill="#c4b794"/>
                <path id="Trazado_15263" data-name="Trazado 15263" d="M508.909,6897.556c-.564-.271.094-3.907,1.335-5.894s2.525-2.14,3.324-1.435c1.188,1.049.8,2.549-.336,4.041C511.942,6895.961,509.354,6897.771,508.909,6897.556Z" fill="#f1ede0"/>
              </g>
              <g id="Grupo_3175" data-name="Grupo 3175">
                <path id="Trazado_15264" data-name="Trazado 15264" d="M508.013,6899.489a3.376,3.376,0,0,0,.689-2.107c-.05-2.631-3.075-5.27-5.587-6.045-2.828-.872-5.949-.682-6.177-.274a1.927,1.927,0,0,0,.08,1.5l0,.006a37.711,37.711,0,0,0,1.623,3.627C499.989,6899.018,505.692,6902.65,508.013,6899.489Z" fill="#dcd3b2"/>
                <path id="Trazado_15265" data-name="Trazado 15265" d="M508.013,6899.489a3.376,3.376,0,0,0,.689-2.107c-4.345,3.675-10.886-2.939-11.681-4.81a37.711,37.711,0,0,0,1.623,3.627C499.989,6899.018,505.692,6902.65,508.013,6899.489Z" fill="#c4b794"/>
                <path id="Trazado_15266" data-name="Trazado 15266" d="M498.081,6891.657c.212-.589,3.9-.309,6,.72s2.387,2.292,1.769,3.158c-.92,1.291-2.453,1.06-4.053.083C499.979,6894.509,497.914,6892.122,498.081,6891.657Z" fill="#f1ede0"/>
              </g>
              <g id="Grupo_3176" data-name="Grupo 3176">
                <path id="Trazado_15267" data-name="Trazado 15267" d="M507.8,6882.963a3.37,3.37,0,0,0-.652-2.118c-1.558-2.121-5.55-2.533-8.05-1.718-2.813.917-5.254,2.873-5.2,3.336.038.386.36.761.931,1.182l.005,0a38.409,38.409,0,0,0,3.418,2.027C500.975,6887.205,507.728,6886.885,507.8,6882.963Z" fill="#dcd3b2"/>
                <path id="Trazado_15268" data-name="Trazado 15268" d="M507.8,6882.963a3.37,3.37,0,0,0-.652-2.118c-1.431,5.507-10.588,3.874-12.318,2.8a38.409,38.409,0,0,0,3.418,2.027C500.975,6887.205,507.728,6886.885,507.8,6882.963Z" fill="#c4b794"/>
                <path id="Trazado_15269" data-name="Trazado 15269" d="M495.173,6882.291c-.167-.6,3-2.5,5.317-2.871s3.272.5,3.267,1.56c-.008,1.584-1.393,2.279-3.265,2.4C498.369,6883.526,495.3,6882.766,495.173,6882.291Z" fill="#f1ede0"/>
              </g>
            </g>
          </g>
          <g id="Grupo_3190" data-name="Grupo 3190">
            <g id="Grupo_3182" data-name="Grupo 3182">
              <path id="Trazado_15270" data-name="Trazado 15270" d="M470.7,6957.159c.514-4.814,4.4-4.507,4.4-4.507s-.161-3.913,2.8-5.4a5.492,5.492,0,0,1,5.466.09,5.233,5.233,0,0,1,4.668-2.991,6.6,6.6,0,0,1,5.346,2.721c5.107-2.006,6.263,3.193,6.263,3.193a7.5,7.5,0,0,1,8.484,4.283,10.3,10.3,0,0,1,.808,2.606Z" fill="#522d1a"/>
              <path id="Trazado_15271" data-name="Trazado 15271" d="M512.463,6957.159c.512-4.814,4.4-4.507,4.4-4.507s-.161-3.913,2.8-5.4a5.489,5.489,0,0,1,5.465.09,5.233,5.233,0,0,1,4.668-2.991,6.6,6.6,0,0,1,5.346,2.721c5.107-2.006,6.264,3.193,6.264,3.193a7.5,7.5,0,0,1,8.484,4.283,10.3,10.3,0,0,1,.808,2.606Z" fill="#522d1a"/>
              <g id="Grupo_3179" data-name="Grupo 3179">
                <path id="Trazado_15272" data-name="Trazado 15272" d="M526.375,6966.065h50.761c.2-2.667,0-9.912-7.794-10.622,0,0-.933-4.243-5.721-2.475,0,0-1.756-4.929-6.543-3.1a8.539,8.539,0,0,0-7.619-2.9,8.744,8.744,0,0,0-6.822,4.579s-2.594-1.875-6.464.2a6.905,6.905,0,0,0-3.572,4.416,2.85,2.85,0,0,0-2.138,1.326,3.429,3.429,0,0,0-.489,2.235C528.4,6960.526,526.636,6962.278,526.375,6966.065Z" fill="#6b4632"/>
                <path id="Trazado_15273" data-name="Trazado 15273" d="M574.9,6966.065a4.2,4.2,0,0,0-4.4-4.031s.161-3.5-2.8-4.827a6.047,6.047,0,0,0-5.466.08,5.212,5.212,0,0,0-4.668-2.674,6.775,6.775,0,0,0-5.346,2.435c-5.106-1.795-6.263,2.856-6.263,2.856-4.588-.734-7.313,1.633-8.485,3.831a8.5,8.5,0,0,0-.808,2.33Z" fill="#522d1a"/>
              </g>
              <g id="Grupo_3180" data-name="Grupo 3180">
                <path id="Trazado_15274" data-name="Trazado 15274" d="M484.611,6966.065h50.761c.2-2.667,0-9.912-7.794-10.622,0,0-.933-4.243-5.721-2.475,0,0-1.756-4.929-6.543-3.1a8.54,8.54,0,0,0-7.62-2.9,8.741,8.741,0,0,0-6.821,4.579s-2.594-1.875-6.463.2a6.9,6.9,0,0,0-3.573,4.416,2.852,2.852,0,0,0-2.139,1.326,3.428,3.428,0,0,0-.488,2.235C486.638,6960.526,484.872,6962.278,484.611,6966.065Z" fill="#6b4632"/>
                <path id="Trazado_15275" data-name="Trazado 15275" d="M533.13,6966.065a4.2,4.2,0,0,0-4.4-4.031s.161-3.5-2.8-4.827a6.045,6.045,0,0,0-5.465.08,5.212,5.212,0,0,0-4.668-2.674,6.777,6.777,0,0,0-5.346,2.435c-5.107-1.795-6.264,2.856-6.264,2.856-4.588-.734-7.312,1.633-8.484,3.831a8.508,8.508,0,0,0-.809,2.33Z" fill="#522d1a"/>
              </g>
              <g id="Grupo_3181" data-name="Grupo 3181">
                <path id="Trazado_15276" data-name="Trazado 15276" d="M442.847,6966.065h50.76c.2-2.667,0-9.912-7.795-10.622,0,0-.932-4.243-5.72-2.475,0,0-1.754-4.929-6.543-3.1a8.538,8.538,0,0,0-7.618-2.9,8.745,8.745,0,0,0-6.823,4.579s-2.593-1.875-6.463.2a6.9,6.9,0,0,0-3.572,4.416,2.852,2.852,0,0,0-2.139,1.326,3.435,3.435,0,0,0-.489,2.235C444.874,6960.526,443.108,6962.278,442.847,6966.065Z" fill="#6b4632"/>
                <path id="Trazado_15277" data-name="Trazado 15277" d="M491.365,6966.065a4.2,4.2,0,0,0-4.4-4.031s.161-3.5-2.8-4.827a6.045,6.045,0,0,0-5.465.08,5.211,5.211,0,0,0-4.667-2.674,6.775,6.775,0,0,0-5.346,2.435c-5.107-1.795-6.264,2.856-6.264,2.856-4.588-.734-7.311,1.633-8.484,3.831a8.542,8.542,0,0,0-.809,2.33Z" fill="#522d1a"/>
              </g>
            </g>
            <g id="Grupo_3184" data-name="Grupo 3184">
              <g id="Grupo_3183" data-name="Grupo 3183">
                <path id="Trazado_15278" data-name="Trazado 15278" d="M480.242,6966.077H543.99c.246-3.349,0-12.45-9.789-13.339,0,0-1.172-5.328-7.184-3.108,0,0-2.2-6.19-8.216-3.9a10.728,10.728,0,0,0-9.57-3.648,10.989,10.989,0,0,0-8.567,5.754s-3.257-2.357-8.116.25a8.686,8.686,0,0,0-4.486,5.546,3.582,3.582,0,0,0-2.686,1.667,4.3,4.3,0,0,0-.613,2.808C482.788,6959.121,480.571,6961.319,480.242,6966.077Z" fill="#6b4632"/>
                <path id="Trazado_15279" data-name="Trazado 15279" d="M541.175,6966.077a5.272,5.272,0,0,0-5.527-5.061s.2-4.394-3.522-6.062a7.587,7.587,0,0,0-6.862.1,6.537,6.537,0,0,0-5.863-3.356,8.489,8.489,0,0,0-6.713,3.056c-6.412-2.253-7.867,3.586-7.867,3.586-5.76-.922-9.181,2.053-10.653,4.811a10.808,10.808,0,0,0-1.017,2.926Z" fill="#522d1a"/>
              </g>
            </g>
            <g id="Grupo_3186" data-name="Grupo 3186">
              <g id="Grupo_3185" data-name="Grupo 3185">
                <path id="Trazado_15280" data-name="Trazado 15280" d="M456.826,6981.258h63.747c.246-3.35,0-12.451-9.788-13.339,0,0-1.172-5.328-7.185-3.109,0,0-2.2-6.189-8.215-3.894a10.73,10.73,0,0,0-9.57-3.648,10.99,10.99,0,0,0-8.568,5.754s-3.256-2.358-8.116.25a8.679,8.679,0,0,0-4.485,5.546,3.582,3.582,0,0,0-2.687,1.667,4.305,4.305,0,0,0-.613,2.807C459.372,6974.3,457.154,6976.5,456.826,6981.258Z" fill="#6b4632"/>
                <path id="Trazado_15281" data-name="Trazado 15281" d="M517.758,6981.258a5.272,5.272,0,0,0-5.526-5.061s.2-4.394-3.522-6.062a7.586,7.586,0,0,0-6.863.1,6.537,6.537,0,0,0-5.862-3.357,8.493,8.493,0,0,0-6.713,3.057c-6.413-2.254-7.867,3.586-7.867,3.586-5.76-.922-9.182,2.053-10.654,4.81a10.819,10.819,0,0,0-1.016,2.927Z" fill="#522d1a"/>
              </g>
            </g>
            <g id="Grupo_3187" data-name="Grupo 3187">
              <path id="Trazado_15282" data-name="Trazado 15282" d="M514.993,6964.713a3.376,3.376,0,0,1-1.444-1.679c-.966-2.449.811-6.048,2.833-7.73,2.274-1.893,5.229-2.917,5.6-2.628a1.926,1.926,0,0,1,.5,1.418v.007a37.995,37.995,0,0,1-.1,3.972C522.22,6961.194,518.353,6966.738,514.993,6964.713Z" fill="#dcd3b2"/>
              <path id="Trazado_15283" data-name="Trazado 15283" d="M514.993,6964.713a3.376,3.376,0,0,1-1.444-1.679c5.422,1.72,8.918-6.9,8.934-8.933a37.995,37.995,0,0,1-.1,3.972C522.22,6961.194,518.353,6966.738,514.993,6964.713Z" fill="#c4b794"/>
              <path id="Trazado_15284" data-name="Trazado 15284" d="M521.153,6953.665c-.423-.463-3.716,1.211-5.263,2.971s-1.324,3.033-.42,3.595c1.345.838,2.672.035,3.774-1.482C520.5,6957.027,521.485,6954.028,521.153,6953.665Z" fill="#f1ede0"/>
            </g>
            <g id="Grupo_3189" data-name="Grupo 3189">
              <g id="Grupo_3188" data-name="Grupo 3188">
                <path id="Trazado_15285" data-name="Trazado 15285" d="M499.683,6982.354H563.43c.246-3.35,0-12.451-9.788-13.339,0,0-1.172-5.328-7.185-3.109,0,0-2.2-6.189-8.215-3.894a10.73,10.73,0,0,0-9.57-3.648,10.986,10.986,0,0,0-8.567,5.754s-3.257-2.358-8.117.25a8.679,8.679,0,0,0-4.485,5.546,3.582,3.582,0,0,0-2.687,1.667,4.3,4.3,0,0,0-.613,2.807C502.229,6975.4,500.012,6977.6,499.683,6982.354Z" fill="#6b4632"/>
                <path id="Trazado_15286" data-name="Trazado 15286" d="M560.615,6982.354a5.272,5.272,0,0,0-5.526-5.061s.2-4.394-3.522-6.062a7.586,7.586,0,0,0-6.863.1,6.536,6.536,0,0,0-5.862-3.357,8.492,8.492,0,0,0-6.713,3.057c-6.413-2.254-7.867,3.586-7.867,3.586-5.76-.922-9.182,2.053-10.654,4.81a10.829,10.829,0,0,0-1.016,2.927Z" fill="#522d1a"/>
              </g>
            </g>
            <path id="Trazado_15287" data-name="Trazado 15287" d="M546.042,6973.267a5.271,5.271,0,0,0-5.526-5.061s.2-4.394-3.523-6.062a7.587,7.587,0,0,0-6.862.1,6.537,6.537,0,0,0-5.863-3.357,8.488,8.488,0,0,0-6.712,3.057c-6.413-2.254-7.867,3.586-7.867,3.586-5.761-.922-9.182,2.053-10.654,4.811a10.814,10.814,0,0,0-1.017,2.926Z" fill="#522d1a"/>
          </g>
        </g>
      </g>
    </g>
  </g>
</svg>
