<svg xmlns="http://www.w3.org/2000/svg" width="197.536" height="120.965" viewBox="0 0 197.536 120.965">
  <g id="Grupo_2926" data-name="Grupo 2926" transform="translate(-889.046 -3021.018)">
    <path id="Trazado_13112" data-name="Trazado 13112" d="M889.046,3118.363v-40.321h197.536v40.321c-25.277,14.593-60.2,23.62-98.768,23.62S914.323,3132.956,889.046,3118.363Z" fill="#006ea0" fill-rule="evenodd"/>
    <path id="Trazado_13113" data-name="Trazado 13113" d="M889.046,3078.042l98.768-57.024,98.768,57.024c-25.277,14.593-60.2,23.619-98.768,23.619S914.323,3092.635,889.046,3078.042Z" fill="#009ee2" fill-rule="evenodd"/>
    <path id="Trazado_13114" data-name="Trazado 13114" d="M1058.06,3090.735l.024-.007c6.6,39.936-44.234,48.543-69.508,46.655-46.467-3.471-32.069-37.855-2.984-31.311,1.776.4,48.843,11.855,48.944-9.033A199.4,199.4,0,0,0,1058.06,3090.735Z" fill="#00557d" fill-rule="evenodd"/>
    <path id="Trazado_13115" data-name="Trazado 13115" d="M973.624,3130.05c-7.255-2.114-11.835-5.318-14.23-8.853a13.031,13.031,0,0,1-.8-1.35,10.616,10.616,0,0,0,.148,1.727c.692,4.1,3.843,8.193,10.126,11.223,4.712,2.273,11.187,3.949,19.709,4.586,1.457.109,3,.183,4.611.218,21.658.471,55.8-6.082,63.775-29.359a35.477,35.477,0,0,0,1.122-17.514l-.018,0c-.229.077-.455.155-.684.231h0a32.127,32.127,0,0,1-3.108,15.727c-9.824,20.059-40.527,26.1-61.087,25.916-2.067-.018-4.033-.1-5.865-.237A66.919,66.919,0,0,1,973.624,3130.05Z" fill="#005175" fill-rule="evenodd"/>
    <path id="Trazado_13116" data-name="Trazado 13116" d="M1024.635,3108.173a55.433,55.433,0,0,0,12.326-3.047c2.36-.976,4.282-2.193,5-3.676.261-.535.5-1.017.713-1.455,1.435-2.9,2.041-3.85,3.57-5.126.171-.143.6-.484,1.048-.865q-6.218,1.691-12.757,3.033v0q0,.452-.033.882C1034.1,3103.5,1030.145,3106.6,1024.635,3108.173Z" fill="#005175" fill-rule="evenodd"/>
    <g id="Grupo_2905" data-name="Grupo 2905">
      <g id="Grupo_2902" data-name="Grupo 2902">
        <path id="Trazado_13117" data-name="Trazado 13117" d="M933.821,3124.792a13.487,13.487,0,0,1,8.24-.72c3.137.631,6.069,2.689,8.172,3.733,1.409.7,3.322,1.493.328,1.115-4.23-.533-6.633.433-10.551-.206A10.273,10.273,0,0,1,933.821,3124.792Z" fill="#005880" fill-rule="evenodd"/>
        <path id="Trazado_13118" data-name="Trazado 13118" d="M952.417,3128.932a3.9,3.9,0,0,1,1.819-2.942c.289-.179-1.663.325-3.635,2.682Z" fill="#005880" fill-rule="evenodd"/>
        <path id="Trazado_13119" data-name="Trazado 13119" d="M952.417,3128.932a5.855,5.855,0,0,0,1.819,3.535c.289.274-1.663-.794-3.635-3.795Z" fill="#005880" fill-rule="evenodd"/>
        <path id="Trazado_13120" data-name="Trazado 13120" d="M936.8,3124.56a.816.816,0,0,1,.666.775.552.552,0,0,1-.666.557.815.815,0,0,1-.666-.774A.552.552,0,0,1,936.8,3124.56Z" fill="#005880" fill-rule="evenodd"/>
        <path id="Trazado_13121" data-name="Trazado 13121" d="M943.825,3128.924c.495.467.586.534.978.454a5.138,5.138,0,0,1,1.5.115,14.044,14.044,0,0,0,1.553.292,8.68,8.68,0,0,1,1.019.062l-.352-1.168a21.616,21.616,0,0,0-2.677-.018C944.92,3128.758,943.825,3128.924,943.825,3128.924Z" fill="#005880" fill-rule="evenodd"/>
        <path id="Trazado_13122" data-name="Trazado 13122" d="M941.068,3123.9a2.026,2.026,0,0,1,2.664-.025c.627.547,1.384.513,2.011,1.007a7.308,7.308,0,0,1,1.067,1.045,32.382,32.382,0,0,0-4.07-1.456A5,5,0,0,1,941.068,3123.9Z" fill="#005880" fill-rule="evenodd"/>
        <path id="Trazado_13123" data-name="Trazado 13123" d="M938.718,3127.55a7.726,7.726,0,0,0,1.619,1.544,1.08,1.08,0,0,0,1.306.03c.182-.212-.757-.933-1.018-1.107A12.119,12.119,0,0,0,938.718,3127.55Z" fill="#005880" fill-rule="evenodd"/>
      </g>
      <g id="Grupo_2903" data-name="Grupo 2903">
        <path id="Trazado_13124" data-name="Trazado 13124" d="M917.709,3112.029a13.487,13.487,0,0,1,8.24-.72c3.138.63,6.07,2.689,8.172,3.732,1.409.7,3.323,1.494.329,1.116-4.231-.533-6.633.433-10.551-.206A10.276,10.276,0,0,1,917.709,3112.029Z" fill="#005880" fill-rule="evenodd"/>
        <path id="Trazado_13125" data-name="Trazado 13125" d="M936.3,3116.168a3.9,3.9,0,0,1,1.819-2.941c.29-.179-1.663.325-3.634,2.683Z" fill="#005880" fill-rule="evenodd"/>
        <path id="Trazado_13126" data-name="Trazado 13126" d="M936.3,3116.168a5.857,5.857,0,0,0,1.819,3.536c.29.273-1.663-.794-3.634-3.794Z" fill="#005880" fill-rule="evenodd"/>
        <path id="Trazado_13127" data-name="Trazado 13127" d="M920.687,3111.8a.815.815,0,0,1,.666.775.551.551,0,0,1-.666.557.815.815,0,0,1-.666-.775A.551.551,0,0,1,920.687,3111.8Z" fill="#005880" fill-rule="evenodd"/>
        <path id="Trazado_13128" data-name="Trazado 13128" d="M927.713,3116.161c.495.467.587.534.979.454a5.118,5.118,0,0,1,1.5.114,13.481,13.481,0,0,0,1.554.293,8.68,8.68,0,0,1,1.019.062l-.353-1.167a21.546,21.546,0,0,0-2.677-.019C928.809,3116,927.713,3116.161,927.713,3116.161Z" fill="#005880" fill-rule="evenodd"/>
        <path id="Trazado_13129" data-name="Trazado 13129" d="M924.956,3111.138a2.026,2.026,0,0,1,2.665-.025c.627.546,1.384.513,2.011,1.007a7.287,7.287,0,0,1,1.067,1.046,32.161,32.161,0,0,0-4.071-1.457A5,5,0,0,1,924.956,3111.138Z" fill="#005880" fill-rule="evenodd"/>
        <path id="Trazado_13130" data-name="Trazado 13130" d="M922.607,3114.787a7.677,7.677,0,0,0,1.619,1.544,1.08,1.08,0,0,0,1.306.03c.182-.212-.757-.933-1.019-1.106A12.017,12.017,0,0,0,922.607,3114.787Z" fill="#005880" fill-rule="evenodd"/>
      </g>
      <g id="Grupo_2904" data-name="Grupo 2904">
        <path id="Trazado_13131" data-name="Trazado 13131" d="M905.431,3098.616a13.5,13.5,0,0,1,8.24-.721c3.137.631,6.069,2.69,8.172,3.733,1.409.7,3.322,1.494.329,1.115-4.231-.533-6.634.433-10.551-.206A10.269,10.269,0,0,1,905.431,3098.616Z" fill="#005880" fill-rule="evenodd"/>
        <path id="Trazado_13132" data-name="Trazado 13132" d="M924.027,3102.755a3.9,3.9,0,0,1,1.819-2.941c.29-.179-1.663.325-3.635,2.683Z" fill="#005880" fill-rule="evenodd"/>
        <path id="Trazado_13133" data-name="Trazado 13133" d="M924.027,3102.755a5.859,5.859,0,0,0,1.819,3.536c.29.273-1.663-.795-3.635-3.794Z" fill="#005880" fill-rule="evenodd"/>
        <path id="Trazado_13134" data-name="Trazado 13134" d="M908.409,3098.384a.815.815,0,0,1,.666.774.552.552,0,0,1-.666.558.815.815,0,0,1-.666-.775A.551.551,0,0,1,908.409,3098.384Z" fill="#005880" fill-rule="evenodd"/>
        <path id="Trazado_13135" data-name="Trazado 13135" d="M915.435,3102.748c.495.466.587.534.978.454a5.1,5.1,0,0,1,1.5.114,13.613,13.613,0,0,0,1.554.292,8.674,8.674,0,0,1,1.018.062l-.352-1.167a21.546,21.546,0,0,0-2.677-.019C916.531,3102.581,915.435,3102.748,915.435,3102.748Z" fill="#005880" fill-rule="evenodd"/>
        <path id="Trazado_13136" data-name="Trazado 13136" d="M912.678,3097.725a2.026,2.026,0,0,1,2.665-.025c.626.546,1.384.513,2.01,1.006a7.385,7.385,0,0,1,1.068,1.046,32.317,32.317,0,0,0-4.071-1.457A4.987,4.987,0,0,1,912.678,3097.725Z" fill="#005880" fill-rule="evenodd"/>
        <path id="Trazado_13137" data-name="Trazado 13137" d="M910.328,3101.373a7.7,7.7,0,0,0,1.62,1.544,1.08,1.08,0,0,0,1.3.031c.183-.212-.757-.933-1.018-1.107A12,12,0,0,0,910.328,3101.373Z" fill="#005880" fill-rule="evenodd"/>
      </g>
    </g>
    <g id="Grupo_2924" data-name="Grupo 2924">
      <g id="Grupo_2906" data-name="Grupo 2906">
        <path id="Trazado_13138" data-name="Trazado 13138" d="M1003.06,3119.413a14.555,14.555,0,0,0-8.24-2.065c-3.137.119-6.07,1.7-8.172,2.4-1.409.469-3.323.952-.328,1.062,4.23.157,6.633,1.515,10.55,1.515A8.359,8.359,0,0,0,1003.06,3119.413Z" fill="#29698b" fill-rule="evenodd"/>
        <path id="Trazado_13139" data-name="Trazado 13139" d="M984.464,3120.519a4.8,4.8,0,0,0-1.819-3.238c-.29-.227,1.663.6,3.635,3.275Z" fill="#002140" fill-rule="evenodd"/>
        <path id="Trazado_13140" data-name="Trazado 13140" d="M984.464,3120.519a4.793,4.793,0,0,1-1.819,3.238c-.29.227,1.663-.522,3.635-3.2Z" fill="#002140" fill-rule="evenodd"/>
        <path id="Trazado_13141" data-name="Trazado 13141" d="M1000.082,3120.027a.666.666,0,1,0-.666-.666A.667.667,0,0,0,1000.082,3120.027Z" fill="#00487d" fill-rule="evenodd"/>
        <path id="Trazado_13142" data-name="Trazado 13142" d="M993.056,3121.913c-.5.386-.587.438-.979.295a5.115,5.115,0,0,0-1.5-.131,13,13,0,0,1-1.554.039,8.519,8.519,0,0,0-1.018-.1l.352-1.11a22.322,22.322,0,0,1,2.677.418C991.96,3121.568,993.056,3121.913,993.056,3121.913Z" fill="#002140" fill-rule="evenodd"/>
        <path id="Trazado_13143" data-name="Trazado 13143" d="M995.813,3117.34c-1.2-.956-2.038-.9-2.664-.46s-1.385.287-2.012.679a5.7,5.7,0,0,0-1.066.872,28.488,28.488,0,0,1,4.07-.793A4.38,4.38,0,0,0,995.813,3117.34Z" fill="#002140" fill-rule="evenodd"/>
        <path id="Trazado_13144" data-name="Trazado 13144" d="M997.54,3121.806a6.048,6.048,0,0,1-1.619,1.28,1.125,1.125,0,0,1-1.306-.183c-.182-.241.758-.809,1.019-.94A11.081,11.081,0,0,1,997.54,3121.806Z" fill="#002140" fill-rule="evenodd"/>
        <path id="Trazado_13145" data-name="Trazado 13145" d="M998.215,3121.463a3.677,3.677,0,0,1-.052-2.9,2.881,2.881,0,0,0-.549,1.383,6.759,6.759,0,0,0,.027,1.75Z" fill="#002140" fill-rule="evenodd"/>
      </g>
      <g id="Grupo_2907" data-name="Grupo 2907">
        <path id="Trazado_13146" data-name="Trazado 13146" d="M1012.457,3123.775a14.555,14.555,0,0,0-8.24-2.065c-3.137.12-6.07,1.7-8.172,2.4-1.409.469-3.322.951-.328,1.062,4.23.156,6.633,1.514,10.55,1.514A8.359,8.359,0,0,0,1012.457,3123.775Z" fill="#29698b" fill-rule="evenodd"/>
        <path id="Trazado_13147" data-name="Trazado 13147" d="M993.861,3124.882a4.8,4.8,0,0,0-1.819-3.239c-.289-.227,1.663.6,3.635,3.275Z" fill="#002140" fill-rule="evenodd"/>
        <path id="Trazado_13148" data-name="Trazado 13148" d="M993.861,3124.882a4.8,4.8,0,0,1-1.819,3.238c-.289.226,1.663-.523,3.635-3.2Z" fill="#002140" fill-rule="evenodd"/>
        <path id="Trazado_13149" data-name="Trazado 13149" d="M1009.479,3124.389a.666.666,0,1,0-.666-.666A.667.667,0,0,0,1009.479,3124.389Z" fill="#00487d" fill-rule="evenodd"/>
        <path id="Trazado_13150" data-name="Trazado 13150" d="M1002.453,3126.275c-.495.386-.587.439-.978.3a5.15,5.15,0,0,0-1.5-.131,13.032,13.032,0,0,1-1.553.039,8.719,8.719,0,0,0-1.019-.1l.352-1.11a22.375,22.375,0,0,1,2.677.418C1001.357,3125.93,1002.453,3126.275,1002.453,3126.275Z" fill="#002140" fill-rule="evenodd"/>
        <path id="Trazado_13151" data-name="Trazado 13151" d="M1005.21,3121.7c-1.2-.956-2.038-.9-2.664-.46s-1.384.288-2.011.679a5.734,5.734,0,0,0-1.067.872,28.486,28.486,0,0,1,4.07-.794A4.383,4.383,0,0,0,1005.21,3121.7Z" fill="#002140" fill-rule="evenodd"/>
        <path id="Trazado_13152" data-name="Trazado 13152" d="M1006.938,3126.168a6.059,6.059,0,0,1-1.619,1.28,1.126,1.126,0,0,1-1.306-.182c-.183-.242.757-.81,1.018-.941A11.2,11.2,0,0,1,1006.938,3126.168Z" fill="#002140" fill-rule="evenodd"/>
        <path id="Trazado_13153" data-name="Trazado 13153" d="M1007.613,3125.826a3.677,3.677,0,0,1-.053-2.9,2.875,2.875,0,0,0-.548,1.384,6.734,6.734,0,0,0,.026,1.75Z" fill="#002140" fill-rule="evenodd"/>
      </g>
      <g id="Grupo_2908" data-name="Grupo 2908">
        <path id="Trazado_13154" data-name="Trazado 13154" d="M1021.337,3118.239a14.537,14.537,0,0,0-8.24-2.065c-3.137.119-6.07,1.7-8.172,2.4-1.41.469-3.323.952-.329,1.062,4.231.156,6.633,1.515,10.551,1.515A8.361,8.361,0,0,0,1021.337,3118.239Z" fill="#447ea1" fill-rule="evenodd"/>
        <path id="Trazado_13155" data-name="Trazado 13155" d="M1002.741,3119.345a4.806,4.806,0,0,0-1.819-3.238c-.29-.227,1.662.6,3.634,3.275Z" fill="#003456" fill-rule="evenodd"/>
        <path id="Trazado_13156" data-name="Trazado 13156" d="M1002.741,3119.345a4.8,4.8,0,0,1-1.819,3.238c-.29.227,1.662-.522,3.634-3.2Z" fill="#003456" fill-rule="evenodd"/>
        <path id="Trazado_13157" data-name="Trazado 13157" d="M1018.359,3118.852a.666.666,0,1,0-.666-.665A.666.666,0,0,0,1018.359,3118.852Z" fill="#005d8f" fill-rule="evenodd"/>
        <path id="Trazado_13158" data-name="Trazado 13158" d="M1011.332,3120.739c-.495.385-.586.438-.978.294a5.179,5.179,0,0,0-1.5-.131,13.046,13.046,0,0,1-1.553.04,8.621,8.621,0,0,0-1.019-.1l.353-1.11a22.566,22.566,0,0,1,2.677.418C1010.237,3120.393,1011.332,3120.739,1011.332,3120.739Z" fill="#003456" fill-rule="evenodd"/>
        <path id="Trazado_13159" data-name="Trazado 13159" d="M1014.09,3116.165c-1.2-.956-2.038-.9-2.665-.46s-1.384.288-2.011.68a5.7,5.7,0,0,0-1.067.871,28.509,28.509,0,0,1,4.07-.793A4.383,4.383,0,0,0,1014.09,3116.165Z" fill="#003456" fill-rule="evenodd"/>
        <path id="Trazado_13160" data-name="Trazado 13160" d="M1015.817,3120.632a6.074,6.074,0,0,1-1.619,1.28,1.126,1.126,0,0,1-1.306-.183c-.182-.242.757-.81,1.019-.94A11.056,11.056,0,0,1,1015.817,3120.632Z" fill="#003456" fill-rule="evenodd"/>
        <path id="Trazado_13161" data-name="Trazado 13161" d="M1016.492,3120.289a3.672,3.672,0,0,1-.052-2.9,2.879,2.879,0,0,0-.549,1.383,6.784,6.784,0,0,0,.026,1.75Z" fill="#003456" fill-rule="evenodd"/>
      </g>
      <g id="Grupo_2909" data-name="Grupo 2909">
        <path id="Trazado_13162" data-name="Trazado 13162" d="M1037.977,3114.965a14.546,14.546,0,0,0-8.481-.484c-3.059.705-5.643,2.807-7.577,3.889-1.3.725-3.085,1.557-.124,1.1,4.185-.64,6.8.244,10.648-.49A8.358,8.358,0,0,0,1037.977,3114.965Z" fill="#447ea1" fill-rule="evenodd"/>
        <path id="Trazado_13163" data-name="Trazado 13163" d="M1019.918,3119.536a4.788,4.788,0,0,0-2.394-2.839c-.326-.169,1.746.274,4.184,2.535Z" fill="#003456" fill-rule="evenodd"/>
        <path id="Trazado_13164" data-name="Trazado 13164" d="M1019.918,3119.536a4.8,4.8,0,0,1-1.18,3.522c-.242.277,1.536-.825,2.97-3.826Z" fill="#003456" fill-rule="evenodd"/>
        <path id="Trazado_13165" data-name="Trazado 13165" d="M1034.918,3114.818a.665.665,0,1,0,.779.529A.666.666,0,0,0,1034.918,3114.818Z" fill="#005d8f" fill-rule="evenodd"/>
        <path id="Trazado_13166" data-name="Trazado 13166" d="M1028.619,3119.3c-.414.471-.494.54-.906.472a5.131,5.131,0,0,0-1.5.153,13.064,13.064,0,0,1-1.519.33,8.729,8.729,0,0,0-1.02.088l.138-1.157a22.532,22.532,0,0,1,2.708-.091C1027.478,3119.162,1028.619,3119.3,1028.619,3119.3Z" fill="#003456" fill-rule="evenodd"/>
        <path id="Trazado_13167" data-name="Trazado 13167" d="M1030.47,3114.286c-1.36-.714-2.171-.5-2.7.048s-1.306.541-1.848,1.044a5.694,5.694,0,0,0-.885,1.056,28.517,28.517,0,0,1,3.849-1.542A4.378,4.378,0,0,0,1030.47,3114.286Z" fill="#003456" fill-rule="evenodd"/>
        <path id="Trazado_13168" data-name="Trazado 13168" d="M1033,3118.35a6.1,6.1,0,0,1-1.35,1.561,1.125,1.125,0,0,1-1.317.065c-.224-.2.591-.937.824-1.114A11.042,11.042,0,0,1,1033,3118.35Z" fill="#003456" fill-rule="evenodd"/>
        <path id="Trazado_13169" data-name="Trazado 13169" d="M1033.6,3117.887a3.674,3.674,0,0,1-.595-2.838,2.875,2.875,0,0,0-.279,1.462,6.736,6.736,0,0,0,.353,1.714Z" fill="#003456" fill-rule="evenodd"/>
      </g>
      <g id="Grupo_2910" data-name="Grupo 2910">
        <path id="Trazado_13170" data-name="Trazado 13170" d="M1001.593,3113.747a14.555,14.555,0,0,0-8.24-2.065c-3.137.119-6.07,1.7-8.172,2.4-1.409.469-3.322.951-.328,1.062,4.23.157,6.633,1.515,10.55,1.515A8.361,8.361,0,0,0,1001.593,3113.747Z" fill="#447ea1" fill-rule="evenodd"/>
        <path id="Trazado_13171" data-name="Trazado 13171" d="M983,3114.853a4.8,4.8,0,0,0-1.819-3.238c-.29-.227,1.663.6,3.634,3.275Z" fill="#003456" fill-rule="evenodd"/>
        <path id="Trazado_13172" data-name="Trazado 13172" d="M983,3114.853a4.8,4.8,0,0,1-1.819,3.239c-.29.226,1.663-.523,3.634-3.2Z" fill="#003456" fill-rule="evenodd"/>
        <path id="Trazado_13173" data-name="Trazado 13173" d="M998.616,3114.361a.666.666,0,1,0-.667-.667A.668.668,0,0,0,998.616,3114.361Z" fill="#005d8f" fill-rule="evenodd"/>
        <path id="Trazado_13174" data-name="Trazado 13174" d="M991.589,3116.247c-.495.386-.587.438-.978.295a5.126,5.126,0,0,0-1.5-.131,13.205,13.205,0,0,1-1.554.039,8.748,8.748,0,0,0-1.018-.1l.352-1.111a22.322,22.322,0,0,1,2.677.418C990.493,3115.9,991.589,3116.247,991.589,3116.247Z" fill="#003456" fill-rule="evenodd"/>
        <path id="Trazado_13175" data-name="Trazado 13175" d="M994.346,3111.673c-1.2-.955-2.038-.9-2.664-.459s-1.384.287-2.012.679a5.786,5.786,0,0,0-1.067.871,28.508,28.508,0,0,1,4.071-.793A4.38,4.38,0,0,0,994.346,3111.673Z" fill="#003456" fill-rule="evenodd"/>
        <path id="Trazado_13176" data-name="Trazado 13176" d="M996.074,3116.14a6.066,6.066,0,0,1-1.62,1.28,1.124,1.124,0,0,1-1.3-.183c-.183-.241.756-.809,1.018-.94A11.07,11.07,0,0,1,996.074,3116.14Z" fill="#003456" fill-rule="evenodd"/>
        <path id="Trazado_13177" data-name="Trazado 13177" d="M996.748,3115.8a3.682,3.682,0,0,1-.052-2.9,2.882,2.882,0,0,0-.548,1.385,6.767,6.767,0,0,0,.025,1.75Z" fill="#003456" fill-rule="evenodd"/>
      </g>
      <g id="Grupo_2911" data-name="Grupo 2911">
        <path id="Trazado_13178" data-name="Trazado 13178" d="M993.052,3122.627a14.545,14.545,0,0,0-8.24-2.065c-3.137.119-6.07,1.7-8.172,2.4-1.409.469-3.322.952-.329,1.062,4.231.156,6.634,1.515,10.551,1.515A8.361,8.361,0,0,0,993.052,3122.627Z" fill="#6294b3" fill-rule="evenodd"/>
        <path id="Trazado_13179" data-name="Trazado 13179" d="M974.456,3123.733a4.8,4.8,0,0,0-1.819-3.238c-.29-.227,1.662.6,3.634,3.275Z" fill="#006295" fill-rule="evenodd"/>
        <path id="Trazado_13180" data-name="Trazado 13180" d="M974.456,3123.733a4.8,4.8,0,0,1-1.819,3.238c-.29.227,1.662-.522,3.634-3.2Z" fill="#006295" fill-rule="evenodd"/>
        <path id="Trazado_13181" data-name="Trazado 13181" d="M990.074,3123.24a.666.666,0,1,0-.666-.665A.667.667,0,0,0,990.074,3123.24Z" fill="#0082c2" fill-rule="evenodd"/>
        <path id="Trazado_13182" data-name="Trazado 13182" d="M983.048,3125.127c-.5.385-.587.438-.979.294a5.149,5.149,0,0,0-1.5-.131,13.285,13.285,0,0,1-1.554.04,8.555,8.555,0,0,0-1.018-.1l.352-1.11a22.536,22.536,0,0,1,2.677.418C981.952,3124.781,983.048,3125.127,983.048,3125.127Z" fill="#006295" fill-rule="evenodd"/>
        <path id="Trazado_13183" data-name="Trazado 13183" d="M985.8,3120.553c-1.2-.956-2.038-.9-2.665-.46s-1.384.288-2.011.68a5.747,5.747,0,0,0-1.067.871,28.517,28.517,0,0,1,4.07-.793A4.379,4.379,0,0,0,985.8,3120.553Z" fill="#006295" fill-rule="evenodd"/>
        <path id="Trazado_13184" data-name="Trazado 13184" d="M987.532,3125.02a6.088,6.088,0,0,1-1.619,1.28,1.126,1.126,0,0,1-1.306-.183c-.182-.242.757-.81,1.019-.94A11.056,11.056,0,0,1,987.532,3125.02Z" fill="#006295" fill-rule="evenodd"/>
        <path id="Trazado_13185" data-name="Trazado 13185" d="M988.207,3124.677a3.675,3.675,0,0,1-.052-2.9,2.887,2.887,0,0,0-.549,1.384,6.784,6.784,0,0,0,.026,1.75Z" fill="#006295" fill-rule="evenodd"/>
      </g>
      <g id="Grupo_2912" data-name="Grupo 2912">
        <path id="Trazado_13186" data-name="Trazado 13186" d="M987.952,3127a14.554,14.554,0,0,0-8.241-2.065c-3.136.119-6.069,1.7-8.171,2.4-1.409.469-3.322.951-.329,1.062,4.231.157,6.634,1.515,10.551,1.515A8.361,8.361,0,0,0,987.952,3127Z" fill="#4a89af" fill-rule="evenodd"/>
        <path id="Trazado_13187" data-name="Trazado 13187" d="M969.356,3128.106a4.8,4.8,0,0,0-1.819-3.239c-.29-.226,1.663.6,3.634,3.276Z" fill="#004975" fill-rule="evenodd"/>
        <path id="Trazado_13188" data-name="Trazado 13188" d="M969.356,3128.106a4.8,4.8,0,0,1-1.819,3.239c-.29.226,1.663-.523,3.634-3.2Z" fill="#004975" fill-rule="evenodd"/>
        <path id="Trazado_13189" data-name="Trazado 13189" d="M984.974,3127.613a.666.666,0,1,0-.666-.666A.667.667,0,0,0,984.974,3127.613Z" fill="#006eaa" fill-rule="evenodd"/>
        <path id="Trazado_13190" data-name="Trazado 13190" d="M977.948,3129.5c-.495.386-.587.438-.978.294a5.155,5.155,0,0,0-1.5-.13,13.253,13.253,0,0,1-1.554.039,8.854,8.854,0,0,0-1.019-.1l.353-1.11a22.322,22.322,0,0,1,2.677.418C976.852,3129.154,977.948,3129.5,977.948,3129.5Z" fill="#004975" fill-rule="evenodd"/>
        <path id="Trazado_13191" data-name="Trazado 13191" d="M980.705,3124.926c-1.2-.956-2.038-.9-2.665-.459s-1.384.287-2.011.678a5.733,5.733,0,0,0-1.067.872,28.507,28.507,0,0,1,4.071-.793A4.377,4.377,0,0,0,980.705,3124.926Z" fill="#004975" fill-rule="evenodd"/>
        <path id="Trazado_13192" data-name="Trazado 13192" d="M982.432,3129.393a6.053,6.053,0,0,1-1.619,1.28,1.126,1.126,0,0,1-1.306-.183c-.182-.242.757-.81,1.018-.941A11.157,11.157,0,0,1,982.432,3129.393Z" fill="#004975" fill-rule="evenodd"/>
        <path id="Trazado_13193" data-name="Trazado 13193" d="M983.107,3129.05a3.68,3.68,0,0,1-.052-2.9,2.883,2.883,0,0,0-.549,1.385,6.755,6.755,0,0,0,.027,1.749Z" fill="#004975" fill-rule="evenodd"/>
      </g>
      <g id="Grupo_2913" data-name="Grupo 2913">
        <path id="Trazado_13194" data-name="Trazado 13194" d="M1021.693,3113.733a14.553,14.553,0,0,0-8.24-2.065c-3.137.119-6.069,1.7-8.172,2.4-1.408.469-3.322.951-.328,1.062,4.23.156,6.633,1.515,10.551,1.515A8.358,8.358,0,0,0,1021.693,3113.733Z" fill="#4a89af" fill-rule="evenodd"/>
        <path id="Trazado_13195" data-name="Trazado 13195" d="M1003.1,3114.839a4.8,4.8,0,0,0-1.82-3.238c-.289-.227,1.663.6,3.635,3.275Z" fill="#004975" fill-rule="evenodd"/>
        <path id="Trazado_13196" data-name="Trazado 13196" d="M1003.1,3114.839a4.793,4.793,0,0,1-1.82,3.238c-.289.227,1.663-.522,3.635-3.2Z" fill="#004975" fill-rule="evenodd"/>
        <path id="Trazado_13197" data-name="Trazado 13197" d="M1018.716,3114.347a.666.666,0,1,0-.666-.666A.667.667,0,0,0,1018.716,3114.347Z" fill="#006eaa" fill-rule="evenodd"/>
        <path id="Trazado_13198" data-name="Trazado 13198" d="M1011.689,3116.233c-.5.385-.586.438-.978.294a5.147,5.147,0,0,0-1.5-.13,13.259,13.259,0,0,1-1.554.039,8.8,8.8,0,0,0-1.019-.1l.353-1.109a22.293,22.293,0,0,1,2.676.417C1010.594,3115.888,1011.689,3116.233,1011.689,3116.233Z" fill="#004975" fill-rule="evenodd"/>
        <path id="Trazado_13199" data-name="Trazado 13199" d="M1014.446,3111.659c-1.2-.955-2.037-.9-2.664-.459s-1.384.287-2.011.679a5.779,5.779,0,0,0-1.068.871,28.508,28.508,0,0,1,4.071-.793A4.37,4.37,0,0,0,1014.446,3111.659Z" fill="#004975" fill-rule="evenodd"/>
        <path id="Trazado_13200" data-name="Trazado 13200" d="M1016.174,3116.126a6.071,6.071,0,0,1-1.62,1.28,1.123,1.123,0,0,1-1.3-.183c-.182-.242.757-.81,1.018-.94A11.09,11.09,0,0,1,1016.174,3116.126Z" fill="#004975" fill-rule="evenodd"/>
        <path id="Trazado_13201" data-name="Trazado 13201" d="M1016.848,3115.783a3.679,3.679,0,0,1-.052-2.9,2.876,2.876,0,0,0-.548,1.385,6.728,6.728,0,0,0,.026,1.749Z" fill="#004975" fill-rule="evenodd"/>
      </g>
      <g id="Grupo_2914" data-name="Grupo 2914">
        <path id="Trazado_13202" data-name="Trazado 13202" d="M1039.933,3112.384a14.552,14.552,0,0,0-8.24-2.064c-3.137.119-6.069,1.7-8.172,2.4-1.408.469-3.322.951-.328,1.062,4.23.156,6.633,1.514,10.551,1.514A8.358,8.358,0,0,0,1039.933,3112.384Z" fill="#447ea1" fill-rule="evenodd"/>
        <path id="Trazado_13203" data-name="Trazado 13203" d="M1021.338,3113.491a4.8,4.8,0,0,0-1.82-3.239c-.29-.226,1.663.6,3.635,3.275Z" fill="#003456" fill-rule="evenodd"/>
        <path id="Trazado_13204" data-name="Trazado 13204" d="M1021.338,3113.491a4.8,4.8,0,0,1-1.82,3.238c-.29.226,1.663-.523,3.635-3.2Z" fill="#003456" fill-rule="evenodd"/>
        <path id="Trazado_13205" data-name="Trazado 13205" d="M1036.955,3113a.666.666,0,1,0-.665-.666A.667.667,0,0,0,1036.955,3113Z" fill="#005d8f" fill-rule="evenodd"/>
        <path id="Trazado_13206" data-name="Trazado 13206" d="M1029.929,3114.884c-.495.387-.586.439-.978.295a5.145,5.145,0,0,0-1.5-.131,13.056,13.056,0,0,1-1.555.039,8.73,8.73,0,0,0-1.018-.1l.353-1.11a22.287,22.287,0,0,1,2.676.418C1028.834,3114.539,1029.929,3114.884,1029.929,3114.884Z" fill="#003456" fill-rule="evenodd"/>
        <path id="Trazado_13207" data-name="Trazado 13207" d="M1032.686,3110.311c-1.2-.956-2.037-.9-2.665-.46s-1.383.288-2.01.679a5.763,5.763,0,0,0-1.068.872,28.529,28.529,0,0,1,4.071-.793A4.374,4.374,0,0,0,1032.686,3110.311Z" fill="#003456" fill-rule="evenodd"/>
        <path id="Trazado_13208" data-name="Trazado 13208" d="M1034.414,3114.777a6.067,6.067,0,0,1-1.619,1.28,1.126,1.126,0,0,1-1.306-.182c-.183-.242.757-.81,1.018-.941A11.173,11.173,0,0,1,1034.414,3114.777Z" fill="#003456" fill-rule="evenodd"/>
        <path id="Trazado_13209" data-name="Trazado 13209" d="M1035.088,3114.435a3.68,3.68,0,0,1-.052-2.9,2.875,2.875,0,0,0-.548,1.384,6.734,6.734,0,0,0,.026,1.75Z" fill="#003456" fill-rule="evenodd"/>
      </g>
      <g id="Grupo_2915" data-name="Grupo 2915">
        <path id="Trazado_13210" data-name="Trazado 13210" d="M981.3,3119.38a14.557,14.557,0,0,0-8.24-2.065c-3.137.12-6.07,1.7-8.172,2.4-1.409.47-3.323.952-.328,1.062,4.23.157,6.633,1.515,10.55,1.515A8.359,8.359,0,0,0,981.3,3119.38Z" fill="#447ea1" fill-rule="evenodd"/>
        <path id="Trazado_13211" data-name="Trazado 13211" d="M962.707,3120.487a4.8,4.8,0,0,0-1.819-3.239c-.29-.226,1.663.6,3.635,3.276Z" fill="#003456" fill-rule="evenodd"/>
        <path id="Trazado_13212" data-name="Trazado 13212" d="M962.707,3120.487a4.8,4.8,0,0,1-1.819,3.238c-.29.226,1.663-.522,3.635-3.2Z" fill="#003456" fill-rule="evenodd"/>
        <path id="Trazado_13213" data-name="Trazado 13213" d="M978.325,3119.994a.666.666,0,1,0-.666-.666A.667.667,0,0,0,978.325,3119.994Z" fill="#005d8f" fill-rule="evenodd"/>
        <path id="Trazado_13214" data-name="Trazado 13214" d="M971.3,3121.88c-.495.386-.586.438-.978.3a5.117,5.117,0,0,0-1.5-.131,13,13,0,0,1-1.554.039,8.691,8.691,0,0,0-1.018-.1l.352-1.11a22.342,22.342,0,0,1,2.677.418C970.2,3121.535,971.3,3121.88,971.3,3121.88Z" fill="#003456" fill-rule="evenodd"/>
        <path id="Trazado_13215" data-name="Trazado 13215" d="M974.056,3117.306c-1.2-.955-2.038-.9-2.664-.459s-1.385.287-2.012.679a5.776,5.776,0,0,0-1.067.872,28.508,28.508,0,0,1,4.071-.793A4.365,4.365,0,0,0,974.056,3117.306Z" fill="#003456" fill-rule="evenodd"/>
        <path id="Trazado_13216" data-name="Trazado 13216" d="M975.783,3121.774a6.047,6.047,0,0,1-1.619,1.279,1.123,1.123,0,0,1-1.306-.183c-.182-.241.758-.809,1.019-.94A11.165,11.165,0,0,1,975.783,3121.774Z" fill="#003456" fill-rule="evenodd"/>
        <path id="Trazado_13217" data-name="Trazado 13217" d="M976.458,3121.431a3.682,3.682,0,0,1-.052-2.9,2.888,2.888,0,0,0-.549,1.385,6.787,6.787,0,0,0,.026,1.75Z" fill="#003456" fill-rule="evenodd"/>
      </g>
      <g id="Grupo_2916" data-name="Grupo 2916">
        <path id="Trazado_13218" data-name="Trazado 13218" d="M1019.291,3127.94a14.553,14.553,0,0,0-8.24-2.065c-3.137.119-6.07,1.7-8.172,2.4-1.409.469-3.322.951-.329,1.062,4.231.156,6.633,1.514,10.551,1.514A8.36,8.36,0,0,0,1019.291,3127.94Z" fill="#447ea1" fill-rule="evenodd"/>
        <path id="Trazado_13219" data-name="Trazado 13219" d="M1000.7,3129.046a4.8,4.8,0,0,0-1.819-3.238c-.29-.227,1.663.6,3.635,3.275Z" fill="#003456" fill-rule="evenodd"/>
        <path id="Trazado_13220" data-name="Trazado 13220" d="M1000.7,3129.046a4.8,4.8,0,0,1-1.819,3.239c-.29.226,1.663-.523,3.635-3.2Z" fill="#003456" fill-rule="evenodd"/>
        <path id="Trazado_13221" data-name="Trazado 13221" d="M1016.313,3128.554a.667.667,0,1,0-.666-.666A.667.667,0,0,0,1016.313,3128.554Z" fill="#005d8f" fill-rule="evenodd"/>
        <path id="Trazado_13222" data-name="Trazado 13222" d="M1009.287,3130.44c-.495.386-.587.438-.979.294a5.119,5.119,0,0,0-1.5-.13,13.476,13.476,0,0,1-1.554.039,8.564,8.564,0,0,0-1.019-.1l.353-1.109a22.113,22.113,0,0,1,2.677.418C1008.191,3130.095,1009.287,3130.44,1009.287,3130.44Z" fill="#003456" fill-rule="evenodd"/>
        <path id="Trazado_13223" data-name="Trazado 13223" d="M1012.044,3125.866c-1.2-.955-2.038-.9-2.665-.459s-1.384.287-2.01.679a5.721,5.721,0,0,0-1.068.872,28.477,28.477,0,0,1,4.071-.794A4.377,4.377,0,0,0,1012.044,3125.866Z" fill="#003456" fill-rule="evenodd"/>
        <path id="Trazado_13224" data-name="Trazado 13224" d="M1013.771,3130.333a6.083,6.083,0,0,1-1.619,1.28,1.124,1.124,0,0,1-1.306-.183c-.182-.242.758-.81,1.019-.94A11.056,11.056,0,0,1,1013.771,3130.333Z" fill="#003456" fill-rule="evenodd"/>
        <path id="Trazado_13225" data-name="Trazado 13225" d="M1014.446,3129.99a3.68,3.68,0,0,1-.052-2.9,2.889,2.889,0,0,0-.549,1.385,6.755,6.755,0,0,0,.027,1.749Z" fill="#003456" fill-rule="evenodd"/>
      </g>
      <g id="Grupo_2917" data-name="Grupo 2917">
        <path id="Trazado_13226" data-name="Trazado 13226" d="M986.839,3110.526a14.557,14.557,0,0,0-8.24-2.065c-3.137.119-6.069,1.7-8.172,2.4-1.409.469-3.322.951-.328,1.062,4.231.156,6.633,1.515,10.55,1.515A8.359,8.359,0,0,0,986.839,3110.526Z" fill="#29698b" fill-rule="evenodd"/>
        <path id="Trazado_13227" data-name="Trazado 13227" d="M968.243,3111.632a4.8,4.8,0,0,0-1.819-3.239c-.29-.226,1.663.6,3.635,3.276Z" fill="#002140" fill-rule="evenodd"/>
        <path id="Trazado_13228" data-name="Trazado 13228" d="M968.243,3111.632a4.8,4.8,0,0,1-1.819,3.238c-.29.227,1.663-.522,3.635-3.2Z" fill="#002140" fill-rule="evenodd"/>
        <path id="Trazado_13229" data-name="Trazado 13229" d="M983.861,3111.14a.667.667,0,1,0-.665-.666A.667.667,0,0,0,983.861,3111.14Z" fill="#00487d" fill-rule="evenodd"/>
        <path id="Trazado_13230" data-name="Trazado 13230" d="M976.835,3113.026c-.495.385-.586.438-.978.294a5.121,5.121,0,0,0-1.5-.13,13.471,13.471,0,0,1-1.554.039,8.537,8.537,0,0,0-1.018-.1l.352-1.11a22.589,22.589,0,0,1,2.677.418C975.739,3112.681,976.835,3113.026,976.835,3113.026Z" fill="#002140" fill-rule="evenodd"/>
        <path id="Trazado_13231" data-name="Trazado 13231" d="M979.592,3108.452c-1.2-.955-2.038-.9-2.665-.46s-1.383.288-2.01.68a5.773,5.773,0,0,0-1.068.871,28.508,28.508,0,0,1,4.071-.793A4.37,4.37,0,0,0,979.592,3108.452Z" fill="#002140" fill-rule="evenodd"/>
        <path id="Trazado_13232" data-name="Trazado 13232" d="M981.319,3112.919a6.064,6.064,0,0,1-1.618,1.28,1.126,1.126,0,0,1-1.306-.183c-.182-.242.757-.81,1.018-.94A11.08,11.08,0,0,1,981.319,3112.919Z" fill="#002140" fill-rule="evenodd"/>
        <path id="Trazado_13233" data-name="Trazado 13233" d="M981.994,3112.576a3.679,3.679,0,0,1-.052-2.9,2.881,2.881,0,0,0-.548,1.384,6.734,6.734,0,0,0,.026,1.75Z" fill="#002140" fill-rule="evenodd"/>
      </g>
      <g id="Grupo_2918" data-name="Grupo 2918">
        <path id="Trazado_13234" data-name="Trazado 13234" d="M987.908,3113.434a14.538,14.538,0,0,0-8.24-2.065c-3.137.119-6.069,1.7-8.172,2.4-1.408.469-3.322.951-.328,1.062,4.231.156,6.633,1.514,10.551,1.514A8.359,8.359,0,0,0,987.908,3113.434Z" fill="#447ea1" fill-rule="evenodd"/>
        <path id="Trazado_13235" data-name="Trazado 13235" d="M969.313,3114.54a4.8,4.8,0,0,0-1.82-3.239c-.29-.226,1.663.6,3.635,3.276Z" fill="#003456" fill-rule="evenodd"/>
        <path id="Trazado_13236" data-name="Trazado 13236" d="M969.313,3114.54a4.8,4.8,0,0,1-1.82,3.238c-.29.226,1.663-.522,3.635-3.2Z" fill="#003456" fill-rule="evenodd"/>
        <path id="Trazado_13237" data-name="Trazado 13237" d="M984.93,3114.047a.666.666,0,1,0-.665-.666A.668.668,0,0,0,984.93,3114.047Z" fill="#005d8f" fill-rule="evenodd"/>
        <path id="Trazado_13238" data-name="Trazado 13238" d="M977.905,3115.934c-.5.386-.587.438-.979.294a5.193,5.193,0,0,0-1.5-.131,13.005,13.005,0,0,1-1.553.04,8.62,8.62,0,0,0-1.019-.1l.353-1.11a22.354,22.354,0,0,1,2.677.418C976.809,3115.588,977.905,3115.934,977.905,3115.934Z" fill="#003456" fill-rule="evenodd"/>
        <path id="Trazado_13239" data-name="Trazado 13239" d="M980.661,3111.36c-1.2-.956-2.037-.9-2.664-.46s-1.384.288-2.011.679a5.727,5.727,0,0,0-1.067.872,28.517,28.517,0,0,1,4.07-.793A4.374,4.374,0,0,0,980.661,3111.36Z" fill="#003456" fill-rule="evenodd"/>
        <path id="Trazado_13240" data-name="Trazado 13240" d="M982.389,3115.826a6.044,6.044,0,0,1-1.619,1.28,1.126,1.126,0,0,1-1.306-.182c-.182-.242.757-.81,1.018-.941A11.19,11.19,0,0,1,982.389,3115.826Z" fill="#003456" fill-rule="evenodd"/>
        <path id="Trazado_13241" data-name="Trazado 13241" d="M983.064,3115.484a3.676,3.676,0,0,1-.053-2.9,2.875,2.875,0,0,0-.548,1.384,6.787,6.787,0,0,0,.026,1.75Z" fill="#003456" fill-rule="evenodd"/>
      </g>
      <g id="Grupo_2919" data-name="Grupo 2919">
        <path id="Trazado_13242" data-name="Trazado 13242" d="M1004.562,3127.417a14.56,14.56,0,0,0-8.24-2.064c-3.138.119-6.07,1.7-8.173,2.4-1.408.47-3.322.952-.328,1.063,4.231.156,6.633,1.514,10.551,1.514A8.361,8.361,0,0,0,1004.562,3127.417Z" fill="#447ea1" fill-rule="evenodd"/>
        <path id="Trazado_13243" data-name="Trazado 13243" d="M985.966,3128.524a4.8,4.8,0,0,0-1.82-3.239c-.29-.226,1.664.6,3.635,3.276Z" fill="#003456" fill-rule="evenodd"/>
        <path id="Trazado_13244" data-name="Trazado 13244" d="M985.966,3128.524a4.8,4.8,0,0,1-1.82,3.238c-.29.227,1.664-.522,3.635-3.2Z" fill="#003456" fill-rule="evenodd"/>
        <path id="Trazado_13245" data-name="Trazado 13245" d="M1001.584,3128.032a.667.667,0,1,0-.666-.667A.668.668,0,0,0,1001.584,3128.032Z" fill="#005d8f" fill-rule="evenodd"/>
        <path id="Trazado_13246" data-name="Trazado 13246" d="M994.557,3129.917c-.495.386-.586.439-.978.295a5.126,5.126,0,0,0-1.5-.13,13.468,13.468,0,0,1-1.554.039,8.536,8.536,0,0,0-1.018-.1l.353-1.11a22.322,22.322,0,0,1,2.677.418C993.462,3129.572,994.557,3129.917,994.557,3129.917Z" fill="#003456" fill-rule="evenodd"/>
        <path id="Trazado_13247" data-name="Trazado 13247" d="M997.314,3125.344c-1.2-.955-2.037-.9-2.664-.46s-1.384.287-2.011.68a5.753,5.753,0,0,0-1.067.871,28.486,28.486,0,0,1,4.07-.793A4.371,4.371,0,0,0,997.314,3125.344Z" fill="#003456" fill-rule="evenodd"/>
        <path id="Trazado_13248" data-name="Trazado 13248" d="M999.042,3129.811a6.045,6.045,0,0,1-1.62,1.279,1.125,1.125,0,0,1-1.3-.182c-.182-.242.757-.81,1.019-.94A11.056,11.056,0,0,1,999.042,3129.811Z" fill="#003456" fill-rule="evenodd"/>
        <path id="Trazado_13249" data-name="Trazado 13249" d="M999.716,3129.468a3.678,3.678,0,0,1-.051-2.9,2.888,2.888,0,0,0-.549,1.384,6.734,6.734,0,0,0,.026,1.75Z" fill="#003456" fill-rule="evenodd"/>
      </g>
      <g id="Grupo_2920" data-name="Grupo 2920">
        <path id="Trazado_13250" data-name="Trazado 13250" d="M1029.6,3120.922a14.543,14.543,0,0,0-8.476-.564c-3.065.676-5.669,2.754-7.613,3.818-1.3.712-3.1,1.528-.134,1.1,4.191-.6,6.8.308,10.652-.39A8.359,8.359,0,0,0,1029.6,3120.922Z" fill="#29698b" fill-rule="evenodd"/>
        <path id="Trazado_13251" data-name="Trazado 13251" d="M1011.5,3125.324a4.806,4.806,0,0,0-2.368-2.863c-.325-.17,1.743.291,4.16,2.575Z" fill="#002140" fill-rule="evenodd"/>
        <path id="Trazado_13252" data-name="Trazado 13252" d="M1011.5,3125.324a4.794,4.794,0,0,1-1.214,3.51c-.244.275,1.544-.81,3.006-3.8Z" fill="#002140" fill-rule="evenodd"/>
        <path id="Trazado_13253" data-name="Trazado 13253" d="M1026.543,3120.746a.666.666,0,1,0,.774.536A.666.666,0,0,0,1026.543,3120.746Z" fill="#00487d" fill-rule="evenodd"/>
        <path id="Trazado_13254" data-name="Trazado 13254" d="M1020.2,3125.164c-.418.468-.5.536-.91.464a5.119,5.119,0,0,0-1.5.14,13.4,13.4,0,0,1-1.522.315,8.591,8.591,0,0,0-1.02.079l.148-1.155a22.308,22.308,0,0,1,2.709-.066C1019.063,3125.019,1020.2,3125.164,1020.2,3125.164Z" fill="#002140" fill-rule="evenodd"/>
        <path id="Trazado_13255" data-name="Trazado 13255" d="M1022.1,3120.173c-1.353-.727-2.166-.526-2.7.022s-1.311.53-1.858,1.027a5.738,5.738,0,0,0-.9,1.048,28.462,28.462,0,0,1,3.864-1.506A4.389,4.389,0,0,0,1022.1,3120.173Z" fill="#002140" fill-rule="evenodd"/>
        <path id="Trazado_13256" data-name="Trazado 13256" d="M1024.6,3124.26a6.056,6.056,0,0,1-1.365,1.548,1.124,1.124,0,0,1-1.317.052c-.222-.2.6-.931.834-1.106A11.139,11.139,0,0,1,1024.6,3124.26Z" fill="#002140" fill-rule="evenodd"/>
        <path id="Trazado_13257" data-name="Trazado 13257" d="M1025.2,3123.8a3.68,3.68,0,0,1-.568-2.843,2.873,2.873,0,0,0-.292,1.459,6.752,6.752,0,0,0,.337,1.717Z" fill="#002140" fill-rule="evenodd"/>
      </g>
      <g id="Grupo_2921" data-name="Grupo 2921">
        <path id="Trazado_13258" data-name="Trazado 13258" d="M1017.655,3121.71a14.545,14.545,0,0,0-8.241-2.064c-3.136.118-6.068,1.7-8.172,2.4-1.408.47-3.322.952-.327,1.062,4.23.157,6.633,1.515,10.55,1.515A8.359,8.359,0,0,0,1017.655,3121.71Z" fill="#6294b3" fill-rule="evenodd"/>
        <path id="Trazado_13259" data-name="Trazado 13259" d="M999.059,3122.816a4.8,4.8,0,0,0-1.819-3.238c-.29-.226,1.663.6,3.634,3.275Z" fill="#006295" fill-rule="evenodd"/>
        <path id="Trazado_13260" data-name="Trazado 13260" d="M999.059,3122.816a4.8,4.8,0,0,1-1.819,3.239c-.29.227,1.663-.522,3.634-3.2Z" fill="#006295" fill-rule="evenodd"/>
        <path id="Trazado_13261" data-name="Trazado 13261" d="M1014.677,3122.324a.666.666,0,1,0-.666-.666A.667.667,0,0,0,1014.677,3122.324Z" fill="#0082c2" fill-rule="evenodd"/>
        <path id="Trazado_13262" data-name="Trazado 13262" d="M1007.651,3124.21c-.495.386-.587.438-.978.295a5.126,5.126,0,0,0-1.5-.131,13.048,13.048,0,0,1-1.554.039,8.691,8.691,0,0,0-1.018-.1l.352-1.11a22.322,22.322,0,0,1,2.677.418C1006.555,3123.865,1007.651,3124.21,1007.651,3124.21Z" fill="#006295" fill-rule="evenodd"/>
        <path id="Trazado_13263" data-name="Trazado 13263" d="M1010.408,3119.637c-1.2-.956-2.038-.9-2.665-.46s-1.384.287-2.011.679a5.776,5.776,0,0,0-1.067.872,28.507,28.507,0,0,1,4.071-.793A4.377,4.377,0,0,0,1010.408,3119.637Z" fill="#006295" fill-rule="evenodd"/>
        <path id="Trazado_13264" data-name="Trazado 13264" d="M1012.135,3124.1a6.033,6.033,0,0,1-1.619,1.28,1.125,1.125,0,0,1-1.306-.183c-.182-.241.758-.809,1.019-.94A11.155,11.155,0,0,1,1012.135,3124.1Z" fill="#006295" fill-rule="evenodd"/>
        <path id="Trazado_13265" data-name="Trazado 13265" d="M1012.81,3123.761a3.679,3.679,0,0,1-.052-2.9,2.882,2.882,0,0,0-.549,1.384,6.787,6.787,0,0,0,.026,1.75Z" fill="#006295" fill-rule="evenodd"/>
      </g>
      <g id="Grupo_2922" data-name="Grupo 2922">
        <path id="Trazado_13266" data-name="Trazado 13266" d="M1037.4,3120.481a14.559,14.559,0,0,0-8.455.832c-2.912,1.169-5.141,3.645-6.885,5.013-1.168.916-2.807,2.015.049,1.111,4.036-1.278,6.756-.809,10.444-2.129A8.358,8.358,0,0,0,1037.4,3120.481Z" fill="#447ea1" fill-rule="evenodd"/>
        <path id="Trazado_13267" data-name="Trazado 13267" d="M1020.267,3127.788a4.8,4.8,0,0,0-2.8-2.436c-.35-.116,1.766,0,4.525,1.859Z" fill="#003456" fill-rule="evenodd"/>
        <path id="Trazado_13268" data-name="Trazado 13268" d="M1020.267,3127.788a4.8,4.8,0,0,1-.623,3.662c-.2.311,1.39-1.053,2.344-4.239Z" fill="#003456" fill-rule="evenodd"/>
        <path id="Trazado_13269" data-name="Trazado 13269" d="M1034.357,3120.808a.666.666,0,1,0,.851.4A.665.665,0,0,0,1034.357,3120.808Z" fill="#005d8f" fill-rule="evenodd"/>
        <path id="Trazado_13270" data-name="Trazado 13270" d="M1028.825,3126.205c-.336.53-.4.611-.822.607a5.173,5.173,0,0,0-1.458.383,12.9,12.9,0,0,1-1.449.56,8.866,8.866,0,0,0-.995.245l-.041-1.164a22.379,22.379,0,0,1,2.661-.508C1027.677,3126.249,1028.825,3126.205,1028.825,3126.205Z" fill="#003456" fill-rule="evenodd"/>
        <path id="Trazado_13271" data-name="Trazado 13271" d="M1029.88,3120.97c-1.454-.495-2.223-.164-2.664.466s-1.206.736-1.664,1.316a5.75,5.75,0,0,0-.711,1.18,28.487,28.487,0,0,1,3.565-2.118A4.373,4.373,0,0,0,1029.88,3120.97Z" fill="#003456" fill-rule="evenodd"/>
        <path id="Trazado_13272" data-name="Trazado 13272" d="M1033.011,3124.594a6.049,6.049,0,0,1-1.093,1.751,1.125,1.125,0,0,1-1.291.267c-.253-.166.44-1.017.642-1.228A11.112,11.112,0,0,1,1033.011,3124.594Z" fill="#003456" fill-rule="evenodd"/>
        <path id="Trazado_13273" data-name="Trazado 13273" d="M1033.531,3124.044a3.677,3.677,0,0,1-1.025-2.712,2.874,2.874,0,0,0-.051,1.488,6.813,6.813,0,0,0,.614,1.639Z" fill="#003456" fill-rule="evenodd"/>
      </g>
      <g id="Grupo_2923" data-name="Grupo 2923">
        <path id="Trazado_13274" data-name="Trazado 13274" d="M1041.659,3118.966a14.544,14.544,0,0,0-8.484-.421c-3.054.727-5.622,2.848-7.548,3.945-1.291.734-3.074,1.579-.116,1.1,4.18-.67,6.8.2,10.644-.568A8.358,8.358,0,0,0,1041.659,3118.966Z" fill="#6294b3" fill-rule="evenodd"/>
        <path id="Trazado_13275" data-name="Trazado 13275" d="M1023.635,3123.671a4.8,4.8,0,0,0-2.415-2.822c-.328-.166,1.748.261,4.2,2.5Z" fill="#006295" fill-rule="evenodd"/>
        <path id="Trazado_13276" data-name="Trazado 13276" d="M1023.635,3123.671a4.805,4.805,0,0,1-1.154,3.531c-.24.278,1.529-.837,2.941-3.848Z" fill="#006295" fill-rule="evenodd"/>
        <path id="Trazado_13277" data-name="Trazado 13277" d="M1038.6,3118.842a.666.666,0,1,0,.783.523A.665.665,0,0,0,1038.6,3118.842Z" fill="#0082c2" fill-rule="evenodd"/>
        <path id="Trazado_13278" data-name="Trazado 13278" d="M1032.333,3123.366c-.41.475-.489.544-.9.479a5.14,5.14,0,0,0-1.5.164,13.117,13.117,0,0,1-1.517.341,8.669,8.669,0,0,0-1.019.1l.129-1.157a22.308,22.308,0,0,1,2.708-.111C1031.192,3123.24,1032.333,3123.366,1032.333,3123.366Z" fill="#006295" fill-rule="evenodd"/>
        <path id="Trazado_13279" data-name="Trazado 13279" d="M1034.147,3118.343c-1.365-.7-2.174-.49-2.7.068s-1.3.551-1.841,1.057a5.736,5.736,0,0,0-.877,1.063,28.476,28.476,0,0,1,3.838-1.57A4.389,4.389,0,0,0,1034.147,3118.343Z" fill="#006295" fill-rule="evenodd"/>
        <path id="Trazado_13280" data-name="Trazado 13280" d="M1036.711,3122.388a6.037,6.037,0,0,1-1.339,1.57,1.125,1.125,0,0,1-1.316.076c-.226-.2.585-.942.816-1.121A11.068,11.068,0,0,1,1036.711,3122.388Z" fill="#006295" fill-rule="evenodd"/>
        <path id="Trazado_13281" data-name="Trazado 13281" d="M1037.306,3121.921a3.68,3.68,0,0,1-.615-2.834,2.882,2.882,0,0,0-.268,1.464,6.733,6.733,0,0,0,.365,1.712Z" fill="#006295" fill-rule="evenodd"/>
      </g>
    </g>
    <path id="Trazado_13282" data-name="Trazado 13282" d="M987.814,3091.387c-33.657,0-64.128-7.876-86.185-20.61l-6.291,3.632c23.667,13.664,56.362,22.115,92.476,22.115s68.81-8.451,92.476-22.115l-6.291-3.632c-22.057,12.734-52.528,20.61-86.185,20.61Zm-79.893-24.243,6.291-3.633c18.837,10.876,44.859,17.6,73.6,17.6s54.766-6.726,73.6-17.6l6.292,3.633c-20.447,11.8-48.693,19.106-79.894,19.106s-59.446-7.3-79.893-19.106Zm12.583-7.265,6.291-3.632c15.616,9.016,37.19,14.592,61.019,14.592s45.4-5.576,61.019-14.592l6.292,3.632c-17.227,9.946-41.025,16.1-67.311,16.1s-50.084-6.151-67.31-16.1Zm12.583-7.264c14.006,8.086,33.355,13.087,54.727,13.087s40.721-5,54.727-13.087l-6.291-3.633c-12.4,7.157-29.52,11.583-48.436,11.583s-36.04-4.426-48.436-11.583l-6.291,3.633Zm12.583-7.265,6.291-3.633c9.176,5.3,21.852,8.574,35.853,8.574s26.678-3.276,35.853-8.574l6.292,3.633c-10.786,6.227-25.687,10.078-42.145,10.078s-31.359-3.851-42.144-10.078Zm12.583-7.265c7.565,4.368,18.017,7.07,29.561,7.07s22-2.7,29.561-7.07l-6.29-3.632c-5.956,3.438-14.184,5.565-23.271,5.565s-17.314-2.127-23.27-5.565l-6.291,3.632Zm12.582-7.265,6.292-3.632a23.621,23.621,0,0,0,21.374,0l6.292,3.632a37.535,37.535,0,0,1-33.958,0Z" fill="#00a6e6" fill-rule="evenodd"/>
    <g id="Grupo_2925" data-name="Grupo 2925">
      <path id="Trazado_13283" data-name="Trazado 13283" d="M995.949,3073.02c-7.5-4.33-12.118-7.784-14.918-11.166s-7.139-10.23-7.638-23.1l22.888,12.531,42.107,24.31-18.99,10.964Z" fill="#d24c2f" fill-rule="evenodd"/>
      <path id="Trazado_13284" data-name="Trazado 13284" d="M995.949,3068.288c-7.881-5.569-9.491-9.847-9.576-11.289l18.62-10.749c.085,1.441,2.065,5.5,9.946,11.074h0l9.922,5.729q6.758,3.9,13.527,7.806l-18.99,10.963Z" fill="#9c9b9b" fill-rule="evenodd"/>
      <path id="Trazado_13285" data-name="Trazado 13285" d="M1023.062,3064.269l0-15.58-15.092,8.713v15.578Z" fill="#c6c6c5" fill-rule="evenodd"/>
      <path id="Trazado_13286" data-name="Trazado 13286" d="M973.393,3038.749a17.39,17.39,0,0,0,2.89,9.233c1.942,2.872,5.087,5.715,10.09,9.017q2.324-1.343,4.654-2.686l4.658-2.689,4.653-2.687,4.655-2.687a66.363,66.363,0,0,0-15.618-5.825A78.884,78.884,0,0,0,973.393,3038.749Z" fill="#575756" fill-rule="evenodd"/>
      <path id="Trazado_13287" data-name="Trazado 13287" d="M1038.388,3070.859l-18.99,10.964v4.732l18.99-10.964Z" fill="#eb6e53" fill-rule="evenodd"/>
      <path id="Trazado_13288" data-name="Trazado 13288" d="M974.159,3041.073a17.393,17.393,0,0,0,2.89,9.232c1.942,2.873,5.087,5.716,10.09,9.018l4.654-2.687q2.326-1.344,4.659-2.689l4.652-2.687,4.655-2.687a66.373,66.373,0,0,0-15.618-5.824A78.815,78.815,0,0,0,974.159,3041.073Z" fill="#6f6f6e" fill-rule="evenodd"/>
      <path id="Trazado_13289" data-name="Trazado 13289" d="M977.866,3041.2c.354.017.7.036,1.051.056,2.361.138,4.6.352,6.777.672,1.5.22,2.978.491,4.447.822a63.034,63.034,0,0,1,13.018,4.559l2.6,1.265.1-.051a5.748,5.748,0,0,1-.864-2.272,66.363,66.363,0,0,0-15.618-5.825c-.261-.059-.522-.115-.784-.17a77.709,77.709,0,0,0-13.961-1.475q-.612-.018-1.237-.031a19.176,19.176,0,0,0,1.352,6.4,22.081,22.081,0,0,1-.586-4.072C975.434,3041.1,976.667,3041.14,977.866,3041.2Z" fill="#9c9b9b" fill-rule="evenodd"/>
      <path id="Trazado_13290" data-name="Trazado 13290" d="M990.329,3047.216l15.092-8.713,17.641,10.187-15.087,8.712Z" fill="#ececec" fill-rule="evenodd"/>
      <path id="Trazado_13291" data-name="Trazado 13291" d="M997.927,3046.545l12.718-7.343v3.687l-12.717,7.342Z" fill="#c6c6c5" fill-rule="evenodd"/>
      <path id="Trazado_13292" data-name="Trazado 13292" d="M991.516,3046.531v-3.687l6.41,3.7v3.687Z" fill="#d9d9d9" fill-rule="evenodd"/>
      <path id="Trazado_13293" data-name="Trazado 13293" d="M991.516,3042.845l12.718-7.343,6.41,3.7-12.717,7.342Z" fill="#ececec" fill-rule="evenodd"/>
      <path id="Trazado_13294" data-name="Trazado 13294" d="M990.329,3062.8l0-15.58,17.642,10.187v15.578Z" fill="#d9d9d9" fill-rule="evenodd"/>
      <path id="Trazado_13295" data-name="Trazado 13295" d="M1002.021,3043.563l3.646-2.1,3.8,2.195-3.646,2.1Z" fill="#575756" fill-rule="evenodd"/>
      <path id="Trazado_13296" data-name="Trazado 13296" d="M1002.021,3043.563v8.592l3.8,2.195v-8.592Z" fill="#9c9b9b" fill-rule="evenodd"/>
      <path id="Trazado_13297" data-name="Trazado 13297" d="M1002.021,3044.921v2.324l3.8,2.2v-2.324Z" fill="#f39e8d" fill-rule="evenodd"/>
      <path id="Trazado_13298" data-name="Trazado 13298" d="M1009.469,3043.653v8.592l-3.646,2.1v-8.592Z" fill="#6f6f6e" fill-rule="evenodd"/>
      <path id="Trazado_13299" data-name="Trazado 13299" d="M1010.414,3038.717l3.646-2.1,3.8,2.2-3.646,2.1Z" fill="#575756" fill-rule="evenodd"/>
      <path id="Trazado_13300" data-name="Trazado 13300" d="M1010.414,3038.717v8.592l3.8,2.2v-8.592Z" fill="#9c9b9b" fill-rule="evenodd"/>
      <path id="Trazado_13301" data-name="Trazado 13301" d="M1017.862,3038.807v8.592l-3.646,2.1v-8.592Z" fill="#6f6f6e" fill-rule="evenodd"/>
      <path id="Trazado_13302" data-name="Trazado 13302" d="M992.015,3050.09v5.092l2.988,1.725v-5.092Z" fill="#868686" fill-rule="evenodd"/>
      <path id="Trazado_13303" data-name="Trazado 13303" d="M996.227,3052.523v5.092l2.987,1.725v-5.093Z" fill="#868686" fill-rule="evenodd"/>
      <path id="Trazado_13304" data-name="Trazado 13304" d="M1000.44,3054.955v5.093l2.988,1.725v-5.093Z" fill="#868686" fill-rule="evenodd"/>
      <path id="Trazado_13305" data-name="Trazado 13305" d="M991.516,3043.393v2.25l2.392,1.381v-2.25Z" fill="#868686" fill-rule="evenodd"/>
      <path id="Trazado_13306" data-name="Trazado 13306" d="M1009.469,3045.011v2.324l-3.646,2.105v-2.324Z" fill="#eb6e53" fill-rule="evenodd"/>
      <path id="Trazado_13307" data-name="Trazado 13307" d="M1010.414,3040.075v2.324l3.8,2.2v-2.324Z" fill="#f39e8d" fill-rule="evenodd"/>
      <path id="Trazado_13308" data-name="Trazado 13308" d="M1017.862,3040.165v2.324l-3.646,2.105v-2.324Z" fill="#eb6e53" fill-rule="evenodd"/>
      <path id="Trazado_13309" data-name="Trazado 13309" d="M1015.376,3074.4c10.515,1.76,15.868.6,12.26-5.021-.076-.12-.157-.241-.242-.365l-2.245-1.3q.181.218.35.427C1030.772,3074.728,1025.8,3075.982,1015.376,3074.4Z" fill="#4a9aa7" fill-rule="evenodd"/>
      <path id="Trazado_13310" data-name="Trazado 13310" d="M1034.539,3097.039Zm14.638-6.475a45.6,45.6,0,0,1-13.251,3.517q-1.1.15-2.268.276c-.213-.038-5.249-3.946-5.611-3.028,3.216,3.711,5.717,4.843,6.492,5.71q6.533-1.341,12.757-3.035,5.162-1.406,10.086-3.043l.678-.226.024-.007a4.811,4.811,0,0,0-1.708-1.753,8.637,8.637,0,0,1-2.674-3.846C1054.237,3086.936,1052.647,3088.884,1049.177,3090.564Z" fill="#007ab9" fill-rule="evenodd"/>
      <path id="Trazado_13311" data-name="Trazado 13311" d="M1025.149,3067.722l9.335,5.39c4.94,7.19,11.906,5.46,18.686,11.013,4.766,4.521-1.973,9.578-19.512,10.232-8.171-1.465-7.671-8.831-10.358-14.788l-9.336-5.39C1025.572,3076.121,1031.233,3074.974,1025.149,3067.722Z" fill="#56a6b1" fill-rule="evenodd"/>
      <path id="Trazado_13312" data-name="Trazado 13312" d="M1025.806,3082.854a9.764,9.764,0,0,0-1.962-3.391c-.048-.042-.1-.083-.146-.124a17.2,17.2,0,0,0-1.8-1.3,53.167,53.167,0,0,0-7.931-3.863l6.69,3.863,2.646,1.527a29.693,29.693,0,0,1,1.3,3.593c.034.111.068.221.1.332.931,3.1,1.7,6.169,3.765,8.294a8.683,8.683,0,0,0,3.959,2.285c3.358.956,14.462-1,17.591-2.517-2.288,1-6.409.674-10.981.732-1.782.022-3.759-.049-5.948-.229-4.016-.72-5.731-5.535-7.232-9.1Z" fill="#4a9aa7" fill-rule="evenodd"/>
      <path id="Trazado_13313" data-name="Trazado 13313" d="M1030.749,3072.161c3.474.962,3.97,2.037,5.38,3.97s6.155,3.344,10.342,4.753,5.585,2.613,6.424,4.23-.157,3.082-1.985,3.918-2.872,1.411-2.872,1.411a16.06,16.06,0,0,0,2.611-3.866c.471-1.463-1.149-3.291-3.656-3.291s-3.03-.47-5.641-1.3-3.082-2.09-5.484-3.709-2.246-3.656-3.552-4.544-2.115-1.045-2.664-1.8a10.963,10.963,0,0,1-1.044-2.089s.979,1.162,1.423,1.685A2.368,2.368,0,0,0,1030.749,3072.161Z" fill="#5eb1bd" fill-rule="evenodd"/>
      <path id="Trazado_13314" data-name="Trazado 13314" d="M1019.846,3076.065c3.917.915,8.808-.223,9.741-.444s-.888.889-2.768,1.307-1.692.779-.206.729,3.418-.642,1.825-.129-4.048.731-2.612.967,4.413-.6,3.265-.105-2.795,1.018-2.142,2.037,3.03,5.589,4.883,6.712,3.265,1.514,6.582,2.063a28.233,28.233,0,0,0,6.868.391c1.933-.078,2.272.627,2.272.627a5.219,5.219,0,0,0-3.211.235c-1.463.7-1.306,1.149-6.007,1.071s2.559.392-.261.444-4.6.288-6.477-.992-2.925-3.082-4.387-6.425-1.389-4.177-3.137-5.431a25.39,25.39,0,0,0-5.887-3.383c-2.415-.94-1.736-.718-.287-.3S1019.846,3076.065,1019.846,3076.065Z" fill="#5eb1bd" fill-rule="evenodd"/>
      <path id="Trazado_13315" data-name="Trazado 13315" d="M985.14,3049.087l-4.559-17.367-.2.043,3.863,16.8Z" fill="#575756" fill-rule="evenodd"/>
      <path id="Trazado_13316" data-name="Trazado 13316" d="M987.073,3047.971l-4.559-17.368-.205.043,3.864,16.8Z" fill="#575756" fill-rule="evenodd"/>
      <path id="Trazado_13317" data-name="Trazado 13317" d="M987.073,3047.971l-4.559-17.368.224-.018,5.3,16.828Z" fill="#868686" fill-rule="evenodd"/>
      <path id="Trazado_13318" data-name="Trazado 13318" d="M985.14,3049.087l-4.559-17.367.224-.018,5.3,16.827Z" fill="#868686" fill-rule="evenodd"/>
      <path id="Trazado_13319" data-name="Trazado 13319" d="M1029.908,3056.522a.122.122,0,0,1,.146-.093.123.123,0,0,1,.094.146,54.2,54.2,0,0,0-.838,15.676c.534,6.76,1.992,12.654,3.275,15.2a8.391,8.391,0,0,0,6.456,4.713.123.123,0,0,1,.113.132.122.122,0,0,1-.132.113,8.646,8.646,0,0,1-6.657-4.847c-1.3-2.57-2.764-8.5-3.3-15.292A54.44,54.44,0,0,1,1029.908,3056.522Z" fill="#575756" fill-rule="evenodd"/>
      <path id="Trazado_13320" data-name="Trazado 13320" d="M1045.629,3047.4a.123.123,0,1,1,.244.028,79.175,79.175,0,0,0,.191,20.768c1.225,8.12,3.606,13.2,5.072,14.318a.123.123,0,0,1-.15.2c-1.5-1.146-3.93-6.29-5.165-14.478A79.349,79.349,0,0,1,1045.629,3047.4Z" fill="#575756" fill-rule="evenodd"/>
      <path id="Trazado_13321" data-name="Trazado 13321" d="M1015.352,3078.536l14.739-22.246.382-.031L1017,3077.584Z" fill="#d6b36a" fill-rule="evenodd"/>
      <path id="Trazado_13322" data-name="Trazado 13322" d="M1015.352,3078.536l14.739-22.246-.349.073-15.924,21.286Z" fill="#d0a54b" fill-rule="evenodd"/>
      <path id="Trazado_13323" data-name="Trazado 13323" d="M1031.043,3069.476l14.739-22.245.381-.031-13.473,21.325Z" fill="#d6b36a" fill-rule="evenodd"/>
      <path id="Trazado_13324" data-name="Trazado 13324" d="M1031.043,3069.476l14.739-22.245-.349.073-15.925,21.286Z" fill="#d0a54b" fill-rule="evenodd"/>
    </g>
  </g>
</svg>
