<svg xmlns="http://www.w3.org/2000/svg" xmlns:xlink="http://www.w3.org/1999/xlink" width="802.391" height="231.152" viewBox="0 0 802.391 231.152">
  <defs>
    <linearGradient id="linear-gradient" x1="0.5" y1="1" x2="0.5" gradientUnits="objectBoundingBox">
      <stop offset="0" stop-color="#642410"/>
      <stop offset="0.509" stop-color="#6b2c10"/>
      <stop offset="1" stop-color="#773a11"/>
    </linearGradient>
    <linearGradient id="linear-gradient-2" x1="0.5" y1="1" x2="0.5" gradientUnits="objectBoundingBox">
      <stop offset="0" stop-color="#92c40a"/>
      <stop offset="0.021" stop-color="#94c508"/>
      <stop offset="0.159" stop-color="#9fcf02"/>
      <stop offset="0.312" stop-color="#a3d200"/>
      <stop offset="0.484" stop-color="#afd300"/>
      <stop offset="0.759" stop-color="#bdd500"/>
      <stop offset="1" stop-color="#c2d600"/>
    </linearGradient>
    <linearGradient id="linear-gradient-3" x1="0.5" y1="1" x2="0.5" y2="-0.108" gradientUnits="objectBoundingBox">
      <stop offset="0" stop-color="#652810"/>
      <stop offset="0.107" stop-color="#602510"/>
      <stop offset="0.55" stop-color="#541d10"/>
      <stop offset="0.995" stop-color="#511b10"/>
    </linearGradient>
  </defs>
  <g id="Grupo_3114" data-name="Grupo 3114" transform="translate(-313.899 -3761.876)">
    <rect id="Rectángulo_525" data-name="Rectángulo 525" width="802.39" height="200.813" transform="translate(313.899 3792.214)" fill="url(#linear-gradient)"/>
    <path id="Trazado_14888" data-name="Trazado 14888" d="M1033.251,3845.126c-21.39-1.968-38.136.158-59.093-2.719-14.3-1.963-25.43,1.488-38.707,4.679-15.17,3.647-31.469.981-46.962,3.2-22.586,3.236-44.539,10.416-66.313,1.112-8.9-3.8-18.722-6.392-29.146-4.346-10.631,2.085-18.575,8.451-29.638,9.7a82.7,82.7,0,0,1-29.435-1.912c-16.55-4.289-33.616-14.8-51.9-14.4-21.557.467-40.762,10.279-62.85,5.865-15.244-3.046-28.9-10.466-45.538-7.539-9.507,1.672-18.268,5.442-28.152,6.015-10.806.627-21.263-2.549-31.61-4.237-11.772-1.921-20.912,2.632-31.077,6.083-26.722,9.073-52.9,5.13-79.761-1.533-14.049-3.484-27.85-7.865-42.223-10.639-12.627-2.437-45.765-3.842-46.946-3.811v162.387H1116.29V3830.64C1083.324,3830.751,1057.218,3847.333,1033.251,3845.126Z" fill="#632310"/>
    <path id="Trazado_14889" data-name="Trazado 14889" d="M382.057,3807.543c14.778.37,29.273-1.506,44.021-1.781a378.852,378.852,0,0,1,42.093,1.41c14.786,1.374,29.089,2.425,44.044,1.882,13.649-.5,27.287-1.536,40.962-1.6,15.38-.071,30.552,2.432,45.92,2.064,15.044-.359,29.756-2.367,44.567-4.055a451.237,451.237,0,0,1,68.786-2.792,316.467,316.467,0,0,1,34.214,3.011c10.587,1.584,20.925,3.892,31.564,5.331,22.764,3.079,46.7,1.392,69.749,1,12.793-.22,25.647-.549,38.311-1.891,10.52-1.115,20.8-3.213,31.472-3.591,17.274-.614,34.27,1.709,51.4,2.606q5.97.049,11.965.336c1.565,0,3.129-.016,4.7-.06,12.217-.343,24.384-1.353,36.606-1.6,11.368-.23,22.32.617,33.585,1.541,12.138.995,24.537,1.844,36.745.883,7.775-.612,23.537-2.161,23.537-2.161V3791.6H313.9v16.477s2.847-.118,6.657-.581c5.531-.671,13.236-1.769,18.418-1.806C353.425,3805.589,367.65,3807.183,382.057,3807.543Z" fill="#642b10"/>
    <path id="Trazado_14890" data-name="Trazado 14890" d="M663.1,3800.326c16.033-2.755,34.053-.26,49.927,1.27,10.939,1.055,21.882,2.148,32.9,2.728,10.218.538,20.8-.857,30.9.022,8.666.755,16.46,3.414,24.98,4.463,10.51,1.292,21.122.581,31.675-.035,21.333-1.247,42.687-1.908,63.991-3.49,21.448-1.594,43.418-1.483,64.7-3.936,19.253-2.218,38.5-5.982,58.142-3.966,19.869,2.038,37.758,8.18,58.131,8.334a191.709,191.709,0,0,0,23.262-.929c3.012-.346,14.586-1.934,14.586-1.934V3791.6H313.9v11.255s17.345-2.244,25.044-1.664c15.24,1.144,29.911,1.467,45.184,2.454,31.77,2.052,62.315,1.1,93.946-1.6,15.857-1.356,30.864-1.928,46.727-.258,15.548,1.639,31.158,2.885,46.775,4.164,15.493,1.266,31.678,2.415,47.14.325,14.067-1.9,27.613-5.262,41.878-6.446A3.988,3.988,0,0,1,663.1,3800.326Z" fill="#4c2410"/>
    <g id="Grupo_3107" data-name="Grupo 3107">
      <path id="Trazado_14891" data-name="Trazado 14891" d="M864.136,3809.5a35.7,35.7,0,0,1,.914-8.842c.052-.26.54-.2.511.062-.8,7.471,1.27,12.386,3.881,19.324,1.715,4.554.146,9.122-1.314,13.526-.189.579-1.168.338-1-.251,1.505-5.262,1.437-8.939.2-13.15a6.158,6.158,0,0,1-.3.715c-1.227,2.283-3.309,3.85-2.389,6.629.193.582-.831.837-1,.251-1.028-3.6,2.491-5.855,3.286-8.888-.436-1.281-.948-2.613-1.573-4.081a15.334,15.334,0,0,1-1.1-4.235c-2.691,6.506-7.046,12.481-6.381,19.718.014.151-.244.149-.259,0C856.825,3822.678,861.57,3816.426,864.136,3809.5Z" fill="#b3824f"/>
      <path id="Trazado_14892" data-name="Trazado 14892" d="M910.375,3797.706c.357-.711,1.233-.072.9.662-2.609,5.644-3.847,12.106.565,17.4a14.576,14.576,0,0,1,3.005,6.4c1.607,6.254-2.464,14.115-3.81,19.867-.2.83-1.1.467-1-.35.5-4.222,1.93-8.006,3-12.033,2.045-7.662-2.832-11.563-5.363-17.242C905.744,3808.084,908.576,3801.288,910.375,3797.706Z" fill="#b3824f"/>
      <path id="Trazado_14893" data-name="Trazado 14893" d="M936.351,3815.49c2.008-3.892,6.052-5.948,6.7-10.454a5.265,5.265,0,0,1,1.484-3.9c.193-.2.568.064.406.284-2.18,2.984.612,6.952,1.735,9.883a7.773,7.773,0,0,1,.39,1.473c1.009,1.215,2.243,2.284,3.371,3.472a9.72,9.72,0,0,1,2.65,5.639c.076.594-.979.6-1.036,0-.313-3.39-2.835-5.495-4.863-7.922a8.233,8.233,0,0,1-1.363,4.714c-.52.784-1.794.095-1.342-.711,1.794-3.2-.229-6.99-1.084-10.528-1.476,5.983-8.136,10.211-6.345,17.062.195.741-.977,1.025-1.246.311A10.676,10.676,0,0,1,936.351,3815.49Z" fill="#b3824f"/>
      <path id="Trazado_14894" data-name="Trazado 14894" d="M886.825,3806.42c-.024-1.708-.22-3.406-.2-5.116.005-.608,1.008-.6,1.035,0,.151,3.082,1.334,6.679.108,9.657-.241.583-1.32.548-1.272-.157C886.592,3809.331,886.845,3807.905,886.825,3806.42Z" fill="#b3824f"/>
      <path id="Trazado_14895" data-name="Trazado 14895" d="M967.086,3833.4a14.092,14.092,0,0,1,5.1-8.616c2.691-2.207,5.811-3.659,6.489-8.681a.447.447,0,0,1,.211-.366c.418-4.6.509-9.359.975-13.864.088-.853,1.053-.65,1.017.2-.264,6.006-.324,12.057-.432,18.073-.085,4.889-1.492,9.641-1.955,14.453-.11,1.142-1.34,1.056-1.5,0-.7-4.658.215-8.417,1.088-12.885.093-.477.166-.969.244-1.454-2.6,5.319-8.641,6.259-9.992,13.644C968.116,3835.1,966.842,3834.582,967.086,3833.4Z" fill="#b3824f"/>
      <path id="Trazado_14896" data-name="Trazado 14896" d="M999.422,3802.95c-.04-.291.434-.428.5-.125.986,4.361,1.514,8.579,3.15,12.814,1.413,3.653,2.3,6.749-.111,10.168-.457.645-1.729.239-1.421-.543,1.771-4.478.512-7.975-.849-12.326C999.689,3809.734,999.916,3806.222,999.422,3802.95Z" fill="#b3824f"/>
      <path id="Trazado_14897" data-name="Trazado 14897" d="M1009.223,3803.283a60.59,60.59,0,0,0,1.543,8.553c.166.842-1.155,1-1.27.156a60.84,60.84,0,0,1-1.05-8.709C1008.45,3802.827,1009.2,3802.831,1009.223,3803.283Z" fill="#b3824f"/>
      <path id="Trazado_14898" data-name="Trazado 14898" d="M1023.207,3802.51c-.549-.563.326-1.376.917-.83,6.791,6.317-1.309,15.655,2.392,23.02a.748.748,0,0,1-1.062.964C1017.186,3820.727,1029.406,3808.912,1023.207,3802.51Z" fill="#b3824f"/>
      <path id="Trazado_14899" data-name="Trazado 14899" d="M1046.095,3801.366a.252.252,0,0,1,.319-.289c3.881.728,1.345,7.847.556,9.884a.663.663,0,0,1-1.272-.157C1045.475,3807.558,1047,3804.591,1046.095,3801.366Z" fill="#b3824f"/>
      <path id="Trazado_14900" data-name="Trazado 14900" d="M531.072,3824.185c2.275-8.351,7.362-15.858,3.288-24.968-.168-.371.525-.632.711-.272a19.1,19.1,0,0,1,1.836,12.632,18.235,18.235,0,0,0,2.5,4.977c1.6,2.374,3.415,2.82,5.751,4.162,3.061,1.762,1.585,7.372.609,9.71-.059.14-.295.087-.252-.062,1.086-3.466.952-7.949-3.681-9.415-1.206-.381-2.088-1.823-2.781-2.724a15.188,15.188,0,0,1-2.489-4.874c-.324,1.392-.733,2.8-1.224,4.274-1.754,5.229-3.933,9.674-4.3,15.253-.387,5.952,3.407,11.637,6.1,16.8.142.271-.3.509-.445.236-3.484-6.379-6.746-12.1-6.618-19.357a22.175,22.175,0,0,1,.16-2.216c-.051.1-.1.194-.16.293-2.606,4.736-2.708,8.143-2.107,13.246.073.626-.882.736-1.206.3C522.748,3836.7,527.461,3829.987,531.072,3824.185Z" fill="#b3824f"/>
      <path id="Trazado_14901" data-name="Trazado 14901" d="M690.388,3798.141c-.007-.131.233-.162.255-.03.864,4.654-2.092,8.579,1.152,13.014,2.1,2.88,3.524,5.325,2.9,8.85-.048.268-.514.2-.511-.062.044-4.362-3.538-6.163-4.861-9.955C687.855,3805.742,690.734,3802.336,690.388,3798.141Z" fill="#b3824f"/>
      <path id="Trazado_14902" data-name="Trazado 14902" d="M605.666,3818.244c3.429-4.832,8.849-8.262,8.78-14.566-.008-.608,1.009-.6,1.035,0,.138,3.412-1.232,6.188-3.226,8.863-.065,1.219.857,2.229,2.052,3.417a4.659,4.659,0,0,1,1.739,3.952c-.117.846-1.429.687-1.272-.157.4-2.176-1.976-3.573-3.084-5.244a3.133,3.133,0,0,1-.36-.782c-.124.152-.237.3-.365.454-3.878,4.648-7.078,7.88-4.537,13.885.284.677-.78.935-1.185.453C602.448,3825.181,603.315,3821.556,605.666,3818.244Z" fill="#b3824f"/>
      <path id="Trazado_14903" data-name="Trazado 14903" d="M629.359,3818.021c4.961-1.641,9.739-1.223,13.339-5.4,3.029-4.4,8.893-7.7,4.647-13.906-.269-.4.379-.71.671-.355,2.66,3.235,2.267,6.048.558,9.62-.026.053-.059.1-.084.155a.43.43,0,0,1,.073.536c-2.5,4.493,3.462,4.8,5.528,7.681,2.344,3.257,2.275,7.351,1.783,11.082-.117.884-1.651.913-1.557,0a20.508,20.508,0,0,0-.488-7.836c-.729-2.613-2.712-3.9-5-5.33a3.9,3.9,0,0,1-2.161-2.983,32.6,32.6,0,0,0-3,5.37c-2.169,5.452,1.451,11.8,2.956,17.051.084.3-.39.408-.5.125-1.88-4.81-4.388-8.989-4.916-13.828a11.271,11.271,0,0,1-3.794,3.77,14.091,14.091,0,0,0-4.877,5.838c1.484,2.539,3.762,4.647,3.579,7.719-.047.764-1.385.743-1.3,0,.313-2.606-1.421-4.592-2.672-6.775a20.059,20.059,0,0,0-1.137,5.587c-.062.9-1.541.918-1.552,0-.051-3.682.452-7.733,2.9-10.783s7.424-3.163,8.732-6.974a16.169,16.169,0,0,1,.084-2.035,7.154,7.154,0,0,1,.6-2.061,15.2,15.2,0,0,1-7.037,3.355,37.684,37.684,0,0,0-6.371,1.712c-3.214,1.367-4.279,4.236-5.489,7.016-.24.56-1.122.354-1-.251A10.634,10.634,0,0,1,629.359,3818.021Z" fill="#b3824f"/>
      <path id="Trazado_14904" data-name="Trazado 14904" d="M369.246,3826.382c4.792-7.751,14.239-11.9,15.7-22.819a.5.5,0,0,1,.233-.371c-.091-1.372-.12-2.761-.12-4.166,0-.6.751-.6.776,0,.339,7.155,2.464,12.205,5.15,17.354,2.5,2.188,6.892.262,9.8,1.916,3.251,1.848,6.046,6.019,7.562,9.833.143.359-.3.673-.444.312-2.3-5.625-6.783-10.948-12.3-10.229a8.684,8.684,0,0,1-3.685-.065c1.079,2,2.22,4.052,3.364,6.285a26.787,26.787,0,0,1,2.129,19.734c-.252.95-1.484.554-1.247-.412,2.183-8.9-.856-15.35-4.457-21.948-.172,4.961-3.649,9.284-2.581,14.633.194.975-1.068,1.386-1.25.412a14.83,14.83,0,0,1,.806-7.289c-3.1,3.115-5.289,6.484-5.026,11.787.029.6-.747.595-.776,0-.3-6.076,2.42-9.82,6.221-13.393.036-.038.076-.022.12-.04.926-2.778,1.826-5.513,1.2-8.453-.838-1.527-1.676-3.073-2.46-4.677a27.475,27.475,0,0,1-2.438-8.284,23.4,23.4,0,0,1-6.389,11.566c-5.449,5.782-9.983,10.184-11.382,19.307-.135.9-1.236.628-1.268-.207a18.3,18.3,0,0,1,2.285-9.977,26.95,26.95,0,0,0-2.967,1.652c-2.416,1.592-3.59,4.2-3.969,7.4-.065.554-.729.364-.762-.122C360.637,3829.934,365.113,3827.966,369.246,3826.382Z" fill="#b3824f"/>
      <path id="Trazado_14905" data-name="Trazado 14905" d="M450.272,3794.637c-.106-.3.376-.4.5-.124a16.422,16.422,0,0,1,1.258,7.188c.033,4.573,3.4,7.405,6.436,10.632,2.963,3.15,2.653,6.228,1.465,10.014-.091.291-.583.169-.495-.125,2.073-7.368-3.452-9.3-7.341-14.524C449.343,3804.006,451.69,3798.68,450.272,3794.637Z" fill="#b3824f"/>
      <path id="Trazado_14906" data-name="Trazado 14906" d="M475.7,3812.883c1.148-1.388,2.967-1.865,3.718-3.6a16.232,16.232,0,0,0,1.13-5.08c.218-2.3.572-4.665,2.992-5.867.251-.124.55.194.317.368-3.058,2.251-1.046,6.826-1.392,9.893-.3,2.65-3.226,5.755-6.378,5.154A.572.572,0,0,1,475.7,3812.883Z" fill="#b3824f"/>
      <path id="Trazado_14907" data-name="Trazado 14907" d="M501.216,3808.541c-1.964-2.644-.776-5.92.124-8.965.171-.587,1.141-.339.995.249-.926,3.817-1.924,7.485,2.788,9.678a8.264,8.264,0,0,1,3.652,3.691c2.1,3.7,1.257,8.545.353,12.424-.211.908-1.636.5-1.5-.375a31.961,31.961,0,0,0,.27-7.736c-.328-4.169-2.467-5.307-5.507-7.764.022,2.848-3.189,5.436-3.269,8.563-.022.916-1.633.9-1.553,0C497.878,3814.9,502.291,3811.813,501.216,3808.541Z" fill="#b3824f"/>
      <path id="Trazado_14908" data-name="Trazado 14908" d="M338.558,3809.063c0-2.652-.885-5.14-1.8-7.853-.149-.444.572-.6.747-.187a44.265,44.265,0,0,1,2.074,5.407c.011-.066.033-.131.044-.2.022-.132.266-.1.255.03q-.039.414-.109.813a13.839,13.839,0,0,1,.36,2.291c.245,3.589-1.924,6.593-1.191,10.23a.518.518,0,0,1-1,.25,10.966,10.966,0,0,1,.1-7.311,11.44,11.44,0,0,0,.412-1.875c-3.652,6.585-12.549,11.073-7.957,19.572.183.337-.32.759-.612.427C322.49,3822.249,334.626,3816.121,338.558,3809.063Z" fill="#b3824f"/>
      <path id="Trazado_14909" data-name="Trazado 14909" d="M780.833,3793.493c-.091-.293.4-.413.5-.126,4.1,12.021-13.467,15.754-11.814,26.982.109.742-1.205.751-1.3,0C766.827,3808.9,784.584,3805.461,780.833,3793.493Z" fill="#b3824f"/>
      <path id="Trazado_14910" data-name="Trazado 14910" d="M796.815,3817.92c-2.646-6.387-5.988-12.55-3.032-19.847.082-.2.3-.023.224.181-4.981,13.109,10.285,22.562,5.133,36.8-.3.815-1.208.093-.893-.719,2.267-5.868.787-10.96-1.221-15.9a17.187,17.187,0,0,1-1.346,5.176,19.468,19.468,0,0,0-1.575,7.484c-.025.9-.851,1.191-1.2.449C790.495,3826.541,795.942,3822.393,796.815,3817.92Z" fill="#b3824f"/>
      <path id="Trazado_14911" data-name="Trazado 14911" d="M748.306,3803.732c-.133-.207-.256-.407-.394-.62a9.212,9.212,0,0,1-1.035-8.205.258.258,0,0,1,.5.126c-1.188,5.288,2.178,8.279,4.9,12.532,1.6,2.512,1.68,5.167,1.609,7.991-.018.759-1.263.755-1.3,0-.2-4.482-1.609-7.567-3.89-11.216a7.1,7.1,0,0,1-.669,2.436c-.379.855-.816,1.681-1.146,2.553a14.652,14.652,0,0,0-.438,2.82c-.1.6-1.084.517-1.248,0C744.216,3809.085,748,3806.7,748.306,3803.732Z" fill="#b3824f"/>
      <path id="Trazado_14912" data-name="Trazado 14912" d="M815.069,3803.9c3.087,4.267,3.154,10.257,4.776,15.034.257.752-1.064,1.281-1.421.542-2.331-4.808-1.391-10.619-4.026-15.219C814.167,3803.849,814.795,3803.517,815.069,3803.9Z" fill="#b3824f"/>
      <path id="Trazado_14913" data-name="Trazado 14913" d="M1079.447,3827.095c3.655-5.59,11.161-9.908,14.685-15.462.47-5.92,3.324-12.517,3.293-17.776a.39.39,0,1,1,.778,0c.492,5.569-.763,10.7-1.412,16.205-.782,6.655,2.325,10.835,5.824,15.676,2.5,3.458,5.042,7.637,2.739,11.878-.4.729-1.31.223-1.185-.552.884-5.46-2.78-9.5-5.944-13.7.314,5.9-4.412,9.985-5.767,16.044a.773.773,0,0,1-1.526-.228,17.854,17.854,0,0,1,2.71-8.306c2.085-3.154,3.643-5.87,3.016-9.7a18.72,18.72,0,0,1-1.777-3.271,12.073,12.073,0,0,1-.818-4.263c-5.587,8.164-17.217,11.754-14.382,24.388.174.763-.852,1.3-1.18.552a11.124,11.124,0,0,1,.1-10.041,10.3,10.3,0,0,0-5.136,9.2.519.519,0,1,1-1.035,0C1072.223,3832.814,1075.552,3828.929,1079.447,3827.095Z" fill="#b3824f"/>
      <path id="Trazado_14914" data-name="Trazado 14914" d="M1071.722,3814.111c4.572-5.425,14.017-10.91,10.277-18.685a.128.128,0,0,1,.225-.12c6.6,8.048-3.149,14.1-8.042,20.11C1073.1,3816.748,1070.614,3815.427,1071.722,3814.111Z" fill="#b3824f"/>
    </g>
    <path id="Trazado_14915" data-name="Trazado 14915" d="M1110.269,3779.21l.056-1.057,1.877-4.371s-4.545,2.362-5.623,4.162a3.3,3.3,0,0,0-.336.83,20.759,20.759,0,0,0-5.676-1.405,26,26,0,0,0-6.907.325,4.091,4.091,0,0,0-.107-.686,2.976,2.976,0,0,1,.228-2.114c.1-.184-.256-.346-.494-.249a9.081,9.081,0,0,0-3.377,2.05c-.206-1.575.846-3.079,1.261-4.706.042-.166-.147-.31-.414-.271a7.141,7.141,0,0,0-4.388,2.678,30.064,30.064,0,0,0-2.223-2.937c-.177-.228-.774-.125-.741.13a14.9,14.9,0,0,0,.847,3.165,2.27,2.27,0,0,1,.047,1.152c-1.543-1.162-3.712-1.646-5.766-2.338-.342-.117-.858.14-.583.384.946.84,1.916,1.681,2.909,2.5.051.043.087.091.136.134l-1.807-.209a4.813,4.813,0,0,0-.409-.405,7.51,7.51,0,0,0-3.28-1.249c-.129-.03-.267.062-.226.147.2.385.39.759.6,1.129-1.525-.171-3.087-.343-4.7-.515a21.005,21.005,0,0,0-5.594-1.3c.1-.363.257-.735.368-1.056a7.293,7.293,0,0,1,.844-1.965c.093-.132-.111-.32-.335-.219-1.5.677-3.233,1.351-4.053,2.467a2.865,2.865,0,0,0-.334.636,2.345,2.345,0,0,1-.142-.684c.048-2.025,2.322-4.534,4.133-6.109.19-.163-.169-.378-.417-.273a19.339,19.339,0,0,0-6.783,4.277,3.544,3.544,0,0,0-.373.491,7.3,7.3,0,0,0-4.89-2.53c-.288-.047-.4.188-.187.293,2.225,1.119,2.345,2.859,2.573,4.551q-4.792-.383-10.167-.712a2.771,2.771,0,0,1-.266-1.023,6.051,6.051,0,0,1,1.329-4.27c.094-.1-.11-.192-.239-.122a9.865,9.865,0,0,0-3.637,3.044,11.744,11.744,0,0,0-3.628-2.759c-.194-.1-.564-.013-.463.176a18.735,18.735,0,0,1,1.155,2.911,6.793,6.793,0,0,1,.244,1.732c-4.716-.242-9.782-.443-15.241-.592a2.674,2.674,0,0,1,.415-1.385c.186-.271-.2-.558-.627-.411a4.2,4.2,0,0,0-2.352,1.507c-.035.074-.066.149-.1.222-1.365-.032-2.763-.06-4.181-.085a22.143,22.143,0,0,1,3.682-3.464c.185-.138.014-.409-.294-.335a16.946,16.946,0,0,0-5.654,2.367,19.561,19.561,0,0,1,4.091-5.006c.127-.117-.119-.264-.294-.192a19.646,19.646,0,0,0-7.491,4.794,5.731,5.731,0,0,0-1.037,1.745c-1.128-.011-2.258-.026-3.384-.034a12.4,12.4,0,0,1,2.777-3.381c.171-.122-.04-.287-.26-.22-2.439.749-4.441,1.511-5.763,3.117a3.284,3.284,0,0,0-.309.466h-.106a14.127,14.127,0,0,1-1.329-6.025c0-.144-.28-.184-.4-.07a7.9,7.9,0,0,0-2.593,3.963,28.778,28.778,0,0,0-7.812-4.7c-.173-.073-.421.076-.293.192a32.926,32.926,0,0,1,4.156,4.741,7.962,7.962,0,0,1,.808,1.372,7.932,7.932,0,0,0-.964-.839c-1.941-1.415-4.768-2.206-6.794-3.565-.148-.1-.426,0-.363.136.7,1.416,2.08,2.382,3.534,3.492a7.559,7.559,0,0,1,1.334,1.311c-1.414.008-2.83.014-4.243.027a28.669,28.669,0,0,0-5.807-4.24c-.079-.046-.212-.017-.212.057,0,1.36,1.58,2.465,2.654,3.566q.311.319.6.644c-1.035.012-2.068.03-3.1.044a3.866,3.866,0,0,0-2.837-1.486c-.217-.031-.354.127-.21.234.257.191.268.553.377.794.061.137.111.278.173.416a116.829,116.829,0,0,0-13.333-1.278c-5.575-.242-11.495.967-16.822,1.857-.763.127-1.531.249-2.3.369-1.04.038-2.081.08-3.123.12a1.149,1.149,0,0,0-.093-.138c-.146-.171-.255-.352-.392-.524s-.375-.217-.57-.334a.5.5,0,0,0-.408-.034c-.771.254-1,.589-1.116,1.13l-2.853.115a1.553,1.553,0,0,1-.06-.351,6.859,6.859,0,0,1,.012-1.344c.053-.387-.822-.629-1.2-.326a3.215,3.215,0,0,0-1.23,1.457,2.76,2.76,0,0,0-.089.677c-.494.02-.984.042-1.474.063a6.325,6.325,0,0,1-.1-2.1c.288-1.256.707-2.544,1.093-3.792.071-.239-.313-.5-.674-.339a7.872,7.872,0,0,0-4.285,3.829,3.494,3.494,0,0,0-.216,2.583l-.616.029c-.024-.055-.044-.113-.07-.164a3.939,3.939,0,0,1-.16-1,2.532,2.532,0,0,1,.071-1.2c.106-.366-.53-.646-.969-.37-.806.5-1.684,1.2-1.83,1.933a2.481,2.481,0,0,0-.011.943q-.349.018-.694.033a4.422,4.422,0,0,1,.37-1.343,15.856,15.856,0,0,1,2.9-4.27c.165-.161-.175-.4-.42-.275a12.789,12.789,0,0,0-4.468,3.22c.046-.222.071-.437.142-.668a18.1,18.1,0,0,1,2.643-5c.1-.146-.148-.276-.334-.171a21.424,21.424,0,0,0-6.545,5.15,4.794,4.794,0,0,0-1.081,3.684l-1.618.084a4.415,4.415,0,0,1-.263-1,10.687,10.687,0,0,1-.022-2.7c.024-.175-.351-.266-.521-.142-1.314.953-2.7,2.5-2.9,3.95a9.633,9.633,0,0,1-1.1-1.519c-.994-2.184-.19-5.042.065-7.284.013-.107-.208-.13-.286-.051-1.952,1.981-3.952,4.021-4.33,6.427-.012.08-.02.172-.025.265a11.765,11.765,0,0,0-6.205-2.589c-.235-.026-.428.115-.308.265.975,1.231,2.349,2.276,3.247,3.539.337.478.616.966.917,1.45l-1.589.086a5.43,5.43,0,0,0-.47-.7c-.744-.953-2.2-1.49-3.461-2.1-.253-.122-.552.079-.494.249a11.151,11.151,0,0,0,1.263,2.321c.075.119.146.254.217.386l-1,.057a5.2,5.2,0,0,0-1.621-1.79,7.444,7.444,0,0,0-2.765-1.116,30.186,30.186,0,0,0-3.327-.218c-.285-.029-.52.233-.215.329a13.58,13.58,0,0,1,3.528,2.157,5.621,5.621,0,0,1,.9.836q-4.531.256-9.059.523a8.315,8.315,0,0,0-2.1-1.253,11.093,11.093,0,0,0-2.752-.711,7.563,7.563,0,0,0-2.1.074c-.062.008-.113.058-.109.1a1.87,1.87,0,0,0,.206,1.113c-5.759-1.659-13.877-.871-18.063,2.173l-.177.011c-.213-.016-.423-.037-.638-.053a7.8,7.8,0,0,1-.2-1.921c.015-.349-.678-.531-1.046-.283a3.789,3.789,0,0,0-1.676,1.956c-.879-.077-1.762-.147-2.648-.226.353-2.061,1.92-4.4,2.843-6.273.074-.152-.246-.272-.409-.155-2.268,1.6-4.1,3.079-5.239,5.172a7.272,7.272,0,0,0-.428.975c-.836-.073-1.658-.15-2.509-.219-.139-.01-.286-.019-.427-.03a6.975,6.975,0,0,1,.261-1.632c.055-.216-.368-.36-.559-.155-.471.512-1.132,1.07-1.58,1.657q-1.086-.065-2.216-.112c.042-.327.1-.652.142-.965a11.954,11.954,0,0,1,3.686-6.951c.137-.119-.14-.223-.288-.146a12.562,12.562,0,0,0-6.483,7.391,2.873,2.873,0,0,0-.095.589q-1.343-.022-2.708-.012a8.475,8.475,0,0,1,1.354-3.468c.068-.095-.089-.243-.251-.164a8.046,8.046,0,0,0-4.055,3.688c-.771.024-1.54.058-2.312.1a21.5,21.5,0,0,0-4.915-4.051c-.213-.126-.5.031-.385.194a18.947,18.947,0,0,1,2.256,4.061q-1.708.142-3.387.349c-.525-.439-1.05-.83-1.44-1.131-.148-.114-.4.009-.359.135.14.394.281.786.4,1.18q-1.851.26-3.629.61a23.935,23.935,0,0,0-8.021-5.26c-.137-.055-.325.036-.274.135a24.172,24.172,0,0,0,4.09,5.034,5.679,5.679,0,0,1,.676.894q-1.307.349-2.53.764a2.663,2.663,0,0,0-.237-.458,6.167,6.167,0,0,0-2.841-2.083c-.22-.1-.532.064-.45.226a23.562,23.562,0,0,1,1.013,2.833c-.767.017-1.532.038-2.3.053-2.437-1.3-6.424-1.849-9.072-2-4.058-.229-8.759.1-12,1.875a2.488,2.488,0,0,0-.185-.2,7.79,7.79,0,0,1-.83-.686.314.314,0,0,0-.279-.075,2.44,2.44,0,0,0-1.86,1.029l-.718-.016a17.858,17.858,0,0,0-2.216-.861c-1.551-.471-3.7-1.176-2.548-2.67.084-.109-.085-.221-.253-.164-1.607.541-3.063.7-3.7,1.974a2.3,2.3,0,0,0-.232,1.388c-1.472-.085-2.957-.172-4.424-.36a7.768,7.768,0,0,1,.428-1.769,15.3,15.3,0,0,1,4.842-6.026c.218-.174-.051-.423-.37-.315-3.408,1.144-7.663,4.487-8.383,7.57-.291-.046-.585-.094-.874-.136-.582-2.941-3.731-5.662-7.767-7.056-.075-.027-.18.029-.122.083a15.826,15.826,0,0,1,3.726,5.05,11.088,11.088,0,0,1,.5,1.462c-.566-.059-1.126-.134-1.691-.185a11.532,11.532,0,0,0-3.529-3.1c-.106-.067-.3,0-.254.1.421.921.675,1.869,1.019,2.8-1.172-.076-2.355-.136-3.539-.181a17.008,17.008,0,0,1,.583-5.675c.04-.16-.262-.327-.457-.176a10,10,0,0,0-3.557,5.745c-.7-.011-1.4-.018-2.12-.017a16.806,16.806,0,0,1,.243-3.55c.023-.168-.336-.208-.458-.082a10.323,10.323,0,0,0-2.668,3.68c-1.062.032-2.132.084-3.2.162-1.049-2.346-3.837-4.468-7.138-5.658-.189-.069-.35.086-.22.189a12.616,12.616,0,0,1,4.242,5.093,5.378,5.378,0,0,1,.2.646c-.142.017-.277.038-.415.056-.644-.039-1.289-.079-1.93-.12-.088-.209-.18-.415-.283-.609a6.652,6.652,0,0,0-3.469-2.779c-.239-.1-.6.065-.494.248.547.986,1.155,1.95,1.662,2.946-6.1-.361-12.217-.787-18.33-1.227-1.2-.087-2.411-.179-3.614-.267a8.648,8.648,0,0,1,.465-1.158c.224-.335-.228-.652-.753-.492a5.573,5.573,0,0,0-2.28,1.071,3.523,3.523,0,0,0-.264.37c-.446-.033-.893-.067-1.345-.1a4.96,4.96,0,0,1,.23-.511,12.28,12.28,0,0,1,2.85-2.941c.153-.128.076-.346-.217-.341a6.165,6.165,0,0,0-4.656,2.05,6.066,6.066,0,0,0-.532.624,4.15,4.15,0,0,0-.5-1.176,4.225,4.225,0,0,0-1.864-1.6,6.513,6.513,0,0,0-2.323-.477c-.1-.012-.237.045-.19.123.468.779.715,1.661,1.243,2.466a2.4,2.4,0,0,1,.4,1.373c-.635-.046-1.269-.094-1.9-.141a2.691,2.691,0,0,0-.886-1.023,12.111,12.111,0,0,0-2.534-1.268c-.148-.062-.294.039-.27.136a8.717,8.717,0,0,0,.64,1.927q-9.507-.711-19.027-1.377c-.118-.627-.009-1.256-.1-1.886a7.568,7.568,0,0,1-.247-1.9c.025-.183-.394-.3-.572-.156-1.1.9-2.371,1.483-2.617,2.734a6.18,6.18,0,0,0-.113.949c-.226-.015-.456-.027-.685-.042a4.724,4.724,0,0,0-.121-.97,4.636,4.636,0,0,0-1.224-2.13,11.614,11.614,0,0,0-2.42-1.551c-.21-.134-.613,0-.511.194.545,1.046.292,2.31.389,3.41a5.242,5.242,0,0,1-.006.8c-.525-.034-1.046-.065-1.571-.1.687-2.368-2.022-4.568-4.182-6.557-.153-.143-.521-.061-.443.124a30.613,30.613,0,0,0,1.8,3.51,6.776,6.776,0,0,1,.758,2.794c-1.049-.065-2.1-.135-3.156-.2-.011-.079-.016-.157-.02-.234a3.109,3.109,0,0,0-.811-1.928.424.424,0,0,0-.379-.1,2.716,2.716,0,0,0-2.092,2.062q-.678-.039-1.791-.1a6.915,6.915,0,0,1-.042-.833c.106-2.275,1.571-5.068,3.13-7.084.175-.226-.24-.435-.528-.267a17.192,17.192,0,0,0-5.666,4.947,6.342,6.342,0,0,0-1.033,3.034l-.978-.044c.009-.025.016-.049.027-.074.328-.857.744-1.685,1.108-2.535.087-.207-.328-.3-.5-.139a19.321,19.321,0,0,0-2.941,2.651l-.893-.037a8.153,8.153,0,0,1,.723-3.26c.057-.1-.136-.184-.268-.136a4.98,4.98,0,0,0-3.455,3.282l-.847-.029c.2-2.609,1.6-5.488,2.732-7.964.089-.192-.3-.338-.511-.194a19.4,19.4,0,0,0-5.317,4.956c-1.491-2.673-5.081-5.23-7.923-6.661-.077-.037-.175.035-.128.082a21.6,21.6,0,0,1,3.986,5.985,9.7,9.7,0,0,1,.785,3.6c-.385-.009-.758-.021-1.152-.031-.543-1.945-3.039-3.933-5.018-5.072-.3-.17-.766-.008-.664.253.481,1.269,1.032,2.528,1.556,3.791.13.313.243.63.35.945-3.156-.063-6.491-.11-9.953-.13a64.624,64.624,0,0,0-8.55-1.017,13.115,13.115,0,0,1,.184-1.693c.049-.252-.492-.359-.729-.2a9.015,9.015,0,0,0-2.072,1.845c-.784,0-1.578.025-2.387.07.718-2.169,2.473-4.41,3.8-6.248.1-.135-.112-.313-.335-.219-2.97,1.252-5.317,2.624-6.768,4.818a9.455,9.455,0,0,0-.995,2.039c-.656.074-1.33.16-2.011.25-.013-.047-.033-.092-.041-.139a6.083,6.083,0,0,1,.2-3.163c.116-.336-.552-.52-.837-.232-1.228,1.24-2.325,2.508-2.46,4-.406.07-.809.154-1.212.233-.554.021-1.1.039-1.656.061a5.733,5.733,0,0,1-.787-1.648c-.5-1.816-.334-3.734-.653-5.572-.033-.2-.444-.255-.539-.048-1.019,2.238-2.314,4.474-1.833,6.857.04.191.1.385.158.579l-.381.02c-1.217-1.8-4.029-3.316-6.618-3.976-.252-.064-.376.158-.237.268a24.921,24.921,0,0,1,3.542,3.478,4.142,4.142,0,0,1,.292.4q-1.317.08-2.622.17c-.717-1.025-2.225-1.48-3.625-2.027-.268-.106-.568.1-.419.273a12,12,0,0,1,1.2,1.959q-1.847.141-3.664.305a31.531,31.531,0,0,0-5.841-.5,22.9,22.9,0,0,0-8.8,1.631,2.518,2.518,0,0,1,.45-1.872c.146-.167-.093-.357-.372-.314a3.584,3.584,0,0,0-2.648,1.631,2.417,2.417,0,0,0-.313,1.565c-.242.028-.483.049-.725.076a6.1,6.1,0,0,1-.636-1.936c-.173-1.857-1.148-4.246.809-5.85.175-.147-.048-.384-.326-.275a7.722,7.722,0,0,0-4.853,5.738,6.157,6.157,0,0,0,.087,2.78c-.35.027-.7.056-1.053.081a3.565,3.565,0,0,0-.178-1.192c-.429-1.367-2.134-1.99-4.037-2.227-.173-.021-.392.052-.373.187.12.9,1.281,1.368,1.782,2.177a1.53,1.53,0,0,1,.209.8c-.37-.11-.745-.218-1.131-.312a58.925,58.925,0,0,0-11.978-1.893,32.2,32.2,0,0,0-6.59.463,8.778,8.778,0,0,1,.833-2.179c.117-.214-.368-.328-.543-.148a25.171,25.171,0,0,0-2.394,2.795,13.571,13.571,0,0,0-4.039,1.72,4.015,4.015,0,0,1,.013-2.057,31.381,31.381,0,0,0,1.208-4.72c.019-.248-.455-.346-.707-.193a12.809,12.809,0,0,0-5.523,5.884,3.555,3.555,0,0,0-.239,1.144l-.893-.017a7.726,7.726,0,0,1-.39-2.155,16.514,16.514,0,0,1,1.611-6.589c.1-.237-.339-.373-.6-.227a15.554,15.554,0,0,0-6.707,6.94,5.353,5.353,0,0,0-.457,1.95c-.5,0-.989-.007-1.485-.009a18.067,18.067,0,0,1-1.381-4.555c-.051-.2-.514-.224-.649-.055-1.261,1.542-2.165,2.9-2.223,4.619h-.12a10.493,10.493,0,0,0-6.781-3.889c-.219-.036-.325.125-.2.227a13.92,13.92,0,0,1,3.061,3.726c-.228,0-.456.008-.685.014-5.863-2.07-14.085-1.972-20.547-.152a21.878,21.878,0,0,1,2.062-1.929c.1-.081-.03-.191-.176-.143a25.909,25.909,0,0,0-7.427,3.731l-1.159.08c.751-2.244,1.662-4.9,3.637-6.329.2-.147,0-.417-.321-.343a15.179,15.179,0,0,0-9.712,7.031c-.015.023-.031.052-.048.076l-.778.05a8.175,8.175,0,0,1,.957-5.007c.168-.281-.436-.425-.715-.26a8.813,8.813,0,0,0-4.24,5.516l-1.372.08a15.541,15.541,0,0,0-.911-1.452.417.417,0,0,0-.547.006,3.7,3.7,0,0,0-.612,1.564c-1.655.09-3.3.17-4.95.243a34.568,34.568,0,0,0-8.922-4.537c-.349-.119-.723.185-.417.366,1.423.841,2.812,1.7,4.1,2.608-1.241-.276-2.5-.49-3.646-.657a24.412,24.412,0,0,0-14.309,2.152,12.954,12.954,0,0,1,3.278-3.623c.137-.1-.042-.237-.218-.178a14.175,14.175,0,0,0-6.063,3.889c-.408-.022-.817-.054-1.225-.08a7.126,7.126,0,0,1,2.471-5.609c.379-.336-.38-.788-.882-.557a13.28,13.28,0,0,0-6.237,5.82c-.354-.03-.706-.061-1.059-.093-.263-.747-.784-1.421-.991-2.185-.055-.2-.565-.191-.611.007-.166.686-.62,1.308-.822,1.966q-3.92-.357-7.874-.75a40.513,40.513,0,0,0-8.865-4.365c-.474-.173-.875.228-.543.477,1.5,1.106,3.028,2.228,4.457,3.393l-4.193-.424a55.045,55.045,0,0,0-8.049-2.062,46.7,46.7,0,0,0-11.134-.742c.623-.973,1.228-1.952,1.825-2.935.148-.243-.322-.368-.593-.288a23.1,23.1,0,0,0-7.621,3.776c-.489-.032-.973-.068-1.458-.1.858-1.76,1.334-3.655,2.653-5.249.343-.416-.474-.785-.984-.479-3.072,1.839-6.174,2.722-8.1,5.3-.022.028-.04.059-.062.087l-.5-.02a15.574,15.574,0,0,1,.882-2.459c.1-.226-.3-.4-.59-.289a11.978,11.978,0,0,0-4.33,2.608l-.84-.02a3.878,3.878,0,0,1,.8-2.866c.164-.172-.209-.337-.423-.206-.945.593-2.17.935-3.178,1.487a9.542,9.542,0,0,0-2.123,1.513c-.326,0-.65-.007-.978-.007-1.117-1.63-1.85-3.308-1.447-4.925.073-.3-.616-.538-.816-.215a14.217,14.217,0,0,0-1.64,3.559c-2.661-2.773-4.374-5.826-3.483-9.222.059-.213-.412-.37-.568-.148-2.386,3.412-2.233,6.932-.573,10.39-3.218-1.9-7.065-3.7-11.427-3.839-.561-.018-.656.475-.248.649a13.319,13.319,0,0,1,4.435,3.735c-.408-.2-.838-.38-1.261-.551a9.906,9.906,0,0,0-1.388-.371,6.15,6.15,0,0,0-1.447.093c-.191,0-.339.158-.222.263.178.161.145.439.211.632a1.831,1.831,0,0,0,.284.463c-4.949-1.013-12.832.175-16.481.621-3.527.432-8.59,2.539-13.094,4a34.034,34.034,0,0,1-6.069.977v16.131s41.9-.864,62.736-.717c13.786.1,35.584,3.7,49.237,5.088,24.289,2.479,52.115-3.3,71.849-3.3,11.852,0,20.388-1.021,32.2-.234,13.353.89,50.1,6.753,63.43,6.11,12.747-.616,38.177-5.9,50.178-6.556,11.3-.619,22.619-2.141,33.948-2.355,22.731-.43,39.793,5.48,62.481,5.147,11.832-.175,28.442-3.375,40.187-4.191,10.266-.713,16.923,3.468,26.6,5.842,29.833,7.323,49.3-5.338,72.458-4.307a686.054,686.054,0,0,0,73.544-.312c23.735-1.458,47.3-2.343,71.091-.911,12.408.747,24.82,1.8,37.273,2.065,12.068.258,28.758.639,40.712-.288,7.138-.554,14.466-1.077,14.466-1.077v-16.131Z" fill="url(#linear-gradient-2)"/>
    <path id="Trazado_14916" data-name="Trazado 14916" d="M1068.261,3887.576c-24.172-3.473-45.541-13.835-69.238-18.565-9.64-1.924-20.469-3.43-29.1,1.179-13.6,7.259-27.079,12.294-43.835,8.724-13.472-2.871-25.133-6.3-38.683-1.214-11.541,4.329-21.961,10.369-33.589,14.543-13.377,4.8-26.722,8.044-41.492,5.711-12.083-1.91-22.408-7.357-34.2-9.786-12.39-2.553-25.226-.827-37.784-2.7-11.959-1.78-23.338-5.514-35.31-7.182-23.825-3.319-40.295,13.33-63.01,15.741-12.495,1.327-23.37-2.67-34.013-7.434-7.28-3.258-12.748-5.558-19.513-3.81-15.817,4.084-29.154,16.141-46.643,19.309a68.637,68.637,0,0,1-35.813-2.941c-10.468-3.58-17.675-5.341-29.37-4.423-14.732,1.156-29.179,2.174-43.476-1.8-11.656-3.24-22.693-7.873-33.549-12.539-11.841-5.089-50.986-13.091-64.52-12.716-11.9.329-21.226,7.37-21.226,7.37v117.98H1116.29v-117.98C1102.265,3881.408,1084.871,3889.964,1068.261,3887.576Z" fill="url(#linear-gradient-3)"/>
    <path id="Trazado_14917" data-name="Trazado 14917" d="M1085.679,3939.224c-8.5.461-16.62,6.726-25.049,8.96a133.6,133.6,0,0,1-23.045,3.628c-16.882,1.433-33.7,10.528-50.572,9.65-33.718-1.752-66.04-29.487-99.882-13.29-14.963,7.165-29.825,18.081-45.063,20.57-14.724,2.4-29.053-5.932-43.289-14.828-11.987-7.489-24.127-15.938-36.564-13.879-11.147,1.848-21.92,8.789-32.826,14.594-10.2,5.426-21.281,11.938-31.676,7.413-4.209-1.827-8.187-5.986-12.278-8.914-6.579-4.7-12.126-4.464-18.773-.832-11.02,6.014-19.978,7.823-30.779-1.878-10.576-9.5-20.767-19.32-32.145-19.3-12.413.016-22.618,8.314-33.5,23.288-7.533,10.364-46.272-.694-57.019,2.923-9.25,3.115-23.872,12.1-33.15,7-11.174-6.145-14.776-5.251-25.674-13.727-11.3-8.794-22.48-11.437-34.117-5.523-19.586,9.948-38.2,30.483-58.543,23.865-16.384-5.33-47.835-22.22-47.835-22.22v46.3H1116.29v-46.3S1095.853,3938.673,1085.679,3939.224Z" fill="#4b1510"/>
    <path id="Trazado_14918" data-name="Trazado 14918" d="M1116.29,3792.72s-3.784.12-6.818.184c-12.107.258-4.955,4.289-36.327,2.009-11.663-.848-57.245-7.161-68.6-7.566-23.166-.83-46.043,3.451-68.942,4.835-24.239,1.464-48.646.485-72.874,1.7-11.372.571-36.312,3.339-47.765,3.074-11.752-.273-9.258-4.9-20.838-6-9.857-.931-19.226.4-28.922,1.419-12.5,1.31-23.642,4.041-36.258,3.24-22.407-1.42-45.685-7.241-68.343-6.91-21.74.32-41.417,8.1-63.048,8.978-22.3.9-44.35-3.652-66.428-4.876-25.55-1.417-54.843,3.307-80.34,4.224-26.382.949-48.854-3.27-75.068-4.7-12.244-.668-25.171-1.126-38.773-.815-11.681.268-23.052,1.2-23.052,1.2v3.724a134.093,134.093,0,0,1,16.687-.337c12.262.5,28.4,2.17,39.363,2.706,24.213,1.184,47.926,3.76,72.312,3.426,24.235-.331,48.331-2.249,72.58-2.463,21.41-.189,41.9,3,63.015,4.638a156.891,156.891,0,0,0,27.872.051c11.154-1.144,21.893-3.595,32.706-5.579a147.328,147.328,0,0,1,32.485-2.7c12,.423,24.254,1.419,36.114,2.593,10.707,1.062,21.386,2.143,32.243,2.417,11.218.283,22.409-.945,33.421-2.1,12.264-1.291,19.671,1.743,31.646,3.688,11.081,1.8,24.218.392,35.722.026,12.472-.4,24.736-1.553,37.251-1.717,13.649-.18,27.3-.238,40.934-.6,25.276-.674,49.869-4.807,75.039-5.43,24.8-.615,49.488,3.831,74.22,5,16.289.768,48.781-3.61,48.781-3.61Z" fill="#85a30a"/>
    <g id="Grupo_3109" data-name="Grupo 3109">
      <path id="Trazado_14919" data-name="Trazado 14919" d="M354.075,3793.059a12.87,12.87,0,0,1,1.6,1.867c1.869,0,3.739.006,5.6.043,3.016.062,6.021.223,9.023.426q1.722.117,3.438.245a16.851,16.851,0,0,1,1.216-3.223,32.267,32.267,0,0,1,3.531-5.068,40.471,40.471,0,0,1,4.368-4.709c1.2-1.089-4.169.779-4.528.932-4.086,1.751-7.789,4.066-10.152,7.035-.013-.764.592-7.578.14-7.6-1.62-.077-4.348,8.157-4.6,9.186.015.015-2.624-3.19-2.766-1.718a10.884,10.884,0,0,0,.24,3.924c-.98-1.856-3.367-3.256-5.592-4.363-.855-.425-6.6-3.38-7.552-2.752C347.313,3787.759,353.421,3792.446,354.075,3793.059Z" fill="#85a30a"/>
      <path id="Trazado_14920" data-name="Trazado 14920" d="M381.918,3796.307c1.194-3.808,3.951-7.284,5.864-10.932-.532.977-5.937,2.931-7.42,3.818-2.843,1.7-5.108,3.881-5.81,6.512Q378.238,3795.986,381.918,3796.307Z" fill="#85a30a"/>
      <path id="Trazado_14921" data-name="Trazado 14921" d="M346.872,3792.128c.909.919,1.713,1.886,2.511,2.854,1.979-.024,3.956-.048,5.933-.055-1.592-3.745-6.183-6.714-10.8-8.67-.453-.192-6.414-1.947-5.275-.95C341.8,3787.569,344.514,3789.753,346.872,3792.128Z" fill="#85a30a"/>
      <path id="Trazado_14922" data-name="Trazado 14922" d="M338.343,3795.217c1.887-.115,3.776-.159,5.67-.174-.724-3.3-5.334-5.357-9.307-6.439C333.591,3788.3,337.946,3794.608,338.343,3795.217Z" fill="#85a30a"/>
      <path id="Trazado_14923" data-name="Trazado 14923" d="M386.631,3796.717c.364-.711,2.948-4.443,2.03-4.927-1.666-.876-5.436,3.692-5.413,4.632Q384.94,3796.568,386.631,3796.717Z" fill="#85a30a"/>
      <path id="Trazado_14924" data-name="Trazado 14924" d="M447.318,3799.256q5.748,0,11.488-.055c-.414-.783-4.452-4.987-5.972-4.416-.408.153,1.076,3.973,1.252,4.447-1.773-2.317-5.1-3.405-8.025-4.856C441.525,3792.129,446.527,3798.179,447.318,3799.256Z" fill="#85a30a"/>
      <path id="Trazado_14925" data-name="Trazado 14925" d="M440.111,3798.533c.558,1.276,3.313.716,5.073.721a7.6,7.6,0,0,0-3.786-2.749C437.784,3795.384,439.606,3797.347,440.111,3798.533Z" fill="#85a30a"/>
      <path id="Trazado_14926" data-name="Trazado 14926" d="M486.667,3798.2c.064-1.051,3.388-9.524,3.3-9.573-1.261-.657-6.73,5.626-7.2,6.282-.281-.592-1.962-4.172-3.151-3.971-.5.083-.353,4.671-.4,5.246-2.584-2.3-4.7-3.975-2.933.163.724,1.7.01,2.524,2.851,2.376Q482.9,3798.532,486.667,3798.2Z" fill="#85a30a"/>
      <path id="Trazado_14927" data-name="Trazado 14927" d="M489.324,3797.982c2.035-.21,2.442.136,2.454-1.487,0-.353.616-3.635.516-3.673-1.341-.509-4.335,4.614-4.508,5.289C488.3,3798.067,488.81,3798.025,489.324,3797.982Z" fill="#85a30a"/>
      <path id="Trazado_14928" data-name="Trazado 14928" d="M404.128,3798.157c.15-.612,2.927-5.316,2.814-5.377-.682-.367-4.589,4.725-4.851,5.234Q403.108,3798.088,404.128,3798.157Z" fill="#85a30a"/>
      <path id="Trazado_14929" data-name="Trazado 14929" d="M409,3798.466c.211-.522,2.145-4.409,1.3-4.517-1.13-.146-3.973,3.636-4.126,4.338C407.119,3798.351,408.059,3798.41,409,3798.466Z" fill="#85a30a"/>
      <path id="Trazado_14930" data-name="Trazado 14930" d="M572.551,3792.6c-.849-1.181-6.378-7.1-8.63-6.629-.725.153,3.32,7.206,3.557,8.036.485,1.689,1.134,8.191,5.1,7.834C578.3,3801.323,573.962,3794.565,572.551,3792.6Z" fill="#85a30a"/>
      <path id="Trazado_14931" data-name="Trazado 14931" d="M579.686,3795.06c-.407-.819-4.343-6.865-5.978-6.229-.4.157,1.885,10.4,3.2,11.385C580.863,3803.17,580.238,3796.166,579.686,3795.06Z" fill="#85a30a"/>
      <path id="Trazado_14932" data-name="Trazado 14932" d="M585.36,3795.653c.013-.8,1-5.776.3-6.117s-3.468,3.165-3.762,3.592c-1.148,1.671-1.877,3.693-1.057,5.518a4.64,4.64,0,0,0,4.093,2.491C585.847,3801.2,585.348,3796.321,585.36,3795.653Z" fill="#85a30a"/>
      <path id="Trazado_14933" data-name="Trazado 14933" d="M590.439,3794.774c-3.058.117-6.1,4.819-2.923,6.073C591.108,3802.261,589.721,3794.8,590.439,3794.774Z" fill="#85a30a"/>
      <path id="Trazado_14934" data-name="Trazado 14934" d="M566.4,3799.923c-.5-1.026-2.788-9.56-3.437-9.639-.718-.088-1.782,3.184-1.921,3.609-.364-.9-1.264-8.986-1.425-9.012-2.2-.353-3.345,6.574-3.378,7.491-.368-.335-3.393-2.787-4.166-2.25-.193.134,4.087,9.664,4.909,9.756a1.388,1.388,0,0,0,1.263-1.23c.665.722,4.492,3.038,4.707,1.023C563.272,3799.856,567,3801.153,566.4,3799.923Z" fill="#85a30a"/>
      <path id="Trazado_14935" data-name="Trazado 14935" d="M543.012,3787.277c-.116-.056.776,5.4.8,6.277.033,1.278-.066,6.416,3.438,3.789C551.293,3794.313,546.952,3789.179,543.012,3787.277Z" fill="#85a30a"/>
      <path id="Trazado_14936" data-name="Trazado 14936" d="M539.291,3790.488c-1.188-1.15-.547,2.077-.543,2.112.033.446-.6,3.817,1.214,3.415C543.415,3795.255,540.559,3791.716,539.291,3790.488Z" fill="#85a30a"/>
      <path id="Trazado_14937" data-name="Trazado 14937" d="M602.408,3791.394c-2.506,2.383-6.983,5.4-6.655,8.631a2.521,2.521,0,0,0,1.614,1.94c1.145.54,1.8-2.482,1.945-2.8.76-1.705,1.541-3.4,2.316-5.1C601.606,3794.112,603.087,3790.745,602.408,3791.394Z" fill="#85a30a"/>
      <path id="Trazado_14938" data-name="Trazado 14938" d="M604.421,3795.516a5.419,5.419,0,0,0-1.962,2.71c-.1.545.459,2.2,1.767,1.561C605.963,3798.934,605.11,3794.925,604.421,3795.516Z" fill="#85a30a"/>
      <g id="Grupo_3108" data-name="Grupo 3108">
        <path id="Trazado_14939" data-name="Trazado 14939" d="M639.987,3780.372c-.959-.359,1.928,2.379,2.158,2.656a15.481,15.481,0,0,1,2.454,4.476c.41,1.057,1.019,9.183,4.678,5.956C654.389,3788.953,645.332,3782.366,639.987,3780.372Z" fill="#85a30a"/>
        <path id="Trazado_14940" data-name="Trazado 14940" d="M650.341,3781.771c-.445-.814-.069,2.564-.055,2.643.307,1.636.857,3.264,1.087,4.906.233,1.711.428,6.551,4.023,3.518C659.331,3789.522,651.961,3784.727,650.341,3781.771Z" fill="#85a30a"/>
        <path id="Trazado_14941" data-name="Trazado 14941" d="M665.964,3779.531c-5.006,3.189-12.1,9.381-8.162,14.49a4.161,4.161,0,0,0,4.065,1.325c1.055-.168,1.07-4.821,1.238-5.583a35.187,35.187,0,0,1,2.015-6.216C665.244,3783.25,667.445,3778.588,665.964,3779.531Z" fill="#85a30a"/>
        <path id="Trazado_14942" data-name="Trazado 14942" d="M668.59,3785.857c-.959.852-5.972,7.136-1.014,6.923,1.819-.078,1.586-2.456,1.633-3.2C669.224,3789.339,669.825,3784.762,668.59,3785.857Z" fill="#85a30a"/>
        <path id="Trazado_14943" data-name="Trazado 14943" d="M675.556,3786.2c-1.172.75-6.478,6.1-1.545,6.1C676.71,3792.307,675.163,3786.455,675.556,3786.2Z" fill="#85a30a"/>
        <path id="Trazado_14944" data-name="Trazado 14944" d="M677.814,3782.54a44.178,44.178,0,0,0-.288,4.816c-.044.792-1.994,7.281-.813,6.79C684.088,3791.06,679.911,3786.733,677.814,3782.54Z" fill="#85a30a"/>
        <path id="Trazado_14945" data-name="Trazado 14945" d="M682.915,3785.435c-.454-.472.672,3,.752,3.457.124.692-.282,5.686.409,5.792,1.65.255,1.96-3.2,1.891-3.8A10.055,10.055,0,0,0,682.915,3785.435Z" fill="#85a30a"/>
        <path id="Trazado_14946" data-name="Trazado 14946" d="M638.483,3785.512c-.559-.19,3.694,10.307,5.364,8.891C647.369,3791.426,642.4,3786.852,638.483,3785.512Z" fill="#85a30a"/>
        <path id="Trazado_14947" data-name="Trazado 14947" d="M636.339,3789.928c-.379-.362-1.354-.181-1.148.336a7.629,7.629,0,0,0,2.369,3.52c.92.6,1.352-1.036,1.246-1.344C638.458,3791.43,637.173,3790.727,636.339,3789.928Z" fill="#85a30a"/>
        <path id="Trazado_14948" data-name="Trazado 14948" d="M801.352,3790.568c-2.017.784-9.809,6.241-4.993,7.75,2.313.725,3.1-2.6,3.537-3.541C800.088,3794.367,803.206,3789.847,801.352,3790.568Z" fill="#85a30a"/>
        <path id="Trazado_14949" data-name="Trazado 14949" d="M747.289,3798.037a9.209,9.209,0,0,1-2.016-8.792c.829-3.342-2.13.326-2.635,1.484-.862,1.973-1.416,4.281-.55,6.3a4.056,4.056,0,0,0,1.862,2C745.087,3799.634,748.874,3799.67,747.289,3798.037Z" fill="#85a30a"/>
        <path id="Trazado_14950" data-name="Trazado 14950" d="M749.126,3793.91c-.157-.43-1.063-2.919-1.83-2.916-1.875.007-1.5,4.189-.807,4.906a2.978,2.978,0,0,0,2.8.919C750.635,3796.369,749.361,3794.551,749.126,3793.91Z" fill="#85a30a"/>
        <path id="Trazado_14951" data-name="Trazado 14951" d="M754.223,3794.185c-.367-.369-1.447-2.07-2.307-1.957-1.127.147.333,2.651.725,2.973C753.94,3796.269,755.227,3795.205,754.223,3794.185Z" fill="#85a30a"/>
        <path id="Trazado_14952" data-name="Trazado 14952" d="M740.182,3789.611c.4-1.085-2.313,1.375-2.52,1.733-.88,1.509-1.591,3.36-1.054,4.992.613,1.853,3.253,2.287,3.479.009C740.311,3794.093,739.373,3791.855,740.182,3789.611Z" fill="#85a30a"/>
        <path id="Trazado_14953" data-name="Trazado 14953" d="M736.051,3794.9c-.11-.4-.463-2.764-.988-2.862-1.265-.235-1.731,2.594-1.629,3.1C733.8,3797.029,736.594,3796.853,736.051,3794.9Z" fill="#85a30a"/>
        <path id="Trazado_14954" data-name="Trazado 14954" d="M774.966,3791.8c-.472-.544-4.441-3.559-5.576-3.108-.117.047,3.894,5.3,4.3,6.049.541.991,1.461,1.455,2.268.166C776.62,3793.852,775.731,3792.681,774.966,3791.8Z" fill="#85a30a"/>
        <path id="Trazado_14955" data-name="Trazado 14955" d="M800.281,3785.259a22.125,22.125,0,0,0-9.429,4.538,12.7,12.7,0,0,0-7.378-6.438c-3.249-1.084.251,4.549.383,5.843a12.052,12.052,0,0,0-7.849-3.584c-1.022-.024,1.866,3.494,1.984,4.254-.92-.659-4.951-2.465-3.721-.172.983,1.823,2.85,3.069,4.651,4.448.41.314,2.349-.509,2.511-.674a15.8,15.8,0,0,0,1.977,2.38c.966.933,1.494-.355,1.948.185,1.292,1.483,3,.019,4.23.722,2.6,1.485,4.085-1.089,4.707-2.46a23.362,23.362,0,0,1,3.092-5.276C797.724,3788.61,801.5,3784.964,800.281,3785.259Z" fill="#85a30a"/>
      </g>
      <path id="Trazado_14956" data-name="Trazado 14956" d="M865.34,3787.744c-2.119,1.89-4.636,3.86-5.51,6.252a12.2,12.2,0,0,0-5.755-4.671c-5.223-2.18-1.657,1.032-.321,2.548a16.309,16.309,0,0,1,3.364,5.84c.175.544.109,2.5,1.154,2.7,1.725.331,2.4-2.615,2.432-3.284,2.876,2.2,2.838-2.569,3.144-3.608a17.324,17.324,0,0,1,1.895-4.193C865.594,3789.571,866.809,3786.43,865.34,3787.744Z" fill="#85a30a"/>
      <path id="Trazado_14957" data-name="Trazado 14957" d="M867.811,3791.205c-1.018,1.032-2.556,1.67-2.988,2.966a1.813,1.813,0,0,0,2.422,2.344c1.592-.442,1.078-2.024,1.18-2.906C868.425,3793.609,869.187,3789.814,867.811,3791.205Z" fill="#85a30a"/>
      <path id="Trazado_14958" data-name="Trazado 14958" d="M853.594,3794.725c-.919-1.363-4.951-3.322-3.206-.454a15.366,15.366,0,0,0,1.992,2.648C853.495,3798.09,853.929,3795.219,853.594,3794.725Z" fill="#85a30a"/>
      <path id="Trazado_14959" data-name="Trazado 14959" d="M847.09,3794.928c-.753-.462-7.289-2.967-7.808-1.658-.01.031,4.88,3.946,5.364,4.549.795.986,1.737,4.131,4.312,2.341C851.221,3798.585,848.969,3796.077,847.09,3794.928Z" fill="#85a30a"/>
      <path id="Trazado_14960" data-name="Trazado 14960" d="M895.736,3786.38c.419-.837-2.4,1.312-2.467,1.374a16.463,16.463,0,0,0-2.9,3.4c-1.128,1.8-2.6,4.818-.764,6.649,2.422,2.413,3.716-.651,3.672-2.068A19.6,19.6,0,0,1,895.736,3786.38Z" fill="#85a30a"/>
      <path id="Trazado_14961" data-name="Trazado 14961" d="M898.265,3794.062c-.051-.475-.138-3.537-.96-3.58-1.294-.068-2.351,2.946-2.465,3.58A1.755,1.755,0,1,0,898.265,3794.062Z" fill="#85a30a"/>
      <path id="Trazado_14962" data-name="Trazado 14962" d="M975.217,3788.5c.233-1.156,2.455-7.6-.718-4.382-1.975,2-4.1,4.182-4.033,6.728-.8-1.268-2.013-11.47-2.312-11.525-2.528-.462-4.248,9.026-4.082,10.2-.632-.778-2.8-5.556-3.889-5.563-2.106-.014-1.5,5.37-1.186,6.184a15.133,15.133,0,0,0-5.822-4.276c-.653-.3-5.994-2.624-6.561-2.1-.532.5,6.023,6.023,6.675,7-.778-.431-8.06-3.486-8.75-2.223-.121.218,7.781,6.544,8.79,7.378,1.79,1.479,2.9-.275,4.514-.226,2.945.088,2.513-2.645,2.027-3.964.891,1.2,3.724,3.582,5.733,1.91,1.1,1.66,6.908,3.776,6.68.478,1.121.715,4.962,1.093,3.987-.81A7.254,7.254,0,0,1,975.217,3788.5Z" fill="#85a30a"/>
      <path id="Trazado_14963" data-name="Trazado 14963" d="M990.2,3777.284a16.266,16.266,0,0,0-9.689,7.668c-1.441,2.361-4.441,6.315-2.156,8.808,4.062,4.429,5.677-5.187,6.365-6.578.981-1.984,1.733-4.022,2.885-5.964C987.933,3780.662,990.57,3777.182,990.2,3777.284Z" fill="#85a30a"/>
      <path id="Trazado_14964" data-name="Trazado 14964" d="M990.386,3784.467c-.633.671-5.442,7.012-.673,6.158,1.666-.3,1.42-3.085,1.67-4C991.433,3786.439,991.856,3782.892,990.386,3784.467Z" fill="#85a30a"/>
      <path id="Trazado_14965" data-name="Trazado 14965" d="M1001.272,3782.848c-2.181.764-4.271,1.7-5.538,3.215-.669.8-1.521,3.32.886,3.353,1.6.023,3.174-3.03,3.872-3.8C1000.58,3785.514,1003.856,3781.943,1001.272,3782.848Z" fill="#85a30a"/>
      <path id="Trazado_14966" data-name="Trazado 14966" d="M1090.1,3783.715a10.068,10.068,0,0,0-8.384,8.08c-.853-.8-8.631-6.765-9.89-6.231-1.157.492,3.41,8.092,3.9,9.252,1.041,2.476,4.754,7.183,7.617,2.679.855.859,3.716,2.385,4.8.8.977-1.431-1.642-4.132-1.948-5.616a8.079,8.079,0,0,1,1.015-5.58C1087.545,3786.525,1091,3783.545,1090.1,3783.715Z" fill="#85a30a"/>
      <path id="Trazado_14967" data-name="Trazado 14967" d="M1093.241,3796.141a19.175,19.175,0,0,1-1.54-3.1c-.147-.539.645-2.26.173-2.592-1.678-1.182-3.892,2.8-3.981,3.414a4.076,4.076,0,0,0,2.3,4.173C1092.4,3799.084,1094,3797.691,1093.241,3796.141Z" fill="#85a30a"/>
      <path id="Trazado_14968" data-name="Trazado 14968" d="M1072.134,3791.735c-.727-.68-8.048-4.332-8.975-3.009a35.045,35.045,0,0,1,4.6,3.011c1.855,1.815,1.755,3.408,2.863,5.343.913,1.589,3.209.128,3.555-.883C1074.709,3794.648,1073.407,3792.933,1072.134,3791.735Z" fill="#85a30a"/>
      <path id="Trazado_14969" data-name="Trazado 14969" d="M1064.925,3793.643c-.208-.462-1.967-2.434-2.931-2.044-.736.3.881,3.514,1.094,3.98C1063.62,3796.751,1065.265,3794.409,1064.925,3793.643Z" fill="#85a30a"/>
      <path id="Trazado_14970" data-name="Trazado 14970" d="M1046.095,3783.959c-.164.13-3.479,1.3-4.415,2.151a10.841,10.841,0,0,0-3.4,4.933,7.026,7.026,0,0,1-.795-4.438c.064-.525,1.815-4.814,1.755-4.839-1.525-.633-4.054,6.4-4.036,7.175.042,1.66.536,4.077,2.239,5.323.394.29,2.51,1.106,2.71.222,3.071.754,1.418-1.485,1.11-2.145C1040.216,3790.068,1044.043,3785.542,1046.095,3783.959Z" fill="#85a30a"/>
      <path id="Trazado_14971" data-name="Trazado 14971" d="M1045.681,3791.284c.044-.4.749-2.264.257-2.554-2.023-1.2-4.034,3.939-3.528,4.913.354.681,2,1.934,2.958.931C1046.246,3793.655,1045.57,3792.308,1045.681,3791.284Z" fill="#85a30a"/>
      <path id="Trazado_14972" data-name="Trazado 14972" d="M1032.313,3791.327c-.359-.5-1.742-4.467-2.028-4.5-1.666-.209.162,5.519.7,6.174.4.48,2.028,1.886,3.027,1.208C1034.95,3793.572,1032.692,3791.857,1032.313,3791.327Z" fill="#85a30a"/>
      <path id="Trazado_14973" data-name="Trazado 14973" d="M1110.6,3790.746c-.326-.574-4.036-5.459-4.612-4.886-.177.175,1.3,1.71,1.428,1.966a7.113,7.113,0,0,1,.6,4.008c-.115,1.246-1.026,3.212-.17,4.428,1.2,1.7,2.93-1.332,3.011-1.936A10.261,10.261,0,0,0,1110.6,3790.746Z" fill="#85a30a"/>
    </g>
    <g id="Grupo_3110" data-name="Grupo 3110" opacity="0.5">
      <path id="Trazado_14974" data-name="Trazado 14974" d="M345.664,3850.607a11.238,11.238,0,0,0-6.08.616c-2.1,1.069-2.057,3.287.156,4.232a9.046,9.046,0,0,0,7.027-.221C349.522,3853.849,349.359,3851.074,345.664,3850.607Z" fill="#a6582f"/>
      <path id="Trazado_14975" data-name="Trazado 14975" d="M424.7,3865.912c-2.7-2.281-7.04,1-4.234,3.06C422.964,3870.8,426.878,3867.738,424.7,3865.912Z" fill="#a6582f"/>
      <path id="Trazado_14976" data-name="Trazado 14976" d="M466.634,3877.775c-1.421.238-3.069.435-3.335,1.678-.291,1.361,1.379,2.123,3.107,2.2C470.819,3881.851,470.6,3877.109,466.634,3877.775Z" fill="#a6582f"/>
      <path id="Trazado_14977" data-name="Trazado 14977" d="M343.767,3885.369c-.306-1.785-4.6-1.429-4.892.007-.148.734,1.251,1.642,2.145,1.824C342.893,3887.581,343.983,3886.672,343.767,3885.369Z" fill="#a6582f"/>
      <path id="Trazado_14978" data-name="Trazado 14978" d="M379.113,3854a5.634,5.634,0,0,0-3.469-.643c-3.643.417-3.284,4.2.147,5.4C379.991,3860.223,382.654,3855.43,379.113,3854Z" fill="#a6582f"/>
      <path id="Trazado_14979" data-name="Trazado 14979" d="M487.884,3858.824a5.642,5.642,0,0,0-3.469-.643c-3.647.415-3.282,4.2.147,5.4C488.762,3865.046,491.426,3860.256,487.884,3858.824Z" fill="#a6582f"/>
      <path id="Trazado_14980" data-name="Trazado 14980" d="M402.747,3868.935c-4.353-.9-4.942,3.76-.794,3.717C404.659,3872.623,405.321,3869.469,402.747,3868.935Z" fill="#a6582f"/>
      <path id="Trazado_14981" data-name="Trazado 14981" d="M667.775,3897.79a4.891,4.891,0,0,0-5.1.467c-1.782,1.158-.95,2.946.723,3.92C667.192,3904.383,671.32,3899.847,667.775,3897.79Z" fill="#a6582f"/>
      <path id="Trazado_14982" data-name="Trazado 14982" d="M774.494,3837.685a4.9,4.9,0,0,0-5.1.468c-1.784,1.158-.951,2.945.721,3.919C773.909,3844.278,778.04,3839.742,774.494,3837.685Z" fill="#a6582f"/>
      <path id="Trazado_14983" data-name="Trazado 14983" d="M679.952,3898.854c-1.521-1.8-4.156.215-2.855,1.685C678.615,3902.255,681.354,3900.48,679.952,3898.854Z" fill="#a6582f"/>
      <path id="Trazado_14984" data-name="Trazado 14984" d="M569.745,3883.054c-1.524-1.8-4.157.214-2.855,1.685C568.409,3886.455,571.146,3884.679,569.745,3883.054Z" fill="#a6582f"/>
      <path id="Trazado_14985" data-name="Trazado 14985" d="M653.7,3881.423c-3.676-.994-5.228,2.448-2.311,3.8C655.055,3886.914,657.221,3882.373,653.7,3881.423Z" fill="#a6582f"/>
      <path id="Trazado_14986" data-name="Trazado 14986" d="M694.811,3868.508c-3.677-1-5.228,2.448-2.312,3.8C696.164,3874,698.33,3869.458,694.811,3868.508Z" fill="#a6582f"/>
      <path id="Trazado_14987" data-name="Trazado 14987" d="M700.684,3850.364c-1.672-1.247-3.809-.01-2.845,1.452C699.056,3853.661,702.477,3851.688,700.684,3850.364Z" fill="#a6582f"/>
      <path id="Trazado_14988" data-name="Trazado 14988" d="M566.274,3861.6c-3.491-1.144-5.071,2.8-1.96,3.682C567.185,3866.1,569.148,3862.53,566.274,3861.6Z" fill="#a6582f"/>
      <path id="Trazado_14989" data-name="Trazado 14989" d="M502.379,3858.115c-3.491-1.144-5.07,2.795-1.961,3.682C503.29,3862.616,505.253,3859.044,502.379,3858.115Z" fill="#a6582f"/>
      <path id="Trazado_14990" data-name="Trazado 14990" d="M385.2,3880.608c-2.884-.249-5.531.242-6.1,2.552-.483,1.958,1.317,3.661,4.059,3.9,2.376.2,4.786-.362,5.533-2.12C389.48,3883.073,388.125,3880.862,385.2,3880.608Z" fill="#a6582f"/>
      <path id="Trazado_14991" data-name="Trazado 14991" d="M366.79,3878.77c-3.841.554-1.4,5.093,1.757,3.288C370.272,3881.073,369.275,3878.415,366.79,3878.77Z" fill="#a6582f"/>
      <path id="Trazado_14992" data-name="Trazado 14992" d="M336.989,3890.417c-4.638-1.434-6.733,3.155-3.014,4.791C338.621,3897.253,341.44,3891.795,336.989,3890.417Z" fill="#a6582f"/>
      <path id="Trazado_14993" data-name="Trazado 14993" d="M537.429,3885.181c-2.529-.235-5.265.765-6.494,2.339-1.307,1.671.042,3.466,2.565,4,2.82.6,5.468-.593,6.435-2.457C540.792,3887.412,540.28,3885.447,537.429,3885.181Z" fill="#a6582f"/>
      <path id="Trazado_14994" data-name="Trazado 14994" d="M447.232,3859.568c-2.527-.234-5.263.766-6.493,2.339-1.307,1.672.043,3.466,2.565,4,2.821.6,5.47-.592,6.436-2.457C450.6,3861.8,450.085,3859.833,447.232,3859.568Z" fill="#a6582f"/>
      <path id="Trazado_14995" data-name="Trazado 14995" d="M557.794,3879.225c-5.639,0-2.823,5.927,1.164,4.164A2.186,2.186,0,0,0,557.794,3879.225Z" fill="#a6582f"/>
      <path id="Trazado_14996" data-name="Trazado 14996" d="M548.107,3879.19c-2.941-.625-2.7,2.322-.993,2.145.854-.082,1.639-.2,1.822-.88A1.014,1.014,0,0,0,548.107,3879.19Z" fill="#a6582f"/>
      <path id="Trazado_14997" data-name="Trazado 14997" d="M516.465,3877.709c-4.456-.049-2.589,4.939.9,3.674C519.343,3880.665,518.915,3877.737,516.465,3877.709Z" fill="#a6582f"/>
      <path id="Trazado_14998" data-name="Trazado 14998" d="M384.458,3935.03a10.873,10.873,0,0,1,5.718.548c2,.968,2.1,3.084.039,4.021a8.61,8.61,0,0,1-6.7-.109C380.815,3938.2,380.857,3935.486,384.458,3935.03Z" fill="#a6582f"/>
      <path id="Trazado_14999" data-name="Trazado 14999" d="M381.06,3918.145c2.426-2.046,6.355.612,4.324,2.667C383.245,3922.973,378.792,3920.054,381.06,3918.145Z" fill="#a6582f"/>
      <path id="Trazado_15000" data-name="Trazado 15000" d="M357.113,3908.736c1.588.264,3.374.615,3.2,2.062-.15,1.247-1.969,1.621-3.464,1.648C353.1,3912.508,353.429,3908.118,357.113,3908.736Z" fill="#a6582f"/>
      <path id="Trazado_15001" data-name="Trazado 15001" d="M428.977,3927.184c.286-1.7,4.391-1.358,4.663.007C434.013,3929.065,428.5,3930.025,428.977,3927.184Z" fill="#a6582f"/>
      <path id="Trazado_15002" data-name="Trazado 15002" d="M466.851,3910.4c2.574-.222,4.872.1,5.694,2.072.788,1.893-.875,3.785-3.616,4.059-2.253.225-4.606-.273-5.372-1.934C462.733,3912.813,464.025,3910.647,466.851,3910.4Z" fill="#a6582f"/>
      <path id="Trazado_15003" data-name="Trazado 15003" d="M423.947,3909.588c3.678.532,1.305,4.887-1.7,3.12C420.64,3911.759,421.59,3909.252,423.947,3909.588Z" fill="#a6582f"/>
      <path id="Trazado_15004" data-name="Trazado 15004" d="M703.246,3930.055c.286-1.7,4.39-1.356,4.663.008C708.285,3931.935,702.753,3932.9,703.246,3930.055Z" fill="#a6582f"/>
      <path id="Trazado_15005" data-name="Trazado 15005" d="M706.923,3904.009c3.682.533,1.3,4.888-1.7,3.12C703.617,3906.181,704.568,3903.673,706.923,3904.009Z" fill="#a6582f"/>
      <path id="Trazado_15006" data-name="Trazado 15006" d="M473.736,3935.97c4.565-1.406,6.445,3.228,2.625,4.667C471.953,3942.3,469.665,3937.234,473.736,3935.97Z" fill="#a6582f"/>
      <path id="Trazado_15007" data-name="Trazado 15007" d="M380.874,3897.87c4.588-.426,9.989,4.272,4.107,5.951C379.254,3905.455,375.118,3898.4,380.874,3897.87Z" fill="#a6582f"/>
      <path id="Trazado_15008" data-name="Trazado 15008" d="M326.083,3926.188c5.065,0,3.071,5.407-.919,4.041A2.082,2.082,0,0,1,326.083,3926.188Z" fill="#a6582f"/>
      <path id="Trazado_15009" data-name="Trazado 15009" d="M324.95,3912.8c4.338-.048,2.39,4.739-.886,3.489A1.815,1.815,0,0,1,324.95,3912.8Z" fill="#a6582f"/>
      <path id="Trazado_15010" data-name="Trazado 15010" d="M588.885,3848.2c-1.748-1.021-4.974-.96-6.9-.261-2.771,1.008-3.225,3.807-.788,5.17,1.629.911,5.567,1.6,7.477.817A3.192,3.192,0,0,0,588.885,3848.2Z" fill="#a6582f"/>
      <path id="Trazado_15011" data-name="Trazado 15011" d="M668.989,3874.1c-2.674,1.116-.508,4.424,2.152,3.2C673.427,3876.248,671.7,3872.971,668.989,3874.1Z" fill="#a6582f"/>
      <path id="Trazado_15012" data-name="Trazado 15012" d="M707.628,3868.762c-2.672,1.115-.51,4.422,2.152,3.2C712.067,3870.908,710.338,3867.629,707.628,3868.762Z" fill="#a6582f"/>
      <path id="Trazado_15013" data-name="Trazado 15013" d="M532.007,3857.266c-2.274.028-5.273-.438-6.755,1.156-1.908,2.034-.005,4.128,3.03,4.724,2.432.478,5.628.47,6.816-1.4C536.128,3860.128,535.071,3857.225,532.007,3857.266Z" fill="#a6582f"/>
      <path id="Trazado_15014" data-name="Trazado 15014" d="M841.078,3876.932c-2.524.031-5.6-.433-7.021,1.473-1.545,2.075.627,3.938,3.5,4.446,2.4.424,5.447.39,6.608-1.437C845.2,3879.794,844.142,3876.892,841.078,3876.932Z" fill="#a6582f"/>
      <path id="Trazado_15015" data-name="Trazado 15015" d="M782.41,3856.359c-2.564.537-3.3,3.605.056,3.641C786.171,3860.04,785.564,3855.7,782.41,3856.359Z" fill="#a6582f"/>
      <path id="Trazado_15016" data-name="Trazado 15016" d="M766.671,3859.6c-2.331-.251-2.608,2.537-.317,2.768C768.7,3862.565,768.963,3859.824,766.671,3859.6Z" fill="#a6582f"/>
      <path id="Trazado_15017" data-name="Trazado 15017" d="M836.187,3858.416c-2.334-.237-2.6,2.536-.315,2.769C838.219,3861.389,838.478,3858.646,836.187,3858.416Z" fill="#a6582f"/>
      <path id="Trazado_15018" data-name="Trazado 15018" d="M794.96,3860.424c-1.626.528-4.348,1.463-3.131,3.092.906,1.22,3.1,1.171,4.64.583A1.986,1.986,0,0,0,794.96,3860.424Z" fill="#a6582f"/>
      <path id="Trazado_15019" data-name="Trazado 15019" d="M845.508,3865.94c-1.627.526-4.35,1.461-3.132,3.09.905,1.221,3.1,1.172,4.638.584A1.985,1.985,0,0,0,845.508,3865.94Z" fill="#a6582f"/>
      <path id="Trazado_15020" data-name="Trazado 15020" d="M543.956,3918.362a5.611,5.611,0,0,0-3.466-.642c-3.647.415-3.284,4.2.147,5.4C544.836,3924.586,547.5,3919.793,543.956,3918.362Z" fill="#a6582f"/>
      <path id="Trazado_15021" data-name="Trazado 15021" d="M580.1,3905.05c-4.35-.9-4.942,3.761-.794,3.717C582.011,3908.739,582.673,3905.584,580.1,3905.05Z" fill="#a6582f"/>
      <path id="Trazado_15022" data-name="Trazado 15022" d="M854.275,3909.43c-4.346-.9-4.942,3.759-.794,3.718C856.189,3913.12,856.85,3909.964,854.275,3909.43Z" fill="#a6582f"/>
      <path id="Trazado_15023" data-name="Trazado 15023" d="M613.413,3905.569c-3.676-1-5.228,2.45-2.312,3.8C614.767,3911.059,616.931,3906.518,613.413,3905.569Z" fill="#a6582f"/>
      <path id="Trazado_15024" data-name="Trazado 15024" d="M777.9,3924.15c-1.675-1.246-3.811-.011-2.849,1.451C776.269,3927.447,779.691,3925.475,777.9,3924.15Z" fill="#a6582f"/>
      <path id="Trazado_15025" data-name="Trazado 15025" d="M506.6,3927.738c-3.49-1.144-5.07,2.794-1.961,3.681C507.509,3932.238,509.472,3928.666,506.6,3927.738Z" fill="#a6582f"/>
      <path id="Trazado_15026" data-name="Trazado 15026" d="M668.38,3930.022c-2.273.029-5.273-.438-6.753,1.157-1.908,2.035-.007,4.126,3.028,4.723,2.432.478,5.629.471,6.817-1.4C672.5,3932.883,671.445,3929.982,668.38,3930.022Z" fill="#a6582f"/>
      <path id="Trazado_15027" data-name="Trazado 15027" d="M1003.557,3924.7c-2.272.029-5.272-.438-6.753,1.157-1.9,2.036-.007,4.126,3.028,4.724,2.433.478,5.629.47,6.818-1.4C1007.681,3927.561,1006.622,3924.66,1003.557,3924.7Z" fill="#a6582f"/>
      <path id="Trazado_15028" data-name="Trazado 15028" d="M740.79,3913.133c-2.522.033-5.6-.433-7.019,1.474-1.544,2.076.623,3.938,3.5,4.446,2.4.423,5.449.39,6.608-1.437C744.911,3916,743.856,3913.094,740.79,3913.133Z" fill="#a6582f"/>
      <path id="Trazado_15029" data-name="Trazado 15029" d="M702.606,3894.619c-1.63.527-4.348,1.46-3.134,3.091.906,1.221,3.1,1.171,4.639.583A1.985,1.985,0,0,0,702.606,3894.619Z" fill="#a6582f"/>
      <path id="Trazado_15030" data-name="Trazado 15030" d="M1096.1,3855.544a11.234,11.234,0,0,1,6.079.616c2.094,1.07,2.055,3.287-.157,4.231a9.046,9.046,0,0,1-7.027-.22C1092.239,3858.786,1092.4,3856.011,1096.1,3855.544Z" fill="#a6582f"/>
      <path id="Trazado_15031" data-name="Trazado 15031" d="M1033.714,3861.587c2.7-2.281,7.04,1.005,4.233,3.06C1035.455,3866.473,1031.54,3863.414,1033.714,3861.587Z" fill="#a6582f"/>
      <path id="Trazado_15032" data-name="Trazado 15032" d="M982.639,3880.842c1.422.238,3.071.435,3.335,1.678.292,1.361-1.378,2.123-3.107,2.2C978.453,3884.918,978.679,3880.176,982.639,3880.842Z" fill="#a6582f"/>
      <path id="Trazado_15033" data-name="Trazado 15033" d="M1062.67,3848.9a5.627,5.627,0,0,1,3.47-.643c3.639.414,3.284,4.2-.147,5.4C1061.792,3855.12,1059.128,3850.325,1062.67,3848.9Z" fill="#a6582f"/>
      <path id="Trazado_15034" data-name="Trazado 15034" d="M967.736,3855.157a5.629,5.629,0,0,1,3.468-.643c3.641.417,3.284,4.2-.145,5.4C966.858,3861.381,964.194,3856.587,967.736,3855.157Z" fill="#a6582f"/>
      <path id="Trazado_15035" data-name="Trazado 15035" d="M1052.874,3865.268c4.35-.9,4.938,3.761.792,3.717C1050.959,3868.956,1050.3,3865.8,1052.874,3865.268Z" fill="#a6582f"/>
      <path id="Trazado_15036" data-name="Trazado 15036" d="M787.844,3894.123a4.889,4.889,0,0,1,5.1.468c1.782,1.157.949,2.945-.724,3.919C788.427,3900.716,784.3,3896.18,787.844,3894.123Z" fill="#a6582f"/>
      <path id="Trazado_15037" data-name="Trazado 15037" d="M925.352,3835.846a4.893,4.893,0,0,1,5.1.467c1.782,1.156.947,2.944-.724,3.919C925.939,3842.439,921.806,3837.9,925.352,3835.846Z" fill="#a6582f"/>
      <path id="Trazado_15038" data-name="Trazado 15038" d="M727.309,3859.916a4.9,4.9,0,0,1,5.1.468c1.784,1.158.951,2.945-.722,3.919C727.894,3866.509,723.763,3861.973,727.309,3859.916Z" fill="#a6582f"/>
      <path id="Trazado_15039" data-name="Trazado 15039" d="M775.667,3895.187c1.522-1.8,4.155.215,2.854,1.685C777,3898.588,774.266,3896.813,775.667,3895.187Z" fill="#a6582f"/>
      <path id="Trazado_15040" data-name="Trazado 15040" d="M879.964,3872.364c1.522-1.8,4.157.215,2.856,1.685C881.3,3875.765,878.563,3873.99,879.964,3872.364Z" fill="#a6582f"/>
      <path id="Trazado_15041" data-name="Trazado 15041" d="M865.772,3837.188c3.676-1,5.228,2.448,2.313,3.8C864.418,3842.677,862.251,3838.138,865.772,3837.188Z" fill="#a6582f"/>
      <path id="Trazado_15042" data-name="Trazado 15042" d="M775.152,3874.68c1.671-1.248,3.808-.01,2.844,1.451C776.779,3877.977,773.358,3876,775.152,3874.68Z" fill="#a6582f"/>
      <path id="Trazado_15043" data-name="Trazado 15043" d="M889.345,3857.935c3.488-1.153,5.07,2.8,1.961,3.681C888.434,3862.434,886.47,3858.863,889.345,3857.935Z" fill="#a6582f"/>
      <path id="Trazado_15044" data-name="Trazado 15044" d="M953.238,3854.448c3.494-1.135,5.074,2.795,1.961,3.682C952.329,3858.949,950.366,3855.377,953.238,3854.448Z" fill="#a6582f"/>
      <path id="Trazado_15045" data-name="Trazado 15045" d="M1077.417,3864.1c2.882-.249,5.53.242,6.1,2.552.483,1.957-1.319,3.662-4.062,3.9-2.374.2-4.785-.362-5.53-2.12C1073.136,3866.567,1074.492,3864.356,1077.417,3864.1Z" fill="#a6582f"/>
      <path id="Trazado_15046" data-name="Trazado 15046" d="M1088.831,3875.1c3.84.553,1.4,5.094-1.76,3.288C1085.345,3877.405,1086.346,3874.748,1088.831,3875.1Z" fill="#a6582f"/>
      <path id="Trazado_15047" data-name="Trazado 15047" d="M901.394,3915.751c2.53-.235,5.267.766,6.5,2.339,1.3,1.671-.042,3.466-2.566,4-2.821.6-5.469-.592-6.435-2.456C898.034,3917.983,898.542,3916.017,901.394,3915.751Z" fill="#a6582f"/>
      <path id="Trazado_15048" data-name="Trazado 15048" d="M1008.386,3855.9c2.528-.234,5.263.766,6.493,2.339,1.3,1.671-.044,3.466-2.566,4-2.821.6-5.467-.593-6.434-2.457C1005.022,3858.132,1005.533,3856.166,1008.386,3855.9Z" fill="#a6582f"/>
      <path id="Trazado_15049" data-name="Trazado 15049" d="M898.444,3865.243c5.642,0,2.823,5.928-1.163,4.164A2.186,2.186,0,0,1,898.444,3865.243Z" fill="#a6582f"/>
      <path id="Trazado_15050" data-name="Trazado 15050" d="M907.51,3875.523c2.943-.622,2.706,2.322.995,2.145-.855-.083-1.638-.2-1.822-.88A1.014,1.014,0,0,1,907.51,3875.523Z" fill="#a6582f"/>
      <path id="Trazado_15051" data-name="Trazado 15051" d="M939.154,3874.042c4.455-.049,2.589,4.939-.9,3.674C936.277,3877,936.705,3874.07,939.154,3874.042Z" fill="#a6582f"/>
      <path id="Trazado_15052" data-name="Trazado 15052" d="M1051.256,3892.517a10.861,10.861,0,0,0-5.715.548c-2,.968-2.1,3.084-.04,4.021a8.606,8.606,0,0,0,6.7-.109C1054.9,3895.682,1054.858,3892.972,1051.256,3892.517Z" fill="#a6582f"/>
      <path id="Trazado_15053" data-name="Trazado 15053" d="M1081.4,3912.942c-2.424-2.047-6.355.613-4.325,2.667C1079.217,3917.77,1083.67,3914.851,1081.4,3912.942Z" fill="#a6582f"/>
      <path id="Trazado_15054" data-name="Trazado 15054" d="M1106.026,3906.029c-1.587.266-3.375.614-3.2,2.062.151,1.247,1.969,1.621,3.464,1.648C1110.035,3909.8,1109.709,3905.411,1106.026,3906.029Z" fill="#a6582f"/>
      <path id="Trazado_15055" data-name="Trazado 15055" d="M1026.64,3923.518c-.279-1.705-4.39-1.356-4.663.007C1021.6,3925.4,1027.134,3926.358,1026.64,3923.518Z" fill="#a6582f"/>
      <path id="Trazado_15056" data-name="Trazado 15056" d="M1004.784,3884.24c-2.573-.222-4.871.1-5.693,2.072-.789,1.894.874,3.785,3.617,4.059,2.251.225,4.6-.273,5.372-1.934C1008.9,3886.65,1007.61,3884.485,1004.784,3884.24Z" fill="#a6582f"/>
      <path id="Trazado_15057" data-name="Trazado 15057" d="M1005.742,3908.576c-3.679.533-1.3,4.888,1.7,3.12C1009.055,3910.746,1008.1,3908.24,1005.742,3908.576Z" fill="#a6582f"/>
      <path id="Trazado_15058" data-name="Trazado 15058" d="M752.373,3926.388c-.286-1.7-4.39-1.356-4.663.008C747.334,3928.269,752.865,3929.23,752.373,3926.388Z" fill="#a6582f"/>
      <path id="Trazado_15059" data-name="Trazado 15059" d="M742.177,3893.7c-2.573-.221-4.873.1-5.693,2.073-.787,1.893.873,3.784,3.618,4.058,2.25.225,4.6-.273,5.372-1.934C746.3,3896.106,745,3893.94,742.177,3893.7Z" fill="#a6582f"/>
      <path id="Trazado_15060" data-name="Trazado 15060" d="M757.4,3908.792c-3.682.533-1.3,4.889,1.7,3.12C760.71,3910.963,759.759,3908.457,757.4,3908.792Z" fill="#a6582f"/>
      <path id="Trazado_15061" data-name="Trazado 15061" d="M1038.106,3921.926c-4.565-1.408-6.442,3.228-2.622,4.668C1039.892,3928.256,1042.177,3923.189,1038.106,3921.926Z" fill="#a6582f"/>
      <path id="Trazado_15062" data-name="Trazado 15062" d="M1071.324,3923.063c-4.586-.426-9.987,4.273-4.107,5.951C1072.945,3930.648,1077.079,3923.6,1071.324,3923.063Z" fill="#a6582f"/>
      <path id="Trazado_15063" data-name="Trazado 15063" d="M804.689,3852.652c1.748-1.021,4.973-.96,6.9-.261,2.771,1.009,3.225,3.808.789,5.17-1.629.911-5.568,1.6-7.477.817A3.191,3.191,0,0,1,804.689,3852.652Z" fill="#a6582f"/>
      <path id="Trazado_15064" data-name="Trazado 15064" d="M747.99,3865.095c2.672,1.115.511,4.422-2.15,3.2C743.551,3867.241,745.281,3863.962,747.99,3865.095Z" fill="#a6582f"/>
      <path id="Trazado_15065" data-name="Trazado 15065" d="M706.531,3826.494c2.275.029,5.273-.438,6.756,1.156,1.908,2.035,0,4.128-3.03,4.724-2.433.479-5.628.47-6.816-1.4C702.41,3829.356,703.467,3826.453,706.531,3826.494Z" fill="#a6582f"/>
      <path id="Trazado_15066" data-name="Trazado 15066" d="M605.677,3874.911c2.523.032,5.6-.433,7.02,1.473,1.547,2.076-.625,3.938-3.5,4.446-2.4.424-5.447.39-6.609-1.437C601.556,3877.773,602.613,3874.871,605.677,3874.911Z" fill="#a6582f"/>
      <path id="Trazado_15067" data-name="Trazado 15067" d="M677.253,3855.435c2.565.536,3.295,3.6-.058,3.641C673.493,3859.116,674.1,3854.775,677.253,3855.435Z" fill="#a6582f"/>
      <path id="Trazado_15068" data-name="Trazado 15068" d="M660.659,3856.757c1.626.528,4.347,1.463,3.131,3.092-.906,1.22-3.1,1.171-4.64.583A1.986,1.986,0,0,1,660.659,3856.757Z" fill="#a6582f"/>
      <path id="Trazado_15069" data-name="Trazado 15069" d="M625.2,3863.26c1.628.527,4.35,1.462,3.133,3.091-.907,1.22-3.1,1.172-4.638.583A1.985,1.985,0,0,1,625.2,3863.26Z" fill="#a6582f"/>
      <path id="Trazado_15070" data-name="Trazado 15070" d="M925.022,3893.519a5.63,5.63,0,0,1,3.468-.642c3.646.417,3.285,4.2-.146,5.4C924.144,3899.743,921.48,3894.95,925.022,3893.519Z" fill="#a6582f"/>
      <path id="Trazado_15071" data-name="Trazado 15071" d="M899.831,3900.1c4.353-.9,4.942,3.76.794,3.717C897.919,3903.792,897.256,3900.638,899.831,3900.1Z" fill="#a6582f"/>
      <path id="Trazado_15072" data-name="Trazado 15072" d="M601.343,3905.763c4.348-.9,4.943,3.759.794,3.718C599.43,3909.453,598.768,3906.3,601.343,3905.763Z" fill="#a6582f"/>
      <path id="Trazado_15073" data-name="Trazado 15073" d="M864.451,3927.148a4.893,4.893,0,0,1,5.1.467c1.78,1.159.949,2.945-.725,3.92C865.034,3933.74,860.9,3929.2,864.451,3927.148Z" fill="#a6582f"/>
      <path id="Trazado_15074" data-name="Trazado 15074" d="M665.045,3907.829a4.887,4.887,0,0,1,5.1.467c1.786,1.157.952,2.944-.721,3.919C665.633,3914.423,661.5,3909.885,665.045,3907.829Z" fill="#a6582f"/>
      <path id="Trazado_15075" data-name="Trazado 15075" d="M853.259,3919.332c1.523-1.8,4.156.214,2.857,1.685C854.6,3922.734,851.859,3920.958,853.259,3919.332Z" fill="#a6582f"/>
      <path id="Trazado_15076" data-name="Trazado 15076" d="M842.206,3901.9c3.676-1,5.228,2.45,2.313,3.8C840.851,3907.392,838.687,3902.851,842.206,3901.9Z" fill="#a6582f"/>
      <path id="Trazado_15077" data-name="Trazado 15077" d="M818.509,3913.8c1.671-1.249,3.809-.01,2.847,1.452C820.138,3917.093,816.716,3915.12,818.509,3913.8Z" fill="#a6582f"/>
      <path id="Trazado_15078" data-name="Trazado 15078" d="M679.119,3927.616c1.675-1.246,3.81-.011,2.847,1.452C680.751,3930.914,677.327,3928.941,679.119,3927.616Z" fill="#a6582f"/>
      <path id="Trazado_15079" data-name="Trazado 15079" d="M938.186,3899.7c3.488-1.152,5.07,2.8,1.959,3.681C937.275,3904.2,935.311,3900.628,938.186,3899.7Z" fill="#a6582f"/>
      <path id="Trazado_15080" data-name="Trazado 15080" d="M945.725,3914.055c1.748-1.02,4.973-.958,6.9-.259,2.771,1.008,3.225,3.806.791,5.168-1.63.911-5.569,1.6-7.479.817A3.192,3.192,0,0,1,945.725,3914.055Z" fill="#a6582f"/>
      <path id="Trazado_15081" data-name="Trazado 15081" d="M979.877,3941.379c1.747-1.02,4.973-.958,6.895-.259,2.772,1.008,3.226,3.806.791,5.168-1.629.911-5.569,1.6-7.479.817A3.192,3.192,0,0,1,979.877,3941.379Z" fill="#a6582f"/>
      <path id="Trazado_15082" data-name="Trazado 15082" d="M834.822,3931.622c2.275.029,5.272-.438,6.754,1.157,1.908,2.036.005,4.127-3.029,4.724-2.433.478-5.629.471-6.817-1.4C830.7,3934.483,831.757,3931.582,834.822,3931.622Z" fill="#a6582f"/>
      <path id="Trazado_15083" data-name="Trazado 15083" d="M483.707,3904.712c2.274.029,5.273-.437,6.754,1.157,1.9,2.036.008,4.127-3.029,4.724-2.432.478-5.63.47-6.817-1.4C479.584,3907.574,480.643,3904.672,483.707,3904.712Z" fill="#a6582f"/>
      <path id="Trazado_15084" data-name="Trazado 15084" d="M638.048,3908.095c2.521.032,5.6-.433,7.02,1.473,1.543,2.077-.624,3.938-3.5,4.446-2.4.424-5.448.391-6.608-1.437C633.927,3910.956,634.983,3908.055,638.048,3908.095Z" fill="#a6582f"/>
      <path id="Trazado_15085" data-name="Trazado 15085" d="M818.65,3939.885c2.56.539,3.3,3.6-.059,3.64C814.888,3943.564,815.492,3939.224,818.65,3939.885Z" fill="#a6582f"/>
      <path id="Trazado_15086" data-name="Trazado 15086" d="M808.76,3908.815c2.334-.237,2.6,2.534.315,2.77C806.725,3911.774,806.466,3909.044,808.76,3908.815Z" fill="#a6582f"/>
      <path id="Trazado_15087" data-name="Trazado 15087" d="M788.934,3914.326c1.629.527,4.348,1.459,3.134,3.09-.906,1.222-3.1,1.171-4.638.583A1.985,1.985,0,0,1,788.934,3914.326Z" fill="#a6582f"/>
    </g>
    <g id="Grupo_3112" data-name="Grupo 3112">
      <g id="Grupo_3111" data-name="Grupo 3111">
        <path id="Trazado_15088" data-name="Trazado 15088" d="M540.324,3825.6c-.18-.013-.271-.02-.3-.019-.249-.032-.5-.069-.754-.1a6,6,0,0,0-1.9.04c-2.208-.235-3.486,1.165-2.671,2.521a4.638,4.638,0,0,0,2.066,1.654,8.836,8.836,0,0,0,3.559.359c1.709-.071,3.142-.96,3.142-2.227C543.466,3826.539,542.032,3825.7,540.324,3825.6Z" fill="#5a2210"/>
        <path id="Trazado_15089" data-name="Trazado 15089" d="M537.345,3825.514c.408-.084-.241-.057,0,0Z" fill="#5a2210"/>
      </g>
      <path id="Trazado_15090" data-name="Trazado 15090" d="M550.46,3824.1l-.326-.088c-2.916-.788-3.984,3.07-.589,3.075h.344C552.448,3827.087,552.634,3824.684,550.46,3824.1Z" fill="#5a2210"/>
      <path id="Trazado_15091" data-name="Trazado 15091" d="M508.523,3830.916c-1.483-.228-2.974-.429-4.224.289a1.126,1.126,0,0,0-.508,1.363c.435,1.057,1.631,1.133,2.821,1.562a3.165,3.165,0,0,0,3.395-.631C510.787,3832.559,510.105,3831.159,508.523,3830.916Z" fill="#5a2210"/>
      <path id="Trazado_15092" data-name="Trazado 15092" d="M533.425,3817.373l.352.06c-2.258-.394-4.443,1.757-2.424,2.949a4.726,4.726,0,0,0,1.392.559,2.829,2.829,0,0,0,3.156-1.269C536.3,3818.64,535.118,3817.226,533.425,3817.373Z" fill="#5a2210"/>
      <path id="Trazado_15093" data-name="Trazado 15093" d="M556.182,3820.194a1.8,1.8,0,0,0-.884.486.274.274,0,0,0,0,.374.461.461,0,0,0,.084.087,1.342,1.342,0,0,0,1.946.449C558.111,3821.035,557.324,3819.874,556.182,3820.194Z" fill="#5a2210"/>
      <path id="Trazado_15094" data-name="Trazado 15094" d="M557.2,3832.952c-.631.006-1.254.063-1.881.083-2.835.082-3.316,2.813-.658,3.441a12.549,12.549,0,0,0,2.539.311C560.681,3836.87,560.69,3832.915,557.2,3832.952Z" fill="#5a2210"/>
      <path id="Trazado_15095" data-name="Trazado 15095" d="M505.666,3819.247c-.368-.053-.725-.116-1.09-.186a3.281,3.281,0,0,0-2.432.454,1.464,1.464,0,0,0-.729,1.146c0,.036,0,.071,0,.106a1.747,1.747,0,0,0,1.237,1.528c.334.12.664.233,1,.339a3.36,3.36,0,0,0,3.578-.665C508.044,3820.986,507.339,3819.492,505.666,3819.247Z" fill="#5a2210"/>
      <path id="Trazado_15096" data-name="Trazado 15096" d="M515.6,3818a2.09,2.09,0,0,1-.525-.106c-.793-.257-1.76.285-1.256.888a3.449,3.449,0,0,0,.881.758C516.429,3820.609,517.976,3818.189,515.6,3818Z" fill="#5a2210"/>
      <path id="Trazado_15097" data-name="Trazado 15097" d="M435.942,3838.586c-2.1-1.136-4.84-.4-7.147-.023-2.324.374-3.663,2.238-3.056,3.812a4.555,4.555,0,0,0,3.837,2.3c2.127.379,4.5.851,6.366-.16,1.41-.761,2.4-1.637,2.4-2.964S437.352,3839.349,435.942,3838.586Z" fill="#5a2210"/>
      <path id="Trazado_15098" data-name="Trazado 15098" d="M447.446,3839.051c-1.664-.345-3.947.453-4.359,1.632-.359,1.028,1.4,1.868,2.578,2.1,1.444.283,3.51-.53,3.663-1.641A2.091,2.091,0,0,0,447.446,3839.051Z" fill="#5a2210"/>
      <path id="Trazado_15099" data-name="Trazado 15099" d="M464.2,3841.425c-.117.015-.235.029-.35.045-2.163.276-1.241,2.6.9,2.326l.357-.045C467.267,3843.476,466.345,3841.152,464.2,3841.425Z" fill="#5a2210"/>
      <path id="Trazado_15100" data-name="Trazado 15100" d="M437.512,3833.469l-.364.044a1.553,1.553,0,0,0-1.2.853.707.707,0,0,0-.033.579,1.588,1.588,0,0,0,1.236.923l.364.043C440.4,3836.266,440.4,3833.114,437.512,3833.469Z" fill="#5a2210"/>
      <path id="Trazado_15101" data-name="Trazado 15101" d="M417.537,3836.992c-1.4-.121-4.463.468-4.879,1.968a2.284,2.284,0,0,0,.49,2.277c1.2,1.465,4.465,2.147,6.5,1.237a3,3,0,0,0,2.038-2.544C421.586,3838.182,418.994,3837.119,417.537,3836.992Z" fill="#5a2210"/>
      <path id="Trazado_15102" data-name="Trazado 15102" d="M834.053,3841.175a18.94,18.94,0,0,0-4.151,1.14c-1.011.447-1.993,1.362-1.837,2.266a2.107,2.107,0,0,0,.489,1.3c1.062,1.067,2.276,1.266,4,1.32.161.016.235.023.31.034.4.052.795.123,1.186.192,2.881.511,5.8-.981,5.8-3.128S836.934,3840.644,834.053,3841.175Z" fill="#5a2210"/>
      <path id="Trazado_15103" data-name="Trazado 15103" d="M823.6,3836.411c-.364-.936-1.724-1.168-2.859-.822a.372.372,0,0,0-.213-.009c-2.349.163-2.373,2.456,0,2.6a7.513,7.513,0,0,0,1.714-.072C823.273,3837.937,823.865,3837.111,823.6,3836.411Z" fill="#5a2210"/>
      <path id="Trazado_15104" data-name="Trazado 15104" d="M849.563,3834.042c-1.371.24-2.785.515-3.519,1.456-.8,1.022-.255,2.081,1.011,2.729a7.523,7.523,0,0,0,3.374.351c1.78.025,3.265-1.07,3.265-2.309C853.694,3834.738,851.615,3833.685,849.563,3834.042Z" fill="#5a2210"/>
      <path id="Trazado_15105" data-name="Trazado 15105" d="M864,3824.657a5.8,5.8,0,0,1-1.077.421c-.947.283-.463,1.151.25,1.357a7,7,0,0,0,1.2.256c.992.109,1.988-.287,1.988-1.072S864.987,3824.136,864,3824.657Z" fill="#5a2210"/>
      <path id="Trazado_15106" data-name="Trazado 15106" d="M860.511,3821.869a4.642,4.642,0,0,0-1.266-.116c-1.354,0-1.354,1.484,0,1.484a4.642,4.642,0,0,0,1.266-.116C861.379,3822.893,861.379,3822.1,860.511,3821.869Z" fill="#5a2210"/>
      <path id="Trazado_15107" data-name="Trazado 15107" d="M790.337,3838.566l-1.535.306c-1.505.3-1.505,1.847,0,2.147l1.535.306c1.266.252,2.556-.454,2.556-1.38S791.6,3838.315,790.337,3838.566Z" fill="#5a2210"/>
      <path id="Trazado_15108" data-name="Trazado 15108" d="M811.554,3835.059l-.359-.138c-.78-.3-1.775.071-1.775.722s.995,1.017,1.775.721c.118-.046.237-.091.359-.136A.6.6,0,0,0,811.554,3835.059Z" fill="#5a2210"/>
      <path id="Trazado_15109" data-name="Trazado 15109" d="M733.727,3842.083q-.838.2-1.682.4c-1.5.352-1.5,1.8,0,2.147q.843.2,1.682.4c1.342.314,2.723-.518,2.723-1.469S735.069,3841.768,733.727,3842.083Z" fill="#5a2210"/>
      <path id="Trazado_15110" data-name="Trazado 15110" d="M744.758,3843.824a4.25,4.25,0,0,0-2.285.318c-.338.168-.458.5-.134.728a10.917,10.917,0,0,0,1.626,1.029C745.964,3846.856,747.546,3843.976,744.758,3843.824Z" fill="#5a2210"/>
      <path id="Trazado_15111" data-name="Trazado 15111" d="M985.734,3822.507c-2.566-.26-7.6-.184-8.777,1.855-1.439,2.486,1.921,3.317,4.578,3.781,2.629.458,6.154.393,7.029-1.8C989.179,3824.81,988.246,3822.761,985.734,3822.507Z" fill="#5a2210"/>
      <path id="Trazado_15112" data-name="Trazado 15112" d="M948.176,3835.227c-1.645-.173-4.137.272-4.838,1.514-.776,1.373,2.606,2.424,4.065,2.377C950.458,3839.017,951.44,3835.57,948.176,3835.227Z" fill="#5a2210"/>
      <path id="Trazado_15113" data-name="Trazado 15113" d="M1076.263,3817.183a38.325,38.325,0,0,0-6.469,1.046c-2.314.434-2.539,3.134,0,3.465a24.644,24.644,0,0,0,7.375.23C1080.919,3821.292,1080.1,3817.1,1076.263,3817.183Z" fill="#5a2210"/>
      <path id="Trazado_15114" data-name="Trazado 15114" d="M1087.118,3823.271c-.058-.04-.114-.082-.173-.121a3.273,3.273,0,0,0-2.506-.471c-1.372.388-2.862.85-2.5,2.1.254.894,1.467,1.122,2.5,1.414a3.281,3.281,0,0,0,2.506-.469l.173-.123A1.346,1.346,0,0,0,1087.118,3823.271Z" fill="#5a2210"/>
      <path id="Trazado_15115" data-name="Trazado 15115" d="M964.675,3833.6l-.993.076c-3.227.243-3.227,3.309,0,3.553q.5.036.993.075C968.045,3837.562,968.045,3833.35,964.675,3833.6Z" fill="#5a2210"/>
      <path id="Trazado_15116" data-name="Trazado 15116" d="M1017.523,3814.783c-2.225,0-2.225,2.445,0,2.445S1019.752,3814.783,1017.523,3814.783Z" fill="#5a2210"/>
      <path id="Trazado_15117" data-name="Trazado 15117" d="M1087.949,3831.1c-.042-.023-.08-.046-.118-.07a2.438,2.438,0,0,0-2.579,0,6.576,6.576,0,0,1-.86.508c-.5.257-.506.705,0,.962a10.283,10.283,0,0,0,1.232.558,2.151,2.151,0,0,0,2.675-.772l.053-.1A.881.881,0,0,0,1087.949,3831.1Z" fill="#5a2210"/>
    </g>
    <g id="Grupo_3113" data-name="Grupo 3113">
      <path id="Trazado_15118" data-name="Trazado 15118" d="M501.683,3966.308c-2.916-1.421-32.4-7.2-32.16-5.909-20.714.549-6.557,15-1.567,20.188,4,4.156,8.564,9.406,14.365,12.44h19.912C516.507,3986.456,515.512,3973.047,501.683,3966.308Z" fill="#733615"/>
      <path id="Trazado_15119" data-name="Trazado 15119" d="M588.336,3975.025c-14.312-9.541-26.478-10.059-41.851-.531-7.446,4.612-17.924,11.329-18.7,18.533h65.1C597.608,3987.518,597.444,3981.1,588.336,3975.025Z" fill="#733615"/>
      <path id="Trazado_15120" data-name="Trazado 15120" d="M1081.362,3974.356c-12.939-1.764-32.284,6.365-28.075,17.169a9.553,9.553,0,0,0,.769,1.5h53.592a6.32,6.32,0,0,0,1.443-6.767C1106.491,3978.529,1090.792,3975.64,1081.362,3974.356Z" fill="#733615"/>
      <path id="Trazado_15121" data-name="Trazado 15121" d="M610.819,3963.36c14.342-3.061,17.491-12.512,15.441-22.073-1.974-9.214-13.932-22.138-29.323-17.651-13.364,3.9-18.252,17.418-16.583,26.615C582.4,3961.486,595.975,3966.529,610.819,3963.36Z" fill="#733615"/>
      <path id="Trazado_15122" data-name="Trazado 15122" d="M644.962,3965.608c14.177,0,14.266-15.847-.022-15.847C630.529,3949.761,630.93,3965.608,644.962,3965.608Z" fill="#733615"/>
      <path id="Trazado_15123" data-name="Trazado 15123" d="M511.359,3959.229c-4.57,11.735,17.629,17.45,28.287,9.657q-3.687,1.854.851-.536c3.915-2.782,3.887-6.024,2.869-9.5C539.732,3946.438,515.656,3948.226,511.359,3959.229Z" fill="#733615"/>
      <path id="Trazado_15124" data-name="Trazado 15124" d="M464.756,3993.027c-1.487-9.891-11.825-19.415-24.6-23.114-20.03-5.8-41.655,12.241-51.465,23.114Z" fill="#733615"/>
      <path id="Trazado_15125" data-name="Trazado 15125" d="M379.815,3985.916c-3.9-13.31-25.346-20.3-39.246-27.744-20.352-10.9-22.648,15.33-22.016,22.629a60.26,60.26,0,0,0,2.125,12.226H379.9A13.357,13.357,0,0,0,379.815,3985.916Z" fill="#733615"/>
      <path id="Trazado_15126" data-name="Trazado 15126" d="M379.527,3985.063c-.08.078-.147.162-.227.239-10.023,9.668-27.253,8.983-39.131,1.353-8.481-5.45-17.319-13.6-19.4-21.845a41.106,41.106,0,0,0-2.211,15.991,60.26,60.26,0,0,0,2.125,12.226H379.9a13.357,13.357,0,0,0-.088-7.111C379.731,3985.628,379.629,3985.345,379.527,3985.063Z" fill="#6a2b11"/>
      <path id="Trazado_15127" data-name="Trazado 15127" d="M669.7,3987.319c-3.468-11.651-24.594-19.938-40.579-16.719-11.645,2.345-26.15,12.71-27.493,22.427h68.451A12.356,12.356,0,0,0,669.7,3987.319Z" fill="#733615"/>
      <path id="Trazado_15128" data-name="Trazado 15128" d="M413.954,3950.163c8.386,12.242,43.58,8.511,34.215-6.493C439.9,3930.423,404.38,3936.174,413.954,3950.163Z" fill="#733615"/>
      <path id="Trazado_15129" data-name="Trazado 15129" d="M999.492,3963.076c3.87,8.2,20.428,5.937,29.47,5.672,8.53-.25,45.05.1,34.585-12.879-7.1-8.8-24.794-13.469-37.645-8.113C1016.377,3949.621,994.954,3953.468,999.492,3963.076Z" fill="#733615"/>
      <path id="Trazado_15130" data-name="Trazado 15130" d="M1031.6,3975.1c-6.074-1.179-12.456.087-18.434.813-8.459,1.028-16.264-1.036-23.984-3.19a161.265,161.265,0,0,0-52.868-5.042c-18.995,1.567-38.292,13.4-39.21,25.35H1045.57C1047.9,3985.579,1042.613,3977.234,1031.6,3975.1Z" fill="#733615"/>
      <path id="Trazado_15131" data-name="Trazado 15131" d="M920.029,3946.089c-1.829,13.944,43.1,23.4,37.782,6.22C954.844,3942.7,922.07,3930.546,920.029,3946.089Z" fill="#733615"/>
      <path id="Trazado_15132" data-name="Trazado 15132" d="M680.212,3986.128c11.309,2.391,23.125-4.89,23.367-12.792.276-8.979-9.517-17.908-19.6-22.708C666.523,3942.315,654.961,3980.791,680.212,3986.128Z" fill="#733615"/>
      <path id="Trazado_15133" data-name="Trazado 15133" d="M871.72,3970.34c19.121,11.582,60.105-3.638,39.265-20.909C892.449,3934.068,851.921,3958.353,871.72,3970.34Z" fill="#733615"/>
      <path id="Trazado_15134" data-name="Trazado 15134" d="M1086.2,3961.794c16.283,10.79,38.1-22.463,6.884-30.567-8.5-2.207-23.748,5.212-26.84,10.833S1077.8,3962,1086.2,3961.794Z" fill="#733615"/>
      <path id="Trazado_15135" data-name="Trazado 15135" d="M803.926,3988.74c-4.85-12.434-33.607-23.223-50.5-23.653-18.974-.483-43.086,15.455-51.128,26.933-.244.347-.434.675-.638,1.007H804.54A8.781,8.781,0,0,0,803.926,3988.74Z" fill="#733615"/>
      <path id="Trazado_15136" data-name="Trazado 15136" d="M751.034,3961.333c7.518.691,44.7,6.353,40.925-11.977-2.382-11.55-24-19.8-38-13.139C743.128,3941.372,729.345,3959.337,751.034,3961.333Z" fill="#733615"/>
      <path id="Trazado_15137" data-name="Trazado 15137" d="M794.441,3968.583c5.056,12.053,30.891,1.758,18.419-5.887C805.38,3958.324,788.644,3958.7,794.441,3968.583Z" fill="#733615"/>
      <path id="Trazado_15138" data-name="Trazado 15138" d="M886.452,3989.876c-13.979-21.489-55.925-21.582-68.449.58a17.827,17.827,0,0,0-1.216,2.571h70.769A6.041,6.041,0,0,0,886.452,3989.876Z" fill="#733615"/>
      <path id="Trazado_15139" data-name="Trazado 15139" d="M507.51,3970.207a10.7,10.7,0,0,1-.423,3.793c-1.144,3.909-7.039,7.686-12.562,8.252-13.292,1.359-22.052-3.65-27.127-11.979-1.749-2.867-3.925-5.668-5.352-8.616-8.895,3.717,1.726,14.582,5.91,18.93,4,4.156,8.564,9.406,14.365,12.44h19.912C514.114,3987.558,515.382,3977.362,507.51,3970.207Z" fill="#6a2b11"/>
      <path id="Trazado_15140" data-name="Trazado 15140" d="M534.267,3983.118c-3.464,3.069-6.108,6.431-6.486,9.909h16.292C539.289,3990.689,535.7,3987.274,534.267,3983.118Z" fill="#6a2b11"/>
      <path id="Trazado_15141" data-name="Trazado 15141" d="M591.139,3977.15a31.971,31.971,0,0,1-15.559,15.877h17.3C597.059,3988.156,597.4,3982.574,591.139,3977.15Z" fill="#6a2b11"/>
      <path id="Trazado_15142" data-name="Trazado 15142" d="M1107.023,3983.057c-5.288,6.027-14.673,9.028-24.646,8.208-9.762-.8-22.106-3.122-25.3-10.519-3.576,2.94-5.394,6.665-3.791,10.779a9.553,9.553,0,0,0,.769,1.5h53.592a6.32,6.32,0,0,0,1.443-6.767A8.557,8.557,0,0,0,1107.023,3983.057Z" fill="#6a2b11"/>
      <path id="Trazado_15143" data-name="Trazado 15143" d="M626.26,3941.287a22.012,22.012,0,0,0-3.74-7.972c.888,5.5-.02,11.245-5.76,15.36-8.364,6-21.35,6.021-29.663.075a20.164,20.164,0,0,1-6.438-7.425,22.728,22.728,0,0,0-.3,8.926c2.041,11.235,15.621,16.278,30.465,13.109C625.161,3960.3,628.31,3950.848,626.26,3941.287Z" fill="#6a2b11"/>
      <path id="Trazado_15144" data-name="Trazado 15144" d="M654.744,3957.157c-3.076,4.888-12.6,4.615-17.436,1.585a7.848,7.848,0,0,1-2.773-2.913c-1.239,4.473,2.3,9.779,10.427,9.779,8.1,0,11.59-5.167,10.443-9.6C655.2,3956.391,654.984,3956.774,654.744,3957.157Z" fill="#6a2b11"/>
      <path id="Trazado_15145" data-name="Trazado 15145" d="M543.366,3958.847a10.093,10.093,0,0,0-1.125-2.495c-2.21,3.846-7.014,6.7-12.455,8.2-6.345,1.757-14.454.1-18.912-3.556-1.8,10.516,18.666,15.276,28.772,7.886q-3.687,1.854.851-.536C544.412,3965.568,544.384,3962.326,543.366,3958.847Z" fill="#6a2b11"/>
      <path id="Trazado_15146" data-name="Trazado 15146" d="M410.812,3983.563a11.548,11.548,0,0,1-.47-8.182,91.806,91.806,0,0,0-21.649,17.646h32.924C416.682,3990.606,412.642,3987.076,410.812,3983.563Z" fill="#6a2b11"/>
      <path id="Trazado_15147" data-name="Trazado 15147" d="M608.029,3982.106c-3.456,3.414-5.891,7.214-6.4,10.921h21.18C616.5,3990.653,610.648,3986.566,608.029,3982.106Z" fill="#6a2b11"/>
      <path id="Trazado_15148" data-name="Trazado 15148" d="M669.7,3987.319a17.733,17.733,0,0,0-5.835-8.209c-.726,4.573-5.3,9.009-12.727,9.126l-.157.086c-1.093.746-2.161,1.517-3.329,2.2a44.432,44.432,0,0,1-4.89,2.505h27.317A12.356,12.356,0,0,0,669.7,3987.319Z" fill="#6a2b11"/>
      <path id="Trazado_15149" data-name="Trazado 15149" d="M447.9,3943.3a13.675,13.675,0,0,1-5.911,4.06,32.649,32.649,0,0,1-18.146.958c-4.491-1.012-8.332-2.624-10.985-5.1-.908,1.977-.7,4.316,1.1,6.947,8.386,12.242,43.58,8.511,34.215-6.493C448.085,3943.54,447.987,3943.424,447.9,3943.3Z" fill="#6a2b11"/>
      <path id="Trazado_15150" data-name="Trazado 15150" d="M1063.547,3955.869a24.961,24.961,0,0,0-8.133-6.276c.16,5.263-4.916,10.66-11.823,12.787-9.53,2.936-19.888,3.942-29.76,1.1-4.8-1.381-8.785-3.07-11.467-6.331a5.393,5.393,0,0,1-.809-1.4c-2.4,1.971-3.454,4.373-2.063,7.318,1.572,3.336,5.259,4.925,9.672,5.636.607,0,1.216,0,1.824,0a46.314,46.314,0,0,1,6.8.5c4.066-.056,8.064-.377,11.173-.468C1037.492,3968.5,1074.012,3968.847,1063.547,3955.869Z" fill="#6a2b11"/>
      <path id="Trazado_15151" data-name="Trazado 15151" d="M1031.6,3975.1c-.5-.1-1.006-.155-1.511-.22.939.811,1.87,1.7,2.817,2.689,2.116,2.2.974,4.969-1.246,6.819-9.507,7.929-23.466,8.619-37.568,8.251-13.843-.361-27.614-1.681-41.459-1.887-9.968-.147-21.758.454-30.356-3.746-6.595-3.222-9.8-7.685-9.414-12.27-8.867,4.845-15.241,11.552-15.759,18.3H1045.57C1047.9,3985.579,1042.613,3977.234,1031.6,3975.1Z" fill="#6a2b11"/>
      <path id="Trazado_15152" data-name="Trazado 15152" d="M931.119,3949.212c-3.4-2.455-6.618-5.373-7.62-8.811a7.582,7.582,0,0,0-3.47,5.688c-1.718,13.1,37.8,22.233,38.212,9.058C948.743,3956.521,937.773,3954.012,931.119,3949.212Z" fill="#6a2b11"/>
      <path id="Trazado_15153" data-name="Trazado 15153" d="M686.969,3978.219c-12.9-.848-19.748-9.131-20.184-17.536-3.174,9.672-.4,22.523,13.427,25.445,11.309,2.391,23.125-4.89,23.367-12.792a12.281,12.281,0,0,0-.215-2.561C700.392,3975.437,694.889,3978.74,686.969,3978.219Z" fill="#6a2b11"/>
      <path id="Trazado_15154" data-name="Trazado 15154" d="M912.5,3950.806a13.816,13.816,0,0,1-4.113,8.06,30.4,30.4,0,0,1-21.707,8.521c-8.952-.247-16.295-4.084-18.6-9.9-2.8,4.449-2.363,9.214,3.643,12.849C890.331,3981.613,929.632,3967.493,912.5,3950.806Z" fill="#6a2b11"/>
      <path id="Trazado_15155" data-name="Trazado 15155" d="M1106.746,3939.719a19.244,19.244,0,0,1-3.641,9.789,11.689,11.689,0,0,1-7.238,4.211,16.151,16.151,0,0,1-10.731,1.54c-8.94-1.767-12.951-9.386-14.6-15.591-.23-.5-.429-1-.6-1.5a13.933,13.933,0,0,0-3.683,3.892c-3.093,5.62,11.555,19.936,19.956,19.734C1098.828,3970.159,1114.762,3952.056,1106.746,3939.719Z" fill="#6a2b11"/>
      <path id="Trazado_15156" data-name="Trazado 15156" d="M714.342,3980.263a56.54,56.54,0,0,0-12.04,11.757c-.244.347-.434.675-.638,1.007h33.512A51.086,51.086,0,0,1,714.342,3980.263Z" fill="#6a2b11"/>
      <path id="Trazado_15157" data-name="Trazado 15157" d="M803.926,3988.74c-1.262-3.234-4.152-6.355-8.019-9.214a8.513,8.513,0,0,1-3.278,4.136c-.5.347-1.018.676-1.545,1-3.47,3.575-8.887,6.4-14.9,8.368H804.54A8.781,8.781,0,0,0,803.926,3988.74Z" fill="#6a2b11"/>
      <path id="Trazado_15158" data-name="Trazado 15158" d="M751.034,3961.333c1.089.1,2.815.3,4.94.526,1.4.117,2.779.248,4.118.385,13.226,1.092,34.144,1.2,31.949-12.317a36.076,36.076,0,0,1-6.794,2.452c-11.371,2.956-27.883,2.16-38.108-2.512a22.684,22.684,0,0,1-5.106-3.19C737.782,3953.166,738,3960.133,751.034,3961.333Z" fill="#6a2b11"/>
      <path id="Trazado_15159" data-name="Trazado 15159" d="M808.647,3970.1c-3.428-.958-7.346-1.917-9.826-3.963a13.067,13.067,0,0,1-3.664-4.571c-2.041,1.345-2.708,3.618-.716,7.015,3.358,8.006,15.873,6.149,20.252,1.76A13.741,13.741,0,0,1,808.647,3970.1Z" fill="#6a2b11"/>
      <path id="Trazado_15160" data-name="Trazado 15160" d="M852.712,3993.027h34.844a6.041,6.041,0,0,0-1.1-3.151,33.1,33.1,0,0,0-13.99-11.691C871.778,3985.753,862.824,3991.517,852.712,3993.027Z" fill="#6a2b11"/>
      <path id="Trazado_15161" data-name="Trazado 15161" d="M839.211,3992.315c-6.014-1.7-12.3-5.112-14.814-9.478a28.014,28.014,0,0,0-6.394,7.619,17.827,17.827,0,0,0-1.216,2.571h25.722A28.7,28.7,0,0,1,839.211,3992.315Z" fill="#6a2b11"/>
    </g>
  </g>
</svg>
