<svg xmlns="http://www.w3.org/2000/svg" xmlns:xlink="http://www.w3.org/1999/xlink" width="152.443" height="152.443" viewBox="0 0 152.443 152.443">
  <defs>
    <radialGradient id="radial-gradient" cx="0.5" cy="0.5" r="0.5" gradientUnits="objectBoundingBox">
      <stop offset="0" stop-color="#d0e3b2"/>
      <stop offset="0.445" stop-color="#cee1b0"/>
      <stop offset="0.605" stop-color="#c7dca9"/>
      <stop offset="0.719" stop-color="#bdd39d"/>
      <stop offset="0.811" stop-color="#adc68c"/>
      <stop offset="0.89" stop-color="#99b576"/>
      <stop offset="0.959" stop-color="#80a15c"/>
      <stop offset="1" stop-color="#6e9248"/>
    </radialGradient>
    <clipPath id="clip-path">
      <circle id="Elipse_147" data-name="Elipse 147" cx="65.13" cy="65.13" r="65.13" transform="translate(857.047 6849.539)" fill="none"/>
    </clipPath>
  </defs>
  <g id="Grupo_3826" data-name="Grupo 3826" transform="translate(-845.956 -6838.448)">
    <path id="Trazado_15165" data-name="Trazado 15165" d="M922.177,6838.448q3.744,0,7.471.367t7.4,1.1q3.673.73,7.256,1.818t7.043,2.52q3.459,1.433,6.762,3.2t6.415,3.845q3.114,2.081,6.009,4.456t5.542,5.023q2.648,2.649,5.023,5.543t4.456,6.008q2.081,3.112,3.846,6.416t3.2,6.762q1.433,3.459,2.519,7.042t1.818,7.256q.73,3.672,1.1,7.4t.367,7.471q0,3.746-.367,7.471t-1.1,7.4q-.73,3.673-1.818,7.256t-2.519,7.043q-1.434,3.459-3.2,6.762t-3.846,6.415q-2.08,3.114-4.456,6.009t-5.023,5.542q-2.647,2.648-5.542,5.023t-6.009,4.456q-3.113,2.081-6.415,3.846t-6.762,3.2q-3.461,1.433-7.043,2.52t-7.256,1.817q-3.672.731-7.4,1.1t-7.471.367q-3.744,0-7.471-.367t-7.4-1.1q-3.672-.73-7.256-1.817t-7.043-2.52q-3.459-1.434-6.762-3.2t-6.415-3.846q-3.114-2.08-6.008-4.456t-5.543-5.023q-2.648-2.648-5.023-5.542t-4.456-6.009q-2.081-3.113-3.845-6.415t-3.2-6.762q-1.434-3.458-2.52-7.043t-1.818-7.256q-.73-3.672-1.1-7.4t-.367-7.471q0-3.744.367-7.471t1.1-7.4q.73-3.672,1.818-7.256t2.52-7.042q1.433-3.461,3.2-6.762t3.845-6.416q2.08-3.114,4.456-6.008t5.023-5.543q2.647-2.648,5.543-5.023t6.008-4.456q3.113-2.081,6.415-3.845t6.762-3.2q3.461-1.434,7.043-2.52t7.256-1.818q3.672-.731,7.4-1.1T922.177,6838.448Z" fill="#004222"/>
    <circle id="Elipse_145" data-name="Elipse 145" cx="71.597" cy="71.597" r="71.597" transform="translate(850.581 6843.073)" fill="#fff"/>
    <circle id="Elipse_146" data-name="Elipse 146" cx="65.13" cy="65.13" r="65.13" transform="translate(857.047 6849.539)" fill="url(#radial-gradient)"/>
    <g id="Grupo_3153" data-name="Grupo 3153">
      <g id="Grupo_3152" data-name="Grupo 3152" clip-path="url(#clip-path)">
        <g id="Grupo_3151" data-name="Grupo 3151">
          <g id="Grupo_3132" data-name="Grupo 3132">
            <g id="Grupo_3127" data-name="Grupo 3127">
              <g id="Grupo_3126" data-name="Grupo 3126">
                <path id="Trazado_15166" data-name="Trazado 15166" d="M897.448,6955.781h51.079c.2-2.684,0-9.976-7.844-10.687,0,0-.938-4.271-5.755-2.493,0,0-1.767-4.959-6.585-3.119a8.592,8.592,0,0,0-7.667-2.924,8.8,8.8,0,0,0-6.864,4.61s-2.611-1.887-6.5.2a6.946,6.946,0,0,0-3.595,4.445,2.869,2.869,0,0,0-2.152,1.335,3.466,3.466,0,0,0-.493,2.249C899.488,6950.207,897.711,6951.967,897.448,6955.781Z" fill="#6b4632"/>
                <g id="Grupo_3125" data-name="Grupo 3125">
                  <path id="Trazado_15167" data-name="Trazado 15167" d="M939.585,6939.838s-.539-.575-1.3-1.279.2-3.281-1.543-5.93a9.06,9.06,0,0,0-4.547-3.27s-.686,3.828.412,6.359c1.46,3.364,4.046,2.616,5.211,3.515a3.027,3.027,0,0,1,1.269,2.343Z" fill="#8ac41c"/>
                  <path id="Trazado_15168" data-name="Trazado 15168" d="M936.567,6935.468s-2.443-1.04-3.351-5.033a9.645,9.645,0,0,1,2.869,2.385A3.412,3.412,0,0,1,936.567,6935.468Z" fill="#a8e338"/>
                  <path id="Trazado_15169" data-name="Trazado 15169" d="M936.995,6937.426a13.647,13.647,0,0,1-2.164-2.53c-.039-.6-.052-1.129-.051-1.557,0-.9.062-1.411.044-1.4a9.655,9.655,0,0,0-.32,1.384c-.041.263-.075.568-.1.9a18.579,18.579,0,0,1-.983-1.858,17.336,17.336,0,0,1-.822-2.1,11.4,11.4,0,0,0,.571,2.215,14.347,14.347,0,0,0,1.147,2.479,12.94,12.94,0,0,0,.849,1.269,9.067,9.067,0,0,1-1.433-.527,3.866,3.866,0,0,1-.987-.622,2.845,2.845,0,0,0,.85.862,6.783,6.783,0,0,0,2.136.978,11.528,11.528,0,0,0,.891.907c.37.332.658.372.743.266S937.35,6937.745,936.995,6937.426Z" fill="#74ae05"/>
                  <path id="Trazado_15170" data-name="Trazado 15170" d="M939.975,6942.736c-.284-4.269-.6-6.439-.6-6.439s-.221,1.844-.449,6.138.1,8.365-.4,9.252h2.127C940.083,6950.7,940.258,6947.006,939.975,6942.736Z" fill="#74ae05"/>
                  <path id="Trazado_15171" data-name="Trazado 15171" d="M939.021,6940.679a8.138,8.138,0,0,0,1.493-2.688c.456-1.388-.186-2.609.788-5.789s5.38-5.842,5.38-5.842a12.873,12.873,0,0,1-.13,7.8c-1.183,2.906-3.765,3.227-5.118,4.411-1.449,1.268-1.471,3.988-1.471,3.988Z" fill="#74ae05"/>
                  <path id="Trazado_15172" data-name="Trazado 15172" d="M939.37,6930.528c-2.064,3.217-1.046,4.844-.643,5.7a6.337,6.337,0,0,1,.4,2.906,33.957,33.957,0,0,0,1.046-3.517A8.528,8.528,0,0,0,939.37,6930.528Z" fill="#8ac41c"/>
                  <path id="Trazado_15173" data-name="Trazado 15173" d="M939.15,6950.454s-.118-4.751.1-8.391a21.632,21.632,0,0,1,.484,4.91C939.712,6949.886,939.15,6950.454,939.15,6950.454Z" fill="#8ac41c"/>
                  <path id="Trazado_15174" data-name="Trazado 15174" d="M941.885,6934.626a5.254,5.254,0,0,1,1.044-4.35,15.068,15.068,0,0,1,2.827-2.567,22.477,22.477,0,0,1-1.751,4.879A4.941,4.941,0,0,1,941.885,6934.626Z" fill="#8ac41c"/>
                  <path id="Trazado_15175" data-name="Trazado 15175" d="M939.338,6931.57a3.779,3.779,0,0,0-.434,4.148S940.53,6934.365,939.338,6931.57Z" fill="#a8e338"/>
                  <path id="Trazado_15176" data-name="Trazado 15176" d="M945.588,6932.548a6.514,6.514,0,0,1-.762.536,18.932,18.932,0,0,0,.929-2.736,16.559,16.559,0,0,0,.487-2.639,26.25,26.25,0,0,1-.758,2.578,23.457,23.457,0,0,1-1.227,2.932,15.386,15.386,0,0,1-.927,1.593,11.347,11.347,0,0,0-.481-1.984,6.863,6.863,0,0,0-.7-1.515,11.37,11.37,0,0,1,.434,1.6,16.877,16.877,0,0,1,.32,2.5,9.415,9.415,0,0,1-1.082,1.211c-.405.373-.56.639-.48.757s.409.06.857-.353a9.621,9.621,0,0,0,1.5-1.816,13.226,13.226,0,0,0,.806-1.431,5.6,5.6,0,0,0,1.278-1.039,3.334,3.334,0,0,0,.768-1.234A4.458,4.458,0,0,1,945.588,6932.548Z" fill="#a8e338"/>
                </g>
                <path id="Trazado_15177" data-name="Trazado 15177" d="M946.272,6955.781a4.225,4.225,0,0,0-4.429-4.056s.162-3.522-2.821-4.857a6.078,6.078,0,0,0-5.5.08,5.238,5.238,0,0,0-4.7-2.689,6.806,6.806,0,0,0-5.38,2.449c-5.139-1.807-6.3,2.873-6.3,2.873-4.617-.738-7.358,1.645-8.537,3.854a8.575,8.575,0,0,0-.814,2.346Z" fill="#522d1a"/>
              </g>
            </g>
            <g id="Grupo_3131" data-name="Grupo 3131">
              <path id="Trazado_15178" data-name="Trazado 15178" d="M946.625,6970.7l-.539,2.751-5.617,28.691h-34.5l-5.622-28.691-.539-2.751Z" fill="#bd3100"/>
              <g id="Grupo_3128" data-name="Grupo 3128">
                <path id="Trazado_15179" data-name="Trazado 15179" d="M907.655,6970.705l4.675,31.441h8.542l2.749-31.441Z" fill="#d64d1d"/>
              </g>
              <path id="Trazado_15180" data-name="Trazado 15180" d="M946.625,6970.7l-.539,2.751H900.345l-.539-2.751Z" fill="#932300"/>
              <g id="Grupo_3129" data-name="Grupo 3129">
                <path id="Trazado_15181" data-name="Trazado 15181" d="M953.23,6952.979l-.92,4.7-2.553,13.026H896.674l-2.553-13.026-.92-4.7Z" fill="#db4815"/>
              </g>
              <g id="Grupo_3130" data-name="Grupo 3130">
                <path id="Trazado_15182" data-name="Trazado 15182" d="M927.435,6952.979H903.193l2.574,17.726h20.058Z" fill="#f36332"/>
              </g>
              <path id="Trazado_15183" data-name="Trazado 15183" d="M953.23,6952.979l-.92,4.7H894.121l-.92-4.7Z" fill="#932300"/>
              <path id="Trazado_15184" data-name="Trazado 15184" d="M955.691,6952.98a2.1,2.1,0,0,1-2.1,2.1H892.847a2.1,2.1,0,0,1-2.1-2.1h0a2.1,2.1,0,0,1,2.1-2.1h60.739a2.1,2.1,0,0,1,2.1,2.1Z" fill="#bd3100"/>
              <path id="Trazado_15185" data-name="Trazado 15185" d="M928.547,6952.98a.881.881,0,0,1-.881.881H902.193a.881.881,0,0,1-.882-.881h0a.882.882,0,0,1,.882-.883h25.473a.882.882,0,0,1,.881.883Z" fill="#d64d1d"/>
            </g>
          </g>
          <g id="Grupo_3150" data-name="Grupo 3150">
            <g id="Grupo_3142" data-name="Grupo 3142">
              <path id="Trazado_15186" data-name="Trazado 15186" d="M946.389,6861.529l-8.922-1.993-.049-.012-12.725-2.842s-5.159,1.192-10.525,2.481c-2.873.7-5.806,1.418-8.037,2-7,1.822-16.227,4.114-19.185,11.521l-38.173-.137v29.233l38.8-.247s3.662,7.211,15.219,8.4c1.638.172,3.386.342,5.146.52h.025c7.645.764,15.462,1.491,15.462,1.491l19.039-2.9,1.142-.178h.013v0l-6.37-8.283,1.671-29.977a11.467,11.467,0,0,0,1.8.091,3.265,3.265,0,0,0,.33-.018c.153-.006.3-.018.446-.037a8.313,8.313,0,0,0,.838-.135,6.989,6.989,0,0,0,1.473-.476.046.046,0,0,1,.03-.012c.208-.1.415-.209.6-.318.105-.061.2-.123.3-.183q.283-.194.549-.4t.514-.459c.1-.1.2-.207.3-.317s.183-.2.268-.306l.006,0a9,9,0,0,0,1.339-2.323,12.166,12.166,0,0,0,.838-3.686Z" fill="#ffb27d"/>
              <path id="Trazado_15187" data-name="Trazado 15187" d="M942.46,6909.042l1.142-.178a.023.023,0,0,1,.013,0c2.237-.1,3.245-1.632,3.619-4.028.384-2.481-.832-4.113-2.165-4.241-.079-.007-.177-.019-.275-.032s-.2-.018-.306-.03l-3.1-.3c-.153-.012-.293-.031-.416-.043l-.494-.049c.189-.006.977-.037,2.052-.08,2.2-.079,5.593-.2,7.525-.25h.013c3.006-.086,4-2.494,4.149-5.054s-1.406-4.707-3.008-4.884l-.036-.006-3.337-.165s4.016-.563,6.381-.966c2.292-.391,3.289-2.456,3.289-4.993,0-3.936-2.433-4.957-3.687-4.993h-4.833s2.7-.74,4.406-1.205h.006c2.187-.592,3-2.689,2.616-5.408-.312-2.219-1.376-3.9-2.982-4.359a3.127,3.127,0,0,0-1.18-.127l-.171,0-2.1.147-3.209.227-.006,0c-.085.1-.183.2-.268.306s-.2.213-.3.317a5.745,5.745,0,0,1-.514.459q-.266.21-.549.4c-.1.06-.2.122-.3.183-.189.109-.4.214-.6.318a.046.046,0,0,0-.03.012,7.843,7.843,0,0,1-1.473.476,8.313,8.313,0,0,1-.838.135c-.146.019-.293.031-.446.037a3.265,3.265,0,0,1-.33.018,11.467,11.467,0,0,1-1.8-.091c-.453-.062-.893-.116-1.315-.177a10.782,10.782,0,0,0-.654,2.818,8.137,8.137,0,0,0,.543,4.051,7.885,7.885,0,0,0-2.938,5.152,9.033,9.033,0,0,0,.9,5.728,7.612,7.612,0,0,0-3.391,5.622,9.235,9.235,0,0,0,1.008,5.4,6.773,6.773,0,0,0-1.76,4.449,5.949,5.949,0,0,0,2.768,5.232l-10.653,3.068Z" fill="#f4824a"/>
              <path id="Trazado_15188" data-name="Trazado 15188" d="M944.911,6868.213l-3.588-.849c-4.382-.971-4.761-3.484-4.144-6.393.042-.189.165-.831.288-1.436l8.922,1.993Z" fill="#f4824a"/>
              <path id="Trazado_15189" data-name="Trazado 15189" d="M945.21,6866.857l-3.63-.819c-4.108-.905-4.993-2.726-4.377-5.635.031-.159.117-.507.215-.88l8.971,2Z" fill="#ffd1b1"/>
              <g id="Grupo_3133" data-name="Grupo 3133">
                <path id="Trazado_15190" data-name="Trazado 15190" d="M927.217,6897.6s-3.293-6.4,1.6-10.038c0,0-3.406-5.669.768-9.855,0,0-2.291-3.439-1.487-6.924,0,0,6.109.455,10.222.621v-.888c-5.119-.674-8.348-1.314-10.449-1.6l-14.712,6.1a31.072,31.072,0,0,1-9.827,16.3,29.123,29.123,0,0,1,10.506,10.047l10.366,1.426A8.75,8.75,0,0,1,927.217,6897.6Z" fill="#f4824a"/>
              </g>
              <path id="Trazado_15191" data-name="Trazado 15191" d="M906.131,6861.16c-7,1.822-16.227,4.113-19.185,11.521l-38.173-.136v3.209l40.754.787c1.63-11.623,15.981-15.271,24.22-17.233C913.917,6859.266,908.362,6860.58,906.131,6861.16Z" fill="#f4824a"/>
              <path id="Trazado_15192" data-name="Trazado 15192" d="M889.91,6892.841l-41.137,1.656v7.28l38.8-.247s3.662,7.211,15.219,8.4c1.638.171,3.386.342,5.146.519C897.855,6908.882,890.888,6901.83,889.91,6892.841Z" fill="#f4824a"/>
              <g id="Grupo_3135" data-name="Grupo 3135">
                <g id="Grupo_3134" data-name="Grupo 3134">
                  <path id="Trazado_15193" data-name="Trazado 15193" d="M939.2,6870.629a10.414,10.414,0,0,0,1.895.043,7.769,7.769,0,0,0,3.006-.789,7,7,0,0,0,2.268-1.863l5.312-.374.171,0a3.127,3.127,0,0,1,1.18.127c1.606.458,2.67,2.14,2.982,4.359.385,2.719-.429,4.816-2.616,5.408h-.006l-9.284.654C939.056,6878.55,937.227,6873.7,939.2,6870.629Z" fill="#ffb27d"/>
                  <path id="Trazado_15194" data-name="Trazado 15194" d="M941.525,6876.8l3.636-.255a2.882,2.882,0,1,0-.4-5.75l-3.636.256Z" fill="#f4824a"/>
                  <path id="Trazado_15195" data-name="Trazado 15195" d="M941.457,6875.848l-.335-4.8-.025-.379a7.769,7.769,0,0,0,3.006-.789l.587-.042a2.881,2.881,0,0,1,3.075,2.677,3.134,3.134,0,0,1-.006.476,2.884,2.884,0,0,1-2.665,2.6Z" fill="#ffd1b1"/>
                </g>
              </g>
              <g id="Grupo_3137" data-name="Grupo 3137">
                <g id="Grupo_3136" data-name="Grupo 3136">
                  <path id="Trazado_15196" data-name="Trazado 15196" d="M954.219,6888.726H941.275a5.007,5.007,0,1,1,0-9.986h12.546c1.254.036,3.687,1.057,3.687,4.993C957.508,6886.27,956.511,6888.335,954.219,6888.726Z" fill="#ffb27d"/>
                  <path id="Trazado_15197" data-name="Trazado 15197" d="M938.8,6887.155h3.646a2.882,2.882,0,0,0,0-5.764H938.8Z" fill="#f4824a"/>
                  <path id="Trazado_15198" data-name="Trazado 15198" d="M938.8,6886.2h3.646a2.882,2.882,0,0,0,0-5.764H938.8Z" fill="#ffd1b1"/>
                </g>
              </g>
              <g id="Grupo_3139" data-name="Grupo 3139">
                <g id="Grupo_3138" data-name="Grupo 3138">
                  <path id="Trazado_15199" data-name="Trazado 15199" d="M950.07,6899.8h-.013l-11.515-.574a5.007,5.007,0,1,1,.494-9.975l8.8.44,3.337.165.036.006c1.6.177,3.154,2.329,3.008,4.884S953.076,6899.715,950.07,6899.8Z" fill="#ffb27d"/>
                  <path id="Trazado_15200" data-name="Trazado 15200" d="M936.143,6897.533l3.641.182a2.882,2.882,0,1,0,.287-5.757l-3.641-.18Z" fill="#f4824a"/>
                  <path id="Trazado_15201" data-name="Trazado 15201" d="M936.191,6896.58l3.641.183a2.882,2.882,0,0,0,.288-5.757l-3.641-.182Z" fill="#ffd1b1"/>
                </g>
              </g>
              <g id="Grupo_3141" data-name="Grupo 3141">
                <g id="Grupo_3140" data-name="Grupo 3140">
                  <path id="Trazado_15202" data-name="Trazado 15202" d="M943.37,6908.871l-6.631-.655a4.219,4.219,0,1,1,.831-8.373l2.91.288.494.049.416.043,1.626.159,1.472.146.306.03c.1.013.2.025.275.032,1.333.128,2.549,1.76,2.165,4.241S945.778,6908.864,943.37,6908.871Z" fill="#ffb27d"/>
                  <path id="Trazado_15203" data-name="Trazado 15203" d="M934.792,6906.7l3.056.3a2.428,2.428,0,1,0,.477-4.833l-3.056-.3Z" fill="#f4824a"/>
                  <path id="Trazado_15204" data-name="Trazado 15204" d="M934.87,6905.9l3.057.3a2.428,2.428,0,1,0,.477-4.833l-3.056-.3Z" fill="#ffd1b1"/>
                </g>
              </g>
            </g>
            <g id="Grupo_3149" data-name="Grupo 3149">
              <g id="Grupo_3143" data-name="Grupo 3143">
                <path id="Trazado_15205" data-name="Trazado 15205" d="M925.04,6932.224a3.372,3.372,0,0,1-1.823-1.258c-1.556-2.124-.751-6.056.779-8.195,1.719-2.408,4.317-4.149,4.745-3.963.358.154.617.571.849,1.244l0,.006a38.043,38.043,0,0,1,.906,3.869C931.138,6926.986,928.8,6933.33,925.04,6932.224Z" fill="#dcd3b2"/>
                <path id="Trazado_15206" data-name="Trazado 15206" d="M925.04,6932.224a3.372,3.372,0,0,1-1.823-1.258c5.681.288,6.875-8.937,6.375-10.908a38.043,38.043,0,0,1,.906,3.869C931.138,6926.986,928.8,6933.33,925.04,6932.224Z" fill="#c4b794"/>
                <path id="Trazado_15207" data-name="Trazado 15207" d="M928.194,6919.974c-.527-.34-3.287,2.115-4.336,4.21s-.511,3.269.506,3.584c1.514.469,2.593-.644,3.274-2.392C928.412,6923.393,928.607,6920.241,928.194,6919.974Z" fill="#f1ede0"/>
              </g>
              <g id="Grupo_3144" data-name="Grupo 3144">
                <path id="Trazado_15208" data-name="Trazado 15208" d="M917.634,6911.578a3.378,3.378,0,0,1-1.157-1.888c-.564-2.572,1.763-5.842,4.026-7.18,2.547-1.506,5.627-2.048,5.943-1.7a1.92,1.92,0,0,1,.272,1.481v.006a38.087,38.087,0,0,1-.735,3.906C925.33,6909.254,920.63,6914.111,917.634,6911.578Z" fill="#dcd3b2"/>
                <path id="Trazado_15209" data-name="Trazado 15209" d="M917.634,6911.578a3.378,3.378,0,0,1-1.157-1.888c5.079,2.562,9.9-5.392,10.241-7.4a38.087,38.087,0,0,1-.735,3.906C925.33,6909.254,920.63,6914.111,917.634,6911.578Z" fill="#c4b794"/>
                <path id="Trazado_15210" data-name="Trazado 15210" d="M925.474,6901.651c-.344-.524-3.861.6-5.668,2.1s-1.79,2.783-.987,3.483c1.2,1.04,2.632.46,3.962-.864C924.29,6904.866,925.743,6902.062,925.474,6901.651Z" fill="#f1ede0"/>
              </g>
              <g id="Grupo_3145" data-name="Grupo 3145">
                <path id="Trazado_15211" data-name="Trazado 15211" d="M926.032,6888.773a3.375,3.375,0,0,1-2.1-.707c-2.079-1.611-2.39-5.613-1.511-8.091.99-2.788,3.007-5.179,3.47-5.118.386.049.751.379,1.159.962l0,.005a38.05,38.05,0,0,1,1.938,3.47C930.449,6882.056,929.955,6888.8,926.032,6888.773Z" fill="#dcd3b2"/>
                <path id="Trazado_15212" data-name="Trazado 15212" d="M926.032,6888.773a3.375,3.375,0,0,1-2.1-.707c5.542-1.289,4.145-10.485,3.121-12.242a38.05,38.05,0,0,1,1.938,3.47C930.449,6882.056,929.955,6888.8,926.032,6888.773Z" fill="#c4b794"/>
                <path id="Trazado_15213" data-name="Trazado 15213" d="M925.686,6876.128c-.6-.181-2.576,2.94-3.007,5.244s.411,3.283,1.475,3.3c1.585.032,2.315-1.335,2.488-3.2C926.839,6879.355,926.157,6876.271,925.686,6876.128Z" fill="#f1ede0"/>
              </g>
              <g id="Grupo_3146" data-name="Grupo 3146">
                <path id="Trazado_15214" data-name="Trazado 15214" d="M930.219,6888.483a3.378,3.378,0,0,0-2.024-.9c-2.622-.221-5.559,2.514-6.589,4.934-1.159,2.722-1.292,5.847-.91,6.115a1.925,1.925,0,0,0,1.5.075l.006,0a37.835,37.835,0,0,0,3.775-1.24C928.924,6896.416,933.124,6891.12,930.219,6888.483Z" fill="#dcd3b2"/>
                <path id="Trazado_15215" data-name="Trazado 15215" d="M930.219,6888.483a3.378,3.378,0,0,0-2.024-.9c3.207,4.7-4.046,10.524-5.989,11.122a37.835,37.835,0,0,0,3.775-1.24C928.924,6896.416,933.124,6891.12,930.219,6888.483Z" fill="#c4b794"/>
                <path id="Trazado_15216" data-name="Trazado 15216" d="M921.406,6897.556c-.565-.271.094-3.907,1.335-5.894s2.524-2.14,3.323-1.435c1.188,1.049.8,2.549-.336,4.041C924.438,6895.961,921.85,6897.771,921.406,6897.556Z" fill="#f1ede0"/>
              </g>
              <g id="Grupo_3147" data-name="Grupo 3147">
                <path id="Trazado_15217" data-name="Trazado 15217" d="M920.51,6899.489a3.38,3.38,0,0,0,.688-2.107c-.05-2.631-3.075-5.27-5.586-6.045-2.828-.872-5.949-.682-6.177-.274a1.922,1.922,0,0,0,.079,1.5l0,.006a38.034,38.034,0,0,0,1.624,3.627C912.485,6899.018,918.188,6902.65,920.51,6899.489Z" fill="#dcd3b2"/>
                <path id="Trazado_15218" data-name="Trazado 15218" d="M920.51,6899.489a3.38,3.38,0,0,0,.688-2.107c-4.344,3.675-10.885-2.939-11.681-4.81a38.034,38.034,0,0,0,1.624,3.627C912.485,6899.018,918.188,6902.65,920.51,6899.489Z" fill="#c4b794"/>
                <path id="Trazado_15219" data-name="Trazado 15219" d="M910.577,6891.657c.212-.589,3.9-.309,6,.72s2.387,2.292,1.769,3.158c-.919,1.291-2.453,1.06-4.053.083C912.476,6894.509,910.41,6892.122,910.577,6891.657Z" fill="#f1ede0"/>
              </g>
              <g id="Grupo_3148" data-name="Grupo 3148">
                <path id="Trazado_15220" data-name="Trazado 15220" d="M920.3,6882.963a3.371,3.371,0,0,0-.652-2.118c-1.558-2.121-5.549-2.533-8.049-1.718-2.814.917-5.254,2.873-5.205,3.336.038.386.36.761.931,1.182l.005,0a38.317,38.317,0,0,0,3.419,2.027C913.472,6887.205,920.224,6886.885,920.3,6882.963Z" fill="#dcd3b2"/>
                <path id="Trazado_15221" data-name="Trazado 15221" d="M920.3,6882.963a3.371,3.371,0,0,0-.652-2.118c-1.431,5.507-10.587,3.874-12.318,2.8a38.317,38.317,0,0,0,3.419,2.027C913.472,6887.205,920.224,6886.885,920.3,6882.963Z" fill="#c4b794"/>
                <path id="Trazado_15222" data-name="Trazado 15222" d="M907.669,6882.291c-.167-.6,3-2.5,5.318-2.871s3.271.5,3.266,1.56c-.008,1.584-1.393,2.279-3.264,2.4C910.865,6883.526,907.8,6882.766,907.669,6882.291Z" fill="#f1ede0"/>
              </g>
            </g>
          </g>
        </g>
      </g>
    </g>
  </g>
</svg>
