<svg xmlns="http://www.w3.org/2000/svg" width="139.678" height="162.143" viewBox="0 0 139.678 162.143">
  <g id="Grupo_2973" data-name="Grupo 2973" transform="translate(-937.747 -2748.154)">
    <path id="Trazado_13419" data-name="Trazado 13419" d="M937.747,2812.951c0-22.269,15.634-42.43,40.911-57.023l98.767,57.023-98.767,57.024C953.381,2855.381,937.747,2835.22,937.747,2812.951Z" fill="#009540" fill-rule="evenodd"/>
    <path id="Trazado_13420" data-name="Trazado 13420" d="M937.747,2812.951a47.552,47.552,0,0,1,.647-7.8l44.213,25.526h.019a12.506,12.506,0,0,0,12.831,0l3.719-2.107,9.812,5.666-8.595,4.962a22.2,22.2,0,0,1-22.7,0l0-.009-39.836-23Q937.75,2814.58,937.747,2812.951Z" fill="#b1b1b1" fill-rule="evenodd"/>
    <g id="Grupo_2942" data-name="Grupo 2942">
      <path id="Trazado_13421" data-name="Trazado 13421" d="M1008.28,2766.909a3.6,3.6,0,0,0-.766.578h-.631v21.071a2.371,2.371,0,0,0,1.4,1.948,7.46,7.46,0,0,0,6.749,0,2.374,2.374,0,0,0,1.4-1.948v-21.071h-.633a3.658,3.658,0,0,0-.767-.577,7.456,7.456,0,0,0-6.749,0Z" fill="#bbb1a9" fill-rule="evenodd"/>
      <path id="Trazado_13422" data-name="Trazado 13422" d="M1008.28,2766.909a3.6,3.6,0,0,0-.766.578h-.631v5.012a2.372,2.372,0,0,0,1.4,1.948,6.9,6.9,0,0,0,3.376.806V2766.1A6.909,6.909,0,0,0,1008.28,2766.909Z" fill="#cdc3bb" fill-rule="evenodd"/>
      <path id="Trazado_13423" data-name="Trazado 13423" d="M1008.28,2771.894a7.468,7.468,0,0,0,6.749,0,2.376,2.376,0,0,0,1.4-1.948v.281a2.374,2.374,0,0,1-1.4,1.948,7.46,7.46,0,0,1-6.749,0,2.371,2.371,0,0,1-1.4-1.948v-.281a2.373,2.373,0,0,0,1.4,1.948Zm3.376-.315a6.9,6.9,0,0,1-3.376-.806,2.372,2.372,0,0,1-1.4-1.948v.913a2.371,2.371,0,0,0,1.4,1.948,7.46,7.46,0,0,0,6.749,0,2.374,2.374,0,0,0,1.4-1.948v-.913a2.374,2.374,0,0,1-1.4,1.948A6.9,6.9,0,0,1,1011.656,2771.579Z" fill="#ccc2ba" fill-rule="evenodd"/>
      <path id="Trazado_13424" data-name="Trazado 13424" d="M1012.389,2791.28v-25.145c-.243-.022-.488-.033-.733-.033a6.909,6.909,0,0,0-3.376.807,3.6,3.6,0,0,0-.766.578h-.631v21.071a2.371,2.371,0,0,0,1.4,1.948,6.9,6.9,0,0,0,3.376.807C1011.9,2791.313,1012.146,2791.3,1012.389,2791.28Z" fill="#cdc3bb" fill-rule="evenodd"/>
      <path id="Trazado_13425" data-name="Trazado 13425" d="M1012.389,2772.949v-.281c-.243.021-.488.032-.733.032a6.9,6.9,0,0,1-3.376-.806,2.373,2.373,0,0,1-1.4-1.948v.281a2.371,2.371,0,0,0,1.4,1.948,6.9,6.9,0,0,0,3.376.807c.245,0,.49-.011.733-.033Zm0-.489c-.243.022-.488.033-.733.033a6.9,6.9,0,0,1-3.376-.807,2.371,2.371,0,0,1-1.4-1.948v-.913a2.372,2.372,0,0,0,1.4,1.948,6.9,6.9,0,0,0,3.376.806c.245,0,.49-.011.733-.032Z" fill="#e3dad2" fill-rule="evenodd"/>
      <path id="Trazado_13426" data-name="Trazado 13426" d="M1008.28,2765.538a2.057,2.057,0,0,0,0,3.9,7.46,7.46,0,0,0,6.749,0,2.056,2.056,0,0,0,0-3.9,7.45,7.45,0,0,0-6.749,0Z" fill="#f5ece3" fill-rule="evenodd"/>
      <path id="Trazado_13427" data-name="Trazado 13427" d="M1009.141,2765.264a1.532,1.532,0,0,0,0,2.9,5.558,5.558,0,0,0,5.028,0,1.531,1.531,0,0,0,0-2.9,5.552,5.552,0,0,0-5.028,0Z" fill="#e3dad2" fill-rule="evenodd"/>
      <path id="Trazado_13428" data-name="Trazado 13428" d="M1011.114,2766.4a.331.331,0,0,0,0,.626,1.2,1.2,0,0,0,1.083,0,.33.33,0,0,0,0-.626,1.2,1.2,0,0,0-1.083,0Z" fill="#90847e" fill-rule="evenodd"/>
      <path id="Trazado_13429" data-name="Trazado 13429" d="M1011.656,2791.174a6.9,6.9,0,0,0,3.373-.807,2.374,2.374,0,0,0,1.4-1.948v.139a2.374,2.374,0,0,1-1.4,1.948,7.46,7.46,0,0,1-6.749,0,2.371,2.371,0,0,1-1.4-1.948v-.139a2.37,2.37,0,0,0,1.4,1.948A6.9,6.9,0,0,0,1011.656,2791.174Z" fill="#bbb1a9" fill-rule="evenodd"/>
      <path id="Trazado_13430" data-name="Trazado 13430" d="M1012.389,2770.209l-.142-1.47.142-.016a4.736,4.736,0,0,0,1.78-.557,1.956,1.956,0,0,0,1.008-1.167,1.245,1.245,0,0,0,.034-.283,1.768,1.768,0,0,0-1.042-1.452,4.1,4.1,0,0,0-.826-.356,5.9,5.9,0,0,1,1.686.63,2.056,2.056,0,0,1,0,3.9A6.5,6.5,0,0,1,1012.389,2770.209Z" fill="#dacfc7" fill-rule="evenodd"/>
      <path id="Trazado_13431" data-name="Trazado 13431" d="M1008.28,2775.423a7.46,7.46,0,0,0,6.749,0,2.374,2.374,0,0,0,1.4-1.948v.281a2.377,2.377,0,0,1-1.4,1.949,7.468,7.468,0,0,1-6.749,0,2.373,2.373,0,0,1-1.4-1.949v-.281a2.372,2.372,0,0,0,1.4,1.948Zm3.376-.314a6.9,6.9,0,0,1-3.376-.807,2.371,2.371,0,0,1-1.4-1.948v.913a2.371,2.371,0,0,0,1.4,1.948,7.46,7.46,0,0,0,6.749,0,2.374,2.374,0,0,0,1.4-1.948v-.913a2.374,2.374,0,0,1-1.4,1.948A6.9,6.9,0,0,1,1011.656,2775.109Z" fill="#ccc2ba" fill-rule="evenodd"/>
      <path id="Trazado_13432" data-name="Trazado 13432" d="M1008.28,2778.952a7.458,7.458,0,0,0,6.749,0,2.374,2.374,0,0,0,1.4-1.948v.282a2.373,2.373,0,0,1-1.4,1.947,7.458,7.458,0,0,1-6.749,0,2.37,2.37,0,0,1-1.4-1.947V2777a2.37,2.37,0,0,0,1.4,1.948Zm3.376-.314a6.891,6.891,0,0,1-3.376-.807,2.371,2.371,0,0,1-1.4-1.948v.914a2.372,2.372,0,0,0,1.4,1.948,7.468,7.468,0,0,0,6.749,0,2.374,2.374,0,0,0,1.4-1.948v-.914a2.374,2.374,0,0,1-1.4,1.948A6.892,6.892,0,0,1,1011.656,2778.638Z" fill="#ccc2ba" fill-rule="evenodd"/>
      <path id="Trazado_13433" data-name="Trazado 13433" d="M1008.28,2782.481a7.458,7.458,0,0,0,6.749,0,2.374,2.374,0,0,0,1.4-1.947v.281a2.374,2.374,0,0,1-1.4,1.948,7.466,7.466,0,0,1-6.749,0,2.372,2.372,0,0,1-1.4-1.948v-.281a2.37,2.37,0,0,0,1.4,1.947Zm3.376-.314a6.893,6.893,0,0,1-3.376-.807,2.371,2.371,0,0,1-1.4-1.947v.913a2.372,2.372,0,0,0,1.4,1.948,7.458,7.458,0,0,0,6.749,0,2.374,2.374,0,0,0,1.4-1.948v-.913a2.373,2.373,0,0,1-1.4,1.947A6.892,6.892,0,0,1,1011.656,2782.167Z" fill="#ccc2ba" fill-rule="evenodd"/>
      <path id="Trazado_13434" data-name="Trazado 13434" d="M1008.28,2786.011a7.468,7.468,0,0,0,6.749,0,2.377,2.377,0,0,0,1.4-1.948v.281a2.374,2.374,0,0,1-1.4,1.948,7.468,7.468,0,0,1-6.749,0,2.371,2.371,0,0,1-1.4-1.948v-.281a2.373,2.373,0,0,0,1.4,1.948Zm3.376-.315a6.9,6.9,0,0,1-3.376-.806,2.372,2.372,0,0,1-1.4-1.948v.913a2.37,2.37,0,0,0,1.4,1.948,7.468,7.468,0,0,0,6.749,0,2.374,2.374,0,0,0,1.4-1.948v-.913a2.374,2.374,0,0,1-1.4,1.948A6.9,6.9,0,0,1,1011.656,2785.7Z" fill="#ccc2ba" fill-rule="evenodd"/>
      <path id="Trazado_13435" data-name="Trazado 13435" d="M1012.389,2776.478v-.282c-.243.022-.488.034-.733.034a6.9,6.9,0,0,1-3.376-.807,2.372,2.372,0,0,1-1.4-1.948v.281a2.373,2.373,0,0,0,1.4,1.949,6.914,6.914,0,0,0,3.376.806c.245,0,.49-.011.733-.033Zm0-.488c-.243.021-.488.032-.733.032a6.893,6.893,0,0,1-3.376-.807,2.371,2.371,0,0,1-1.4-1.948v-.913a2.371,2.371,0,0,0,1.4,1.948,6.9,6.9,0,0,0,3.376.807c.245,0,.49-.012.733-.033Z" fill="#e3dad2" fill-rule="evenodd"/>
      <path id="Trazado_13436" data-name="Trazado 13436" d="M1012.389,2780.007v-.281c-.243.021-.488.033-.733.033a6.9,6.9,0,0,1-3.376-.807,2.37,2.37,0,0,1-1.4-1.948v.282a2.37,2.37,0,0,0,1.4,1.947,6.891,6.891,0,0,0,3.376.807c.245,0,.49-.011.733-.033Zm0-.488c-.243.021-.488.032-.733.032a6.9,6.9,0,0,1-3.376-.806,2.372,2.372,0,0,1-1.4-1.948v-.914a2.371,2.371,0,0,0,1.4,1.948,6.891,6.891,0,0,0,3.376.807c.245,0,.49-.011.733-.033Z" fill="#e3dad2" fill-rule="evenodd"/>
      <path id="Trazado_13437" data-name="Trazado 13437" d="M1012.389,2783.537v-.282c-.243.022-.488.033-.733.033a6.9,6.9,0,0,1-3.376-.807,2.37,2.37,0,0,1-1.4-1.947v.281a2.372,2.372,0,0,0,1.4,1.948,6.9,6.9,0,0,0,3.376.806c.245,0,.49-.01.733-.032Zm0-.489c-.243.022-.488.033-.733.033a6.9,6.9,0,0,1-3.376-.807,2.372,2.372,0,0,1-1.4-1.948v-.913a2.371,2.371,0,0,0,1.4,1.947,6.893,6.893,0,0,0,3.376.807c.245,0,.49-.011.733-.033Z" fill="#e3dad2" fill-rule="evenodd"/>
      <path id="Trazado_13438" data-name="Trazado 13438" d="M1012.389,2787.066v-.282c-.243.022-.488.033-.733.033a6.9,6.9,0,0,1-3.376-.806,2.373,2.373,0,0,1-1.4-1.948v.281a2.371,2.371,0,0,0,1.4,1.948,6.9,6.9,0,0,0,3.376.806c.245,0,.49-.01.733-.032Zm0-.489c-.243.022-.488.032-.733.032a6.887,6.887,0,0,1-3.376-.806,2.37,2.37,0,0,1-1.4-1.948v-.913a2.372,2.372,0,0,0,1.4,1.948,6.9,6.9,0,0,0,3.376.806c.245,0,.49-.01.733-.032Z" fill="#e3dad2" fill-rule="evenodd"/>
      <path id="Trazado_13439" data-name="Trazado 13439" d="M1011.506,2766.714a.15.15,0,1,0,.3,0v-.869a.447.447,0,0,0-.225-.389.455.455,0,0,0-.225-.062.449.449,0,0,0-.225.062h0l-2.883,1.665a1.649,1.649,0,0,0-.609.6h0a1.651,1.651,0,0,0-.217.829v21.508a.9.9,0,0,1-.117.452l0,.007a.906.906,0,0,1-.329.321h0l-1.408.812a.151.151,0,0,0-.054.205.149.149,0,0,0,.2.054l1.408-.812h0a1.2,1.2,0,0,0,.438-.428l.005-.009a1.193,1.193,0,0,0,.158-.6v-21.508a1.346,1.346,0,0,1,.176-.679h0a1.351,1.351,0,0,1,.5-.492l2.884-1.665h0a.142.142,0,0,1,.075-.02.152.152,0,0,1,.131.074.155.155,0,0,1,.019.076Z" fill="#7a6e64" fill-rule="evenodd"/>
    </g>
    <g id="Grupo_2943" data-name="Grupo 2943">
      <path id="Trazado_13440" data-name="Trazado 13440" d="M1016.332,2771.559a3.61,3.61,0,0,0-.765.578h-.631v21.071a2.37,2.37,0,0,0,1.4,1.947,7.462,7.462,0,0,0,6.75,0,2.373,2.373,0,0,0,1.4-1.947v-21.071h-.633a3.634,3.634,0,0,0-.767-.578,7.452,7.452,0,0,0-6.75,0Z" fill="#bbb1a9" fill-rule="evenodd"/>
      <path id="Trazado_13441" data-name="Trazado 13441" d="M1016.332,2771.559a3.61,3.61,0,0,0-.765.578h-.631v5.011a2.371,2.371,0,0,0,1.4,1.948,6.9,6.9,0,0,0,3.377.807v-9.152A6.914,6.914,0,0,0,1016.332,2771.559Z" fill="#cdc3bb" fill-rule="evenodd"/>
      <path id="Trazado_13442" data-name="Trazado 13442" d="M1016.332,2776.543a7.46,7.46,0,0,0,6.75,0,2.374,2.374,0,0,0,1.4-1.948v.282a2.377,2.377,0,0,1-1.4,1.948,7.468,7.468,0,0,1-6.75,0,2.374,2.374,0,0,1-1.4-1.948v-.282a2.371,2.371,0,0,0,1.4,1.948Zm3.376-.314a6.91,6.91,0,0,1-3.376-.807,2.372,2.372,0,0,1-1.4-1.948v.914a2.371,2.371,0,0,0,1.4,1.947,7.46,7.46,0,0,0,6.75,0,2.373,2.373,0,0,0,1.4-1.947v-.914a2.375,2.375,0,0,1-1.4,1.948A6.893,6.893,0,0,1,1019.708,2776.229Z" fill="#ccc2ba" fill-rule="evenodd"/>
      <path id="Trazado_13443" data-name="Trazado 13443" d="M1020.442,2795.93v-25.146c-.243-.021-.488-.033-.734-.033a6.91,6.91,0,0,0-3.376.808,3.61,3.61,0,0,0-.765.578h-.631v21.07a2.37,2.37,0,0,0,1.4,1.948,6.9,6.9,0,0,0,3.376.807Q1020.077,2795.962,1020.442,2795.93Z" fill="#cdc3bb" fill-rule="evenodd"/>
      <path id="Trazado_13444" data-name="Trazado 13444" d="M1020.442,2777.6v-.282c-.243.022-.488.032-.734.033a6.907,6.907,0,0,1-3.376-.807,2.371,2.371,0,0,1-1.4-1.948v.282a2.374,2.374,0,0,0,1.4,1.948,6.917,6.917,0,0,0,3.376.806q.369,0,.734-.032Zm0-.489q-.365.031-.734.032a6.9,6.9,0,0,1-3.376-.807,2.371,2.371,0,0,1-1.4-1.947v-.914a2.372,2.372,0,0,0,1.4,1.948,6.91,6.91,0,0,0,3.376.807q.369,0,.734-.033Z" fill="#e3dad2" fill-rule="evenodd"/>
      <path id="Trazado_13445" data-name="Trazado 13445" d="M1016.332,2770.187a2.058,2.058,0,0,0,0,3.9,7.468,7.468,0,0,0,6.75,0,2.056,2.056,0,0,0,0-3.9,7.456,7.456,0,0,0-6.75,0Z" fill="#f5ece3" fill-rule="evenodd"/>
      <path id="Trazado_13446" data-name="Trazado 13446" d="M1017.194,2769.913a1.533,1.533,0,0,0,0,2.9,5.558,5.558,0,0,0,5.028,0,1.532,1.532,0,0,0,0-2.9,5.558,5.558,0,0,0-5.028,0Z" fill="#e3dad2" fill-rule="evenodd"/>
      <path id="Trazado_13447" data-name="Trazado 13447" d="M1019.167,2771.051a.331.331,0,0,0,0,.626,1.2,1.2,0,0,0,1.083,0,.33.33,0,0,0,0-.625,1.1,1.1,0,0,0-.541-.13A1.114,1.114,0,0,0,1019.167,2771.051Z" fill="#90847e" fill-rule="evenodd"/>
      <path id="Trazado_13448" data-name="Trazado 13448" d="M1019.708,2795.823a6.893,6.893,0,0,0,3.374-.807,2.375,2.375,0,0,0,1.4-1.948v.139a2.373,2.373,0,0,1-1.4,1.948,7.462,7.462,0,0,1-6.75,0,2.37,2.37,0,0,1-1.4-1.948v-.139a2.372,2.372,0,0,0,1.4,1.948A6.9,6.9,0,0,0,1019.708,2795.823Z" fill="#bbb1a9" fill-rule="evenodd"/>
      <path id="Trazado_13449" data-name="Trazado 13449" d="M1020.442,2774.858l-.142-1.47c.047,0,.1-.01.142-.015a4.758,4.758,0,0,0,1.78-.557,1.959,1.959,0,0,0,1.008-1.168,1.229,1.229,0,0,0,.034-.283,1.769,1.769,0,0,0-1.042-1.452,4.18,4.18,0,0,0-.826-.356,5.922,5.922,0,0,1,1.686.631,2.056,2.056,0,0,1,0,3.9A6.5,6.5,0,0,1,1020.442,2774.858Z" fill="#dacfc7" fill-rule="evenodd"/>
      <path id="Trazado_13450" data-name="Trazado 13450" d="M1016.332,2780.072a7.462,7.462,0,0,0,6.75,0,2.374,2.374,0,0,0,1.4-1.948v.282a2.374,2.374,0,0,1-1.4,1.948,7.47,7.47,0,0,1-6.75,0,2.373,2.373,0,0,1-1.4-1.948v-.282a2.371,2.371,0,0,0,1.4,1.948Zm3.376-.314a6.9,6.9,0,0,1-3.376-.807,2.371,2.371,0,0,1-1.4-1.948v.914a2.374,2.374,0,0,0,1.4,1.948,7.47,7.47,0,0,0,6.75,0,2.375,2.375,0,0,0,1.4-1.948V2777a2.374,2.374,0,0,1-1.4,1.948A6.891,6.891,0,0,1,1019.708,2779.758Z" fill="#ccc2ba" fill-rule="evenodd"/>
      <path id="Trazado_13451" data-name="Trazado 13451" d="M1016.332,2783.6a7.462,7.462,0,0,0,6.75,0,2.373,2.373,0,0,0,1.4-1.947v.281a2.375,2.375,0,0,1-1.4,1.948,7.47,7.47,0,0,1-6.75,0,2.372,2.372,0,0,1-1.4-1.948v-.281a2.372,2.372,0,0,0,1.4,1.947Zm3.376-.314a6.907,6.907,0,0,1-3.376-.806,2.372,2.372,0,0,1-1.4-1.948v.913a2.372,2.372,0,0,0,1.4,1.948,7.462,7.462,0,0,0,6.75,0,2.375,2.375,0,0,0,1.4-1.948v-.913a2.374,2.374,0,0,1-1.4,1.948A6.9,6.9,0,0,1,1019.708,2783.287Z" fill="#ccc2ba" fill-rule="evenodd"/>
      <path id="Trazado_13452" data-name="Trazado 13452" d="M1016.332,2787.131a7.47,7.47,0,0,0,6.75,0,2.376,2.376,0,0,0,1.4-1.948v.281a2.375,2.375,0,0,1-1.4,1.948,7.462,7.462,0,0,1-6.75,0,2.372,2.372,0,0,1-1.4-1.948v-.281a2.373,2.373,0,0,0,1.4,1.948Zm3.376-.315a6.9,6.9,0,0,1-3.376-.806,2.373,2.373,0,0,1-1.4-1.948v.914a2.372,2.372,0,0,0,1.4,1.947,7.462,7.462,0,0,0,6.75,0,2.374,2.374,0,0,0,1.4-1.947v-.914a2.374,2.374,0,0,1-1.4,1.948A6.9,6.9,0,0,1,1019.708,2786.816Z" fill="#ccc2ba" fill-rule="evenodd"/>
      <path id="Trazado_13453" data-name="Trazado 13453" d="M1016.332,2790.66a7.468,7.468,0,0,0,6.75,0,2.374,2.374,0,0,0,1.4-1.948v.281a2.374,2.374,0,0,1-1.4,1.948,7.46,7.46,0,0,1-6.75,0,2.371,2.371,0,0,1-1.4-1.948v-.281a2.371,2.371,0,0,0,1.4,1.948Zm3.376-.314a6.91,6.91,0,0,1-3.376-.807,2.372,2.372,0,0,1-1.4-1.948v.914a2.371,2.371,0,0,0,1.4,1.947,7.46,7.46,0,0,0,6.75,0,2.373,2.373,0,0,0,1.4-1.947v-.914a2.375,2.375,0,0,1-1.4,1.948A6.893,6.893,0,0,1,1019.708,2790.346Z" fill="#ccc2ba" fill-rule="evenodd"/>
      <path id="Trazado_13454" data-name="Trazado 13454" d="M1020.442,2781.127v-.281q-.365.033-.734.033a6.907,6.907,0,0,1-3.376-.807,2.371,2.371,0,0,1-1.4-1.948v.282a2.373,2.373,0,0,0,1.4,1.948,6.907,6.907,0,0,0,3.376.806q.369,0,.734-.033Zm0-.488q-.365.031-.734.032a6.907,6.907,0,0,1-3.376-.806,2.374,2.374,0,0,1-1.4-1.948V2777a2.371,2.371,0,0,0,1.4,1.948,6.9,6.9,0,0,0,3.376.807q.369,0,.734-.033Z" fill="#e3dad2" fill-rule="evenodd"/>
      <path id="Trazado_13455" data-name="Trazado 13455" d="M1020.442,2784.657v-.282q-.365.033-.734.033a6.9,6.9,0,0,1-3.376-.807,2.372,2.372,0,0,1-1.4-1.947v.281a2.372,2.372,0,0,0,1.4,1.948,6.909,6.909,0,0,0,3.376.806q.369,0,.734-.032Zm0-.489q-.365.033-.734.033a6.91,6.91,0,0,1-3.376-.807,2.372,2.372,0,0,1-1.4-1.948v-.913a2.372,2.372,0,0,0,1.4,1.948,6.907,6.907,0,0,0,3.376.806c.246,0,.491-.011.734-.032Z" fill="#e3dad2" fill-rule="evenodd"/>
      <path id="Trazado_13456" data-name="Trazado 13456" d="M1020.442,2788.186v-.282q-.365.033-.734.033a6.909,6.909,0,0,1-3.376-.806,2.373,2.373,0,0,1-1.4-1.948v.281a2.372,2.372,0,0,0,1.4,1.948,6.91,6.91,0,0,0,3.376.807q.369,0,.734-.033Zm0-.489q-.365.033-.734.033a6.91,6.91,0,0,1-3.376-.807,2.372,2.372,0,0,1-1.4-1.947v-.914a2.373,2.373,0,0,0,1.4,1.948,6.9,6.9,0,0,0,3.376.806q.369,0,.734-.032Z" fill="#e3dad2" fill-rule="evenodd"/>
      <path id="Trazado_13457" data-name="Trazado 13457" d="M1020.442,2791.715v-.281c-.243.022-.488.032-.734.032a6.9,6.9,0,0,1-3.376-.806,2.371,2.371,0,0,1-1.4-1.948v.281a2.371,2.371,0,0,0,1.4,1.948,6.9,6.9,0,0,0,3.376.807q.369,0,.734-.033Zm0-.489q-.365.033-.734.033a6.9,6.9,0,0,1-3.376-.807,2.371,2.371,0,0,1-1.4-1.947v-.914a2.372,2.372,0,0,0,1.4,1.948,6.91,6.91,0,0,0,3.376.807q.369,0,.734-.033Z" fill="#e3dad2" fill-rule="evenodd"/>
    </g>
    <path id="Trazado_13458" data-name="Trazado 13458" d="M1019.559,2771.364a.15.15,0,0,0,.3,0v-.869a.455.455,0,0,0-.059-.225.466.466,0,0,0-.391-.227.44.44,0,0,0-.225.063h0l-2.883,1.665a1.626,1.626,0,0,0-.609.6h0a1.639,1.639,0,0,0-.217.828v21.178a.9.9,0,0,1-.117.452l0,.007a.889.889,0,0,1-.33.321l-4.162,2.4a.15.15,0,1,0,.15.259l4.162-2.4a1.2,1.2,0,0,0,.438-.428l.005-.009a1.2,1.2,0,0,0,.158-.6V2773.2a1.34,1.34,0,0,1,.176-.678h0a1.34,1.34,0,0,1,.5-.491l2.884-1.665h0a.154.154,0,0,1,.075-.02.148.148,0,0,1,.075.021.139.139,0,0,1,.056.054.153.153,0,0,1,.019.076Z" fill="#7a6e64" fill-rule="evenodd"/>
    <g id="Grupo_2945" data-name="Grupo 2945">
      <path id="Trazado_13459" data-name="Trazado 13459" d="M953.018,2812.341l10.409,6.009v-5.659l-10.409-6.009Z" fill="#ed7373" fill-rule="evenodd"/>
      <path id="Trazado_13460" data-name="Trazado 13460" d="M953.018,2812.341l-6.822,3.939v-5.659l6.822-3.939Z" fill="#e53131" fill-rule="evenodd"/>
      <path id="Trazado_13461" data-name="Trazado 13461" d="M953.018,2812.341l-6.822,3.939,10.409,6.01,6.823-3.939Z" fill="#c40e10" fill-rule="evenodd"/>
      <path id="Trazado_13462" data-name="Trazado 13462" d="M956.6,2822.29l6.823-3.939v-5.659l-6.823,3.939Z" fill="#e53131" fill-rule="evenodd"/>
      <g id="Grupo_2944" data-name="Grupo 2944">
        <path id="Trazado_13463" data-name="Trazado 13463" d="M949.944,2818.234a.592.592,0,0,0-.056.033.418.418,0,0,0-.055.032.459.459,0,0,0-.056.032.636.636,0,0,0-.056.032.447.447,0,0,0-.055.032.628.628,0,0,0-.056.032.636.636,0,0,0-.056.032.611.611,0,0,0-.055.032l-.056.032a.646.646,0,0,0-.056.033.443.443,0,0,0-.055.032.43.43,0,0,0-.056.032.392.392,0,0,0-.055.032.637.637,0,0,0-.056.032l-.056.032c-.019.01-.037.021-.055.032l-.056.032-.056.032a.5.5,0,0,0-.055.033.515.515,0,0,0-.056.032.6.6,0,0,0-.106.068,1.249,1.249,0,0,0-.37,1.006,3.232,3.232,0,0,0,.37,1.433,2.5,2.5,0,0,0,.892,1.021.785.785,0,0,0,.844.046.447.447,0,0,0,.055-.032.552.552,0,0,0,.056-.032c.019-.01.037-.02.056-.032s.037-.02.055-.032a.611.611,0,0,0,.055-.032l.056-.032c.019-.01.037-.02.056-.032s.037-.021.056-.033a.447.447,0,0,0,.055-.032.431.431,0,0,0,.056-.032.392.392,0,0,0,.055-.032.579.579,0,0,0,.056-.032l.056-.032c.019-.01.037-.021.055-.032l.056-.032.056-.032a.63.63,0,0,0,.055-.033.458.458,0,0,0,.056-.032.443.443,0,0,0,.055-.032.52.52,0,0,0,.056-.032.632.632,0,0,0,.106-.068,1.249,1.249,0,0,0,.37-1.006,3.232,3.232,0,0,0-.37-1.433,2.485,2.485,0,0,0-.893-1.022A.786.786,0,0,0,949.944,2818.234Z" fill="#575756" fill-rule="evenodd"/>
        <path id="Trazado_13464" data-name="Trazado 13464" d="M949.617,2818.955a.762.762,0,0,0-.892-.01,1.249,1.249,0,0,0-.37,1.006,3.232,3.232,0,0,0,.37,1.433,2.5,2.5,0,0,0,.892,1.021.765.765,0,0,0,.893.01,1.245,1.245,0,0,0,.37-1.006,3.22,3.22,0,0,0-.37-1.433A2.488,2.488,0,0,0,949.617,2818.955Z" fill="#3c3c3b" fill-rule="evenodd"/>
        <path id="Trazado_13465" data-name="Trazado 13465" d="M949.617,2819.785a.4.4,0,0,0-.463,0,.649.649,0,0,0-.192.522,1.678,1.678,0,0,0,.192.743,1.3,1.3,0,0,0,.463.529.4.4,0,0,0,.464.006.649.649,0,0,0,.191-.522,1.678,1.678,0,0,0-.191-.743A1.3,1.3,0,0,0,949.617,2819.785Z" fill="#ececec" fill-rule="evenodd"/>
        <path id="Trazado_13466" data-name="Trazado 13466" d="M949.617,2819.826a.377.377,0,0,0-.441,0,.619.619,0,0,0-.184.5,1.6,1.6,0,0,0,.184.709,1.226,1.226,0,0,0,.441.5.378.378,0,0,0,.442.006.614.614,0,0,0,.183-.5,1.581,1.581,0,0,0-.183-.709A1.233,1.233,0,0,0,949.617,2819.826Z" fill="#c6c6c5" fill-rule="evenodd"/>
        <path id="Trazado_13467" data-name="Trazado 13467" d="M949.671,2819.819a.261.261,0,0,0-.205.052.5.5,0,0,0-.148.4,1.29,1.29,0,0,0,.148.571,1,1,0,0,0,.355.406.3.3,0,0,0,.356,0,.315.315,0,0,0,.093-.12c0-.024,0-.049,0-.075a1.678,1.678,0,0,0-.191-.743A1.359,1.359,0,0,0,949.671,2819.819Z" fill="#9c9b9b" fill-rule="evenodd"/>
        <path id="Trazado_13468" data-name="Trazado 13468" d="M949.821,2820.077a.214.214,0,0,0-.25,0,.35.35,0,0,0-.1.282.912.912,0,0,0,.1.4.707.707,0,0,0,.25.287.219.219,0,0,0,.252,0,.352.352,0,0,0,.1-.283.91.91,0,0,0-.1-.4A.716.716,0,0,0,949.821,2820.077Z" fill="#6f6f6e" fill-rule="evenodd"/>
      </g>
      <path id="Trazado_13469" data-name="Trazado 13469" d="M946.2,2816.28l10.409,6.01v-5.659l-10.409-6.01Z" fill="#ed7373" fill-rule="evenodd"/>
      <path id="Trazado_13470" data-name="Trazado 13470" d="M955.332,2820.158l-7.864-4.54v-2.865l6.41,3.7a1.529,1.529,0,0,1,.739.97Z" fill="#9c9b9b" fill-rule="evenodd"/>
      <path id="Trazado_13471" data-name="Trazado 13471" d="M953.018,2808.148l-5.553,3.206,9.139,5.276,5.553-3.206Z" fill="#f9d474" fill-rule="evenodd"/>
      <path id="Trazado_13472" data-name="Trazado 13472" d="M946.3,2810.992v-.2l10.208,5.894v5.427l-.134-.077v-5.23Z" fill="#f6bdbd" fill-rule="evenodd"/>
      <path id="Trazado_13473" data-name="Trazado 13473" d="M948.081,2813.107v2.385l5.249,3.031,1.855,1.071.148.565-2.418-1.4-5.446-3.144v-2.864Z" fill="#b1b1b1" fill-rule="evenodd"/>
      <path id="Trazado_13474" data-name="Trazado 13474" d="M953.14,2807v-.1l10.165,5.868-.11.042Z" fill="#f6bdbd" fill-rule="evenodd"/>
      <path id="Trazado_13475" data-name="Trazado 13475" d="M957.5,2825.237l1.437-1.617-1.76-1.214v2.644Z" fill="#6f6f6e" fill-rule="evenodd"/>
      <path id="Trazado_13476" data-name="Trazado 13476" d="M959.106,2823.524a.628.628,0,0,0-.056.032c-.019.01-.037.021-.055.032s-.038.021-.056.032-.038.021-.056.032a.63.63,0,0,0-.055.033.392.392,0,0,0-.056.032.458.458,0,0,0-.056.032.447.447,0,0,0-.055.032.637.637,0,0,0-.056.032l-.056.032-.056.032c-.019.01-.037.021-.055.032a.63.63,0,0,0-.055.033.426.426,0,0,0-.056.032.527.527,0,0,0-.056.032c-.019.01-.037.02-.056.032a.612.612,0,0,0-.055.032.636.636,0,0,0-.056.032l-.056.032c-.019.01-.037.021-.055.032a.646.646,0,0,0-.107.069,1.249,1.249,0,0,0-.37,1.006,3.235,3.235,0,0,0,.37,1.433,2.5,2.5,0,0,0,.893,1.02.783.783,0,0,0,.843.047.636.636,0,0,0,.056-.032c.019-.01.037-.02.056-.032l.056-.032.055-.032a1.91,1.91,0,0,1,.111-.064.506.506,0,0,0,.055-.033.427.427,0,0,0,.056-.032.449.449,0,0,0,.056-.032l.056-.032c.019-.01.037-.021.055-.032a.646.646,0,0,0,.056-.033.438.438,0,0,0,.055-.032,137.394,137.394,0,0,0,.112-.064.443.443,0,0,0,.055-.032,137.394,137.394,0,0,1,.112-.064.619.619,0,0,0,.055-.032.506.506,0,0,0,.055-.032.681.681,0,0,0,.107-.068,1.25,1.25,0,0,0,.369-1.007,3.233,3.233,0,0,0-.369-1.433,2.489,2.489,0,0,0-.894-1.021A.782.782,0,0,0,959.106,2823.524Z" fill="#575756" fill-rule="evenodd"/>
      <path id="Trazado_13477" data-name="Trazado 13477" d="M958.779,2824.244a.765.765,0,0,0-.893-.009,1.249,1.249,0,0,0-.37,1.006,3.235,3.235,0,0,0,.37,1.433,2.5,2.5,0,0,0,.893,1.02.766.766,0,0,0,.894.011,1.249,1.249,0,0,0,.369-1.006,3.231,3.231,0,0,0-.369-1.433A2.5,2.5,0,0,0,958.779,2824.244Z" fill="#3c3c3b" fill-rule="evenodd"/>
      <path id="Trazado_13478" data-name="Trazado 13478" d="M958.779,2825.075a.394.394,0,0,0-.463,0,.649.649,0,0,0-.192.522,1.678,1.678,0,0,0,.192.743,1.3,1.3,0,0,0,.463.529.4.4,0,0,0,.464.006.649.649,0,0,0,.191-.522,1.684,1.684,0,0,0-.191-.744A1.293,1.293,0,0,0,958.779,2825.075Z" fill="#ececec" fill-rule="evenodd"/>
      <path id="Trazado_13479" data-name="Trazado 13479" d="M958.779,2825.116a.378.378,0,0,0-.442,0,.617.617,0,0,0-.183.5,1.594,1.594,0,0,0,.183.709,1.229,1.229,0,0,0,.442.5.378.378,0,0,0,.442.006.619.619,0,0,0,.183-.5,1.6,1.6,0,0,0-.183-.709A1.222,1.222,0,0,0,958.779,2825.116Z" fill="#c6c6c5" fill-rule="evenodd"/>
      <path id="Trazado_13480" data-name="Trazado 13480" d="M958.833,2825.109a.258.258,0,0,0-.205.052.494.494,0,0,0-.148.4,1.284,1.284,0,0,0,.148.571.991.991,0,0,0,.356.407.3.3,0,0,0,.355,0,.337.337,0,0,0,.093-.12c0-.025,0-.049,0-.075a1.684,1.684,0,0,0-.191-.744A1.367,1.367,0,0,0,958.833,2825.109Z" fill="#9c9b9b" fill-rule="evenodd"/>
      <path id="Trazado_13481" data-name="Trazado 13481" d="M958.984,2825.367a.217.217,0,0,0-.251,0,.352.352,0,0,0-.1.283.912.912,0,0,0,.1.4.7.7,0,0,0,.251.286.212.212,0,0,0,.25,0,.351.351,0,0,0,.1-.282.908.908,0,0,0-.1-.4A.7.7,0,0,0,958.984,2825.367Z" fill="#6f6f6e" fill-rule="evenodd"/>
      <path id="Trazado_13482" data-name="Trazado 13482" d="M967.317,2815.6l-5.675,3.276-4.464-2.577,5.675-3.276Z" fill="#d9d9d9" fill-rule="evenodd"/>
      <path id="Trazado_13483" data-name="Trazado 13483" d="M961.642,2827.627v-8.75l-4.464-2.577v8.75l.324.187v-1.511c0-.507.314-.744.7-.527l.846.479a3.362,3.362,0,0,1,1.426,2.69v.584Z" fill="#c6c6c5" fill-rule="evenodd"/>
      <path id="Trazado_13484" data-name="Trazado 13484" d="M967.317,2824.351l-5.675,3.276v-8.75l5.675-3.276Z" fill="#b1b1b1" fill-rule="evenodd"/>
      <path id="Trazado_13485" data-name="Trazado 13485" d="M967.317,2823.52l-5.675,3.276v-1.3l5.675-3.276Z" fill="#868686" fill-rule="evenodd"/>
      <path id="Trazado_13486" data-name="Trazado 13486" d="M967.317,2815.6l-5.675,3.276v6.018l5.675-3.276Z" fill="#6f6f6e" fill-rule="evenodd"/>
      <path id="Trazado_13487" data-name="Trazado 13487" d="M957.763,2817.125l3.879,2.24v5.531l-3.879-4.216Z" fill="#575756" fill-rule="evenodd"/>
      <path id="Trazado_13488" data-name="Trazado 13488" d="M967.317,2815.6l-5.675,3.276v.487l5.675-3.276Z" fill="#c6c6c5" fill-rule="evenodd"/>
    </g>
    <path id="Trazado_13489" data-name="Trazado 13489" d="M939.833,2826.905l8.669,4.994a12.506,12.506,0,0,0,12.831,0l3.718-2.107,9.812,5.665-8.595,4.963a22.616,22.616,0,0,1-11.351,3.121,22.082,22.082,0,0,1-7.748-1.417A56.719,56.719,0,0,1,939.833,2826.905Z" fill="#b1b1b1" fill-rule="evenodd"/>
    <path id="Trazado_13490" data-name="Trazado 13490" d="M970.208,2777.841l48.188,27.821-24.1,13.836-43.676-25.216a2.961,2.961,0,0,1,0-5.129Z" fill="#b1b1b1" fill-rule="evenodd"/>
    <path id="Trazado_13491" data-name="Trazado 13491" d="M970.149,2780.86l45.6,26.324-18.784,10.782-42.08-24.294a2.308,2.308,0,0,1,0-4Z" fill="#b1b1b1" fill-rule="evenodd"/>
    <g id="Grupo_2946" data-name="Grupo 2946">
      <path id="Trazado_13492" data-name="Trazado 13492" d="M970.459,2781.057l44.956,25.955-18.347,10.531-41.489-23.954a2.276,2.276,0,0,1,0-3.941Z" fill="#adadad" fill-rule="evenodd"/>
      <path id="Trazado_13493" data-name="Trazado 13493" d="M970.769,2781.254l44.317,25.586-17.909,10.279-40.9-23.612a2.243,2.243,0,0,1,0-3.885Z" fill="#ababaa" fill-rule="evenodd"/>
      <path id="Trazado_13494" data-name="Trazado 13494" d="M971.08,2781.451l43.677,25.217L997.286,2816.7l-40.308-23.271a2.211,2.211,0,0,1,0-3.829Z" fill="#a9a9a9" fill-rule="evenodd"/>
      <path id="Trazado_13495" data-name="Trazado 13495" d="M971.391,2781.648l43.036,24.847-17.033,9.777-39.717-22.931a2.178,2.178,0,0,1,0-3.773Z" fill="#a5a5a4" fill-rule="evenodd"/>
      <path id="Trazado_13496" data-name="Trazado 13496" d="M971.7,2781.845l42.4,24.478-16.6,9.525-39.127-22.59a2.145,2.145,0,0,1,0-3.716Z" fill="#a2a2a2" fill-rule="evenodd"/>
      <path id="Trazado_13497" data-name="Trazado 13497" d="M972.012,2782.042l41.757,24.108-16.158,9.274-38.536-22.249a2.113,2.113,0,0,1,0-3.66Z" fill="#9e9e9e" fill-rule="evenodd"/>
      <path id="Trazado_13498" data-name="Trazado 13498" d="M972.322,2782.239l41.117,23.739L997.72,2815l-37.946-21.908a2.08,2.08,0,0,1,0-3.6Z" fill="#9c9b9b" fill-rule="evenodd"/>
      <path id="Trazado_13499" data-name="Trazado 13499" d="M972.632,2782.436l40.478,23.37-15.281,8.771-37.356-21.567a2.049,2.049,0,0,1,0-3.549Z" fill="#9a9a99" fill-rule="evenodd"/>
      <path id="Trazado_13500" data-name="Trazado 13500" d="M972.943,2782.633l39.837,23-14.843,8.519-36.765-21.226a2.017,2.017,0,0,1,0-3.493Z" fill="#969695" fill-rule="evenodd"/>
      <path id="Trazado_13501" data-name="Trazado 13501" d="M973.253,2782.83l39.2,22.631-14.4,8.268-36.175-20.885a1.984,1.984,0,0,1,0-3.436Z" fill="#929191" fill-rule="evenodd"/>
      <path id="Trazado_13502" data-name="Trazado 13502" d="M973.564,2783.027l38.558,22.262-13.968,8.017-35.584-20.545a1.951,1.951,0,0,1,0-3.38Z" fill="#8f8f8e" fill-rule="evenodd"/>
      <path id="Trazado_13503" data-name="Trazado 13503" d="M973.874,2783.225l37.919,21.892-13.53,7.765-34.994-20.2a1.919,1.919,0,0,1,0-3.323Z" fill="#8d8d8d" fill-rule="evenodd"/>
      <path id="Trazado_13504" data-name="Trazado 13504" d="M974.185,2783.422l37.278,21.522-13.091,7.514-34.4-19.862a1.887,1.887,0,0,1,0-3.268Q969.077,2786.374,974.185,2783.422Z" fill="#888887" fill-rule="evenodd"/>
      <path id="Trazado_13505" data-name="Trazado 13505" d="M974.495,2783.619l36.639,21.153-12.654,7.263-33.812-19.522a1.854,1.854,0,0,1,0-3.212Z" fill="#868686" fill-rule="evenodd"/>
      <path id="Trazado_13506" data-name="Trazado 13506" d="M974.806,2783.816l36,20.783-12.215,7.012-33.223-19.181a1.821,1.821,0,0,1,0-3.155Z" fill="#828281" fill-rule="evenodd"/>
      <path id="Trazado_13507" data-name="Trazado 13507" d="M975.116,2784.012l35.359,20.415-11.777,6.76-32.633-18.84a1.79,1.79,0,0,1,0-3.1Z" fill="#80807f" fill-rule="evenodd"/>
      <path id="Trazado_13508" data-name="Trazado 13508" d="M975.426,2784.21l34.72,20.045-11.34,6.509q-16.02-9.25-32.042-18.5a1.758,1.758,0,0,1,0-3.044Z" fill="#7e7e7e" fill-rule="evenodd"/>
      <path id="Trazado_13509" data-name="Trazado 13509" d="M975.737,2784.407l34.08,19.676-10.9,6.257-31.451-18.158a1.725,1.725,0,0,1,0-2.988Z" fill="#7a7979" fill-rule="evenodd"/>
      <path id="Trazado_13510" data-name="Trazado 13510" d="M976.047,2784.6l33.44,19.306-10.463,6.006L968.163,2792.1a1.691,1.691,0,0,1,0-2.931Z" fill="#777776" fill-rule="evenodd"/>
      <path id="Trazado_13511" data-name="Trazado 13511" d="M976.358,2784.8l32.8,18.937-10.026,5.754-30.27-17.476a1.66,1.66,0,0,1,0-2.875Z" fill="#727271" fill-rule="evenodd"/>
    </g>
    <path id="Trazado_13512" data-name="Trazado 13512" d="M976.668,2785l32.161,18.568-9.589,5.5-29.679-17.136a1.627,1.627,0,0,1,0-2.819Z" fill="#6f6f6e" fill-rule="evenodd"/>
    <g id="Grupo_2961" data-name="Grupo 2961">
      <path id="Trazado_13513" data-name="Trazado 13513" d="M965.124,2794.44v-35.23l11.359-6.558v35.23Z" fill="#a49a93" fill-rule="evenodd"/>
      <path id="Trazado_13514" data-name="Trazado 13514" d="M1000.5,2779.632l-43.162-24.92,11.358-6.558,43.162,24.92Z" fill="#90847e" fill-rule="evenodd"/>
      <path id="Trazado_13515" data-name="Trazado 13515" d="M1000.5,2814.862v-35.23l11.359-6.558v35.23Z" fill="#c1b6ae" fill-rule="evenodd"/>
      <g id="Grupo_2947" data-name="Grupo 2947">
        <path id="Trazado_13516" data-name="Trazado 13516" d="M968.149,2772.229a3.793,3.793,0,0,0-.808.608h-.665v22.215a2.5,2.5,0,0,0,1.473,2.053,7.861,7.861,0,0,0,7.115,0,2.5,2.5,0,0,0,1.476-2.053v-22.215h-.667a3.9,3.9,0,0,0-.809-.608,7.853,7.853,0,0,0-7.115,0Z" fill="#bbb1a9" fill-rule="evenodd"/>
        <path id="Trazado_13517" data-name="Trazado 13517" d="M968.149,2772.229a3.793,3.793,0,0,0-.808.608h-.665v5.284a2.5,2.5,0,0,0,1.473,2.054,7.271,7.271,0,0,0,3.559.85v-9.648A7.272,7.272,0,0,0,968.149,2772.229Z" fill="#cdc3bb" fill-rule="evenodd"/>
        <path id="Trazado_13518" data-name="Trazado 13518" d="M968.149,2777.483a7.869,7.869,0,0,0,7.115,0,2.5,2.5,0,0,0,1.476-2.054v.3a2.5,2.5,0,0,1-1.476,2.054,7.871,7.871,0,0,1-7.115,0,2.5,2.5,0,0,1-1.473-2.054v-.3a2.5,2.5,0,0,0,1.473,2.054Zm3.559-.331a7.279,7.279,0,0,1-3.559-.85,2.5,2.5,0,0,1-1.473-2.054v.963a2.5,2.5,0,0,0,1.473,2.053,7.861,7.861,0,0,0,7.115,0,2.5,2.5,0,0,0,1.476-2.053v-.963a2.5,2.5,0,0,1-1.476,2.054A7.275,7.275,0,0,1,971.708,2777.152Z" fill="#ccc2ba" fill-rule="evenodd"/>
        <path id="Trazado_13519" data-name="Trazado 13519" d="M972.481,2797.922v-26.51c-.256-.023-.515-.035-.773-.035a7.269,7.269,0,0,0-3.559.852,3.793,3.793,0,0,0-.808.608h-.665v22.215a2.5,2.5,0,0,0,1.473,2.053,7.266,7.266,0,0,0,3.559.851C971.966,2797.956,972.225,2797.944,972.481,2797.922Z" fill="#cdc3bb" fill-rule="evenodd"/>
        <path id="Trazado_13520" data-name="Trazado 13520" d="M972.481,2778.595v-.3c-.256.023-.515.034-.773.034a7.265,7.265,0,0,1-3.559-.85,2.5,2.5,0,0,1-1.473-2.054v.3a2.5,2.5,0,0,0,1.473,2.054,7.279,7.279,0,0,0,3.559.85c.258,0,.517-.011.773-.035Zm0-.515c-.256.023-.515.035-.773.035a7.276,7.276,0,0,1-3.559-.851,2.5,2.5,0,0,1-1.473-2.053v-.963a2.5,2.5,0,0,0,1.473,2.054,7.279,7.279,0,0,0,3.559.85c.258,0,.517-.012.773-.035Z" fill="#e3dad2" fill-rule="evenodd"/>
        <path id="Trazado_13521" data-name="Trazado 13521" d="M968.149,2770.783a2.169,2.169,0,0,0,0,4.108,7.871,7.871,0,0,0,7.115,0,2.167,2.167,0,0,0,0-4.108,7.853,7.853,0,0,0-7.115,0Z" fill="#dacfc7" fill-rule="evenodd"/>
        <path id="Trazado_13522" data-name="Trazado 13522" d="M969.057,2770.494a1.616,1.616,0,0,0,0,3.06,5.863,5.863,0,0,0,5.3,0,1.615,1.615,0,0,0,0-3.06,5.847,5.847,0,0,0-5.3,0Z" fill="#e3dad2" fill-rule="evenodd"/>
        <path id="Trazado_13523" data-name="Trazado 13523" d="M971.137,2771.693a.348.348,0,0,0,0,.66,1.259,1.259,0,0,0,1.142,0,.348.348,0,0,0,0-.659,1.261,1.261,0,0,0-1.142,0Z" fill="#90847e" fill-rule="evenodd"/>
        <path id="Trazado_13524" data-name="Trazado 13524" d="M971.708,2797.809a7.264,7.264,0,0,0,3.556-.85,2.5,2.5,0,0,0,1.476-2.054v.147a2.5,2.5,0,0,1-1.476,2.053,7.861,7.861,0,0,1-7.115,0,2.5,2.5,0,0,1-1.473-2.053v-.147a2.5,2.5,0,0,0,1.473,2.054A7.279,7.279,0,0,0,971.708,2797.809Z" fill="#bbb1a9" fill-rule="evenodd"/>
        <path id="Trazado_13525" data-name="Trazado 13525" d="M972.481,2775.707l-.15-1.55.15-.016a5,5,0,0,0,1.876-.587,2.062,2.062,0,0,0,1.063-1.231,1.267,1.267,0,0,0,.036-.3,1.865,1.865,0,0,0-1.1-1.53,4.278,4.278,0,0,0-.87-.375,6.219,6.219,0,0,1,1.777.664,2.167,2.167,0,0,1,0,4.108A6.849,6.849,0,0,1,972.481,2775.707Z" fill="#f5ece3" fill-rule="evenodd"/>
        <path id="Trazado_13526" data-name="Trazado 13526" d="M968.149,2781.2a7.871,7.871,0,0,0,7.115,0,2.5,2.5,0,0,0,1.476-2.054v.3a2.5,2.5,0,0,1-1.476,2.053,7.861,7.861,0,0,1-7.115,0,2.5,2.5,0,0,1-1.473-2.053v-.3a2.5,2.5,0,0,0,1.473,2.054Zm3.559-.332a7.265,7.265,0,0,1-3.559-.85,2.5,2.5,0,0,1-1.473-2.054v.963a2.5,2.5,0,0,0,1.473,2.054,7.863,7.863,0,0,0,7.115,0,2.5,2.5,0,0,0,1.476-2.054v-.963a2.5,2.5,0,0,1-1.476,2.054A7.261,7.261,0,0,1,971.708,2780.872Z" fill="#ccc2ba" fill-rule="evenodd"/>
        <path id="Trazado_13527" data-name="Trazado 13527" d="M968.149,2784.924a7.863,7.863,0,0,0,7.115,0,2.5,2.5,0,0,0,1.476-2.053v.3a2.5,2.5,0,0,1-1.476,2.053,7.869,7.869,0,0,1-7.115,0,2.5,2.5,0,0,1-1.473-2.053v-.3a2.5,2.5,0,0,0,1.473,2.053Zm3.559-.331a7.276,7.276,0,0,1-3.559-.85,2.5,2.5,0,0,1-1.473-2.054v.963a2.5,2.5,0,0,0,1.473,2.054,7.871,7.871,0,0,0,7.115,0,2.5,2.5,0,0,0,1.476-2.054v-.963a2.5,2.5,0,0,1-1.476,2.054A7.272,7.272,0,0,1,971.708,2784.593Z" fill="#ccc2ba" fill-rule="evenodd"/>
        <path id="Trazado_13528" data-name="Trazado 13528" d="M968.149,2788.645a7.861,7.861,0,0,0,7.115,0,2.5,2.5,0,0,0,1.476-2.054v.3a2.5,2.5,0,0,1-1.476,2.054,7.869,7.869,0,0,1-7.115,0,2.5,2.5,0,0,1-1.473-2.054v-.3a2.5,2.5,0,0,0,1.473,2.054Zm3.559-.331a7.279,7.279,0,0,1-3.559-.85,2.5,2.5,0,0,1-1.473-2.054v.963a2.5,2.5,0,0,0,1.473,2.054,7.869,7.869,0,0,0,7.115,0,2.5,2.5,0,0,0,1.476-2.054v-.963a2.5,2.5,0,0,1-1.476,2.054A7.275,7.275,0,0,1,971.708,2788.314Z" fill="#ccc2ba" fill-rule="evenodd"/>
        <path id="Trazado_13529" data-name="Trazado 13529" d="M968.149,2792.366a7.869,7.869,0,0,0,7.115,0,2.5,2.5,0,0,0,1.476-2.054v.3a2.5,2.5,0,0,1-1.476,2.054,7.871,7.871,0,0,1-7.115,0,2.5,2.5,0,0,1-1.473-2.054v-.3a2.5,2.5,0,0,0,1.473,2.054Zm3.559-.331a7.268,7.268,0,0,1-3.559-.851,2.5,2.5,0,0,1-1.473-2.053v.963a2.5,2.5,0,0,0,1.473,2.053,7.861,7.861,0,0,0,7.115,0,2.5,2.5,0,0,0,1.476-2.053v-.963a2.5,2.5,0,0,1-1.476,2.053A7.264,7.264,0,0,1,971.708,2792.035Z" fill="#ccc2ba" fill-rule="evenodd"/>
        <path id="Trazado_13530" data-name="Trazado 13530" d="M972.481,2782.316v-.3c-.256.024-.515.035-.773.035a7.279,7.279,0,0,1-3.559-.85,2.5,2.5,0,0,1-1.473-2.054v.3a2.5,2.5,0,0,0,1.473,2.053,7.266,7.266,0,0,0,3.559.851c.258,0,.517-.011.773-.035Zm0-.515c-.256.023-.515.035-.773.035a7.279,7.279,0,0,1-3.559-.851,2.5,2.5,0,0,1-1.473-2.054v-.963a2.5,2.5,0,0,0,1.473,2.054,7.265,7.265,0,0,0,3.559.85c.258,0,.517-.011.773-.034Z" fill="#e3dad2" fill-rule="evenodd"/>
        <path id="Trazado_13531" data-name="Trazado 13531" d="M972.481,2786.037v-.3c-.256.023-.515.035-.773.035a7.268,7.268,0,0,1-3.559-.851,2.5,2.5,0,0,1-1.473-2.053v.3a2.5,2.5,0,0,0,1.473,2.053,7.255,7.255,0,0,0,3.559.85c.258,0,.517-.011.773-.034Zm0-.515c-.256.023-.515.034-.773.034a7.279,7.279,0,0,1-3.559-.85,2.5,2.5,0,0,1-1.473-2.054v-.963a2.5,2.5,0,0,0,1.473,2.054,7.276,7.276,0,0,0,3.559.85c.258,0,.517-.011.773-.034Z" fill="#e3dad2" fill-rule="evenodd"/>
        <path id="Trazado_13532" data-name="Trazado 13532" d="M972.481,2789.758v-.3c-.256.023-.515.035-.773.035a7.268,7.268,0,0,1-3.559-.851,2.5,2.5,0,0,1-1.473-2.054v.3a2.5,2.5,0,0,0,1.473,2.054,7.265,7.265,0,0,0,3.559.85c.258,0,.517-.011.773-.034Zm0-.515c-.256.022-.515.034-.773.034a7.279,7.279,0,0,1-3.559-.85,2.5,2.5,0,0,1-1.473-2.054v-.963a2.5,2.5,0,0,0,1.473,2.054,7.279,7.279,0,0,0,3.559.85c.258,0,.517-.012.773-.034Z" fill="#e3dad2" fill-rule="evenodd"/>
        <path id="Trazado_13533" data-name="Trazado 13533" d="M972.481,2793.479v-.3c-.256.023-.515.034-.773.034a7.276,7.276,0,0,1-3.559-.85,2.5,2.5,0,0,1-1.473-2.054v.3a2.5,2.5,0,0,0,1.473,2.054,7.279,7.279,0,0,0,3.559.85c.258,0,.517-.012.773-.034Zm0-.516c-.256.023-.515.035-.773.035a7.266,7.266,0,0,1-3.559-.851,2.5,2.5,0,0,1-1.473-2.053v-.963a2.5,2.5,0,0,0,1.473,2.053,7.268,7.268,0,0,0,3.559.851c.258,0,.517-.012.773-.035Z" fill="#e3dad2" fill-rule="evenodd"/>
      </g>
      <g id="Grupo_2948" data-name="Grupo 2948">
        <path id="Trazado_13534" data-name="Trazado 13534" d="M976.639,2777.13a3.8,3.8,0,0,0-.808.609h-.665v22.215a2.5,2.5,0,0,0,1.473,2.053,7.871,7.871,0,0,0,7.115,0,2.5,2.5,0,0,0,1.476-2.053v-22.215h-.667a3.85,3.85,0,0,0-.809-.608,7.858,7.858,0,0,0-7.115,0Z" fill="#bbb1a9" fill-rule="evenodd"/>
        <path id="Trazado_13535" data-name="Trazado 13535" d="M976.639,2777.13a3.8,3.8,0,0,0-.808.609h-.665v5.284a2.5,2.5,0,0,0,1.473,2.053,7.261,7.261,0,0,0,3.559.851v-9.648A7.287,7.287,0,0,0,976.639,2777.13Z" fill="#cdc3bb" fill-rule="evenodd"/>
        <path id="Trazado_13536" data-name="Trazado 13536" d="M976.639,2782.385a7.869,7.869,0,0,0,7.115,0,2.5,2.5,0,0,0,1.476-2.054v.3a2.5,2.5,0,0,1-1.476,2.053,7.861,7.861,0,0,1-7.115,0,2.5,2.5,0,0,1-1.473-2.053v-.3a2.5,2.5,0,0,0,1.473,2.054Zm3.558-.331a7.265,7.265,0,0,1-3.558-.851,2.5,2.5,0,0,1-1.473-2.054v.964a2.5,2.5,0,0,0,1.473,2.053,7.861,7.861,0,0,0,7.115,0,2.5,2.5,0,0,0,1.476-2.053v-.964a2.5,2.5,0,0,1-1.476,2.054A7.263,7.263,0,0,1,980.2,2782.054Z" fill="#ccc2ba" fill-rule="evenodd"/>
        <path id="Trazado_13537" data-name="Trazado 13537" d="M980.971,2802.823v-26.51c-.256-.023-.515-.034-.774-.034a7.283,7.283,0,0,0-3.558.851,3.8,3.8,0,0,0-.808.609h-.665v22.215a2.5,2.5,0,0,0,1.473,2.053,7.267,7.267,0,0,0,3.558.85C980.456,2802.857,980.715,2802.846,980.971,2802.823Z" fill="#cdc3bb" fill-rule="evenodd"/>
        <path id="Trazado_13538" data-name="Trazado 13538" d="M980.971,2783.5v-.3c-.256.023-.515.034-.774.034a7.278,7.278,0,0,1-3.558-.85,2.5,2.5,0,0,1-1.473-2.054v.3a2.5,2.5,0,0,0,1.473,2.053,7.265,7.265,0,0,0,3.558.851c.259,0,.518-.012.774-.035Zm0-.515c-.256.023-.515.035-.774.035a7.267,7.267,0,0,1-3.558-.851,2.5,2.5,0,0,1-1.473-2.053v-.964a2.5,2.5,0,0,0,1.473,2.054,7.265,7.265,0,0,0,3.558.851c.259,0,.518-.012.774-.035Z" fill="#e3dad2" fill-rule="evenodd"/>
        <path id="Trazado_13539" data-name="Trazado 13539" d="M976.639,2775.684a2.169,2.169,0,0,0,0,4.109,7.869,7.869,0,0,0,7.115,0,2.167,2.167,0,0,0,0-4.108,7.857,7.857,0,0,0-7.115,0Z" fill="#dacfc7" fill-rule="evenodd"/>
        <path id="Trazado_13540" data-name="Trazado 13540" d="M977.547,2775.4a1.616,1.616,0,0,0,0,3.06,5.855,5.855,0,0,0,5.3,0,1.615,1.615,0,0,0,0-3.06,5.855,5.855,0,0,0-5.3,0Z" fill="#e3dad2" fill-rule="evenodd"/>
        <path id="Trazado_13541" data-name="Trazado 13541" d="M979.627,2776.595a.348.348,0,0,0,0,.66,1.265,1.265,0,0,0,1.142,0,.348.348,0,0,0,0-.66,1.259,1.259,0,0,0-1.142,0Z" fill="#90847e" fill-rule="evenodd"/>
        <path id="Trazado_13542" data-name="Trazado 13542" d="M980.2,2802.711a7.276,7.276,0,0,0,3.557-.85,2.5,2.5,0,0,0,1.476-2.054v.147a2.5,2.5,0,0,1-1.476,2.053,7.871,7.871,0,0,1-7.115,0,2.5,2.5,0,0,1-1.473-2.053v-.147a2.5,2.5,0,0,0,1.473,2.054A7.277,7.277,0,0,0,980.2,2802.711Z" fill="#bbb1a9" fill-rule="evenodd"/>
        <path id="Trazado_13543" data-name="Trazado 13543" d="M980.971,2780.609l-.15-1.55c.05-.005.1-.01.15-.017a4.981,4.981,0,0,0,1.876-.587,2.064,2.064,0,0,0,1.063-1.23,1.267,1.267,0,0,0,.036-.3,1.865,1.865,0,0,0-1.1-1.531,4.361,4.361,0,0,0-.87-.375,6.221,6.221,0,0,1,1.777.665,2.167,2.167,0,0,1,0,4.108A6.872,6.872,0,0,1,980.971,2780.609Z" fill="#f5ece3" fill-rule="evenodd"/>
        <path id="Trazado_13544" data-name="Trazado 13544" d="M976.639,2786.106a7.869,7.869,0,0,0,7.115,0,2.5,2.5,0,0,0,1.476-2.054v.3a2.5,2.5,0,0,1-1.476,2.053,7.863,7.863,0,0,1-7.115,0,2.5,2.5,0,0,1-1.473-2.053v-.3a2.5,2.5,0,0,0,1.473,2.054Zm3.558-.332a7.277,7.277,0,0,1-3.558-.85,2.5,2.5,0,0,1-1.473-2.054v.963a2.5,2.5,0,0,0,1.473,2.054,7.869,7.869,0,0,0,7.115,0,2.5,2.5,0,0,0,1.476-2.054v-.963a2.5,2.5,0,0,1-1.476,2.054A7.276,7.276,0,0,1,980.2,2785.774Z" fill="#ccc2ba" fill-rule="evenodd"/>
        <path id="Trazado_13545" data-name="Trazado 13545" d="M976.639,2789.826a7.861,7.861,0,0,0,7.115,0,2.5,2.5,0,0,0,1.476-2.053v.3a2.5,2.5,0,0,1-1.476,2.054,7.871,7.871,0,0,1-7.115,0,2.5,2.5,0,0,1-1.473-2.054v-.3a2.5,2.5,0,0,0,1.473,2.053Zm3.558-.331a7.267,7.267,0,0,1-3.558-.851,2.5,2.5,0,0,1-1.473-2.053v.963a2.5,2.5,0,0,0,1.473,2.054,7.869,7.869,0,0,0,7.115,0,2.5,2.5,0,0,0,1.476-2.054v-.963a2.5,2.5,0,0,1-1.476,2.053A7.266,7.266,0,0,1,980.2,2789.5Z" fill="#ccc2ba" fill-rule="evenodd"/>
        <path id="Trazado_13546" data-name="Trazado 13546" d="M976.639,2793.547a7.871,7.871,0,0,0,7.115,0,2.5,2.5,0,0,0,1.476-2.054v.3a2.5,2.5,0,0,1-1.476,2.054,7.869,7.869,0,0,1-7.115,0,2.5,2.5,0,0,1-1.473-2.054v-.3a2.5,2.5,0,0,0,1.473,2.054Zm3.558-.331a7.265,7.265,0,0,1-3.558-.851,2.5,2.5,0,0,1-1.473-2.053v.963a2.5,2.5,0,0,0,1.473,2.053,7.861,7.861,0,0,0,7.115,0,2.5,2.5,0,0,0,1.476-2.053v-.963a2.5,2.5,0,0,1-1.476,2.053A7.266,7.266,0,0,1,980.2,2793.216Z" fill="#ccc2ba" fill-rule="evenodd"/>
        <path id="Trazado_13547" data-name="Trazado 13547" d="M976.639,2797.268a7.871,7.871,0,0,0,7.115,0,2.5,2.5,0,0,0,1.476-2.054v.3a2.5,2.5,0,0,1-1.476,2.054,7.869,7.869,0,0,1-7.115,0,2.5,2.5,0,0,1-1.473-2.054v-.3a2.5,2.5,0,0,0,1.473,2.054Zm3.558-.332a7.275,7.275,0,0,1-3.558-.85,2.5,2.5,0,0,1-1.473-2.053V2795a2.5,2.5,0,0,0,1.473,2.053,7.871,7.871,0,0,0,7.115,0A2.5,2.5,0,0,0,985.23,2795v-.963a2.5,2.5,0,0,1-1.476,2.053A7.263,7.263,0,0,1,980.2,2796.936Z" fill="#ccc2ba" fill-rule="evenodd"/>
        <path id="Trazado_13548" data-name="Trazado 13548" d="M980.971,2787.218v-.3c-.256.023-.515.035-.774.035a7.275,7.275,0,0,1-3.558-.85,2.5,2.5,0,0,1-1.473-2.054v.3a2.5,2.5,0,0,0,1.473,2.053,7.267,7.267,0,0,0,3.558.851c.259,0,.518-.012.774-.035Zm0-.515c-.256.023-.515.034-.774.034a7.275,7.275,0,0,1-3.558-.85,2.5,2.5,0,0,1-1.473-2.054v-.963a2.5,2.5,0,0,0,1.473,2.054,7.277,7.277,0,0,0,3.558.85c.259,0,.518-.011.774-.034Z" fill="#e3dad2" fill-rule="evenodd"/>
        <path id="Trazado_13549" data-name="Trazado 13549" d="M980.971,2790.939v-.3c-.256.023-.515.035-.774.035a7.275,7.275,0,0,1-3.558-.851,2.5,2.5,0,0,1-1.473-2.053v.3a2.5,2.5,0,0,0,1.473,2.054,7.277,7.277,0,0,0,3.558.85c.259,0,.518-.011.774-.034Zm0-.516c-.256.023-.515.035-.774.035a7.275,7.275,0,0,1-3.558-.85,2.5,2.5,0,0,1-1.473-2.054v-.963a2.5,2.5,0,0,0,1.473,2.053,7.267,7.267,0,0,0,3.558.851c.259,0,.518-.011.774-.034Z" fill="#e3dad2" fill-rule="evenodd"/>
        <path id="Trazado_13550" data-name="Trazado 13550" d="M980.971,2794.66v-.3c-.256.023-.515.034-.774.034a7.277,7.277,0,0,1-3.558-.85,2.5,2.5,0,0,1-1.473-2.054v.3a2.5,2.5,0,0,0,1.473,2.054,7.278,7.278,0,0,0,3.558.85c.259,0,.518-.012.774-.034Zm0-.516c-.256.023-.515.035-.774.035a7.265,7.265,0,0,1-3.558-.851,2.5,2.5,0,0,1-1.473-2.053v-.963a2.5,2.5,0,0,0,1.473,2.053,7.265,7.265,0,0,0,3.558.851c.259,0,.518-.012.774-.035Z" fill="#e3dad2" fill-rule="evenodd"/>
        <path id="Trazado_13551" data-name="Trazado 13551" d="M980.971,2798.381v-.3c-.256.024-.515.035-.774.035a7.277,7.277,0,0,1-3.558-.85,2.5,2.5,0,0,1-1.473-2.054v.3a2.5,2.5,0,0,0,1.473,2.054,7.275,7.275,0,0,0,3.558.85c.259,0,.518-.012.774-.034Zm0-.516c-.256.023-.515.034-.774.034a7.277,7.277,0,0,1-3.558-.85,2.5,2.5,0,0,1-1.473-2.053v-.963a2.5,2.5,0,0,0,1.473,2.053,7.275,7.275,0,0,0,3.558.85c.259,0,.518-.011.774-.034Z" fill="#e3dad2" fill-rule="evenodd"/>
      </g>
      <g id="Grupo_2949" data-name="Grupo 2949">
        <path id="Trazado_13552" data-name="Trazado 13552" d="M985.128,2782.032a3.886,3.886,0,0,0-.807.608h-.665v22.215a2.5,2.5,0,0,0,1.472,2.054,7.871,7.871,0,0,0,7.116,0,2.5,2.5,0,0,0,1.476-2.054V2782.64h-.667a3.9,3.9,0,0,0-.809-.608,7.855,7.855,0,0,0-7.116,0Z" fill="#bbb1a9" fill-rule="evenodd"/>
        <path id="Trazado_13553" data-name="Trazado 13553" d="M985.128,2782.032a3.886,3.886,0,0,0-.807.608h-.665v5.284a2.5,2.5,0,0,0,1.472,2.054,7.275,7.275,0,0,0,3.56.851v-9.649A7.278,7.278,0,0,0,985.128,2782.032Z" fill="#cdc3bb" fill-rule="evenodd"/>
        <path id="Trazado_13554" data-name="Trazado 13554" d="M985.128,2787.286a7.863,7.863,0,0,0,7.116,0,2.5,2.5,0,0,0,1.476-2.053v.3a2.5,2.5,0,0,1-1.476,2.054,7.863,7.863,0,0,1-7.116,0,2.5,2.5,0,0,1-1.472-2.054v-.3a2.5,2.5,0,0,0,1.472,2.053Zm3.56-.331a7.283,7.283,0,0,1-3.56-.85,2.5,2.5,0,0,1-1.472-2.054v.963a2.5,2.5,0,0,0,1.472,2.054,7.873,7.873,0,0,0,7.116,0,2.5,2.5,0,0,0,1.476-2.054v-.963a2.5,2.5,0,0,1-1.476,2.054A7.278,7.278,0,0,1,988.688,2786.955Z" fill="#ccc2ba" fill-rule="evenodd"/>
        <path id="Trazado_13555" data-name="Trazado 13555" d="M989.461,2807.725v-26.51c-.256-.023-.515-.035-.773-.035a7.289,7.289,0,0,0-3.56.852,3.886,3.886,0,0,0-.807.608h-.665v22.215a2.5,2.5,0,0,0,1.472,2.054,7.283,7.283,0,0,0,3.56.85C988.946,2807.759,989.205,2807.747,989.461,2807.725Z" fill="#cdc3bb" fill-rule="evenodd"/>
        <path id="Trazado_13556" data-name="Trazado 13556" d="M989.461,2788.4v-.3c-.256.023-.515.035-.773.035a7.283,7.283,0,0,1-3.56-.851,2.5,2.5,0,0,1-1.472-2.053v.3a2.5,2.5,0,0,0,1.472,2.054,7.286,7.286,0,0,0,3.56.851c.258,0,.517-.012.773-.035Zm0-.516c-.256.023-.515.035-.773.035a7.285,7.285,0,0,1-3.56-.85,2.5,2.5,0,0,1-1.472-2.054v-.963a2.5,2.5,0,0,0,1.472,2.054,7.283,7.283,0,0,0,3.56.85c.258,0,.517-.011.773-.034Z" fill="#e3dad2" fill-rule="evenodd"/>
        <path id="Trazado_13557" data-name="Trazado 13557" d="M985.128,2780.586a2.169,2.169,0,0,0,0,4.108,7.875,7.875,0,0,0,7.117,0,2.168,2.168,0,0,0,0-4.108,7.867,7.867,0,0,0-7.117,0Z" fill="#dacfc7" fill-rule="evenodd"/>
        <path id="Trazado_13558" data-name="Trazado 13558" d="M986.037,2780.3a1.615,1.615,0,0,0,0,3.06,5.863,5.863,0,0,0,5.3,0,1.614,1.614,0,0,0,0-3.06,5.855,5.855,0,0,0-5.3,0Z" fill="#e3dad2" fill-rule="evenodd"/>
        <path id="Trazado_13559" data-name="Trazado 13559" d="M988.116,2781.5a.348.348,0,0,0,0,.659,1.261,1.261,0,0,0,1.143,0,.348.348,0,0,0,0-.659,1.261,1.261,0,0,0-1.143,0Z" fill="#90847e" fill-rule="evenodd"/>
        <path id="Trazado_13560" data-name="Trazado 13560" d="M988.688,2807.613a7.275,7.275,0,0,0,3.556-.851,2.5,2.5,0,0,0,1.476-2.054v.147a2.5,2.5,0,0,1-1.476,2.054,7.871,7.871,0,0,1-7.116,0,2.5,2.5,0,0,1-1.472-2.054v-.147a2.5,2.5,0,0,0,1.472,2.054A7.272,7.272,0,0,0,988.688,2807.613Z" fill="#bbb1a9" fill-rule="evenodd"/>
        <path id="Trazado_13561" data-name="Trazado 13561" d="M989.461,2785.51l-.15-1.55c.05,0,.1-.01.15-.016a4.994,4.994,0,0,0,1.876-.587,2.065,2.065,0,0,0,1.063-1.231,1.267,1.267,0,0,0,.036-.3,1.865,1.865,0,0,0-1.1-1.53,4.305,4.305,0,0,0-.87-.375,6.218,6.218,0,0,1,1.778.664,2.168,2.168,0,0,1,0,4.108A6.859,6.859,0,0,1,989.461,2785.51Z" fill="#f5ece3" fill-rule="evenodd"/>
        <path id="Trazado_13562" data-name="Trazado 13562" d="M985.128,2791.007a7.873,7.873,0,0,0,7.116,0,2.5,2.5,0,0,0,1.476-2.053v.3a2.5,2.5,0,0,1-1.476,2.054,7.871,7.871,0,0,1-7.116,0,2.5,2.5,0,0,1-1.472-2.054v-.3a2.5,2.5,0,0,0,1.472,2.053Zm3.56-.331a7.283,7.283,0,0,1-3.56-.85,2.5,2.5,0,0,1-1.472-2.054v.963a2.5,2.5,0,0,0,1.472,2.053,7.873,7.873,0,0,0,7.116,0,2.5,2.5,0,0,0,1.476-2.053v-.963a2.5,2.5,0,0,1-1.476,2.054A7.275,7.275,0,0,1,988.688,2790.676Z" fill="#ccc2ba" fill-rule="evenodd"/>
        <path id="Trazado_13563" data-name="Trazado 13563" d="M985.128,2794.728a7.873,7.873,0,0,0,7.116,0,2.5,2.5,0,0,0,1.476-2.054v.3a2.5,2.5,0,0,1-1.476,2.053,7.863,7.863,0,0,1-7.116,0,2.5,2.5,0,0,1-1.472-2.053v-.3a2.5,2.5,0,0,0,1.472,2.054Zm3.56-.331a7.272,7.272,0,0,1-3.56-.851,2.5,2.5,0,0,1-1.472-2.053v.962a2.5,2.5,0,0,0,1.472,2.054,7.873,7.873,0,0,0,7.116,0,2.5,2.5,0,0,0,1.476-2.054v-.962a2.5,2.5,0,0,1-1.476,2.053A7.265,7.265,0,0,1,988.688,2794.4Z" fill="#ccc2ba" fill-rule="evenodd"/>
        <path id="Trazado_13564" data-name="Trazado 13564" d="M985.128,2798.449a7.871,7.871,0,0,0,7.116,0,2.5,2.5,0,0,0,1.476-2.054v.3a2.5,2.5,0,0,1-1.476,2.053,7.865,7.865,0,0,1-7.116,0,2.5,2.5,0,0,1-1.472-2.053v-.3a2.5,2.5,0,0,0,1.472,2.054Zm3.56-.332a7.285,7.285,0,0,1-3.56-.85,2.5,2.5,0,0,1-1.472-2.054v.963a2.5,2.5,0,0,0,1.472,2.054,7.871,7.871,0,0,0,7.116,0,2.5,2.5,0,0,0,1.476-2.054v-.963a2.5,2.5,0,0,1-1.476,2.054A7.267,7.267,0,0,1,988.688,2798.117Z" fill="#ccc2ba" fill-rule="evenodd"/>
        <path id="Trazado_13565" data-name="Trazado 13565" d="M985.128,2802.169a7.871,7.871,0,0,0,7.116,0,2.5,2.5,0,0,0,1.476-2.053v.3a2.5,2.5,0,0,1-1.476,2.054,7.873,7.873,0,0,1-7.116,0,2.5,2.5,0,0,1-1.472-2.054v-.3a2.5,2.5,0,0,0,1.472,2.053Zm3.56-.331a7.275,7.275,0,0,1-3.56-.851,2.5,2.5,0,0,1-1.472-2.053v.963a2.5,2.5,0,0,0,1.472,2.054,7.871,7.871,0,0,0,7.116,0,2.5,2.5,0,0,0,1.476-2.054v-.963a2.5,2.5,0,0,1-1.476,2.053A7.267,7.267,0,0,1,988.688,2801.838Z" fill="#ccc2ba" fill-rule="evenodd"/>
        <path id="Trazado_13566" data-name="Trazado 13566" d="M989.461,2792.12v-.3c-.256.023-.515.034-.773.034a7.285,7.285,0,0,1-3.56-.85,2.5,2.5,0,0,1-1.472-2.053v.3a2.5,2.5,0,0,0,1.472,2.054,7.283,7.283,0,0,0,3.56.85c.258,0,.517-.011.773-.034Zm0-.516c-.256.023-.515.034-.773.034a7.264,7.264,0,0,1-3.56-.85,2.5,2.5,0,0,1-1.472-2.053v-.963a2.5,2.5,0,0,0,1.472,2.054,7.283,7.283,0,0,0,3.56.85c.258,0,.517-.012.773-.035Z" fill="#e3dad2" fill-rule="evenodd"/>
        <path id="Trazado_13567" data-name="Trazado 13567" d="M989.461,2795.84v-.3c-.256.023-.515.034-.773.034a7.285,7.285,0,0,1-3.56-.85,2.5,2.5,0,0,1-1.472-2.054v.3a2.5,2.5,0,0,0,1.472,2.053,7.272,7.272,0,0,0,3.56.851c.258,0,.517-.012.773-.035Zm0-.515c-.256.023-.515.034-.773.034a7.272,7.272,0,0,1-3.56-.85,2.5,2.5,0,0,1-1.472-2.054v-.962a2.5,2.5,0,0,0,1.472,2.053,7.272,7.272,0,0,0,3.56.851c.258,0,.517-.012.773-.035Z" fill="#e3dad2" fill-rule="evenodd"/>
        <path id="Trazado_13568" data-name="Trazado 13568" d="M989.461,2799.561v-.3c-.256.023-.515.035-.773.035a7.283,7.283,0,0,1-3.56-.85,2.5,2.5,0,0,1-1.472-2.054v.3a2.5,2.5,0,0,0,1.472,2.053,7.275,7.275,0,0,0,3.56.851c.258,0,.517-.012.773-.035Zm0-.515c-.256.022-.515.034-.773.034a7.283,7.283,0,0,1-3.56-.85,2.5,2.5,0,0,1-1.472-2.054v-.963a2.5,2.5,0,0,0,1.472,2.054,7.285,7.285,0,0,0,3.56.85c.258,0,.517-.011.773-.034Z" fill="#e3dad2" fill-rule="evenodd"/>
        <path id="Trazado_13569" data-name="Trazado 13569" d="M989.461,2803.282v-.3c-.256.023-.515.034-.773.034a7.272,7.272,0,0,1-3.56-.85,2.5,2.5,0,0,1-1.472-2.053v.3a2.5,2.5,0,0,0,1.472,2.054,7.285,7.285,0,0,0,3.56.85c.258,0,.517-.011.773-.034Zm0-.515c-.256.022-.515.034-.773.034a7.283,7.283,0,0,1-3.56-.85,2.5,2.5,0,0,1-1.472-2.054v-.963a2.5,2.5,0,0,0,1.472,2.053,7.275,7.275,0,0,0,3.56.851c.258,0,.517-.012.773-.035Z" fill="#e3dad2" fill-rule="evenodd"/>
      </g>
      <path id="Trazado_13570" data-name="Trazado 13570" d="M992.708,2810.365v-26.217l-27.584-15.925v26.217l-7.789-4.5v-35.231l43.162,24.92v35.23Z" fill="#e3dad2" fill-rule="evenodd"/>
      <path id="Trazado_13571" data-name="Trazado 13571" d="M992.437,2783.991l-.845-.488v-9.013l.845.488v9.013Zm-2.015-1.163-.845-.488v-9.013l.845.488v9.013Zm-2.015-1.164-.845-.488v-9.013l.845.488v9.013Zm-2.015-1.163-.845-.488V2771l.845.488v9.013Zm-2.015-1.163-.845-.489v-9.013l.845.489v9.013Zm-2.016-1.164-.844-.488v-9.013l.844.488v9.013Zm-2.015-1.163-.845-.488v-9.013l.845.488v9.013Zm-2.015-1.164-.845-.488v-9.013l.845.488v9.013Zm-2.015-1.163-.845-.488v-9.013l.845.488v9.013Zm-2.015-1.164-.845-.488v-9.013l.845.488v9.013Zm-2.015-1.163-.845-.488v-9.013l.845.488v9.013Zm-2.015-1.164-.845-.488v-9.013l.845.489v9.012Zm-2.015-1.163-.845-.488v-9.013l.845.488v9.013Zm-2.016-1.163-.844-.488v-9.014l.844.488v9.014Zm-2.014,25.053-.846-.488V2758.2l.846.488v35.23Zm-2.015-1.163-.845-.488v-35.23l.845.488v35.23Zm-2.016-1.163-.845-.488v-35.231l.845.488v35.231Zm-2.015-1.164-.845-.488v-35.23l.845.488v35.23Zm35.427-14.776.845.487v35.231l-.845-.488v-35.23Zm2.015,1.163.845.488v35.23l-.845-.488v-35.23Zm2.015,1.163.845.488V2813.7l-.845-.488V2777.98Zm2.015,1.164.845.488v35.23l-.845-.488Z" fill="#f5ece3" fill-rule="evenodd"/>
      <path id="Trazado_13572" data-name="Trazado 13572" d="M1008.908,2774.776l.845-.488v35.23q-.423.243-.845.488v-35.23Zm-2.1,1.214.845-.488v35.23l-.845.488v-35.23Zm-2.1,1.214.845-.488v35.23l-.845.488V2777.2Zm-2.1,1.214.846-.488v35.23l-.846.488v-35.23Zm-2.1,1.214.846-.488v35.23l-.846.488v-35.23Zm10.514-6.07.845-.488v35.23l-.845.488Z" fill="#d3cac0" fill-rule="evenodd"/>
      <g id="Grupo_2950" data-name="Grupo 2950">
        <path id="Trazado_13573" data-name="Trazado 13573" d="M996.029,2786.065v3.065l1.8,1.038V2787.1Z" fill="#90847e" fill-rule="evenodd"/>
        <path id="Trazado_13574" data-name="Trazado 13574" d="M996.467,2786.318v2.559l1.36.785V2787.1Z" fill="#7e7269" fill-rule="evenodd"/>
        <path id="Trazado_13575" data-name="Trazado 13575" d="M996.029,2789.13l.438-.253,1.36.785v.505Z" fill="#b2aaa3" fill-rule="evenodd"/>
      </g>
      <g id="Grupo_2951" data-name="Grupo 2951">
        <path id="Trazado_13576" data-name="Trazado 13576" d="M996.029,2792.633v3.065l1.8,1.038v-3.064Z" fill="#90847e" fill-rule="evenodd"/>
        <path id="Trazado_13577" data-name="Trazado 13577" d="M996.467,2792.886v2.559l1.36.785v-2.559Z" fill="#7e7269" fill-rule="evenodd"/>
        <path id="Trazado_13578" data-name="Trazado 13578" d="M996.029,2795.7l.438-.253,1.36.785v.506Z" fill="#b2aaa3" fill-rule="evenodd"/>
      </g>
      <g id="Grupo_2952" data-name="Grupo 2952">
        <path id="Trazado_13579" data-name="Trazado 13579" d="M996.029,2799.2v3.065l1.8,1.038v-3.065Z" fill="#90847e" fill-rule="evenodd"/>
        <path id="Trazado_13580" data-name="Trazado 13580" d="M996.467,2799.455v2.559l1.36.785v-2.56Z" fill="#7e7269" fill-rule="evenodd"/>
        <path id="Trazado_13581" data-name="Trazado 13581" d="M996.029,2802.266l.438-.252,1.36.785v.505Z" fill="#b2aaa3" fill-rule="evenodd"/>
      </g>
      <g id="Grupo_2953" data-name="Grupo 2953">
        <path id="Trazado_13582" data-name="Trazado 13582" d="M996.029,2805.77v3.065l1.8,1.038v-3.065Z" fill="#90847e" fill-rule="evenodd"/>
        <path id="Trazado_13583" data-name="Trazado 13583" d="M996.467,2806.023v2.559l1.36.786v-2.559Z" fill="#7e7269" fill-rule="evenodd"/>
        <path id="Trazado_13584" data-name="Trazado 13584" d="M996.029,2808.835l.438-.253,1.36.786v.506Z" fill="#b2aaa3" fill-rule="evenodd"/>
      </g>
      <g id="Grupo_2954" data-name="Grupo 2954">
        <path id="Trazado_13585" data-name="Trazado 13585" d="M960.2,2765.376v3.064l1.8,1.038v-3.064Z" fill="#90847e" fill-rule="evenodd"/>
        <path id="Trazado_13586" data-name="Trazado 13586" d="M960.633,2765.629v2.559l1.36.785v-2.559Z" fill="#7e7269" fill-rule="evenodd"/>
        <path id="Trazado_13587" data-name="Trazado 13587" d="M960.2,2768.441l.438-.253,1.36.785v.505Z" fill="#b2aaa3" fill-rule="evenodd"/>
      </g>
      <g id="Grupo_2955" data-name="Grupo 2955">
        <path id="Trazado_13588" data-name="Trazado 13588" d="M960.2,2771.944v3.065l1.8,1.038v-3.065Z" fill="#90847e" fill-rule="evenodd"/>
        <path id="Trazado_13589" data-name="Trazado 13589" d="M960.633,2772.2v2.56l1.36.785v-2.559Z" fill="#7e7269" fill-rule="evenodd"/>
        <path id="Trazado_13590" data-name="Trazado 13590" d="M960.2,2775.009l.438-.252,1.36.785v.506Z" fill="#b2aaa3" fill-rule="evenodd"/>
      </g>
      <g id="Grupo_2956" data-name="Grupo 2956">
        <path id="Trazado_13591" data-name="Trazado 13591" d="M960.2,2778.512v3.065l1.8,1.038v-3.065Z" fill="#90847e" fill-rule="evenodd"/>
        <path id="Trazado_13592" data-name="Trazado 13592" d="M960.633,2778.766v2.559l1.36.785v-2.559Z" fill="#7e7269" fill-rule="evenodd"/>
        <path id="Trazado_13593" data-name="Trazado 13593" d="M960.2,2781.578l.438-.253,1.36.785v.506Z" fill="#b2aaa3" fill-rule="evenodd"/>
      </g>
      <g id="Grupo_2957" data-name="Grupo 2957">
        <path id="Trazado_13594" data-name="Trazado 13594" d="M960.2,2785.081v3.065l1.8,1.038v-3.064Z" fill="#90847e" fill-rule="evenodd"/>
        <path id="Trazado_13595" data-name="Trazado 13595" d="M960.633,2785.334v2.559l1.36.786v-2.559Z" fill="#7e7269" fill-rule="evenodd"/>
        <path id="Trazado_13596" data-name="Trazado 13596" d="M960.2,2788.146l.438-.253,1.36.786v.505Z" fill="#b2aaa3" fill-rule="evenodd"/>
      </g>
      <g id="Grupo_2958" data-name="Grupo 2958">
        <path id="Trazado_13597" data-name="Trazado 13597" d="M972.5,2766.444v3.064l1.8,1.038v-3.064Z" fill="#90847e" fill-rule="evenodd"/>
        <path id="Trazado_13598" data-name="Trazado 13598" d="M972.941,2766.7v2.559l1.36.785v-2.559Z" fill="#7e7269" fill-rule="evenodd"/>
        <path id="Trazado_13599" data-name="Trazado 13599" d="M972.5,2769.508l.438-.252,1.36.785v.505Z" fill="#b2aaa3" fill-rule="evenodd"/>
      </g>
      <g id="Grupo_2959" data-name="Grupo 2959">
        <path id="Trazado_13600" data-name="Trazado 13600" d="M978.494,2769.9v3.064l1.8,1.038v-3.064Z" fill="#90847e" fill-rule="evenodd"/>
        <path id="Trazado_13601" data-name="Trazado 13601" d="M978.932,2770.156v2.559l1.36.785v-2.559Z" fill="#7e7269" fill-rule="evenodd"/>
        <path id="Trazado_13602" data-name="Trazado 13602" d="M978.495,2772.967l.438-.252,1.36.785v.506Z" fill="#b2aaa3" fill-rule="evenodd"/>
      </g>
      <g id="Grupo_2960" data-name="Grupo 2960">
        <path id="Trazado_13603" data-name="Trazado 13603" d="M984.486,2773.362v3.065l1.8,1.038V2774.4Z" fill="#90847e" fill-rule="evenodd"/>
        <path id="Trazado_13604" data-name="Trazado 13604" d="M984.923,2773.615v2.559l1.36.785V2774.4Z" fill="#7e7269" fill-rule="evenodd"/>
        <path id="Trazado_13605" data-name="Trazado 13605" d="M984.486,2776.427l.438-.253,1.36.785v.506Z" fill="#b2aaa3" fill-rule="evenodd"/>
      </g>
    </g>
    <g id="Grupo_2963" data-name="Grupo 2963">
      <g id="Grupo_2962" data-name="Grupo 2962">
        <path id="Trazado_13606" data-name="Trazado 13606" d="M1046.46,2816.177l-7.279,4.2v2.016l7.279-4.2Z" fill="#d9d9d9" fill-rule="evenodd"/>
        <path id="Trazado_13607" data-name="Trazado 13607" d="M1038.937,2811.834l7.523,4.343-7.279,4.2-7.523-4.343Z" fill="#ececec" fill-rule="evenodd"/>
        <path id="Trazado_13608" data-name="Trazado 13608" d="M1031.658,2816.036l7.523,4.343v2.016l-7.523-4.343Z" fill="#b1b1b1" fill-rule="evenodd"/>
      </g>
      <path id="Trazado_13609" data-name="Trazado 13609" d="M1041.215,2814.863a2.31,2.31,0,0,1,.489.368h.4v.877a1.513,1.513,0,0,1-.892,1.243,4.759,4.759,0,0,1-4.31,0,1.514,1.514,0,0,1-.894-1.243v-.877h.4a2.351,2.351,0,0,1,.49-.368,4.757,4.757,0,0,1,4.31,0Z" fill="#868686" fill-rule="evenodd"/>
      <path id="Trazado_13610" data-name="Trazado 13610" d="M1041.215,2814.863a2.31,2.31,0,0,1,.489.368h.4v.877a1.513,1.513,0,0,1-.892,1.243,4.4,4.4,0,0,1-2.156.516h0v-3.52h0A4.407,4.407,0,0,1,1041.215,2814.863Z" fill="#b1b1b1" fill-rule="evenodd"/>
      <path id="Trazado_13611" data-name="Trazado 13611" d="M1041.215,2813.987a1.314,1.314,0,0,1,0,2.489,4.767,4.767,0,0,1-4.31,0,1.313,1.313,0,0,1,0-2.489,4.757,4.757,0,0,1,4.31,0Z" fill="#9c9b9b" fill-rule="evenodd"/>
      <path id="Trazado_13612" data-name="Trazado 13612" d="M1040.392,2777.043v38.18a.662.662,0,0,1-.39.544,2.09,2.09,0,0,1-1.886,0,.665.665,0,0,1-.391-.544v-38.18Z" fill="#6f6f6e" fill-rule="evenodd"/>
      <path id="Trazado_13613" data-name="Trazado 13613" d="M1040.392,2782.553v3.338a.665.665,0,0,1-.39.545,2.09,2.09,0,0,1-1.886,0,.668.668,0,0,1-.391-.545v-3.342h0a.666.666,0,0,0,.391.544,2.08,2.08,0,0,0,1.886,0A.664.664,0,0,0,1040.392,2782.553Z" fill="#b1b1b1" fill-rule="evenodd"/>
      <path id="Trazado_13614" data-name="Trazado 13614" d="M1040.392,2786.964v3.338a.661.661,0,0,1-.39.544,2.08,2.08,0,0,1-1.886,0,.665.665,0,0,1-.391-.544v-3.342h0a.666.666,0,0,0,.391.544,2.088,2.088,0,0,0,1.886,0A.664.664,0,0,0,1040.392,2786.964Z" fill="#b1b1b1" fill-rule="evenodd"/>
      <path id="Trazado_13615" data-name="Trazado 13615" d="M1040.392,2777.043V2813.7a.661.661,0,0,1-.39.544,1.918,1.918,0,0,1-.943.225v-36.657h0a1.929,1.929,0,0,0,.943-.225A.661.661,0,0,0,1040.392,2777.043Z" fill="#868686" fill-rule="evenodd"/>
      <path id="Trazado_13616" data-name="Trazado 13616" d="M1040.392,2782.549v3.342a.665.665,0,0,1-.39.545,1.932,1.932,0,0,1-.943.225v-3.342a1.932,1.932,0,0,0,.943-.226A.663.663,0,0,0,1040.392,2782.549Z" fill="#c6c6c5" fill-rule="evenodd"/>
      <path id="Trazado_13617" data-name="Trazado 13617" d="M1040.392,2786.96v3.342a.66.66,0,0,1-.39.544,1.919,1.919,0,0,1-.943.226v-3.343a1.918,1.918,0,0,0,.943-.225A.661.661,0,0,0,1040.392,2786.96Z" fill="#c6c6c5" fill-rule="evenodd"/>
      <path id="Trazado_13618" data-name="Trazado 13618" d="M1040,2776.5a.575.575,0,0,1,0,1.089,2.088,2.088,0,0,1-1.886,0,.575.575,0,0,1,0-1.089,2.08,2.08,0,0,1,1.886,0Z" fill="#1d1d1b" fill-rule="evenodd"/>
      <path id="Trazado_13619" data-name="Trazado 13619" d="M1042,2803.113v9.658a1.462,1.462,0,0,1-.861,1.2,4.6,4.6,0,0,1-4.161,0,1.465,1.465,0,0,1-.863-1.2v-9.658Z" fill="#6f6f6e" fill-rule="evenodd"/>
      <path id="Trazado_13620" data-name="Trazado 13620" d="M1042,2803.113v9.658a1.462,1.462,0,0,1-.861,1.2,4.25,4.25,0,0,1-2.081.5v-9.657h0a4.253,4.253,0,0,0,2.081-.5A1.46,1.46,0,0,0,1042,2803.113Z" fill="#868686" fill-rule="evenodd"/>
      <path id="Trazado_13621" data-name="Trazado 13621" d="M1041.14,2801.912a1.268,1.268,0,0,1,0,2.4,4.595,4.595,0,0,1-4.161,0,1.267,1.267,0,0,1,0-2.4,4.595,4.595,0,0,1,4.161,0Z" fill="#9c9b9b" fill-rule="evenodd"/>
      <path id="Trazado_13622" data-name="Trazado 13622" d="M1037.725,2798.27l-1.553,4.511h0a1.038,1.038,0,0,0-.056.332,1.461,1.461,0,0,0,.863,1.2,4.595,4.595,0,0,0,4.161,0,1.46,1.46,0,0,0,.861-1.2.966.966,0,0,0-.057-.333h0l-1.553-4.51h0a.661.661,0,0,1-.39.544,2.088,2.088,0,0,1-1.886,0A.665.665,0,0,1,1037.725,2798.27Z" fill="#9c9b9b" fill-rule="evenodd"/>
      <path id="Trazado_13623" data-name="Trazado 13623" d="M1038.814,2801.42l.245-2.381a1.929,1.929,0,0,1-.943-.225.665.665,0,0,1-.391-.544l-1.551,4.509,0,0a1.038,1.038,0,0,0-.056.332,1.218,1.218,0,0,0,.422.876,2.251,2.251,0,0,0,.441.325,3.92,3.92,0,0,0,1.489.463l.171-1.664.037-.359Z" fill="#868686" fill-rule="evenodd"/>
      <path id="Trazado_13624" data-name="Trazado 13624" d="M1039.059,2814.469a4.769,4.769,0,0,1-1.334-.184v.938a.665.665,0,0,0,.391.544,1.932,1.932,0,0,0,.943.225Z" fill="#575756" fill-rule="evenodd"/>
    </g>
    <g id="Grupo_2965" data-name="Grupo 2965">
      <g id="Grupo_2964" data-name="Grupo 2964">
        <path id="Trazado_13625" data-name="Trazado 13625" d="M1032.532,2808.137l-7.278,4.2v2.016l7.278-4.2Z" fill="#d9d9d9" fill-rule="evenodd"/>
        <path id="Trazado_13626" data-name="Trazado 13626" d="M1025.009,2803.793l7.523,4.344-7.278,4.2-7.523-4.344Z" fill="#ececec" fill-rule="evenodd"/>
        <path id="Trazado_13627" data-name="Trazado 13627" d="M1017.731,2808l7.523,4.344v2.016l-7.523-4.344Z" fill="#b1b1b1" fill-rule="evenodd"/>
      </g>
      <path id="Trazado_13628" data-name="Trazado 13628" d="M1027.288,2806.822a2.3,2.3,0,0,1,.489.369h.4v.875a1.519,1.519,0,0,1-.892,1.245,4.769,4.769,0,0,1-4.311,0,1.517,1.517,0,0,1-.894-1.245v-.875h.4a2.341,2.341,0,0,1,.49-.369,4.759,4.759,0,0,1,4.311,0Z" fill="#868686" fill-rule="evenodd"/>
      <path id="Trazado_13629" data-name="Trazado 13629" d="M1027.288,2806.822a2.3,2.3,0,0,1,.489.369h.4v.875a1.519,1.519,0,0,1-.892,1.245,4.417,4.417,0,0,1-2.156.515h0v-3.52h0A4.407,4.407,0,0,1,1027.288,2806.822Z" fill="#b1b1b1" fill-rule="evenodd"/>
      <path id="Trazado_13630" data-name="Trazado 13630" d="M1027.288,2805.946a1.313,1.313,0,0,1,0,2.488,4.761,4.761,0,0,1-4.311,0,1.313,1.313,0,0,1,0-2.488,4.759,4.759,0,0,1,4.311,0Z" fill="#9c9b9b" fill-rule="evenodd"/>
      <path id="Trazado_13631" data-name="Trazado 13631" d="M1026.465,2769v38.18a.662.662,0,0,1-.39.544,2.082,2.082,0,0,1-1.886,0,.661.661,0,0,1-.391-.544V2769Z" fill="#6f6f6e" fill-rule="evenodd"/>
      <path id="Trazado_13632" data-name="Trazado 13632" d="M1026.465,2774.512v3.338a.662.662,0,0,1-.39.544,2.08,2.08,0,0,1-1.886,0,.661.661,0,0,1-.391-.544v-3.342h0a.662.662,0,0,0,.391.544,2.088,2.088,0,0,0,1.886,0A.664.664,0,0,0,1026.465,2774.512Z" fill="#b1b1b1" fill-rule="evenodd"/>
      <path id="Trazado_13633" data-name="Trazado 13633" d="M1026.465,2778.923v3.338a.661.661,0,0,1-.39.544,2.08,2.08,0,0,1-1.886,0,.661.661,0,0,1-.391-.544v-3.342h0a.663.663,0,0,0,.391.544,2.088,2.088,0,0,0,1.886,0A.664.664,0,0,0,1026.465,2778.923Z" fill="#b1b1b1" fill-rule="evenodd"/>
      <path id="Trazado_13634" data-name="Trazado 13634" d="M1026.465,2769v36.657a.663.663,0,0,1-.39.544,1.936,1.936,0,0,1-.944.225v-36.657h0a1.936,1.936,0,0,0,.944-.225A.661.661,0,0,0,1026.465,2769Z" fill="#868686" fill-rule="evenodd"/>
      <path id="Trazado_13635" data-name="Trazado 13635" d="M1026.465,2774.508v3.342a.66.66,0,0,1-.39.544,1.928,1.928,0,0,1-.944.226v-3.343a1.928,1.928,0,0,0,.944-.225A.661.661,0,0,0,1026.465,2774.508Z" fill="#c6c6c5" fill-rule="evenodd"/>
      <path id="Trazado_13636" data-name="Trazado 13636" d="M1026.465,2778.919v3.342a.661.661,0,0,1-.39.544,1.925,1.925,0,0,1-.944.226v-3.343a1.936,1.936,0,0,0,.944-.225A.663.663,0,0,0,1026.465,2778.919Z" fill="#c6c6c5" fill-rule="evenodd"/>
      <path id="Trazado_13637" data-name="Trazado 13637" d="M1026.075,2768.457a.575.575,0,0,1,0,1.089,2.088,2.088,0,0,1-1.886,0,.575.575,0,0,1,0-1.089,2.08,2.08,0,0,1,1.886,0Z" fill="#1d1d1b" fill-rule="evenodd"/>
      <path id="Trazado_13638" data-name="Trazado 13638" d="M1028.074,2795.073v9.657a1.462,1.462,0,0,1-.861,1.2,4.6,4.6,0,0,1-4.161,0,1.461,1.461,0,0,1-.863-1.2v-9.657Z" fill="#6f6f6e" fill-rule="evenodd"/>
      <path id="Trazado_13639" data-name="Trazado 13639" d="M1028.074,2795.073v9.657a1.462,1.462,0,0,1-.861,1.2,4.256,4.256,0,0,1-2.082.5v-9.657h0a4.254,4.254,0,0,0,2.082-.5A1.462,1.462,0,0,0,1028.074,2795.073Z" fill="#868686" fill-rule="evenodd"/>
      <path id="Trazado_13640" data-name="Trazado 13640" d="M1027.213,2793.871a1.268,1.268,0,0,1,0,2.4,4.594,4.594,0,0,1-4.161,0,1.267,1.267,0,0,1,0-2.4,4.594,4.594,0,0,1,4.161,0Z" fill="#9c9b9b" fill-rule="evenodd"/>
      <path id="Trazado_13641" data-name="Trazado 13641" d="M1023.8,2790.229l-1.553,4.512h0a1.006,1.006,0,0,0-.056.332,1.459,1.459,0,0,0,.863,1.2,4.594,4.594,0,0,0,4.161,0,1.462,1.462,0,0,0,.861-1.2,1.017,1.017,0,0,0-.057-.334h0l-1.552-4.51h0a.661.661,0,0,1-.39.544,2.088,2.088,0,0,1-1.886,0A.661.661,0,0,1,1023.8,2790.229Z" fill="#9c9b9b" fill-rule="evenodd"/>
      <path id="Trazado_13642" data-name="Trazado 13642" d="M1024.886,2793.379l.245-2.381a1.928,1.928,0,0,1-.942-.225.661.661,0,0,1-.391-.544l-1.552,4.509v0a1.006,1.006,0,0,0-.056.332,1.22,1.22,0,0,0,.421.875,2.226,2.226,0,0,0,.442.325,3.894,3.894,0,0,0,1.488.463l.172-1.663.037-.359Z" fill="#868686" fill-rule="evenodd"/>
      <path id="Trazado_13643" data-name="Trazado 13643" d="M1025.131,2806.428a4.767,4.767,0,0,1-1.333-.184v.938a.661.661,0,0,0,.391.544,1.921,1.921,0,0,0,.942.226Z" fill="#575756" fill-rule="evenodd"/>
    </g>
    <g id="Grupo_2966" data-name="Grupo 2966">
      <path id="Trazado_13644" data-name="Trazado 13644" d="M1043.24,2808.833l-26.7,15.416v12.785l26.7-15.416Z" fill="#a49a93" fill-rule="evenodd"/>
      <path id="Trazado_13645" data-name="Trazado 13645" d="M994.292,2811.4l11.123,1.753,11.123,11.091v12.785l-11.123-6.422-11.123-6.422Z" fill="#e3dad2" fill-rule="evenodd"/>
      <path id="Trazado_13646" data-name="Trazado 13646" d="M997.63,2817.168l15.571,8.99v7.167l-15.571-8.99Z" fill="#62544b" fill-rule="evenodd"/>
      <path id="Trazado_13647" data-name="Trazado 13647" d="M1032.116,2797.741l-26.7,15.416,11.123,11.091,26.7-15.416Z" fill="#bbb1a9" fill-rule="evenodd"/>
      <path id="Trazado_13648" data-name="Trazado 13648" d="M1014.323,2808.015l-2.977,1.718,11.124,11.091,2.976-1.718-11.123-11.091Zm5.931-3.425,11.123,11.091-2.976,1.719-11.124-11.092,2.977-1.718Zm5.931-3.424,11.124,11.091-2.977,1.718-11.123-11.091,2.976-1.718Zm5.931-3.425-2.976,1.719,11.123,11.091,2.977-1.718-11.124-11.092Zm-23.724,13.7,11.123,11.091-2.977,1.718-11.123-11.091Z" fill="#90847e" fill-rule="evenodd"/>
      <path id="Trazado_13649" data-name="Trazado 13649" d="M1032.116,2797.741l-26.7,15.416-11.123-1.753,26.7-15.416Z" fill="#cdc3bb" fill-rule="evenodd"/>
      <path id="Trazado_13650" data-name="Trazado 13650" d="M1007.337,2829.507l5.863,3.385v2.22l-7.785-4.495-7.786-4.495,1.923-1.11Z" fill="#fff5ed" fill-rule="evenodd"/>
      <path id="Trazado_13651" data-name="Trazado 13651" d="M999.552,2818.278v6.734l-1.923,1.11v-8.954Z" fill="#7a6e64" fill-rule="evenodd"/>
      <path id="Trazado_13652" data-name="Trazado 13652" d="M1014.323,2808.015l-2.977,1.718-11.123-1.753,2.976-1.718,11.124,1.753Zm5.931-3.425-11.124-1.753-2.976,1.719,11.123,1.752,2.977-1.718Zm5.931-3.424-2.976,1.718-11.123-1.753,2.976-1.718,11.123,1.753Zm5.931-3.425-11.123-1.753-2.976,1.719,11.123,1.753,2.976-1.719Zm-23.724,13.7-11.124-1.753-2.976,1.718,11.123,1.753Z" fill="#bbb1a9" fill-rule="evenodd"/>
    </g>
    <g id="Grupo_2970" data-name="Grupo 2970">
      <g id="Grupo_2967" data-name="Grupo 2967">
        <path id="Trazado_13653" data-name="Trazado 13653" d="M1043.736,2809.756a2.692,2.692,0,0,1,.578.435h.475v15.888a1.786,1.786,0,0,1-1.053,1.469,5.629,5.629,0,0,1-5.089,0,1.79,1.79,0,0,1-1.055-1.469v-15.888h.477a2.748,2.748,0,0,1,.578-.435,5.619,5.619,0,0,1,5.089,0Z" fill="#bbb1a9" fill-rule="evenodd"/>
        <path id="Trazado_13654" data-name="Trazado 13654" d="M1043.736,2809.756a2.692,2.692,0,0,1,.578.435h.475v3.779a1.785,1.785,0,0,1-1.053,1.469,5.2,5.2,0,0,1-2.545.608v-6.9A5.2,5.2,0,0,1,1043.736,2809.756Z" fill="#cdc3bb" fill-rule="evenodd"/>
        <path id="Trazado_13655" data-name="Trazado 13655" d="M1043.736,2813.514a5.627,5.627,0,0,1-5.089,0,1.79,1.79,0,0,1-1.055-1.469v.212a1.79,1.79,0,0,0,1.055,1.469,5.629,5.629,0,0,0,5.089,0,1.786,1.786,0,0,0,1.053-1.469v-.212a1.787,1.787,0,0,1-1.053,1.469Zm-2.545-.237a5.211,5.211,0,0,0,2.545-.608,1.787,1.787,0,0,0,1.053-1.469v.689a1.785,1.785,0,0,1-1.053,1.468,5.627,5.627,0,0,1-5.089,0,1.787,1.787,0,0,1-1.055-1.468v-.689a1.79,1.79,0,0,0,1.055,1.469A5.2,5.2,0,0,0,1041.191,2813.277Z" fill="#ccc2ba" fill-rule="evenodd"/>
        <path id="Trazado_13656" data-name="Trazado 13656" d="M1040.638,2828.131v-18.96c.183-.016.368-.024.553-.024a5.2,5.2,0,0,1,2.545.609,2.692,2.692,0,0,1,.578.435h.475v15.888a1.786,1.786,0,0,1-1.053,1.469,5.2,5.2,0,0,1-2.545.608C1041.006,2828.156,1040.821,2828.148,1040.638,2828.131Z" fill="#cdc3bb" fill-rule="evenodd"/>
        <path id="Trazado_13657" data-name="Trazado 13657" d="M1040.638,2814.309v-.212c.183.017.368.025.553.025a5.211,5.211,0,0,0,2.545-.608,1.787,1.787,0,0,0,1.053-1.469v.212a1.786,1.786,0,0,1-1.053,1.469,5.2,5.2,0,0,1-2.545.608c-.185,0-.37-.008-.553-.025Zm0-.368c.183.016.368.024.553.024a5.189,5.189,0,0,0,2.545-.608,1.785,1.785,0,0,0,1.053-1.468v-.689a1.787,1.787,0,0,1-1.053,1.469,5.211,5.211,0,0,1-2.545.608c-.185,0-.37-.008-.553-.025Z" fill="#e3dad2" fill-rule="evenodd"/>
        <path id="Trazado_13658" data-name="Trazado 13658" d="M1043.736,2808.721a1.552,1.552,0,0,1,0,2.939,5.627,5.627,0,0,1-5.089,0,1.55,1.55,0,0,1,0-2.938,5.617,5.617,0,0,1,5.089,0Z" fill="#dacfc7" fill-rule="evenodd"/>
        <path id="Trazado_13659" data-name="Trazado 13659" d="M1043.087,2808.515a1.155,1.155,0,0,1,0,2.188,4.191,4.191,0,0,1-3.791,0,1.154,1.154,0,0,1,0-2.188,4.185,4.185,0,0,1,3.791,0Z" fill="#e3dad2" fill-rule="evenodd"/>
        <path id="Trazado_13660" data-name="Trazado 13660" d="M1041.6,2809.373a.249.249,0,0,1,0,.472.835.835,0,0,1-.408.1.85.85,0,0,1-.409-.1.249.249,0,0,1,0-.472.9.9,0,0,1,.817,0Z" fill="#90847e" fill-rule="evenodd"/>
        <path id="Trazado_13661" data-name="Trazado 13661" d="M1041.191,2828.051a5.2,5.2,0,0,1-2.544-.608,1.789,1.789,0,0,1-1.055-1.469v.1a1.79,1.79,0,0,0,1.055,1.469,5.629,5.629,0,0,0,5.089,0,1.786,1.786,0,0,0,1.053-1.469v-.1a1.785,1.785,0,0,1-1.053,1.469A5.2,5.2,0,0,1,1041.191,2828.051Z" fill="#bbb1a9" fill-rule="evenodd"/>
        <path id="Trazado_13662" data-name="Trazado 13662" d="M1040.638,2812.243l.108-1.108c-.037,0-.073-.007-.108-.012a3.54,3.54,0,0,1-1.342-.42,1.471,1.471,0,0,1-.76-.88.917.917,0,0,1-.026-.214,1.333,1.333,0,0,1,.786-1.094,3.051,3.051,0,0,1,.622-.268,4.432,4.432,0,0,0-1.271.475,1.55,1.55,0,0,0,0,2.938A4.882,4.882,0,0,0,1040.638,2812.243Z" fill="#f5ece3" fill-rule="evenodd"/>
        <path id="Trazado_13663" data-name="Trazado 13663" d="M1043.736,2816.175a5.629,5.629,0,0,1-5.089,0,1.789,1.789,0,0,1-1.055-1.469v.213a1.789,1.789,0,0,0,1.055,1.468,5.627,5.627,0,0,0,5.089,0,1.785,1.785,0,0,0,1.053-1.468v-.213a1.785,1.785,0,0,1-1.053,1.469Zm-2.545-.237a5.2,5.2,0,0,0,2.545-.608,1.786,1.786,0,0,0,1.053-1.469v.689a1.785,1.785,0,0,1-1.053,1.468,5.621,5.621,0,0,1-5.089,0,1.787,1.787,0,0,1-1.055-1.468v-.689a1.79,1.79,0,0,0,1.055,1.469A5.2,5.2,0,0,0,1041.191,2815.938Z" fill="#ccc2ba" fill-rule="evenodd"/>
        <path id="Trazado_13664" data-name="Trazado 13664" d="M1043.736,2818.836a5.627,5.627,0,0,1-5.089,0,1.79,1.79,0,0,1-1.055-1.469v.212a1.787,1.787,0,0,0,1.055,1.469,5.629,5.629,0,0,0,5.089,0,1.785,1.785,0,0,0,1.053-1.469v-.212a1.787,1.787,0,0,1-1.053,1.469Zm-2.545-.237a5.2,5.2,0,0,0,2.545-.608,1.786,1.786,0,0,0,1.053-1.469v.689a1.785,1.785,0,0,1-1.053,1.468,5.619,5.619,0,0,1-5.089,0,1.787,1.787,0,0,1-1.055-1.468v-.689a1.79,1.79,0,0,0,1.055,1.469A5.2,5.2,0,0,0,1041.191,2818.6Z" fill="#ccc2ba" fill-rule="evenodd"/>
        <path id="Trazado_13665" data-name="Trazado 13665" d="M1043.736,2821.5a5.629,5.629,0,0,1-5.089,0,1.789,1.789,0,0,1-1.055-1.469v.213a1.787,1.787,0,0,0,1.055,1.468,5.629,5.629,0,0,0,5.089,0,1.785,1.785,0,0,0,1.053-1.468v-.213a1.785,1.785,0,0,1-1.053,1.469Zm-2.545-.237a5.2,5.2,0,0,0,2.545-.608,1.786,1.786,0,0,0,1.053-1.469v.689a1.787,1.787,0,0,1-1.053,1.469,5.629,5.629,0,0,1-5.089,0,1.79,1.79,0,0,1-1.055-1.469v-.689a1.79,1.79,0,0,0,1.055,1.469A5.2,5.2,0,0,0,1041.191,2821.26Z" fill="#ccc2ba" fill-rule="evenodd"/>
        <path id="Trazado_13666" data-name="Trazado 13666" d="M1043.736,2824.158a5.627,5.627,0,0,1-5.089,0,1.789,1.789,0,0,1-1.055-1.469v.212a1.789,1.789,0,0,0,1.055,1.469,5.621,5.621,0,0,0,5.089,0,1.785,1.785,0,0,0,1.053-1.469v-.212a1.785,1.785,0,0,1-1.053,1.469Zm-2.545-.237a5.2,5.2,0,0,0,2.545-.608,1.785,1.785,0,0,0,1.053-1.469v.689a1.782,1.782,0,0,1-1.053,1.468,5.619,5.619,0,0,1-5.089,0,1.786,1.786,0,0,1-1.055-1.468v-.689a1.789,1.789,0,0,0,1.055,1.469A5.2,5.2,0,0,0,1041.191,2823.921Z" fill="#ccc2ba" fill-rule="evenodd"/>
        <path id="Trazado_13667" data-name="Trazado 13667" d="M1040.638,2816.971v-.213c.183.017.368.025.553.025a5.2,5.2,0,0,0,2.545-.608,1.785,1.785,0,0,0,1.053-1.469v.213a1.785,1.785,0,0,1-1.053,1.468,5.2,5.2,0,0,1-2.545.608c-.185,0-.37-.008-.553-.024Zm0-.369c.183.016.368.025.553.025a5.2,5.2,0,0,0,2.545-.609,1.785,1.785,0,0,0,1.053-1.468v-.689a1.786,1.786,0,0,1-1.053,1.469,5.2,5.2,0,0,1-2.545.608c-.185,0-.37-.009-.553-.025Z" fill="#e3dad2" fill-rule="evenodd"/>
        <path id="Trazado_13668" data-name="Trazado 13668" d="M1040.638,2819.632v-.212c.183.016.368.024.553.024a5.211,5.211,0,0,0,2.545-.608,1.787,1.787,0,0,0,1.053-1.469v.212a1.785,1.785,0,0,1-1.053,1.469,5.2,5.2,0,0,1-2.545.608c-.185,0-.37-.008-.553-.024Zm0-.369c.183.016.368.025.553.025a5.2,5.2,0,0,0,2.545-.609,1.785,1.785,0,0,0,1.053-1.468v-.689a1.786,1.786,0,0,1-1.053,1.469,5.2,5.2,0,0,1-2.545.608c-.185,0-.37-.008-.553-.025Z" fill="#e3dad2" fill-rule="evenodd"/>
        <path id="Trazado_13669" data-name="Trazado 13669" d="M1040.638,2822.293v-.212c.183.016.368.024.553.024a5.2,5.2,0,0,0,2.545-.608,1.785,1.785,0,0,0,1.053-1.469v.213a1.785,1.785,0,0,1-1.053,1.468,5.2,5.2,0,0,1-2.545.608c-.185,0-.37-.008-.553-.024Zm0-.369c.183.016.368.025.553.025a5.211,5.211,0,0,0,2.545-.608,1.787,1.787,0,0,0,1.053-1.469v-.689a1.786,1.786,0,0,1-1.053,1.469,5.2,5.2,0,0,1-2.545.608c-.185,0-.37-.008-.553-.025Z" fill="#e3dad2" fill-rule="evenodd"/>
        <path id="Trazado_13670" data-name="Trazado 13670" d="M1040.638,2824.954v-.213c.183.017.368.025.553.025a5.2,5.2,0,0,0,2.545-.608,1.785,1.785,0,0,0,1.053-1.469v.212a1.785,1.785,0,0,1-1.053,1.469,5.2,5.2,0,0,1-2.545.609c-.185,0-.37-.009-.553-.025Zm0-.369c.183.017.368.025.553.025a5.19,5.19,0,0,0,2.545-.609,1.782,1.782,0,0,0,1.053-1.468v-.689a1.785,1.785,0,0,1-1.053,1.469,5.2,5.2,0,0,1-2.545.608c-.185,0-.37-.008-.553-.025Z" fill="#e3dad2" fill-rule="evenodd"/>
      </g>
      <g id="Grupo_2968" data-name="Grupo 2968">
        <path id="Trazado_13671" data-name="Trazado 13671" d="M1037.664,2813.261a2.761,2.761,0,0,1,.578.436h.475v15.888a1.784,1.784,0,0,1-1.053,1.468,5.619,5.619,0,0,1-5.089,0,1.791,1.791,0,0,1-1.056-1.468V2813.7H1032a2.757,2.757,0,0,1,.578-.435,5.617,5.617,0,0,1,5.089,0Z" fill="#bbb1a9" fill-rule="evenodd"/>
        <path id="Trazado_13672" data-name="Trazado 13672" d="M1037.664,2813.261a2.761,2.761,0,0,1,.578.436h.475v3.779a1.787,1.787,0,0,1-1.053,1.469,5.2,5.2,0,0,1-2.545.608v-6.9A5.214,5.214,0,0,1,1037.664,2813.261Z" fill="#cdc3bb" fill-rule="evenodd"/>
        <path id="Trazado_13673" data-name="Trazado 13673" d="M1037.664,2817.019a5.621,5.621,0,0,1-5.089,0,1.791,1.791,0,0,1-1.056-1.468v.212a1.791,1.791,0,0,0,1.056,1.468,5.619,5.619,0,0,0,5.089,0,1.785,1.785,0,0,0,1.053-1.468v-.212a1.785,1.785,0,0,1-1.053,1.468Zm-2.545-.237a5.189,5.189,0,0,0,2.545-.608,1.785,1.785,0,0,0,1.053-1.468v.688a1.785,1.785,0,0,1-1.053,1.469,5.629,5.629,0,0,1-5.089,0,1.792,1.792,0,0,1-1.056-1.469v-.688a1.791,1.791,0,0,0,1.056,1.468A5.191,5.191,0,0,0,1035.119,2816.782Z" fill="#ccc2ba" fill-rule="evenodd"/>
        <path id="Trazado_13674" data-name="Trazado 13674" d="M1034.566,2831.637v-18.96c.183-.016.368-.024.553-.025a5.211,5.211,0,0,1,2.545.609,2.761,2.761,0,0,1,.578.436h.475v15.888a1.785,1.785,0,0,1-1.053,1.468,5.2,5.2,0,0,1-2.545.609C1034.934,2831.662,1034.749,2831.653,1034.566,2831.637Z" fill="#cdc3bb" fill-rule="evenodd"/>
        <path id="Trazado_13675" data-name="Trazado 13675" d="M1034.566,2817.815v-.212c.183.017.368.025.553.025a5.2,5.2,0,0,0,2.545-.609,1.785,1.785,0,0,0,1.053-1.468v.212a1.785,1.785,0,0,1-1.053,1.468,5.19,5.19,0,0,1-2.545.609c-.185,0-.37-.008-.553-.025Zm0-.369c.183.017.368.025.553.025a5.2,5.2,0,0,0,2.545-.608,1.785,1.785,0,0,0,1.053-1.469v-.688a1.785,1.785,0,0,1-1.053,1.468,5.189,5.189,0,0,1-2.545.608c-.185,0-.37-.008-.553-.024Z" fill="#e3dad2" fill-rule="evenodd"/>
        <path id="Trazado_13676" data-name="Trazado 13676" d="M1037.664,2812.227a1.552,1.552,0,0,1,0,2.939,5.629,5.629,0,0,1-5.089,0,1.551,1.551,0,0,1,0-2.939,5.619,5.619,0,0,1,5.089,0Z" fill="#dacfc7" fill-rule="evenodd"/>
        <path id="Trazado_13677" data-name="Trazado 13677" d="M1037.015,2812.021a1.155,1.155,0,0,1,0,2.188,4.191,4.191,0,0,1-3.791,0,1.154,1.154,0,0,1,0-2.188,4.183,4.183,0,0,1,3.791,0Z" fill="#e3dad2" fill-rule="evenodd"/>
        <path id="Trazado_13678" data-name="Trazado 13678" d="M1035.527,2812.879a.249.249,0,0,1,0,.471.9.9,0,0,1-.817,0,.249.249,0,0,1,0-.471.9.9,0,0,1,.817,0Z" fill="#90847e" fill-rule="evenodd"/>
        <path id="Trazado_13679" data-name="Trazado 13679" d="M1035.119,2831.557a5.2,5.2,0,0,1-2.544-.608,1.793,1.793,0,0,1-1.056-1.469v.1a1.791,1.791,0,0,0,1.056,1.468,5.619,5.619,0,0,0,5.089,0,1.785,1.785,0,0,0,1.053-1.468v-.1a1.787,1.787,0,0,1-1.053,1.469A5.211,5.211,0,0,1,1035.119,2831.557Z" fill="#bbb1a9" fill-rule="evenodd"/>
        <path id="Trazado_13680" data-name="Trazado 13680" d="M1034.566,2815.749l.107-1.108-.107-.012a3.575,3.575,0,0,1-1.342-.42,1.475,1.475,0,0,1-.76-.88.868.868,0,0,1-.026-.214,1.331,1.331,0,0,1,.786-1.094,3.108,3.108,0,0,1,.623-.269,4.486,4.486,0,0,0-1.272.475,1.551,1.551,0,0,0,0,2.939A4.912,4.912,0,0,0,1034.566,2815.749Z" fill="#f5ece3" fill-rule="evenodd"/>
        <path id="Trazado_13681" data-name="Trazado 13681" d="M1037.664,2819.681a5.627,5.627,0,0,1-5.089,0,1.793,1.793,0,0,1-1.056-1.469v.212a1.792,1.792,0,0,0,1.056,1.469,5.629,5.629,0,0,0,5.089,0,1.786,1.786,0,0,0,1.053-1.469v-.212a1.787,1.787,0,0,1-1.053,1.469Zm-2.545-.237a5.211,5.211,0,0,0,2.545-.608,1.787,1.787,0,0,0,1.053-1.469v.688a1.785,1.785,0,0,1-1.053,1.469,5.627,5.627,0,0,1-5.089,0,1.792,1.792,0,0,1-1.056-1.469v-.688a1.793,1.793,0,0,0,1.056,1.469A5.2,5.2,0,0,0,1035.119,2819.444Z" fill="#ccc2ba" fill-rule="evenodd"/>
        <path id="Trazado_13682" data-name="Trazado 13682" d="M1037.664,2822.342a5.629,5.629,0,0,1-5.089,0,1.793,1.793,0,0,1-1.056-1.469v.212a1.793,1.793,0,0,0,1.056,1.469,5.627,5.627,0,0,0,5.089,0,1.786,1.786,0,0,0,1.053-1.469v-.212a1.786,1.786,0,0,1-1.053,1.469Zm-2.545-.237a5.19,5.19,0,0,0,2.545-.609,1.785,1.785,0,0,0,1.053-1.468v.688a1.785,1.785,0,0,1-1.053,1.469,5.629,5.629,0,0,1-5.089,0,1.792,1.792,0,0,1-1.056-1.469v-.688a1.791,1.791,0,0,0,1.056,1.468A5.192,5.192,0,0,0,1035.119,2822.1Z" fill="#ccc2ba" fill-rule="evenodd"/>
        <path id="Trazado_13683" data-name="Trazado 13683" d="M1037.664,2825a5.627,5.627,0,0,1-5.089,0,1.793,1.793,0,0,1-1.056-1.469v.212a1.792,1.792,0,0,0,1.056,1.469,5.629,5.629,0,0,0,5.089,0,1.785,1.785,0,0,0,1.053-1.469v-.212a1.786,1.786,0,0,1-1.053,1.469Zm-2.545-.237a5.211,5.211,0,0,0,2.545-.608,1.786,1.786,0,0,0,1.053-1.469v.689a1.785,1.785,0,0,1-1.053,1.468,5.619,5.619,0,0,1-5.089,0,1.792,1.792,0,0,1-1.056-1.468v-.689a1.793,1.793,0,0,0,1.056,1.469A5.213,5.213,0,0,0,1035.119,2824.766Z" fill="#ccc2ba" fill-rule="evenodd"/>
        <path id="Trazado_13684" data-name="Trazado 13684" d="M1037.664,2827.663a5.621,5.621,0,0,1-5.089,0,1.791,1.791,0,0,1-1.056-1.468v.212a1.793,1.793,0,0,0,1.056,1.469,5.629,5.629,0,0,0,5.089,0,1.786,1.786,0,0,0,1.053-1.469v-.212a1.784,1.784,0,0,1-1.053,1.468Zm-2.545-.236a5.211,5.211,0,0,0,2.545-.608,1.787,1.787,0,0,0,1.053-1.469v.688a1.785,1.785,0,0,1-1.053,1.469,5.629,5.629,0,0,1-5.089,0,1.791,1.791,0,0,1-1.056-1.469v-.688a1.793,1.793,0,0,0,1.056,1.469A5.2,5.2,0,0,0,1035.119,2827.427Z" fill="#ccc2ba" fill-rule="evenodd"/>
        <path id="Trazado_13685" data-name="Trazado 13685" d="M1034.566,2820.476v-.212c.183.016.368.025.553.025a5.211,5.211,0,0,0,2.545-.608,1.787,1.787,0,0,0,1.053-1.469v.212a1.786,1.786,0,0,1-1.053,1.469,5.211,5.211,0,0,1-2.545.608c-.185,0-.37-.008-.553-.025Zm0-.368c.183.016.368.024.553.024a5.2,5.2,0,0,0,2.545-.608,1.785,1.785,0,0,0,1.053-1.469v-.688a1.787,1.787,0,0,1-1.053,1.469,5.211,5.211,0,0,1-2.545.608c-.185,0-.37-.009-.553-.025Z" fill="#e3dad2" fill-rule="evenodd"/>
        <path id="Trazado_13686" data-name="Trazado 13686" d="M1034.566,2823.138v-.213c.183.017.368.025.553.025a5.211,5.211,0,0,0,2.545-.608,1.786,1.786,0,0,0,1.053-1.469v.212a1.786,1.786,0,0,1-1.053,1.469,5.2,5.2,0,0,1-2.545.608c-.185,0-.37-.008-.553-.024Zm0-.37c.183.017.368.025.553.025a5.2,5.2,0,0,0,2.545-.608,1.785,1.785,0,0,0,1.053-1.469v-.688a1.785,1.785,0,0,1-1.053,1.468,5.19,5.19,0,0,1-2.545.609c-.185,0-.37-.008-.553-.025Z" fill="#e3dad2" fill-rule="evenodd"/>
        <path id="Trazado_13687" data-name="Trazado 13687" d="M1034.566,2825.8v-.212c.183.016.368.025.553.025a5.211,5.211,0,0,0,2.545-.608,1.786,1.786,0,0,0,1.053-1.469v.212a1.785,1.785,0,0,1-1.053,1.469,5.2,5.2,0,0,1-2.545.608c-.185,0-.37-.008-.553-.025Zm0-.368c.183.016.368.024.553.025a5.2,5.2,0,0,0,2.545-.609,1.785,1.785,0,0,0,1.053-1.468v-.689a1.786,1.786,0,0,1-1.053,1.469,5.211,5.211,0,0,1-2.545.608c-.185,0-.37-.008-.553-.025Z" fill="#e3dad2" fill-rule="evenodd"/>
        <path id="Trazado_13688" data-name="Trazado 13688" d="M1034.566,2828.46v-.213c.183.017.368.025.553.025a5.19,5.19,0,0,0,2.545-.609,1.784,1.784,0,0,0,1.053-1.468v.212a1.786,1.786,0,0,1-1.053,1.469,5.2,5.2,0,0,1-2.545.608c-.185,0-.37-.008-.553-.024Zm0-.369c.183.016.368.024.553.024a5.2,5.2,0,0,0,2.545-.608,1.785,1.785,0,0,0,1.053-1.469v-.688a1.787,1.787,0,0,1-1.053,1.469,5.211,5.211,0,0,1-2.545.608c-.185,0-.37-.008-.553-.025Z" fill="#e3dad2" fill-rule="evenodd"/>
      </g>
      <g id="Grupo_2969" data-name="Grupo 2969">
        <path id="Trazado_13689" data-name="Trazado 13689" d="M1031.592,2816.768a2.7,2.7,0,0,1,.578.435h.475v15.887a1.787,1.787,0,0,1-1.053,1.469,5.629,5.629,0,0,1-5.089,0,1.788,1.788,0,0,1-1.055-1.469V2817.2h.477a2.717,2.717,0,0,1,.578-.435,5.611,5.611,0,0,1,5.089,0Z" fill="#cdc3bb" fill-rule="evenodd"/>
        <path id="Trazado_13690" data-name="Trazado 13690" d="M1031.592,2816.768a2.7,2.7,0,0,1,.578.435h.475v3.778a1.787,1.787,0,0,1-1.053,1.469,5.2,5.2,0,0,1-2.546.609v-6.9A5.194,5.194,0,0,1,1031.592,2816.768Z" fill="#cdc3bb" fill-rule="evenodd"/>
        <path id="Trazado_13691" data-name="Trazado 13691" d="M1031.592,2820.525a5.627,5.627,0,0,1-5.089,0,1.787,1.787,0,0,1-1.055-1.469v.213a1.788,1.788,0,0,0,1.055,1.468,5.629,5.629,0,0,0,5.089,0,1.787,1.787,0,0,0,1.053-1.468v-.213a1.787,1.787,0,0,1-1.053,1.469Zm-2.545-.237a5.2,5.2,0,0,0,2.545-.608,1.787,1.787,0,0,0,1.053-1.469v.689a1.788,1.788,0,0,1-1.053,1.469,5.627,5.627,0,0,1-5.089,0,1.79,1.79,0,0,1-1.055-1.469v-.689a1.789,1.789,0,0,0,1.055,1.469A5.2,5.2,0,0,0,1029.047,2820.288Z" fill="#e3dad2" fill-rule="evenodd"/>
        <path id="Trazado_13692" data-name="Trazado 13692" d="M1028.494,2835.143v-18.96c.183-.016.368-.025.553-.025a5.2,5.2,0,0,1,2.545.609,2.733,2.733,0,0,1,.578.436h.475v15.887a1.787,1.787,0,0,1-1.053,1.469,5.2,5.2,0,0,1-2.545.608C1028.862,2835.167,1028.677,2835.159,1028.494,2835.143Z" fill="#bbb1a9" fill-rule="evenodd"/>
        <path id="Trazado_13693" data-name="Trazado 13693" d="M1028.494,2821.321v-.212c.183.016.368.024.553.024a5.2,5.2,0,0,0,2.545-.608,1.787,1.787,0,0,0,1.053-1.469v.213a1.787,1.787,0,0,1-1.053,1.468,5.19,5.19,0,0,1-2.545.608c-.185,0-.37-.008-.553-.024Zm0-.369c.183.017.368.025.553.025a5.2,5.2,0,0,0,2.545-.608,1.788,1.788,0,0,0,1.053-1.469v-.689a1.787,1.787,0,0,1-1.053,1.469,5.2,5.2,0,0,1-2.545.608c-.185,0-.37-.008-.553-.024Z" fill="#ccc2ba" fill-rule="evenodd"/>
        <path id="Trazado_13694" data-name="Trazado 13694" d="M1031.592,2815.733a1.551,1.551,0,0,1,0,2.938,5.619,5.619,0,0,1-5.089,0,1.55,1.55,0,0,1,0-2.938,5.621,5.621,0,0,1,5.089,0Z" fill="#dacfc7" fill-rule="evenodd"/>
        <path id="Trazado_13695" data-name="Trazado 13695" d="M1030.943,2815.526a1.156,1.156,0,0,1,0,2.189,4.193,4.193,0,0,1-3.791,0,1.154,1.154,0,0,1,0-2.188,4.188,4.188,0,0,1,3.791,0Z" fill="#e3dad2" fill-rule="evenodd"/>
        <path id="Trazado_13696" data-name="Trazado 13696" d="M1029.455,2816.384a.249.249,0,0,1,0,.472.9.9,0,0,1-.817,0,.286.286,0,0,1-.169-.236.29.29,0,0,1,.169-.236.909.909,0,0,1,.817,0Z" fill="#90847e" fill-rule="evenodd"/>
        <path id="Trazado_13697" data-name="Trazado 13697" d="M1029.047,2835.063a5.191,5.191,0,0,1-2.544-.609,1.788,1.788,0,0,1-1.055-1.468v.1a1.788,1.788,0,0,0,1.055,1.469,5.629,5.629,0,0,0,5.089,0,1.787,1.787,0,0,0,1.053-1.469v-.1a1.787,1.787,0,0,1-1.053,1.468A5.2,5.2,0,0,1,1029.047,2835.063Z" fill="#bbb1a9" fill-rule="evenodd"/>
        <path id="Trazado_13698" data-name="Trazado 13698" d="M1028.494,2819.255l.107-1.109-.107-.011a3.579,3.579,0,0,1-1.342-.42,1.474,1.474,0,0,1-.76-.88.923.923,0,0,1-.026-.214,1.332,1.332,0,0,1,.786-1.094,3.041,3.041,0,0,1,.622-.269,4.459,4.459,0,0,0-1.271.475,1.55,1.55,0,0,0,0,2.938A4.892,4.892,0,0,0,1028.494,2819.255Z" fill="#f5ece3" fill-rule="evenodd"/>
        <path id="Trazado_13699" data-name="Trazado 13699" d="M1031.592,2823.186a5.621,5.621,0,0,1-5.089,0,1.789,1.789,0,0,1-1.055-1.469v.213a1.79,1.79,0,0,0,1.055,1.469,5.627,5.627,0,0,0,5.089,0,1.789,1.789,0,0,0,1.053-1.469v-.213a1.787,1.787,0,0,1-1.053,1.469Zm-2.545-.236a5.2,5.2,0,0,0,2.545-.609,1.787,1.787,0,0,0,1.053-1.469v.689a1.788,1.788,0,0,1-1.053,1.469,5.629,5.629,0,0,1-5.089,0,1.79,1.79,0,0,1-1.055-1.469v-.689a1.789,1.789,0,0,0,1.055,1.469A5.212,5.212,0,0,0,1029.047,2822.95Z" fill="#e3dad2" fill-rule="evenodd"/>
        <path id="Trazado_13700" data-name="Trazado 13700" d="M1031.592,2825.847a5.627,5.627,0,0,1-5.089,0,1.788,1.788,0,0,1-1.055-1.468v.212a1.79,1.79,0,0,0,1.055,1.469,5.629,5.629,0,0,0,5.089,0,1.789,1.789,0,0,0,1.053-1.469v-.212a1.787,1.787,0,0,1-1.053,1.468Zm-2.545-.237a5.2,5.2,0,0,0,2.545-.608,1.787,1.787,0,0,0,1.053-1.469v.689a1.789,1.789,0,0,1-1.053,1.469,5.627,5.627,0,0,1-5.089,0,1.79,1.79,0,0,1-1.055-1.469v-.689A1.788,1.788,0,0,0,1026.5,2825,5.2,5.2,0,0,0,1029.047,2825.61Z" fill="#e3dad2" fill-rule="evenodd"/>
        <path id="Trazado_13701" data-name="Trazado 13701" d="M1031.592,2828.509a5.629,5.629,0,0,1-5.089,0,1.79,1.79,0,0,1-1.055-1.469v.212a1.79,1.79,0,0,0,1.055,1.469,5.627,5.627,0,0,0,5.089,0,1.789,1.789,0,0,0,1.053-1.469v-.212a1.789,1.789,0,0,1-1.053,1.469Zm-2.545-.238a5.2,5.2,0,0,0,2.545-.608,1.787,1.787,0,0,0,1.053-1.468v.688a1.787,1.787,0,0,1-1.053,1.469,5.629,5.629,0,0,1-5.089,0,1.789,1.789,0,0,1-1.055-1.469v-.688a1.788,1.788,0,0,0,1.055,1.468A5.2,5.2,0,0,0,1029.047,2828.271Z" fill="#e3dad2" fill-rule="evenodd"/>
        <path id="Trazado_13702" data-name="Trazado 13702" d="M1031.592,2831.169a5.627,5.627,0,0,1-5.089,0,1.788,1.788,0,0,1-1.055-1.468v.212a1.789,1.789,0,0,0,1.055,1.469,5.629,5.629,0,0,0,5.089,0,1.787,1.787,0,0,0,1.053-1.469v-.212a1.787,1.787,0,0,1-1.053,1.468Zm-2.545-.236a5.2,5.2,0,0,0,2.545-.609,1.787,1.787,0,0,0,1.053-1.468v.688a1.787,1.787,0,0,1-1.053,1.469,5.627,5.627,0,0,1-5.089,0,1.789,1.789,0,0,1-1.055-1.469v-.688a1.788,1.788,0,0,0,1.055,1.468A5.2,5.2,0,0,0,1029.047,2830.933Z" fill="#e3dad2" fill-rule="evenodd"/>
        <path id="Trazado_13703" data-name="Trazado 13703" d="M1028.494,2823.982v-.212c.183.016.368.025.553.025a5.2,5.2,0,0,0,2.545-.609,1.787,1.787,0,0,0,1.053-1.469v.213a1.789,1.789,0,0,1-1.053,1.469,5.211,5.211,0,0,1-2.545.608c-.185,0-.37-.008-.553-.025Zm0-.368c.183.016.368.024.553.024a5.2,5.2,0,0,0,2.545-.608,1.788,1.788,0,0,0,1.053-1.469v-.689a1.787,1.787,0,0,1-1.053,1.469,5.2,5.2,0,0,1-2.545.609c-.185,0-.37-.009-.553-.025Z" fill="#ccc2ba" fill-rule="evenodd"/>
        <path id="Trazado_13704" data-name="Trazado 13704" d="M1028.494,2826.643v-.212c.183.016.368.024.553.024a5.19,5.19,0,0,0,2.545-.608,1.787,1.787,0,0,0,1.053-1.468v.212a1.789,1.789,0,0,1-1.053,1.469,5.211,5.211,0,0,1-2.545.608c-.185,0-.37-.008-.553-.025Zm0-.369c.183.017.368.025.553.025a5.2,5.2,0,0,0,2.545-.608,1.789,1.789,0,0,0,1.053-1.469v-.689a1.787,1.787,0,0,1-1.053,1.469,5.2,5.2,0,0,1-2.545.608c-.185,0-.37-.008-.553-.024Z" fill="#ccc2ba" fill-rule="evenodd"/>
        <path id="Trazado_13705" data-name="Trazado 13705" d="M1028.494,2829.3v-.212c.183.016.368.025.553.025a5.211,5.211,0,0,0,2.545-.608,1.789,1.789,0,0,0,1.053-1.469v.212a1.789,1.789,0,0,1-1.053,1.469,5.2,5.2,0,0,1-2.545.608c-.185,0-.37-.009-.553-.025Zm0-.368c.183.016.368.024.553.024a5.2,5.2,0,0,0,2.545-.608,1.787,1.787,0,0,0,1.053-1.469v-.688a1.787,1.787,0,0,1-1.053,1.468,5.2,5.2,0,0,1-2.545.608c-.185,0-.37-.008-.553-.024Z" fill="#ccc2ba" fill-rule="evenodd"/>
        <path id="Trazado_13706" data-name="Trazado 13706" d="M1028.494,2831.965v-.212c.183.016.368.024.553.024a5.19,5.19,0,0,0,2.545-.608,1.787,1.787,0,0,0,1.053-1.468v.212a1.787,1.787,0,0,1-1.053,1.469,5.2,5.2,0,0,1-2.545.608c-.185,0-.37-.008-.553-.025Zm0-.368c.183.016.368.024.553.024a5.2,5.2,0,0,0,2.545-.608,1.787,1.787,0,0,0,1.053-1.469v-.688a1.787,1.787,0,0,1-1.053,1.468,5.2,5.2,0,0,1-2.545.609c-.185,0-.37-.009-.553-.025Z" fill="#ccc2ba" fill-rule="evenodd"/>
      </g>
    </g>
    <g id="Grupo_2972" data-name="Grupo 2972">
      <path id="Trazado_13707" data-name="Trazado 13707" d="M1002,2825.641l-10.409,6.01v-5.659l10.409-6.009Z" fill="#00557d" fill-rule="evenodd"/>
      <path id="Trazado_13708" data-name="Trazado 13708" d="M1002,2825.641l6.822,3.939v-5.659l-6.822-3.939Z" fill="#006ea0" fill-rule="evenodd"/>
      <path id="Trazado_13709" data-name="Trazado 13709" d="M1002,2825.641l6.822,3.939-10.408,6.009-6.823-3.939Z" fill="#c40e10" fill-rule="evenodd"/>
      <path id="Trazado_13710" data-name="Trazado 13710" d="M998.414,2835.589l-6.823-3.939v-5.659l6.823,3.939Z" fill="#004774" fill-rule="evenodd"/>
      <g id="Grupo_2971" data-name="Grupo 2971">
        <path id="Trazado_13711" data-name="Trazado 13711" d="M1005.074,2831.533a.638.638,0,0,1,.056.033.453.453,0,0,1,.056.032.443.443,0,0,1,.055.032.582.582,0,0,1,.056.032l.056.032c.019.01.037.021.056.033a.533.533,0,0,1,.055.032.552.552,0,0,1,.056.032.447.447,0,0,1,.055.032.636.636,0,0,1,.056.032.454.454,0,0,1,.056.032c.019.01.037.021.055.032l.056.032a.507.507,0,0,1,.055.033.626.626,0,0,1,.056.031l.056.032a.575.575,0,0,1,.055.033,137.394,137.394,0,0,0,.112.064.619.619,0,0,1,.055.032.727.727,0,0,1,.107.068,1.251,1.251,0,0,1,.37,1.006,3.236,3.236,0,0,1-.37,1.434,2.5,2.5,0,0,1-.893,1.02.785.785,0,0,1-.843.047l-.056-.032c-.019-.01-.037-.021-.055-.032a.638.638,0,0,1-.056-.033.458.458,0,0,1-.056-.032.6.6,0,0,1-.055-.032.628.628,0,0,1-.056-.032.42.42,0,0,1-.055-.032c-.02-.01-.038-.021-.056-.032l-.056-.032-.056-.032-.055-.032a.646.646,0,0,1-.056-.033.611.611,0,0,1-.055-.032.628.628,0,0,1-.056-.032.636.636,0,0,1-.056-.032.6.6,0,0,1-.055-.032l-.056-.032c-.019-.01-.038-.021-.055-.032l-.056-.032c-.019-.01-.038-.021-.055-.032a.644.644,0,0,1-.107-.069,1.249,1.249,0,0,1-.369-1.006,3.229,3.229,0,0,1,.369-1.433,2.49,2.49,0,0,1,.894-1.021A.782.782,0,0,1,1005.074,2831.533Z" fill="#575756" fill-rule="evenodd"/>
        <path id="Trazado_13712" data-name="Trazado 13712" d="M1005.4,2832.254a.765.765,0,0,1,.893-.01,1.251,1.251,0,0,1,.37,1.006,3.236,3.236,0,0,1-.37,1.434,2.5,2.5,0,0,1-.893,1.02.766.766,0,0,1-.893.011,1.247,1.247,0,0,1-.37-1.007,3.221,3.221,0,0,1,.37-1.433A2.491,2.491,0,0,1,1005.4,2832.254Z" fill="#3c3c3b" fill-rule="evenodd"/>
        <path id="Trazado_13713" data-name="Trazado 13713" d="M1005.4,2833.085a.394.394,0,0,1,.463,0,.646.646,0,0,1,.192.521,1.683,1.683,0,0,1-.192.744,1.3,1.3,0,0,1-.463.529.4.4,0,0,1-.463.006.647.647,0,0,1-.192-.522,1.666,1.666,0,0,1,.192-.744A1.284,1.284,0,0,1,1005.4,2833.085Z" fill="#ececec" fill-rule="evenodd"/>
        <path id="Trazado_13714" data-name="Trazado 13714" d="M1005.4,2833.125a.378.378,0,0,1,.442,0,.617.617,0,0,1,.183.5,1.6,1.6,0,0,1-.183.709,1.235,1.235,0,0,1-.442.505.376.376,0,0,1-.442,0,.617.617,0,0,1-.183-.5,1.6,1.6,0,0,1,.183-.709A1.232,1.232,0,0,1,1005.4,2833.125Z" fill="#c6c6c5" fill-rule="evenodd"/>
        <path id="Trazado_13715" data-name="Trazado 13715" d="M1005.347,2833.119a.256.256,0,0,1,.205.051.5.5,0,0,1,.148.4,1.287,1.287,0,0,1-.148.571.986.986,0,0,1-.355.406.3.3,0,0,1-.356,0,.332.332,0,0,1-.093-.121c0-.024,0-.049,0-.074a1.666,1.666,0,0,1,.192-.744A1.348,1.348,0,0,1,1005.347,2833.119Z" fill="#9c9b9b" fill-rule="evenodd"/>
        <path id="Trazado_13716" data-name="Trazado 13716" d="M1005.2,2833.377a.214.214,0,0,1,.25,0,.349.349,0,0,1,.1.283.891.891,0,0,1-.1.4.7.7,0,0,1-.25.287.215.215,0,0,1-.251,0,.351.351,0,0,1-.1-.283.911.911,0,0,1,.1-.4A.7.7,0,0,1,1005.2,2833.377Z" fill="#6f6f6e" fill-rule="evenodd"/>
      </g>
      <path id="Trazado_13717" data-name="Trazado 13717" d="M1008.823,2829.58l-10.408,6.009v-5.659l10.408-6.009Z" fill="#005880" fill-rule="evenodd"/>
      <path id="Trazado_13718" data-name="Trazado 13718" d="M999.686,2833.457l7.865-4.54v-2.864l-6.411,3.7a1.525,1.525,0,0,0-.739.969Z" fill="#9c9b9b" fill-rule="evenodd"/>
      <path id="Trazado_13719" data-name="Trazado 13719" d="M1002,2821.448l5.553,3.207-9.139,5.276-5.553-3.206Z" fill="#f9d474" fill-rule="evenodd"/>
      <path id="Trazado_13720" data-name="Trazado 13720" d="M1008.722,2824.291v-.2l-10.208,5.894v5.427l.134-.077v-5.23Z" fill="#006ea0" fill-rule="evenodd"/>
      <path id="Trazado_13721" data-name="Trazado 13721" d="M1006.938,2826.406v2.385l-5.249,3.031-1.855,1.071-.148.565,2.419-1.4,5.446-3.144v-2.864Z" fill="#b1b1b1" fill-rule="evenodd"/>
      <path id="Trazado_13722" data-name="Trazado 13722" d="M1001.878,2820.3v-.1l-10.165,5.868.109.042Z" fill="#7e93a9" fill-rule="evenodd"/>
      <path id="Trazado_13723" data-name="Trazado 13723" d="M997.516,2838.536l-1.437-1.616,1.76-1.214v2.644Z" fill="#6f6f6e" fill-rule="evenodd"/>
      <path id="Trazado_13724" data-name="Trazado 13724" d="M995.912,2836.823c.019.01.038.02.057.032l.055.032c.019.01.037.021.056.033a.447.447,0,0,1,.055.032.385.385,0,0,1,.055.032.437.437,0,0,1,.057.032c.018.01.037.02.055.032s.038.021.055.032a.645.645,0,0,1,.057.032l.055.032a.647.647,0,0,1,.056.033.533.533,0,0,1,.055.032.458.458,0,0,1,.056.032.546.546,0,0,1,.056.032.619.619,0,0,1,.055.032l.056.032c.019.01.037.021.056.033a.457.457,0,0,1,.055.032.424.424,0,0,1,.056.032.443.443,0,0,1,.055.032.679.679,0,0,1,.107.068,1.25,1.25,0,0,1,.37,1.006,3.239,3.239,0,0,1-.37,1.434,2.5,2.5,0,0,1-.893,1.02.783.783,0,0,1-.843.046.545.545,0,0,1-.056-.032.443.443,0,0,1-.055-.032.458.458,0,0,1-.056-.032l-.056-.032a.567.567,0,0,1-.055-.032.532.532,0,0,1-.056-.032.63.63,0,0,1-.055-.033.392.392,0,0,1-.056-.032.458.458,0,0,1-.056-.032c-.019-.01-.037-.02-.056-.032a.619.619,0,0,1-.055-.032.627.627,0,0,1-.056-.032.612.612,0,0,1-.055-.032l-.056-.032c-.019-.01-.037-.021-.056-.033s-.037-.02-.055-.031-.038-.021-.056-.033a.392.392,0,0,1-.055-.032.628.628,0,0,1-.056-.032c-.019-.01-.037-.02-.056-.032a.638.638,0,0,1-.105-.068,1.246,1.246,0,0,1-.37-1.006,3.216,3.216,0,0,1,.37-1.433,2.493,2.493,0,0,1,.893-1.022A.782.782,0,0,1,995.912,2836.823Z" fill="#575756" fill-rule="evenodd"/>
      <path id="Trazado_13725" data-name="Trazado 13725" d="M996.239,2837.544a.765.765,0,0,1,.893-.01,1.25,1.25,0,0,1,.37,1.006,3.239,3.239,0,0,1-.37,1.434,2.5,2.5,0,0,1-.893,1.02.765.765,0,0,1-.893.01,1.244,1.244,0,0,1-.37-1.006,3.221,3.221,0,0,1,.37-1.433A2.491,2.491,0,0,1,996.239,2837.544Z" fill="#3c3c3b" fill-rule="evenodd"/>
      <path id="Trazado_13726" data-name="Trazado 13726" d="M996.239,2838.374a.4.4,0,0,1,.463-.005.651.651,0,0,1,.192.522,1.676,1.676,0,0,1-.192.743,1.288,1.288,0,0,1-.463.53.4.4,0,0,1-.463,0,.645.645,0,0,1-.192-.522,1.668,1.668,0,0,1,.192-.743A1.287,1.287,0,0,1,996.239,2838.374Z" fill="#ececec" fill-rule="evenodd"/>
      <path id="Trazado_13727" data-name="Trazado 13727" d="M996.239,2838.415a.38.38,0,0,1,.442-.005.619.619,0,0,1,.183.5,1.593,1.593,0,0,1-.183.709,1.224,1.224,0,0,1-.442.505.378.378,0,0,1-.442.006.617.617,0,0,1-.183-.5,1.594,1.594,0,0,1,.183-.709A1.237,1.237,0,0,1,996.239,2838.415Z" fill="#c6c6c5" fill-rule="evenodd"/>
      <path id="Trazado_13728" data-name="Trazado 13728" d="M996.185,2838.408a.265.265,0,0,1,.206.052.5.5,0,0,1,.147.4,1.3,1.3,0,0,1-.147.572,1.007,1.007,0,0,1-.356.406.3.3,0,0,1-.356,0,.328.328,0,0,1-.093-.12c0-.024,0-.049,0-.075a1.668,1.668,0,0,1,.192-.743A1.36,1.36,0,0,1,996.185,2838.408Z" fill="#9c9b9b" fill-rule="evenodd"/>
      <path id="Trazado_13729" data-name="Trazado 13729" d="M996.035,2838.666a.215.215,0,0,1,.251,0,.349.349,0,0,1,.1.283.908.908,0,0,1-.1.4.7.7,0,0,1-.251.287.217.217,0,0,1-.251,0,.353.353,0,0,1-.1-.283.911.911,0,0,1,.1-.4A.707.707,0,0,1,996.035,2838.666Z" fill="#6f6f6e" fill-rule="evenodd"/>
      <path id="Trazado_13730" data-name="Trazado 13730" d="M987.7,2828.9l5.674,3.276,4.464-2.578-5.674-3.276Z" fill="#d9d9d9" fill-rule="evenodd"/>
      <path id="Trazado_13731" data-name="Trazado 13731" d="M993.376,2840.927v-8.751l4.464-2.577v8.75l-.324.187v-1.511c0-.507-.314-.744-.7-.526l-.846.479a3.362,3.362,0,0,0-1.426,2.69v.583Z" fill="#c6c6c5" fill-rule="evenodd"/>
      <path id="Trazado_13732" data-name="Trazado 13732" d="M987.7,2837.651l5.674,3.276v-8.75L987.7,2828.9Z" fill="#b1b1b1" fill-rule="evenodd"/>
      <path id="Trazado_13733" data-name="Trazado 13733" d="M987.7,2836.819l5.674,3.276v-1.3l-5.674-3.276Z" fill="#868686" fill-rule="evenodd"/>
      <path id="Trazado_13734" data-name="Trazado 13734" d="M987.7,2828.9l5.674,3.276v6.019l-5.674-3.276Z" fill="#6f6f6e" fill-rule="evenodd"/>
      <path id="Trazado_13735" data-name="Trazado 13735" d="M997.255,2830.424l-3.88,2.24v5.532l3.88-4.216Z" fill="#575756" fill-rule="evenodd"/>
      <path id="Trazado_13736" data-name="Trazado 13736" d="M987.7,2828.9l5.674,3.276v.487l-5.674-3.276Z" fill="#c6c6c5" fill-rule="evenodd"/>
    </g>
    <path id="Trazado_13737" data-name="Trazado 13737" d="M978.658,2869.975V2910.3c-25.275-14.593-40.909-34.752-40.911-57.019v-40.229C937.792,2835.279,953.417,2855.4,978.658,2869.975Z" fill="#005d23" fill-rule="evenodd"/>
    <path id="Trazado_13738" data-name="Trazado 13738" d="M1077.425,2812.951v37.43L978.658,2910.3v-40.322Z" fill="#003d14" fill-rule="evenodd"/>
  </g>
</svg>
