<svg xmlns="http://www.w3.org/2000/svg" width="139.679" height="154.369" viewBox="0 0 139.679 154.369">
  <g id="Grupo_2941" data-name="Grupo 2941" transform="translate(-913.945 -2490.623)">
    <path id="Trazado_13325" data-name="Trazado 13325" d="M1053.624,2547.646c0-22.269-15.634-42.43-40.911-57.023l-98.768,57.023,98.768,57.024C1037.99,2590.076,1053.624,2569.915,1053.624,2547.646Z" fill="#619425" fill-rule="evenodd"/>
    <g id="Grupo_2927" data-name="Grupo 2927">
      <path id="Trazado_13326" data-name="Trazado 13326" d="M1010.566,2544.537a5.637,5.637,0,0,0-3,.053c.394,2.178,1.869,6.8,1.984,8.062.072.786.556,2.45.776,4.028a23.738,23.738,0,0,1,.072,2.443c.109,1.206,2.027,1.568,2.908,1.6a2.042,2.042,0,0,0,1.915-.861c-.026-.156-.89-.644-1.373-1.329a11.775,11.775,0,0,1-1.368-2.267,13.339,13.339,0,0,1-.177-5.928,36.449,36.449,0,0,0,.466-5.951,2.015,2.015,0,0,0-.36.078.042.042,0,0,1,.011.036C1012.4,2544.653,1011.64,2544.878,1010.566,2544.537Z" fill="#d9d9d9" fill-rule="evenodd"/>
      <path id="Trazado_13327" data-name="Trazado 13327" d="M971.865,2525.1a32.634,32.634,0,0,1-3.292,12.12,15.369,15.369,0,0,0-1.271,5.312,18.226,18.226,0,0,1,1.683-5.181,34.746,34.746,0,0,0,3.423-7.07,21.817,21.817,0,0,0,.58-5.312c0-.8-.945-.6-1.043-.29A1.071,1.071,0,0,0,971.865,2525.1Z" fill="#ececec" fill-rule="evenodd"/>
      <path id="Trazado_13328" data-name="Trazado 13328" d="M1029.65,2519.752c.959.7,1.285-1.922-.095-1.242C1029.192,2518.873,1029.487,2519.633,1029.65,2519.752Z" fill="#3c3c3b" fill-rule="evenodd"/>
      <path id="Trazado_13329" data-name="Trazado 13329" d="M1029.955,2518.513a1.452,1.452,0,0,0-.763.36c-.022.094.061.262.16.252s.229-.14.336-.327A.882.882,0,0,1,1029.955,2518.513Z" fill="#d9d9d9" fill-rule="evenodd"/>
      <path id="Trazado_13330" data-name="Trazado 13330" d="M1026.572,2514.036c1.178-.187,1.571-1.422,1.7-1.814a3.161,3.161,0,0,0-.617-1.833c-.28-.355.636,0,1.366,1.066s.037,2.544-.374,3.067-.954,1.216-1.234,1.253S1026.572,2514.036,1026.572,2514.036Z" fill="#575756" fill-rule="evenodd"/>
      <path id="Trazado_13331" data-name="Trazado 13331" d="M1006.316,2562.059l1.094,1.812s.523,1.122-.449,1.459a3.894,3.894,0,0,1-3.442-.187c-1.646-.748-.86-4.264-.86-4.826s-.112-5.648-.112-6.1-1.385-5.311-1.534-6.621-.112-1.72-2.02-1.309a53.709,53.709,0,0,1-10.062.561,21.98,21.98,0,0,1-4.751-1.5s-1.87,3.516-1.87,5.461,1.2,2.676,2.372,4.194,3.324,3,3.735,4.009c.393.962-3.376.57-4.178-.542-1.211-1.679-3.536-3.864-4.082-4.985-.673-1.383-2.71-3.312-2.86-3.836a17.6,17.6,0,0,1,.153-2.753c-.089-1.712-.029-3.012-1.109-2.161-.86.748-1.737,3.231-2.522,4.017-.587.586.636,7.1,1.482,10.772a10.213,10.213,0,0,0,1.451,2.795c.449.973-2.619.823-3.8-.019-.568-.4-.818-3.786-1.515-7.342-.75-3.83-1.523-7.723-1.737-8.189-.411-.9,1.684-2.768,1.8-3.74s-.71-11.41-.785-13.766a4.5,4.5,0,0,1,.934-3.329c.674-5.611,8.3-5.237,9.277-5.387s8.454,1.272,11.072,1.272,11.222.075,12.569-.823,8.154-.823,8.753-1.571.187-.561-1.253-1.87-1.545-2.582.524-2.937,2.581.056,3.16.561a17.871,17.871,0,0,0,1.553,1.272c.168.075.959-.186,1.256-1.094a3.109,3.109,0,0,1,1.793-2.348c1.2-.448,4.732-.149,5.05-.112s1.253.468,2.132,1.927,2.207,2.88,2.544,3.609-.3,1.927-.318,2.189a4.919,4.919,0,0,0-.075,1.477c.131.225,2.151,3.536,2.357,3.8s1.047.187,1.141,2.189-.244,2.918-3.255,3.273-3.8-.131-3.8-.131a19.024,19.024,0,0,1-4,2.282c-1.4.392-1.328,1.047-1.328,1.047a36.233,36.233,0,0,0-1.87,3.348c-.374.935-.524,4.227-2.694,6.172a46.726,46.726,0,0,1-3.852,3.4,1.979,1.979,0,0,1-1.347.411c-1.268.359-2.836-.991-4.254-1.487l-.673-.187c-1.326-.368-.81,5.39-.908,8.966a20.142,20.142,0,0,0,.683,5.324Z" fill="#ececec" fill-rule="evenodd"/>
      <path id="Trazado_13332" data-name="Trazado 13332" d="M1019.188,2513.912a2.379,2.379,0,0,1,1.164-.9c1.2-.448,4.732-.149,5.05-.112a2.849,2.849,0,0,1,1.489,1.035,4.067,4.067,0,0,1,.014,1.024c-.11.877-.388.27-.276,1.018s-.374,1.122-1.479.724-1.139.024-1.669-.284-.831-.154-1.154-.852-1.272-.149-1.8-.785C1020.133,2514.3,1019.711,2513.866,1019.188,2513.912Z" fill="#ad6454" fill-rule="evenodd"/>
      <path id="Trazado_13333" data-name="Trazado 13333" d="M1030.988,2531.193c-.31.067-.661.125-1.06.172-3.011.355-3.8-.131-3.8-.131a19.024,19.024,0,0,1-4,2.282c-1.4.392-1.328,1.047-1.328,1.047a36.233,36.233,0,0,0-1.87,3.348c-.374.935-.524,4.227-2.694,6.172-.573.514-1.056.958-1.47,1.342h0c.6-1.115,1.26-2.466,1.7-3.447a8.144,8.144,0,0,0,.935-4.3c.075-2.32,1.31-2.469,2.32-3.853s2.842-1.908,3.142-3.1c.163-.654-.979-2.964-.8-2.7C1023.664,2530.289,1028.213,2531.059,1030.988,2531.193Z" fill="#6f625b" fill-rule="evenodd"/>
      <path id="Trazado_13334" data-name="Trazado 13334" d="M976.341,2544.742a6.624,6.624,0,0,0,1.5,2.764c1.159,1.084,4.526,1.795,6.21,1.01s2.506-3.778,2.506-3.778C983.774,2538.806,978.56,2542.381,976.341,2544.742Z" fill="#ececec" fill-rule="evenodd"/>
      <path id="Trazado_13335" data-name="Trazado 13335" d="M976.341,2544.742a6.624,6.624,0,0,0,1.5,2.764c1.159,1.084,4.526,1.795,6.21,1.01a4.884,4.884,0,0,0,2-2.427,32.475,32.475,0,0,1-5.337-3.044,9.351,9.351,0,0,0-1.3-.7A12.608,12.608,0,0,0,976.341,2544.742Z" fill="#f6bdbd" fill-rule="evenodd"/>
      <path id="Trazado_13336" data-name="Trazado 13336" d="M1019.7,2513.626c-1.48-.076-2.287-1.416-2.78-2.788-.524-1.459-.935-2.394-.935-2.394s-.393.392-.019,2.693.748,2.787,1.178,3.18c.372.339,1.007,1.17,1.622,1.211C1019.465,2515.576,1020.42,2513.662,1019.7,2513.626Z" fill="#575756" fill-rule="evenodd"/>
      <path id="Trazado_13337" data-name="Trazado 13337" d="M1022.943,2519.862a1.013,1.013,0,0,0-1.739-.43c-.281.243.019.664.487.991S1022.943,2519.862,1022.943,2519.862Z" fill="#3c3c3b" fill-rule="evenodd"/>
      <path id="Trazado_13338" data-name="Trazado 13338" d="M1016.622,2518.665c-1.272-.543-1.44-1.871-2.3-2.955s-2.022-.465-2.655-.281,1.234,2.6,2.225,3.2A4.06,4.06,0,0,0,1016.622,2518.665Z" fill="#868686" fill-rule="evenodd"/>
      <path id="Trazado_13339" data-name="Trazado 13339" d="M976.287,2544.794a15.9,15.9,0,0,0,3.826-7.332c.337-2.319.424.539.187,2.132a11.784,11.784,0,0,1-1.451,2.578c-.53.832,1.982,6.555,4.591,6.55-3.739.79-5.423-1.066-6-1.672A14.014,14.014,0,0,1,976.287,2544.794Z" fill="#c6c6c5" fill-rule="evenodd"/>
      <path id="Trazado_13340" data-name="Trazado 13340" d="M978.789,2542.71c.175,1.666,2.376,6.016,4.651,6.012h0c-.106.022-.211.042-.314.061a8.132,8.132,0,0,1-4.751-.889,6.549,6.549,0,0,1-.937-.844h0c-.041-.055-.081-.112-.121-.17a9.182,9.182,0,0,1-.529-.97,12.131,12.131,0,0,1-.445-1.167A13.077,13.077,0,0,1,978.789,2542.71Z" fill="#e6abab" fill-rule="evenodd"/>
      <path id="Trazado_13341" data-name="Trazado 13341" d="M1000.851,2546.6c-.463-1.955-1.548-2.928-1.847-3.975s.112,1.085.748,2.412a3.322,3.322,0,0,1,.309,1.1C1000.535,2546.132,1000.741,2546.284,1000.851,2546.6Z" fill="#c6c6c5" fill-rule="evenodd"/>
      <path id="Trazado_13342" data-name="Trazado 13342" d="M1021.995,2519.184a1.446,1.446,0,0,0-.762.36c-.023.094.061.261.159.252s.23-.14.337-.327A.882.882,0,0,1,1021.995,2519.184Z" fill="#d9d9d9" fill-rule="evenodd"/>
      <path id="Trazado_13343" data-name="Trazado 13343" d="M1002.295,2543.587c-2.469-4.115-1.646-4.638-5.537-4.938s-5.835-1.122-6.059-3.591-1.871-3.89,2.544-2.469,4.788-1.87,8.454-.673,4.339-.524,4.937,2.843,1.2,3.591,3.517,4.863,2.543.6,1.122,3.516-6.808-.673-7.332.524S1002.295,2543.587,1002.295,2543.587Z" fill="#ad6454" fill-rule="evenodd"/>
      <path id="Trazado_13344" data-name="Trazado 13344" d="M1027.9,2526.848a14.028,14.028,0,0,0-1.234,3.479c0,.617,1.616.8,3.688.981,2.618-.392,2.917-1.314,2.829-3.216-.094-2-.936-1.927-1.141-2.189C1030.8,2525.464,1028.442,2525.651,1027.9,2526.848Z" fill="#575756" fill-rule="evenodd"/>
      <path id="Trazado_13345" data-name="Trazado 13345" d="M1016.342,2519.385a7.082,7.082,0,0,1-2.776-.528c.06.146-.023.3-.247.575a.989.989,0,0,1-.471.239c.846.211,1.4,1.023,1.923,2.108s1.571,1.159,1.309.374a1.5,1.5,0,0,1,.374-1.908c.674-.6,1.572-1.5,1.235-1.5S1017.053,2519.385,1016.342,2519.385Z" fill="#c6c6c5" fill-rule="evenodd"/>
      <path id="Trazado_13346" data-name="Trazado 13346" d="M977.3,2549.656c.15.524,2.187,2.453,2.86,3.836.546,1.121,2.871,3.306,4.082,4.985.8,1.112,4.571,1.5,4.178.542-.411-1.011-2.533-2.541-3.641-3.894s-2.466-3.054-2.466-4.309a4.045,4.045,0,0,1,.381-1.967,5.8,5.8,0,0,1-4.318-.955h0a3.126,3.126,0,0,1-.532-.388,3.566,3.566,0,0,1-.4-.456A16.209,16.209,0,0,0,977.3,2549.656Z" fill="#d9d9d9" fill-rule="evenodd"/>
      <path id="Trazado_13347" data-name="Trazado 13347" d="M985.537,2533.038c-1.721-3.74.673-1.2-.6-5.76s-.972-3.666-4.863-5.163c0,0-2.863.651-3.006-1.143-2.385.513-5.037,1.766-5.421,4.969a4.5,4.5,0,0,0-.934,3.329c.022.7.11,2.11.22,3.774a10.353,10.353,0,0,1,.987,3.137c.149,1.047,1.87,1.271,2.843-1.721s2.768-3.666,5.536-1.347S987.257,2536.779,985.537,2533.038Z" fill="#ad6454" fill-rule="evenodd"/>
      <path id="Trazado_13348" data-name="Trazado 13348" d="M990.774,2526.3c6.658,2.918,1.2.673,8,1.646s9.2,1.5,9.053-.823-6.134-1.8-4.488-3.442c1.439-1.439,2.993-2.192,3.46-3.258a6.393,6.393,0,0,0-2.237.575c-1.347.9-9.95.823-12.569.823a43.483,43.483,0,0,1-4.879-.509C987.763,2523.707,985.844,2524.144,990.774,2526.3Z" fill="#ad6454" fill-rule="evenodd"/>
      <path id="Trazado_13349" data-name="Trazado 13349" d="M1020.8,2534.563s-.075-.655,1.328-1.047a9.775,9.775,0,0,0,2.074-1.009c-.891-1.88-2.146-4.51-2.146-4.51-.074-.052.968,2.095.812,2.722-.3,1.2-2.132,1.721-3.142,3.1-.072.1-.145.19-.218.277a3.053,3.053,0,0,0-.108.489c-.129.864.184,1.007.274,1.871C1020.208,2535.519,1020.8,2534.563,1020.8,2534.563Z" fill="#ad6454" fill-rule="evenodd"/>
      <path id="Trazado_13350" data-name="Trazado 13350" d="M1019.727,2533.824c1.01-1.384,2.842-1.908,3.142-3.1.156-.627-.886-2.774-.812-2.722a8.862,8.862,0,0,0-1.309-.926,5.381,5.381,0,0,1-1.5-2.057,9.727,9.727,0,0,1,.074,2.693c-.187,1.235.487,1.347.6,4.078.1,2.333-.19,1.635-.416,2.316C1019.582,2534.014,1019.655,2533.922,1019.727,2533.824Z" fill="#ad6454" fill-rule="evenodd"/>
      <path id="Trazado_13351" data-name="Trazado 13351" d="M1030.045,2525.715a4.808,4.808,0,0,1,2,.188c-.206-.261-2.226-3.572-2.357-3.8a4.919,4.919,0,0,1,.075-1.477c.018-.262.654-1.459.318-2.189-.278-.6-1.226-1.669-2.043-2.841a2.669,2.669,0,0,0,.195,1.148c.337.823.636.973.374,1.534s-.9.337-1.534.412-.037,1.571-.074,2.244a2.854,2.854,0,0,0,.86,1.908c.523.635,1.365,1.01,1.477,1.945A1.088,1.088,0,0,0,1030.045,2525.715Z" fill="#c6c6c5" fill-rule="evenodd"/>
      <path id="Trazado_13352" data-name="Trazado 13352" d="M1028.3,2527.118a1.942,1.942,0,0,0-.29.889c-.028.317,1.16.477,1.627.589s.337-.486.028-.851a2.055,2.055,0,0,0-1.029-.683A.535.535,0,0,0,1028.3,2527.118Z" fill="#3c3c3b" fill-rule="evenodd"/>
      <path id="Trazado_13353" data-name="Trazado 13353" d="M967.9,2540.191a2.962,2.962,0,0,1-.189,2.154c-.056.178-.038-.571-.084-.243a2.142,2.142,0,0,0-.075.739c.019.514-.094-.206-.084.346s-.215.018-.243.561-.028.224-.187.626-.15.272-.224.5.056-.271.046-.739-.018-.673-.112-.458.056-.58-.047-.412.178-.57-.009-.336-.206-.187.028-.692.355-1.019.2-.72-.356.327-.056-.15.14-.365.365-.7a3.687,3.687,0,0,1,.416-.59C967.792,2539.913,967.9,2540.191,967.9,2540.191Z" fill="#ad6454" fill-rule="evenodd"/>
      <path id="Trazado_13354" data-name="Trazado 13354" d="M1008.816,2546.3a2.563,2.563,0,0,1-1.115-.753,6.179,6.179,0,0,0-1.131-1.224c-.277-.208-.53.993-.883,2.039a.383.383,0,0,1,.424-.143l.673.187a24.579,24.579,0,0,1,2.244,1.093,2.948,2.948,0,0,0,2.01.394,1.076,1.076,0,0,0,.351-.007,2.751,2.751,0,0,1-2.234-1.231A1.029,1.029,0,0,0,1008.816,2546.3Z" fill="#d9d9d9" fill-rule="evenodd"/>
      <path id="Trazado_13355" data-name="Trazado 13355" d="M1009.9,2520.1c1.938-.009,2.631.361,3.277.892s1.039.3,1.039.3a.263.263,0,0,0,.134-.306,4.8,4.8,0,0,0-.321-.471,3.482,3.482,0,0,1-.4-.425,1.877,1.877,0,0,0-.778-.416A19.484,19.484,0,0,1,1009.9,2520.1Z" fill="#ad6454" fill-rule="evenodd"/>
      <path id="Trazado_13356" data-name="Trazado 13356" d="M993.041,2544.075c-2.724-1.385-7.572-7.065-12.651-7.342a13.067,13.067,0,0,1-.09,2.861,11.784,11.784,0,0,1-1.451,2.578.885.885,0,0,0-.06.538c.2-.129.413-.252.626-.367a9.351,9.351,0,0,1,1.3.7,32.475,32.475,0,0,0,5.337,3.044,14.735,14.735,0,0,0,2.882.762,54.371,54.371,0,0,0,8.4-.316A24.646,24.646,0,0,0,993.041,2544.075Z" fill="#d9d9d9" fill-rule="evenodd"/>
    </g>
    <g id="Grupo_2940" data-name="Grupo 2940">
      <g id="Grupo_2928" data-name="Grupo 2928">
        <path id="Trazado_13357" data-name="Trazado 13357" d="M1018.2,2570.762c.667,0,.876.1.809.956s-.544,1.408-.86,1.39-.769-.512-.893-1.324S1017.532,2570.762,1018.2,2570.762Z" fill="#fff" fill-rule="evenodd"/>
        <path id="Trazado_13358" data-name="Trazado 13358" d="M1018.1,2575.453c-.667,0-.875-.1-.809-.956s.544-1.408.86-1.389.769.51.894,1.323S1018.764,2575.453,1018.1,2575.453Z" fill="#fff" fill-rule="evenodd"/>
        <path id="Trazado_13359" data-name="Trazado 13359" d="M1015.8,2573.056c0-.666.1-.875.956-.809s1.408.545,1.39.861-.511.769-1.323.892S1015.8,2573.723,1015.8,2573.056Z" fill="#fff" fill-rule="evenodd"/>
        <path id="Trazado_13360" data-name="Trazado 13360" d="M1020.494,2573.159c0,.667-.1.875-.956.809s-1.408-.544-1.39-.86.511-.77,1.323-.894S1020.494,2572.492,1020.494,2573.159Z" fill="#fff" fill-rule="evenodd"/>
        <path id="Trazado_13361" data-name="Trazado 13361" d="M1018.148,2574.056a.948.948,0,1,0-.948-.948A.951.951,0,0,0,1018.148,2574.056Z" fill="#f2cd65" fill-rule="evenodd"/>
      </g>
      <g id="Grupo_2929" data-name="Grupo 2929">
        <path id="Trazado_13362" data-name="Trazado 13362" d="M1035.678,2564.795c.667,0,.876.1.809.956s-.544,1.408-.86,1.389-.768-.51-.893-1.323S1035.012,2564.795,1035.678,2564.795Z" fill="#fff" fill-rule="evenodd"/>
        <path id="Trazado_13363" data-name="Trazado 13363" d="M1035.577,2569.486c-.667,0-.876-.1-.809-.956s.544-1.408.859-1.39.769.511.894,1.324S1036.243,2569.486,1035.577,2569.486Z" fill="#fff" fill-rule="evenodd"/>
        <path id="Trazado_13364" data-name="Trazado 13364" d="M1033.281,2567.089c0-.667.1-.875.957-.809s1.408.544,1.389.86-.51.77-1.323.894S1033.281,2567.756,1033.281,2567.089Z" fill="#fff" fill-rule="evenodd"/>
        <path id="Trazado_13365" data-name="Trazado 13365" d="M1037.973,2567.192c0,.667-.1.875-.956.809s-1.408-.544-1.39-.861.512-.769,1.323-.893S1037.973,2566.525,1037.973,2567.192Z" fill="#fff" fill-rule="evenodd"/>
        <path id="Trazado_13366" data-name="Trazado 13366" d="M1035.627,2568.089a.949.949,0,1,0-.948-.949A.951.951,0,0,0,1035.627,2568.089Z" fill="#f2cd65" fill-rule="evenodd"/>
      </g>
      <g id="Grupo_2930" data-name="Grupo 2930">
        <path id="Trazado_13367" data-name="Trazado 13367" d="M994.567,2570.052c.667,0,.875.1.809.957s-.543,1.407-.86,1.389-.769-.511-.893-1.323S993.9,2570.052,994.567,2570.052Z" fill="#fff" fill-rule="evenodd"/>
        <path id="Trazado_13368" data-name="Trazado 13368" d="M994.465,2574.744c-.667,0-.875-.1-.809-.956s.544-1.408.86-1.39.769.511.893,1.323S995.132,2574.744,994.465,2574.744Z" fill="#fff" fill-rule="evenodd"/>
        <path id="Trazado_13369" data-name="Trazado 13369" d="M992.17,2572.347c0-.667.1-.875.957-.809s1.407.544,1.389.86-.511.769-1.323.893S992.17,2573.014,992.17,2572.347Z" fill="#fff" fill-rule="evenodd"/>
        <path id="Trazado_13370" data-name="Trazado 13370" d="M996.862,2572.449c0,.667-.1.876-.957.809s-1.407-.544-1.389-.86.511-.769,1.324-.893S996.862,2571.782,996.862,2572.449Z" fill="#fff" fill-rule="evenodd"/>
        <path id="Trazado_13371" data-name="Trazado 13371" d="M994.516,2573.346a.948.948,0,1,0-.948-.948A.949.949,0,0,0,994.516,2573.346Z" fill="#f2cd65" fill-rule="evenodd"/>
      </g>
      <g id="Grupo_2931" data-name="Grupo 2931">
        <path id="Trazado_13372" data-name="Trazado 13372" d="M1010.021,2591.437c.667,0,.875.1.809.956s-.544,1.408-.86,1.39-.769-.512-.893-1.323S1009.354,2591.437,1010.021,2591.437Z" fill="#fff" fill-rule="evenodd"/>
        <path id="Trazado_13373" data-name="Trazado 13373" d="M1009.919,2596.129c-.667,0-.875-.1-.809-.957s.544-1.408.86-1.389.769.511.893,1.323S1010.585,2596.129,1009.919,2596.129Z" fill="#fff" fill-rule="evenodd"/>
        <path id="Trazado_13374" data-name="Trazado 13374" d="M1007.624,2593.732c0-.667.1-.876.956-.809s1.408.544,1.39.86-.511.768-1.323.893S1007.624,2594.4,1007.624,2593.732Z" fill="#fff" fill-rule="evenodd"/>
        <path id="Trazado_13375" data-name="Trazado 13375" d="M1012.316,2593.834c0,.666-.1.875-.957.808s-1.408-.544-1.389-.859.511-.769,1.323-.894S1012.316,2593.167,1012.316,2593.834Z" fill="#fff" fill-rule="evenodd"/>
        <path id="Trazado_13376" data-name="Trazado 13376" d="M1009.97,2594.731a.948.948,0,1,0-.948-.948A.95.95,0,0,0,1009.97,2594.731Z" fill="#f2cd65" fill-rule="evenodd"/>
      </g>
      <g id="Grupo_2932" data-name="Grupo 2932">
        <path id="Trazado_13377" data-name="Trazado 13377" d="M952.911,2552.889c.667,0,.875.1.809.956s-.544,1.408-.86,1.39-.769-.511-.893-1.323S952.244,2552.889,952.911,2552.889Z" fill="#fff" fill-rule="evenodd"/>
        <path id="Trazado_13378" data-name="Trazado 13378" d="M952.809,2557.581c-.667,0-.876-.1-.809-.957s.544-1.408.86-1.389.769.511.893,1.323S953.475,2557.581,952.809,2557.581Z" fill="#fff" fill-rule="evenodd"/>
        <path id="Trazado_13379" data-name="Trazado 13379" d="M950.514,2555.184c0-.667.1-.876.956-.809s1.408.544,1.39.86-.511.769-1.324.893S950.514,2555.851,950.514,2555.184Z" fill="#fff" fill-rule="evenodd"/>
        <path id="Trazado_13380" data-name="Trazado 13380" d="M955.205,2555.286c0,.667-.1.875-.956.809s-1.408-.544-1.389-.86.511-.769,1.323-.893S955.205,2554.619,955.205,2555.286Z" fill="#fff" fill-rule="evenodd"/>
        <path id="Trazado_13381" data-name="Trazado 13381" d="M952.86,2556.183a.949.949,0,1,0-.949-.948A.95.95,0,0,0,952.86,2556.183Z" fill="#f2cd65" fill-rule="evenodd"/>
      </g>
      <g id="Grupo_2933" data-name="Grupo 2933">
        <path id="Trazado_13382" data-name="Trazado 13382" d="M961.766,2530.983c.667,0,.875.1.809.956s-.544,1.408-.86,1.39-.77-.511-.894-1.324S961.1,2530.983,961.766,2530.983Z" fill="#fff" fill-rule="evenodd"/>
        <path id="Trazado_13383" data-name="Trazado 13383" d="M961.664,2535.675c-.667,0-.875-.1-.809-.957s.544-1.407.86-1.389.769.511.893,1.323S962.331,2535.675,961.664,2535.675Z" fill="#fff" fill-rule="evenodd"/>
        <path id="Trazado_13384" data-name="Trazado 13384" d="M959.369,2533.278c0-.667.1-.875.956-.809s1.408.544,1.39.86-.511.769-1.323.893S959.369,2533.945,959.369,2533.278Z" fill="#fff" fill-rule="evenodd"/>
        <path id="Trazado_13385" data-name="Trazado 13385" d="M964.061,2533.38c0,.667-.1.875-.957.809s-1.408-.544-1.389-.86.511-.769,1.323-.893S964.061,2532.713,964.061,2533.38Z" fill="#fff" fill-rule="evenodd"/>
        <path id="Trazado_13386" data-name="Trazado 13386" d="M961.715,2534.277a.949.949,0,1,0-.948-.948A.95.95,0,0,0,961.715,2534.277Z" fill="#f2cd65" fill-rule="evenodd"/>
      </g>
      <g id="Grupo_2934" data-name="Grupo 2934">
        <path id="Trazado_13387" data-name="Trazado 13387" d="M931.391,2543.487c.667,0,.876.1.809.957s-.544,1.408-.86,1.389-.769-.511-.893-1.323S930.725,2543.487,931.391,2543.487Z" fill="#fff" fill-rule="evenodd"/>
        <path id="Trazado_13388" data-name="Trazado 13388" d="M931.289,2548.179c-.667,0-.875-.1-.809-.956s.544-1.408.86-1.39.769.511.893,1.324S931.956,2548.179,931.289,2548.179Z" fill="#fff" fill-rule="evenodd"/>
        <path id="Trazado_13389" data-name="Trazado 13389" d="M928.995,2545.782c0-.667.1-.875.956-.809s1.408.544,1.389.86-.511.769-1.323.894S928.995,2546.449,928.995,2545.782Z" fill="#fff" fill-rule="evenodd"/>
        <path id="Trazado_13390" data-name="Trazado 13390" d="M933.686,2545.884c0,.667-.1.875-.956.809s-1.408-.544-1.39-.86.511-.769,1.324-.893S933.686,2545.217,933.686,2545.884Z" fill="#fff" fill-rule="evenodd"/>
        <path id="Trazado_13391" data-name="Trazado 13391" d="M931.34,2546.782a.948.948,0,1,0-.948-.949A.952.952,0,0,0,931.34,2546.782Z" fill="#f2cd65" fill-rule="evenodd"/>
      </g>
      <g id="Grupo_2935" data-name="Grupo 2935">
        <path id="Trazado_13392" data-name="Trazado 13392" d="M990.98,2510.713c.667,0,.875.1.809.957s-.544,1.407-.86,1.389-.769-.511-.893-1.323S990.313,2510.713,990.98,2510.713Z" fill="#fff" fill-rule="evenodd"/>
        <path id="Trazado_13393" data-name="Trazado 13393" d="M990.878,2515.405c-.667,0-.875-.1-.809-.957s.544-1.407.86-1.389.769.511.893,1.323S991.545,2515.405,990.878,2515.405Z" fill="#fff" fill-rule="evenodd"/>
        <path id="Trazado_13394" data-name="Trazado 13394" d="M988.583,2513.008c0-.667.1-.875.956-.809s1.408.544,1.39.86-.511.769-1.323.893S988.583,2513.675,988.583,2513.008Z" fill="#fff" fill-rule="evenodd"/>
        <path id="Trazado_13395" data-name="Trazado 13395" d="M993.275,2513.11c0,.667-.1.875-.957.809s-1.408-.544-1.389-.86.511-.769,1.323-.893S993.275,2512.443,993.275,2513.11Z" fill="#fff" fill-rule="evenodd"/>
        <path id="Trazado_13396" data-name="Trazado 13396" d="M990.929,2514.007a.948.948,0,1,0-.948-.948A.95.95,0,0,0,990.929,2514.007Z" fill="#f2cd65" fill-rule="evenodd"/>
      </g>
      <g id="Grupo_2936" data-name="Grupo 2936">
        <path id="Trazado_13397" data-name="Trazado 13397" d="M1021.511,2502.256c.666,0,.875.1.809.956s-.545,1.408-.86,1.389-.769-.51-.894-1.323S1020.844,2502.256,1021.511,2502.256Z" fill="#fff" fill-rule="evenodd"/>
        <path id="Trazado_13398" data-name="Trazado 13398" d="M1021.409,2506.947c-.667,0-.876-.1-.809-.956s.544-1.408.86-1.39.769.512.893,1.324S1022.076,2506.947,1021.409,2506.947Z" fill="#fff" fill-rule="evenodd"/>
        <path id="Trazado_13399" data-name="Trazado 13399" d="M1019.114,2504.55c0-.667.1-.875.956-.809s1.408.544,1.39.86-.511.769-1.323.894S1019.114,2505.217,1019.114,2504.55Z" fill="#fff" fill-rule="evenodd"/>
        <path id="Trazado_13400" data-name="Trazado 13400" d="M1023.806,2504.652c0,.667-.1.875-.957.809s-1.408-.544-1.389-.86.511-.769,1.323-.893S1023.806,2503.985,1023.806,2504.652Z" fill="#fff" fill-rule="evenodd"/>
        <path id="Trazado_13401" data-name="Trazado 13401" d="M1021.46,2505.55a.948.948,0,1,0-.949-.949A.95.95,0,0,0,1021.46,2505.55Z" fill="#f2cd65" fill-rule="evenodd"/>
      </g>
      <g id="Grupo_2937" data-name="Grupo 2937">
        <path id="Trazado_13402" data-name="Trazado 13402" d="M970.3,2568.219c.667,0,.875.1.809.956s-.544,1.408-.86,1.39-.77-.511-.894-1.324S969.63,2568.219,970.3,2568.219Z" fill="#fff" fill-rule="evenodd"/>
        <path id="Trazado_13403" data-name="Trazado 13403" d="M970.2,2572.911c-.667,0-.875-.1-.809-.957s.544-1.407.86-1.389.769.511.893,1.323S970.862,2572.911,970.2,2572.911Z" fill="#fff" fill-rule="evenodd"/>
        <path id="Trazado_13404" data-name="Trazado 13404" d="M967.9,2570.514c0-.667.1-.876.956-.809s1.408.544,1.39.86-.511.769-1.323.893S967.9,2571.181,967.9,2570.514Z" fill="#fff" fill-rule="evenodd"/>
        <path id="Trazado_13405" data-name="Trazado 13405" d="M972.592,2570.616c0,.667-.1.875-.957.809s-1.407-.544-1.389-.86.511-.769,1.323-.893S972.592,2569.949,972.592,2570.616Z" fill="#fff" fill-rule="evenodd"/>
        <path id="Trazado_13406" data-name="Trazado 13406" d="M970.246,2571.513a.948.948,0,1,0-.949-.948A.95.95,0,0,0,970.246,2571.513Z" fill="#f2cd65" fill-rule="evenodd"/>
      </g>
      <g id="Grupo_2938" data-name="Grupo 2938">
        <path id="Trazado_13407" data-name="Trazado 13407" d="M1027.264,2540.907c.667,0,.875.1.809.956s-.544,1.408-.86,1.39-.769-.512-.893-1.323S1026.6,2540.907,1027.264,2540.907Z" fill="#fff" fill-rule="evenodd"/>
        <path id="Trazado_13408" data-name="Trazado 13408" d="M1027.162,2545.6c-.667,0-.875-.1-.809-.957s.544-1.408.86-1.389.77.511.893,1.323S1027.829,2545.6,1027.162,2545.6Z" fill="#fff" fill-rule="evenodd"/>
        <path id="Trazado_13409" data-name="Trazado 13409" d="M1024.867,2543.2c0-.667.1-.876.957-.809s1.407.543,1.389.86-.511.769-1.323.893S1024.867,2543.869,1024.867,2543.2Z" fill="#fff" fill-rule="evenodd"/>
        <path id="Trazado_13410" data-name="Trazado 13410" d="M1029.559,2543.3c0,.666-.1.875-.957.809s-1.407-.544-1.389-.86.511-.77,1.323-.894S1029.559,2542.637,1029.559,2543.3Z" fill="#fff" fill-rule="evenodd"/>
        <path id="Trazado_13411" data-name="Trazado 13411" d="M1027.213,2544.2a.948.948,0,1,0-.948-.948A.949.949,0,0,0,1027.213,2544.2Z" fill="#f2cd65" fill-rule="evenodd"/>
      </g>
      <g id="Grupo_2939" data-name="Grupo 2939">
        <path id="Trazado_13412" data-name="Trazado 13412" d="M1045.65,2537.564c.666,0,.875.1.809.956s-.545,1.408-.86,1.39-.77-.511-.894-1.324S1044.983,2537.564,1045.65,2537.564Z" fill="#fff" fill-rule="evenodd"/>
        <path id="Trazado_13413" data-name="Trazado 13413" d="M1045.548,2542.256c-.667,0-.876-.1-.809-.957s.543-1.408.86-1.389.769.511.893,1.323S1046.215,2542.256,1045.548,2542.256Z" fill="#fff" fill-rule="evenodd"/>
        <path id="Trazado_13414" data-name="Trazado 13414" d="M1043.253,2539.859c0-.667.1-.875.956-.809s1.408.544,1.39.86-.512.769-1.323.893S1043.253,2540.526,1043.253,2539.859Z" fill="#fff" fill-rule="evenodd"/>
        <path id="Trazado_13415" data-name="Trazado 13415" d="M1047.945,2539.961c0,.667-.1.875-.957.809s-1.408-.544-1.389-.86.511-.769,1.323-.893S1047.945,2539.294,1047.945,2539.961Z" fill="#fff" fill-rule="evenodd"/>
        <path id="Trazado_13416" data-name="Trazado 13416" d="M1045.6,2540.858a.948.948,0,1,0-.949-.948A.95.95,0,0,0,1045.6,2540.858Z" fill="#f2cd65" fill-rule="evenodd"/>
      </g>
    </g>
    <path id="Trazado_13417" data-name="Trazado 13417" d="M1012.713,2604.67v40.322c25.275-14.593,40.909-34.752,40.911-57.019v-40.229C1053.579,2569.974,1037.953,2590.1,1012.713,2604.67Z" fill="#517c1f" fill-rule="evenodd"/>
    <path id="Trazado_13418" data-name="Trazado 13418" d="M1012.713,2604.67l-98.768-57.024,1.09,37.029,97.677,60.316Z" fill="#334f0c" fill-rule="evenodd"/>
  </g>
</svg>
